<svg id="Grupo_975084" data-name="Grupo 975084" xmlns="http://www.w3.org/2000/svg" xmlns:xlink="http://www.w3.org/1999/xlink" width="162.667" height="162.075" viewBox="0 0 162.667 162.075">
  <defs>
    <clipPath id="clip-path">
      <rect id="Rectángulo_349247" data-name="Rectángulo 349247" width="162.667" height="162.076" fill="none"/>
    </clipPath>
  </defs>
  <g id="Grupo_975082" data-name="Grupo 975082" clip-path="url(#clip-path)">
    <path id="Trazado_705828" data-name="Trazado 705828" d="M173.978,104.521a67.833,67.833,0,1,0-67.833,67.833,67.833,67.833,0,0,0,67.833-67.833" transform="translate(-13.969 -13.377)" fill="#abffff"/>
    <path id="Trazado_705829" data-name="Trazado 705829" d="M163,40.836s42.17,12.049,47.442,47.065c0,0-16.191,9.036-24.85,5.271-1.507-1.506-9.038-18.073-13.555-14.308s-9.414,14.684-9.414,14.684-4.518,3.765-7.907-1.506l-6.4-12.426S144.169,69.452,163,64.934c0,0,7.153-6.025,1.882-12.426S163,40.836,163,40.836" transform="translate(-53.936 -14.889)" fill="#03a4a4"/>
    <path id="Trazado_705830" data-name="Trazado 705830" d="M105,202s-36.146,2.259-57.608-32.758c0,0-10.919-15.437-8.66-42.17l15.814,1.883s-5.272,21.085,1.883,21.462c0,0,16.567-4.9,16.943-25.98,0,0,7.531-12.426,15.814-1.883,0,0,7.531,12.049-7.531,23.345a9.254,9.254,0,0,0,5.648,6.777c4.895,1.883,7.531,11.673,2.636,24.85,0,0-9.036,12.049,15.061,24.474" transform="translate(-14.008 -43.136)" fill="#03a4a4"/>
    <path id="Trazado_705831" data-name="Trazado 705831" d="M50.155,129.611c-.968-.664-8.077-1.42-10.447-1.108-.06.752-.15,1.527-.179,2.306a64.571,64.571,0,0,0,3.984,25.534,61.563,61.563,0,0,0,12.054,20.012c1.014,1.112,2.008,2.245,3.075,3.306a64.151,64.151,0,0,0,29.393,16.748,6.61,6.61,0,0,1,1.553.567,2.575,2.575,0,0,1,1.154,3.076,2.609,2.609,0,0,1-2.847,1.777,21.845,21.845,0,0,1-2.685-.67,72.993,72.993,0,0,1-20.325-9.46,70.407,70.407,0,0,1-29.493-44.849,67.8,67.8,0,0,1-1.367-12.722,78.646,78.646,0,0,1,.593-8.59,2.455,2.455,0,0,1,2.489-2.43,28.318,28.318,0,0,1,3.88-.135,33.309,33.309,0,0,1,11.021,1.564,12.307,12.307,0,0,1,2.618,1.285,3.569,3.569,0,0,1,.967,5.323c-2.837,3.62-2.4,7.569-1.4,11.6a7.042,7.042,0,0,0,1,1.869,1.364,1.364,0,0,0,1.869.518,5.344,5.344,0,0,0,1.112-.6,32.343,32.343,0,0,0,9.636-10.666,13.96,13.96,0,0,0,1.882-7.654,18.212,18.212,0,0,0-.536-2.869,5.8,5.8,0,0,1,2.424-6.454,12.426,12.426,0,0,1,8.785-2.262,11.521,11.521,0,0,1,6.578,2.467,10.022,10.022,0,0,1,3.787,6.978c.351,3.925,0,7.774-2,11.265a19.68,19.68,0,0,1-2.775,3.537,10.477,10.477,0,0,0-2.678,5.114c-.316,1.5-.107,2.13,1.2,2.932A23.986,23.986,0,0,1,89.76,151.2a15.893,15.893,0,0,1,4.028,12.417A31,31,0,0,1,91,174.356c-2.453,5.349-1.4,10.055,2.269,14.379a47.215,47.215,0,0,0,11.64,9.458,2.606,2.606,0,0,0,1.367.259,63.879,63.879,0,0,0,18.307-3.1,64.671,64.671,0,0,0,29.446-19.6A63.569,63.569,0,0,0,168.6,145.28a66.806,66.806,0,0,0,.6-19.23c-.056-.524-.116-1.049-.152-1.575a2.62,2.62,0,0,1,5.145-.9,41.763,41.763,0,0,1,.639,4.7,62.373,62.373,0,0,1-.327,13.9,71.333,71.333,0,0,1-3.833,15.547A70.068,70.068,0,0,1,144,191.656a69.2,69.2,0,0,1-26.938,11.014,58.675,58.675,0,0,1-11.986,1.165,3.956,3.956,0,0,1-1.885-.477c-4.415-2.674-8.752-5.47-12.318-9.261a24.041,24.041,0,0,1-6.088-9.871,15.576,15.576,0,0,1,.571-9.995c.975-2.582,1.915-5.189,2.66-7.843a14.833,14.833,0,0,0,.4-6.271c-.508-3.348-2.522-5.668-5.076-7.637-.689-.531-1.458-.957-2.172-1.456a7.034,7.034,0,0,1-3.124-7.975A15.763,15.763,0,0,1,82.5,134.74a9.731,9.731,0,0,0,2.918-7.2,19.7,19.7,0,0,0-.017-2.847c-.294-2.534-1.486-3.842-4.021-4.456a8.78,8.78,0,0,0-5.82.451c-1.278.578-1.429.9-1.05,2.2a16.7,16.7,0,0,1-.771,10.838,30.506,30.506,0,0,1-9.635,12.83,25.8,25.8,0,0,1-4.808,3.3,6.328,6.328,0,0,1-8.747-2.66,17.585,17.585,0,0,1-.59-17.183c.066-.137.134-.274.2-.4" transform="translate(-12.406 -41.771)" fill="#161615"/>
    <path id="Trazado_705832" data-name="Trazado 705832" d="M136.626,39.336a67.973,67.973,0,0,0-15.621,1.71,5.529,5.529,0,0,1-1.876.157,2.607,2.607,0,0,1-2.114-2.367,2.505,2.505,0,0,1,1.7-2.585,42.575,42.575,0,0,1,4.784-1.09A64.661,64.661,0,0,1,138.5,34a76.014,76.014,0,0,1,13.148,2.026c1.819.454,2.477,1.35,2.332,3.193-.13,1.64-.308,3.268.49,4.8a28.443,28.443,0,0,0,1.381,2.488,8.4,8.4,0,0,1,1.431,5.242,34.647,34.647,0,0,1-1.55,9.962,13.185,13.185,0,0,1-1.394,2.734,5.241,5.241,0,0,1-4.014,2.374,14.265,14.265,0,0,0-9.606,5.588,3.38,3.38,0,0,0-.451,4.051c1.979,3.544,3.944,7.1,5.945,10.627a16.288,16.288,0,0,0,1.519,2.215c.63.776.867.8,1.5.059a18.6,18.6,0,0,0,2.221-2.967c1.513-2.716,2.872-5.516,4.361-8.245a22.541,22.541,0,0,1,1.992-2.944,5.025,5.025,0,0,1,5.492-1.876,9.6,9.6,0,0,1,6.328,4.276c1.422,2.242,2.589,4.645,3.863,6.98a14.141,14.141,0,0,1,.64,1.271,3.554,3.554,0,0,0,3.669,2.3,60.971,60.971,0,0,0,18.176-2.89c1.05-.329,1.01-.348.668-1.442a61.71,61.71,0,0,0-4.746-10.762,62.679,62.679,0,0,0-17.441-20.257A68.9,68.9,0,0,0,160.016,44.3a6.42,6.42,0,0,1-1.051-.548A2.523,2.523,0,0,1,158,40.686,2.566,2.566,0,0,1,160.825,39a6.691,6.691,0,0,1,1.5.474A71.551,71.551,0,0,1,177.9,48.691a70.087,70.087,0,0,1,20.813,26.04,58.086,58.086,0,0,1,3.912,10.586c.506,1.957-.011,3.055-1.913,3.822a60.9,60.9,0,0,1-12.67,3.434,48.414,48.414,0,0,1-11.369.824c-2.5-.166-4.652-.989-6.006-3.139-1.287-2.045-2.345-4.232-3.526-6.345a24.875,24.875,0,0,0-2.108-3.512,9.456,9.456,0,0,0-2.329-1.688.789.789,0,0,0-1.2.354c-.564.952-1.142,1.9-1.641,2.885a66.013,66.013,0,0,1-5.271,9.363,10.611,10.611,0,0,1-3.337,3.106,5.135,5.135,0,0,1-6.5-.69,17.035,17.035,0,0,1-2.834-3.584c-2.235-3.794-4.4-7.628-6.471-11.515-1.764-3.317-1.129-6.537,1.033-9.428a18.138,18.138,0,0,1,12.549-7.531,1.662,1.662,0,0,0,1.52-1.134,21.056,21.056,0,0,0,1.182-6.026c.005-.052,0-.106.008-.158a9.11,9.11,0,0,0-1.574-7.165,10.532,10.532,0,0,1-1.728-6,.8.8,0,0,0-.533-.557c-2.007-.33-4.016-.663-6.037-.887-1.969-.219-3.953-.312-5.255-.41" transform="translate(-42.661 -12.363)" fill="#161615"/>
    <path id="Trazado_705833" data-name="Trazado 705833" d="M16.416,40.48H10.761c-2.435,0-4.871.019-7.306-.014a5.762,5.762,0,0,1-1.78-.3A2.676,2.676,0,0,1,0,37.692a2.633,2.633,0,0,1,1.885-2.4,7.361,7.361,0,0,1,1.8-.191c4-.013,8,0,11.992,0,.234,0,.467-.022.742-.035a20.684,20.684,0,0,1,4.016-9.861,20.533,20.533,0,0,1,13.789-8.639c.809-.124,1.045-.426,1.033-1.262-.055-3.905-.024-7.811-.024-11.716,0-.211,0-.422.007-.633A2.773,2.773,0,0,1,37.921,0a2.841,2.841,0,0,1,2.7,2.958c.032,1.556.008,3.113.008,4.671q0,3.918,0,7.837v.674A54.781,54.781,0,0,1,47.1,18.332,21.135,21.135,0,0,1,59.218,34.313c.1.557.241.806.881.8,3.865-.034,7.73-.02,11.6-.021.556,0,1.114-.029,1.667.015A2.638,2.638,0,0,1,75.814,37.5a2.6,2.6,0,0,1-1.759,2.711,5.239,5.239,0,0,1-1.629.259c-4.024.021-8.048.011-12.072.011h-.93c-1.9,10.577-8.352,16.612-18.795,18.777v.8c0,4.064.006,8.128-.008,12.192a5.16,5.16,0,0,1-.182,1.4A2.637,2.637,0,0,1,37.88,75.53a2.57,2.57,0,0,1-2.5-2.045,7.9,7.9,0,0,1-.138-1.649c-.01-3.958-.019-7.917.011-11.875,0-.592-.152-.837-.747-.937A21.633,21.633,0,0,1,16.662,41.658c-.078-.379-.158-.758-.246-1.178M37.852,54A16.206,16.206,0,1,0,21.628,37.576,16.318,16.318,0,0,0,37.852,54" transform="translate(0 0)" fill="#161615"/>
    <path id="Trazado_705834" data-name="Trazado 705834" d="M181.171,171.781a10.525,10.525,0,0,1-7.451-2.6c-2.755-2.4-6.093-3.868-9.35-5.449a13.191,13.191,0,0,1-2.585-1.515,4.929,4.929,0,0,1,.211-7.965,7.177,7.177,0,0,1,7.146-.979,2.251,2.251,0,0,0,2.921-.743q1.571-1.834,3.246-3.579a8.447,8.447,0,0,1,5.3-2.539c2.056-.255,4.05-.976,6.085-1.43a16.092,16.092,0,0,1,8.472-.072c2.991.946,5.217,2.766,5.942,5.985a4.126,4.126,0,0,1-.712,3.317,42.768,42.768,0,0,1-3.087,3.688c-.721.806-1.623,1.465-2.268,2.32a15.417,15.417,0,0,0-2.335,3.718c-2.005,5.429-6.653,7.739-11.535,7.843m-15.458-13.367c.768.391,1.435.751,2.12,1.076a37.47,37.47,0,0,1,8.982,5.445,5.97,5.97,0,0,0,5.191,1.487c2.467-.381,4.554-1.358,5.481-3.838a20.905,20.905,0,0,1,5.251-7.624c.907-.885,1.784-1.8,2.681-2.7.424-.424.445-.866-.051-1.2a7.789,7.789,0,0,0-1.979-1.095,10.157,10.157,0,0,0-5.1.087c-2.216.488-4.39,1.206-6.625,1.561a5.531,5.531,0,0,0-3.6,2.04c-.961,1.157-1.935,2.305-2.954,3.412a6.329,6.329,0,0,1-3.535,1.977,6.534,6.534,0,0,1-3.554-.518,2.681,2.681,0,0,0-2.3-.118" transform="translate(-58.288 -52.639)" fill="#161615"/>
    <path id="Trazado_705835" data-name="Trazado 705835" d="M141.183,223.092a8.536,8.536,0,0,1-5.658-2.153,5.8,5.8,0,0,1-1.512-7.173,13.442,13.442,0,0,1,5.444-6.409,10.187,10.187,0,0,1,2.631-1.035,3.364,3.364,0,0,1,3.192.766,13.4,13.4,0,0,1,4.542,8.188,6.073,6.073,0,0,1-3.32,6.526,10.115,10.115,0,0,1-5.318,1.29m.344-5.314a18.729,18.729,0,0,0,2.091-.5c.9-.323,1.187-.758.86-1.653a24.987,24.987,0,0,0-1.658-3.373.8.8,0,0,0-.761-.147,8.1,8.1,0,0,0-3.2,3.918c-.206.57-.076,1.007.522,1.193.7.216,1.415.375,2.147.564" transform="translate(-48.634 -75.185)" fill="#161615"/>
    <path id="Trazado_705836" data-name="Trazado 705836" d="M95,31.347a2.651,2.651,0,0,1-4.892,1.427,16.4,16.4,0,0,1-.815-1.709,27.587,27.587,0,0,0-13.488-13.58c-.543-.271-1.12-.479-1.641-.783a2.537,2.537,0,0,1-1.1-3.277,2.579,2.579,0,0,1,3.217-1.439,27.214,27.214,0,0,1,8.487,4.824,33.968,33.968,0,0,1,9.81,13.006,7.906,7.906,0,0,1,.368,1.041,2.316,2.316,0,0,1,.05.491" transform="translate(-26.56 -4.32)" fill="#161615"/>
    <path id="Trazado_705837" data-name="Trazado 705837" d="M31.288,94.519a10.644,10.644,0,0,1-1.215-.322,29.838,29.838,0,0,1-10.953-7.241,34.362,34.362,0,0,1-6.706-10,9.621,9.621,0,0,1-.459-1.261,2.623,2.623,0,0,1,4.613-2.261,6,6,0,0,1,.68,1.243A27.7,27.7,0,0,0,31.861,89.25a4.031,4.031,0,0,1,1.767,1.465,2.567,2.567,0,0,1-2.339,3.8" transform="translate(-4.324 -26.399)" fill="#161615"/>
    <path id="Trazado_705838" data-name="Trazado 705838" d="M11.911,30.823a13.68,13.68,0,0,1,.47-1.374A31.609,31.609,0,0,1,24.719,14.867a48.818,48.818,0,0,1,5.859-2.928,2.456,2.456,0,0,1,2.83.9,2.417,2.417,0,0,1,.149,2.88,4.582,4.582,0,0,1-1.639,1.3A30.331,30.331,0,0,0,23.9,22.208a28.406,28.406,0,0,0-6.762,9.562c-.757,1.753-2.186,2.469-3.639,1.85a2.783,2.783,0,0,1-1.591-2.8" transform="translate(-4.342 -4.293)" fill="#161615"/>
    <path id="Trazado_705839" data-name="Trazado 705839" d="M75.71,94.347a2.687,2.687,0,0,1-2.777-1.688,2.424,2.424,0,0,1,.749-2.853,8.278,8.278,0,0,1,1.588-.869,27.76,27.76,0,0,0,14.3-14.452,5.108,5.108,0,0,1,1.376-1.859,2.292,2.292,0,0,1,2.874.048,2.451,2.451,0,0,1,.985,2.714,24.766,24.766,0,0,1-3.678,7.222A32.852,32.852,0,0,1,77.26,93.817a15.788,15.788,0,0,1-1.55.531" transform="translate(-26.526 -26.304)" fill="#161615"/>
    <path id="Trazado_705840" data-name="Trazado 705840" d="M50.263,66.391A16.319,16.319,0,0,1,34.039,49.964,16.294,16.294,0,1,1,50.263,66.391m.107-5.435c5.768-.027,10.8-4.967,10.78-10.585A10.8,10.8,0,1,0,50.37,60.956" transform="translate(-12.411 -12.388)" fill="#fff"/>
    <path id="Trazado_705841" data-name="Trazado 705841" d="M169.071,161.463a2.681,2.681,0,0,1,2.3.118,6.534,6.534,0,0,0,3.554.518,6.329,6.329,0,0,0,3.535-1.977c1.019-1.107,1.993-2.255,2.954-3.412a5.531,5.531,0,0,1,3.6-2.04c2.235-.355,4.409-1.073,6.625-1.561a10.157,10.157,0,0,1,5.1-.087,7.789,7.789,0,0,1,1.979,1.095c.5.33.476.771.051,1.2-.9.9-1.774,1.811-2.681,2.7a20.905,20.905,0,0,0-5.251,7.624c-.926,2.48-3.014,3.457-5.481,3.838a5.97,5.97,0,0,1-5.191-1.487,37.471,37.471,0,0,0-8.982-5.445c-.685-.325-1.353-.685-2.12-1.076" transform="translate(-61.646 -55.688)" fill="#03a4a4"/>
    <path id="Trazado_705842" data-name="Trazado 705842" d="M144.616,221.138c-.732-.189-1.449-.348-2.147-.564-.6-.186-.728-.623-.522-1.193a8.1,8.1,0,0,1,3.2-3.918.8.8,0,0,1,.761.147,24.983,24.983,0,0,1,1.658,3.373c.327.9.037,1.33-.86,1.653a18.728,18.728,0,0,1-2.091.5" transform="translate(-51.723 -78.545)" fill="#03a4a4"/>
    <path id="Trazado_705843" data-name="Trazado 705843" d="M53.528,64.074A10.707,10.707,0,0,1,42.7,53.289a10.8,10.8,0,1,1,21.607.2c.02,5.618-5.012,10.559-10.78,10.585m.028-5.374a5.286,5.286,0,0,0,5.388-5.422,5.546,5.546,0,0,0-5.493-5.409,5.363,5.363,0,0,0-5.4,5.453A5.507,5.507,0,0,0,53.556,58.7" transform="translate(-15.569 -15.506)" fill="#161615"/>
    <path id="Trazado_705844" data-name="Trazado 705844" d="M56.625,61.766a5.507,5.507,0,0,1-5.507-5.378,5.363,5.363,0,0,1,5.4-5.453,5.546,5.546,0,0,1,5.493,5.409,5.286,5.286,0,0,1-5.388,5.422" transform="translate(-18.638 -18.572)" fill="#ffc403"/>
  </g>
</svg>
