<svg id="Grupo_975110" data-name="Grupo 975110" xmlns="http://www.w3.org/2000/svg" xmlns:xlink="http://www.w3.org/1999/xlink" width="157.749" height="157.734" viewBox="0 0 157.749 157.734">
  <defs>
    <clipPath id="clip-path">
      <rect id="Rectángulo_349270" data-name="Rectángulo 349270" width="157.749" height="157.734" fill="none"/>
    </clipPath>
  </defs>
  <g id="Grupo_975109" data-name="Grupo 975109" clip-path="url(#clip-path)">
    <path id="Trazado_705945" data-name="Trazado 705945" d="M15.176,76.39c.431-3.172.711-6.293,1.3-9.357a59.326,59.326,0,0,1,8.14-21.107.993.993,0,0,0-.058-1.406,17.439,17.439,0,0,1-4.232-11.3,17.982,17.982,0,0,1,11.509-16.7,17.531,17.531,0,0,1,10.887-.6A16.731,16.731,0,0,1,51.068,20.9a.911.911,0,0,0,1.28.246A65.812,65.812,0,0,1,68.79,16.2a72.937,72.937,0,0,1,11.118-.888,1.247,1.247,0,0,0,.885-.522A30.391,30.391,0,0,1,102.075.462,27.522,27.522,0,0,1,116.628,1.71c11.425,4.129,18.089,12.331,20.315,24.191,1.312,6.992-.139,13.55-3.374,19.792a1.256,1.256,0,0,0,.077,1.024,66.573,66.573,0,0,1,6.717,16.22,58.467,58.467,0,0,1,1.992,17.674c-.014.33,0,.662,0,1.024.993.245,1.977.42,2.918.73,6.83,2.254,10.739,7.092,12.148,14.019,1.014,4.983-.367,9.5-3.279,13.512-4.477,6.167-9.108,12.223-13.675,18.324-.153.2-.322.394-.513.626l-9.568-12.737c-.537.724-.969,1.316-1.409,1.9a61.258,61.258,0,0,1-8.122,8.512,1.3,1.3,0,0,0-.448,1.528c.442,1.552.862,3.116,1.173,4.7a25.656,25.656,0,0,1,.465,3.879c.076,1.846.014,3.7.018,5.546A5.055,5.055,0,0,1,116.7,147.6c-1.977.012-3.954.014-5.93-.007a.95.95,0,0,0-.956.588c-3.338,6.161-8.612,9.413-15.522,9.544a16.671,16.671,0,0,1-14.138-6.851C79.493,150,78.995,149,78.366,148.1a1.183,1.183,0,0,0-.806-.486q-12.326-.024-24.651.008c-1.053,0-2.106.016-3.158-.012a.945.945,0,0,0-.967.568c-3.386,6.045-8.583,9.394-15.472,9.55a16.672,16.672,0,0,1-14.172-6.777,24.856,24.856,0,0,1-1.812-2.855.878.878,0,0,0-.906-.512q-5.431.037-10.861.027A4.993,4.993,0,0,1,1.33,145.8a4.975,4.975,0,0,1-1.155-2.366,39.253,39.253,0,0,1-.056-6.673,4.684,4.684,0,0,1,4.27-4.286c.65-.105.739-.349.736-.946-.032-6.137-.029-12.275-.031-18.412q-.006-15.485,0-30.97c0-3.033,1.438-5.081,4.1-5.608a19.749,19.749,0,0,1,3.375-.145c.9-.019,1.79,0,2.606,0m5.27-.012H22.39c17.767,0,35.535.02,53.3-.032a5.382,5.382,0,0,1,5.676,5.595c-.093,2.616-.009,5.238,0,7.857,0,.58,0,1.159,0,1.754a3.937,3.937,0,0,0,.451.059q11.361.006,22.723.014a12.069,12.069,0,0,1,2.3.161c3.356.662,5.229,2.881,6.036,6.058,1.938,7.625,3.821,15.264,5.728,22.9.069.276.171.543.286.9a65.994,65.994,0,0,0,8.043-9.3.961.961,0,0,0-.028-.857c-.45-.715-1-1.364-1.483-2.061a16.79,16.79,0,0,1-3.132-12.066,17.737,17.737,0,0,1,8.843-13.446,17.432,17.432,0,0,1,5.518-2.065c.386-.082.742-.146.72-.7-.119-3-.062-6.015-.35-9a56.537,56.537,0,0,0-6.348-20.6c-.135-.261-.3-.506-.491-.82-.169.194-.271.3-.362.417q-2.83,3.6-5.657,7.2-3.83,4.872-7.662,9.741-4.614,5.872-9.217,11.753c-.339.435-.5.424-.841-.013-1.914-2.478-3.86-4.931-5.794-7.393-6.008-7.65-12.109-15.23-18-22.972a29.9,29.9,0,0,1-5.516-25.455c.257-1.192.612-2.364.946-3.635A56.918,56.918,0,0,0,54.3,25.74a2.507,2.507,0,0,0,.078.308,16.921,16.921,0,0,1-1.7,17.249c-3.883,5.608-8.126,10.968-12.222,16.428-.735.98-1.524,1.919-2.32,2.918l-9.908-13.2a57.032,57.032,0,0,0-7.779,26.934m10.062,24.4V81.48H10.178V132.39c2.2,0,4.323.015,6.449-.022a.98.98,0,0,0,.663-.494,17.353,17.353,0,0,1,8.124-7.9c6.706-3.14,12.92-2.073,18.748,2.14a15.733,15.733,0,0,1,4.549,5.651,1.009,1.009,0,0,0,1.027.613q12.941-.024,25.881-.006c.592,0,.725-.174.724-.742-.012-8.216,0-16.433,0-24.649,0-8.268-.017-16.536.007-24.8,0-.6-.129-.732-.7-.731q-9.4.018-18.795-.027c-.687,0-.866.174-.863.853C56.016,87.717,56,93.161,56,98.6c0,.7,0,1.4,0,2.224-.415-.177-.653-.263-.876-.376Q49.5,97.6,43.888,94.73a1.238,1.238,0,0,0-1.28-.022C39.281,96.423,35.94,98.11,32.6,99.8c-.63.318-1.279.6-2.091.976M132.3,30.781a23.51,23.51,0,0,0-2.374-11.068,25.474,25.474,0,0,0-48.5,9.364,26.254,26.254,0,0,0,6,18.567c3.025,3.758,5.977,7.574,8.956,11.37q4.944,6.3,9.877,12.6c.592.755.6.747,1.2-.023,1.33-1.728,2.651-3.464,4-5.177q7.669-9.738,15.35-19.465a25.347,25.347,0,0,0,5.5-16.171M116.349,132.372c-.07-.34-.1-.537-.153-.731-1.145-4.572-2.3-9.142-3.423-13.72-.147-.6-.355-.818-1.009-.814q-7.47.049-14.939.014a5.209,5.209,0,0,1-5.173-4.908c-.075-1.845-.066-3.7.01-5.542a4.918,4.918,0,0,1,3.844-4.709,10.207,10.207,0,0,1,2.218-.175c3.285-.011,6.571.01,9.857.012.345,0,.69-.049,1.134-.083-.26-.972-.459-1.845-.728-2.7a2.72,2.72,0,0,0-3.05-2.235H81.382v30.684c.1-.028.159-.027.193-.055.375-.312.744-.631,1.119-.942a16.866,16.866,0,0,1,13.26-4.176,17.275,17.275,0,0,1,13.915,9.574.923.923,0,0,0,.606.481c1.92.037,3.841.022,5.874.022M38.111,54.31a1.9,1.9,0,0,0,.273-.232c3.42-4.553,6.924-9.045,10.228-13.681a12.169,12.169,0,0,0,1.28-12.221,12.765,12.765,0,1,0-21.84,12.8c3.141,4.216,6.31,8.414,9.469,12.618.181.24.38.466.59.723m101.851,66.3c3.662-4.934,7.334-9.686,10.777-14.6a11.7,11.7,0,0,0,1.681-9.435,12.564,12.564,0,0,0-10.937-9.913c-5.589-.763-10.144,1.83-12.8,6.668-2.51,4.579-2.038,9.211.957,13.5,1.675,2.4,3.482,4.7,5.237,7.038,1.661,2.214,3.332,4.42,5.083,6.743m-45.779,6.641A12.74,12.74,0,1,0,106.889,140.2a12.761,12.761,0,0,0-12.706-12.941M45.8,139.979a12.737,12.737,0,1,0-12.535,12.758A12.689,12.689,0,0,0,45.8,139.979M50.809,92.6V81.489a3.706,3.706,0,0,0-.381-.046c-4.72,0-9.44,0-14.16-.019-.6,0-.666.266-.665.749.007,3.181,0,6.363,0,9.544,0,.243.043.486.072.8.259-.1.427-.15.58-.226,2.131-1.063,4.252-2.149,6.4-3.177a1.539,1.539,0,0,1,1.139-.015c1.008.436,1.971.978,2.955,1.473,1.32.664,2.642,1.323,4.063,2.034m25.638,44.915h-25.7v4.977h25.7Zm34.842-25.542c-.414-1.648-.789-3.209-1.221-4.755-.045-.163-.42-.334-.642-.334-4.025,0-8.049.027-12.073.05-.193,0-.386.026-.585.041v5ZM15.339,137.518H5.022c0,1.462.027,2.87-.013,4.276-.017.606.164.787.778.781,2.922-.031,5.845-.014,8.767-.013h.785Zm101.666-.009h-5.157v5.009h5.157Z" transform="translate(0 0)" fill="#161615"/>
    <path id="Trazado_705946" data-name="Trazado 705946" d="M33.076,88.966a57.03,57.03,0,0,1,7.779-26.934l9.908,13.2c.8-1,1.585-1.938,2.32-2.918,4.1-5.46,8.339-10.819,12.222-16.428a16.925,16.925,0,0,0,1.7-17.25,2.457,2.457,0,0,1-.078-.308,56.925,56.925,0,0,1,23.779-5.362c-.333,1.271-.689,2.442-.946,3.635a29.9,29.9,0,0,0,5.516,25.455c5.887,7.742,11.989,15.321,18,22.971,1.934,2.463,3.88,4.915,5.794,7.394.338.437.5.448.841.012q4.593-5.888,9.217-11.752,3.828-4.873,7.662-9.741,2.829-3.6,5.657-7.2c.09-.116.192-.223.361-.417.19.314.357.559.491.82a56.513,56.513,0,0,1,6.348,20.6c.288,2.982.231,6,.35,9,.022.552-.334.616-.72.7a17.432,17.432,0,0,0-5.518,2.065,17.737,17.737,0,0,0-8.843,13.446,16.79,16.79,0,0,0,3.132,12.066c.48.7,1.033,1.346,1.483,2.061a.961.961,0,0,1,.028.857,66.032,66.032,0,0,1-8.043,9.3c-.114-.358-.217-.626-.286-.9-1.908-7.632-3.79-15.271-5.728-22.9-.807-3.178-2.681-5.4-6.036-6.058a12.025,12.025,0,0,0-2.3-.161q-11.361-.019-22.722-.014a3.962,3.962,0,0,1-.452-.059c0-.6,0-1.175,0-1.754,0-2.619-.089-5.241,0-7.857a5.382,5.382,0,0,0-5.676-5.595c-17.767.053-35.535.029-53.3.032H33.076m53.315-5.1v.007c.665,0,1.331-.019,1.995.007.414.016.615-.1.612-.551q-.016-2,.014-3.991c.006-.452-.21-.558-.613-.557-1.33,0-2.66-.006-3.99-.036-.46-.011-.574.217-.572.61.007,1.3.023,2.61,0,3.915-.009.486.181.624.636.6.639-.029,1.279-.007,1.919-.007m7.567-5.116c0,1.639-.019,3.146.027,4.652,0,.157.386.425.6.432,1.227.043,2.458-.023,3.683.041.76.04.912-.28.881-.941-.041-.894-.014-1.791-.011-2.686.006-1.481.007-1.487-1.466-1.5-1.22-.008-2.44,0-3.715,0m-20.276.02v5.09c1.579,0,3.091.014,4.6-.02a.65.65,0,0,0,.456-.439c.033-1.411.024-2.824-.006-4.235a.533.533,0,0,0-.358-.378c-1.559-.027-3.119-.017-4.7-.017" transform="translate(-12.63 -12.589)" fill="#abffff"/>
    <path id="Trazado_705947" data-name="Trazado 705947" d="M36.8,151.071c.812-.378,1.461-.658,2.091-.976,3.34-1.688,6.682-3.374,10.008-5.089a1.241,1.241,0,0,1,1.28.022q5.608,2.881,11.237,5.722c.223.114.461.2.876.376V148.9c0-5.443.016-10.887-.009-16.331,0-.679.177-.857.864-.852q9.4.054,18.794.026c.575,0,.706.131.7.731-.025,8.268-.007,16.536-.008,24.8,0,8.216-.015,16.433,0,24.649,0,.569-.132.743-.724.742q-12.941-.024-25.882.006A1.008,1.008,0,0,1,55,182.064a15.731,15.731,0,0,0-4.549-5.651c-5.828-4.213-12.042-5.279-18.748-2.14a17.349,17.349,0,0,0-8.123,7.9.982.982,0,0,1-.663.494c-2.126.038-4.253.022-6.448.022v-50.91H36.8Z" transform="translate(-6.288 -50.297)" fill="#e2be95"/>
    <path id="Trazado_705948" data-name="Trazado 705948" d="M182.574,33.907a25.344,25.344,0,0,1-5.5,16.171q-7.653,9.751-15.35,19.465c-1.349,1.714-2.67,3.449-4,5.178-.592.77-.6.778-1.2.023q-4.94-6.3-9.877-12.6c-2.979-3.795-5.931-7.612-8.957-11.369a26.26,26.26,0,0,1-6-18.567,25.474,25.474,0,0,1,48.5-9.364,23.51,23.51,0,0,1,2.374,11.068m-45.81.017a20.375,20.375,0,0,0,20.372,20.061c10.59-.045,20.32-8.077,20.285-20.412a20.079,20.079,0,0,0-20.106-20.207,20.445,20.445,0,0,0-20.551,20.558" transform="translate(-50.272 -3.127)" fill="#ffc403"/>
    <path id="Trazado_705949" data-name="Trazado 705949" d="M166.622,192.159c-2.034,0-3.954.015-5.874-.022a.925.925,0,0,1-.606-.481,17.276,17.276,0,0,0-13.915-9.574,16.871,16.871,0,0,0-13.26,4.176c-.375.311-.744.631-1.119.942-.034.028-.092.028-.193.055V156.572h23.556a2.72,2.72,0,0,1,3.05,2.235c.268.851.468,1.724.728,2.7-.444.034-.789.083-1.134.083-3.286,0-6.572-.022-9.857-.012a10.247,10.247,0,0,0-2.218.176,4.918,4.918,0,0,0-3.844,4.709c-.075,1.845-.085,3.7-.01,5.541a5.21,5.21,0,0,0,5.173,4.909q7.47.023,14.939-.014c.655,0,.862.212,1.009.814,1.12,4.579,2.278,9.148,3.423,13.72.048.193.082.39.153.731" transform="translate(-50.273 -59.788)" fill="#03a4a4"/>
    <path id="Trazado_705950" data-name="Trazado 705950" d="M53.771,66.932c-.21-.257-.41-.483-.59-.723-3.159-4.2-6.327-8.4-9.468-12.618a12.759,12.759,0,1,1,21.84-12.8,12.169,12.169,0,0,1-1.28,12.221c-3.3,4.636-6.808,9.129-10.228,13.681a1.868,1.868,0,0,1-.273.232m0-13.614a7.62,7.62,0,0,0,.062-15.24,7.815,7.815,0,0,0-7.658,7.747,7.558,7.558,0,0,0,7.6,7.493" transform="translate(-15.66 -12.622)" fill="#b20d0d"/>
    <path id="Trazado_705951" data-name="Trazado 705951" d="M218.455,174.07c-1.751-2.322-3.422-4.529-5.083-6.743-1.755-2.339-3.562-4.642-5.237-7.038-2.995-4.286-3.467-8.918-.957-13.5,2.652-4.838,7.208-7.431,12.8-6.668a12.564,12.564,0,0,1,10.937,9.913,11.7,11.7,0,0,1-1.681,9.435c-3.443,4.912-7.115,9.663-10.777,14.6m-.041-28.962a7.627,7.627,0,0,0-.014,15.254,7.735,7.735,0,0,0,7.63-7.515,7.61,7.61,0,0,0-7.617-7.739" transform="translate(-78.493 -53.457)" fill="#06d1d1"/>
    <path id="Trazado_705952" data-name="Trazado 705952" d="M144.436,205.866a12.638,12.638,0,0,1,12.706,12.941,12.771,12.771,0,1,1-12.706-12.941m-7.659,12.843a7.588,7.588,0,0,0,15.175-.089,7.588,7.588,0,1,0-15.175.089" transform="translate(-50.252 -78.611)" fill="#8f8f8f"/>
    <path id="Trazado_705953" data-name="Trazado 705953" d="M58.353,218.579A12.737,12.737,0,1,1,45.67,205.841a12.726,12.726,0,0,1,12.683,12.739M45.4,226.217a7.77,7.77,0,0,0,7.8-7.594,7.548,7.548,0,0,0-7.455-7.634,7.645,7.645,0,0,0-7.777,7.565,7.852,7.852,0,0,0,7.428,7.663" transform="translate(-12.555 -78.601)" fill="#8f8f8f"/>
    <path id="Trazado_705954" data-name="Trazado 705954" d="M72.8,142.9c-1.421-.711-2.743-1.37-4.064-2.034-.983-.5-1.947-1.037-2.955-1.473a1.539,1.539,0,0,0-1.139.015c-2.148,1.027-4.268,2.113-6.4,3.177-.153.077-.321.127-.58.226-.03-.31-.072-.553-.073-.795,0-3.182.011-6.363,0-9.544,0-.482.064-.752.665-.749,4.72.024,9.44.015,14.16.019a3.746,3.746,0,0,1,.381.046Z" transform="translate(-21.991 -50.299)" fill="#fff"/>
    <rect id="Rectángulo_349268" data-name="Rectángulo 349268" width="25.701" height="4.977" transform="translate(50.745 137.514)" fill="#fff"/>
    <path id="Trazado_705955" data-name="Trazado 705955" d="M171.066,178H156.545v-5c.2-.014.393-.039.585-.04,4.024-.023,8.048-.049,12.073-.05.222,0,.6.171.642.334.431,1.545.806,3.107,1.22,4.755" transform="translate(-59.777 -66.026)" fill="#fff"/>
    <path id="Trazado_705956" data-name="Trazado 705956" d="M18.433,222.469v5.044h-.786c-2.922,0-5.845-.018-8.767.013-.613.006-.8-.175-.778-.781.04-1.406.012-2.814.012-4.276Z" transform="translate(-3.094 -84.951)" fill="#fff"/>
    <rect id="Rectángulo_349269" data-name="Rectángulo 349269" width="5.157" height="5.009" transform="translate(111.848 137.509)" fill="#fff"/>
    <path id="Trazado_705957" data-name="Trazado 705957" d="M117.748,112.143c-.64,0-1.28-.022-1.918.007-.455.02-.645-.117-.637-.6.023-1.3.007-2.61,0-3.915,0-.393.113-.621.572-.61,1.33.031,2.66.04,3.99.036.4,0,.62.105.613.557q-.029,2-.014,3.991c0,.448-.2.567-.612.551-.664-.026-1.33-.007-1.995-.007v-.007" transform="translate(-43.987 -40.867)" fill="#161615"/>
    <path id="Trazado_705958" data-name="Trazado 705958" d="M131.566,107.03c1.275,0,2.495-.006,3.715,0,1.474.009,1.472.014,1.466,1.5,0,.9-.031,1.793.011,2.686.03.661-.121.98-.881.941-1.225-.064-2.456,0-3.683-.041-.214-.007-.6-.276-.6-.433-.046-1.5-.027-3.012-.027-4.651" transform="translate(-50.237 -40.869)" fill="#161615"/>
    <path id="Trazado_705959" data-name="Trazado 705959" d="M98.766,107.063c1.577,0,3.136-.009,4.7.017a.533.533,0,0,1,.358.378c.03,1.411.038,2.824.006,4.235a.65.65,0,0,1-.456.439c-1.511.034-3.023.02-4.6.02Z" transform="translate(-37.714 -40.882)" fill="#161615"/>
    <path id="Trazado_705960" data-name="Trazado 705960" d="M139.921,37.123a20.445,20.445,0,0,1,20.551-20.558,20.079,20.079,0,0,1,20.106,20.207c.035,12.336-9.695,20.367-20.285,20.412a20.375,20.375,0,0,1-20.372-20.061M160.26,52.154A15.057,15.057,0,0,0,175.515,36.86c-.066-9.278-7.237-15.268-15.8-15.256-7.76.011-14.641,7.044-14.763,15.034-.132,8.613,7.426,15.8,15.313,15.517" transform="translate(-53.429 -6.325)" fill="#161615"/>
    <path id="Trazado_705961" data-name="Trazado 705961" d="M56.961,56.422a7.557,7.557,0,0,1-7.6-7.493,7.815,7.815,0,0,1,7.658-7.747,7.62,7.62,0,0,1-.062,15.24M54.407,48.8a2.612,2.612,0,0,0,2.63,2.643,2.657,2.657,0,0,0,2.568-2.561,2.613,2.613,0,0,0-2.576-2.623A2.535,2.535,0,0,0,54.407,48.8" transform="translate(-18.85 -15.725)" fill="#161615"/>
    <path id="Trazado_705962" data-name="Trazado 705962" d="M221.669,148.269a7.609,7.609,0,0,1,7.617,7.738,7.735,7.735,0,0,1-7.63,7.516,7.627,7.627,0,0,1,.014-15.254m-.074,10.109a2.4,2.4,0,0,0,2.6-2.332,2.658,2.658,0,0,0-2.536-2.654,2.336,2.336,0,0,0-2.528,2.369,2.392,2.392,0,0,0,2.461,2.617" transform="translate(-81.748 -56.617)" fill="#161615"/>
    <path id="Trazado_705963" data-name="Trazado 705963" d="M139.973,221.883a7.588,7.588,0,1,1,7.47,7.52,7.784,7.784,0,0,1-7.47-7.52m7.646-2.682a2.559,2.559,0,1,0-.15,5.116,2.637,2.637,0,0,0,2.694-2.583,2.542,2.542,0,0,0-2.544-2.533" transform="translate(-53.449 -81.785)" fill="#161615"/>
    <path id="Trazado_705964" data-name="Trazado 705964" d="M48.54,229.4a7.852,7.852,0,0,1-7.428-7.663,7.645,7.645,0,0,1,7.777-7.565,7.548,7.548,0,0,1,7.455,7.634,7.77,7.77,0,0,1-7.8,7.594m.271-10.188a2.557,2.557,0,0,0-.15,5.113,2.605,2.605,0,0,0,2.7-2.575,2.538,2.538,0,0,0-2.546-2.538" transform="translate(-15.699 -81.781)" fill="#161615"/>
    <path id="Trazado_705965" data-name="Trazado 705965" d="M163.364,55.268c-7.887.282-15.446-6.9-15.313-15.517.122-7.99,7-15.023,14.763-15.034,8.568-.012,15.739,5.978,15.8,15.256a15.057,15.057,0,0,1-15.255,15.294" transform="translate(-56.533 -9.438)" fill="#fff"/>
    <path id="Trazado_705966" data-name="Trazado 705966" d="M57.522,51.928a2.535,2.535,0,0,1,2.622-2.541A2.613,2.613,0,0,1,62.72,52.01a2.657,2.657,0,0,1-2.568,2.561,2.612,2.612,0,0,1-2.63-2.643" transform="translate(-21.965 -18.858)" fill="#fff"/>
    <path id="Trazado_705967" data-name="Trazado 705967" d="M224.716,161.543a2.392,2.392,0,0,1-2.461-2.617,2.336,2.336,0,0,1,2.528-2.369,2.658,2.658,0,0,1,2.536,2.654,2.4,2.4,0,0,1-2.6,2.332" transform="translate(-84.868 -59.782)" fill="#fff"/>
    <path id="Trazado_705968" data-name="Trazado 705968" d="M150.706,222.3a2.541,2.541,0,0,1,2.544,2.533,2.637,2.637,0,0,1-2.694,2.583,2.559,2.559,0,1,1,.15-5.116" transform="translate(-56.536 -84.888)" fill="#fff"/>
    <path id="Trazado_705969" data-name="Trazado 705969" d="M51.944,222.323a2.538,2.538,0,0,1,2.546,2.538,2.605,2.605,0,0,1-2.7,2.575,2.557,2.557,0,0,1,.15-5.113" transform="translate(-18.831 -84.895)" fill="#fff"/>
  </g>
</svg>
