<svg id="Grupo_975086" data-name="Grupo 975086" xmlns="http://www.w3.org/2000/svg" xmlns:xlink="http://www.w3.org/1999/xlink" width="152.032" height="151.44" viewBox="0 0 152.032 151.44">
  <defs>
    <clipPath id="clip-path">
      <rect id="Rectángulo_349248" data-name="Rectángulo 349248" width="152.032" height="151.441" fill="none"/>
    </clipPath>
  </defs>
  <g id="Grupo_975085" data-name="Grupo 975085" clip-path="url(#clip-path)">
    <path id="Trazado_705845" data-name="Trazado 705845" d="M55.032,67.228,34.555,48.163s-13.416-5.649-10.945,8.12l23.3,22.6,19.065-.707,20.83-33.187L112.58,66.875s3.177,2.825,6.708-1.765L140.471,41.1l6,4.943s4.59,2.825,8.474-3.53l4.237-26.126s.353-8.12-6.708-6l-26.832,7.767s-8.12,6.355,3.53,13.769L115.051,49.575,92.456,29.8,86.1,26.274S87.16,47.1,64.211,52.047Z" transform="translate(-9.421 -4.056)" fill="#06d1d1"/>
    <path id="Trazado_705846" data-name="Trazado 705846" d="M62.651,186.033S45,192.741,40.409,202.627c0,0,11.3,16.24,43.073,21.536,0,0-21.184-23.3-20.83-38.13" transform="translate(-16.334 -75.198)" fill="#abffff"/>
    <path id="Trazado_705847" data-name="Trazado 705847" d="M117.5,28.515c-.828-.713-1.584-1.386-2.363-2.03a9.323,9.323,0,0,1-3.329-4.892,8.065,8.065,0,0,1,4.5-9.051c1.664-.747,3.412-1.307,5.131-1.925q9.762-3.507,19.53-7a7.98,7.98,0,0,1,10.961,6.885,17.446,17.446,0,0,1-.549,4.554c-1.3,7.22-2.638,14.432-3.957,21.648a11.662,11.662,0,0,1-1.514,4.393,7.872,7.872,0,0,1-11.382,1.932c-1.146-.9-2.232-1.878-3.451-2.91-.954,1.143-1.9,2.28-2.849,3.407a8.656,8.656,0,0,1-.965,1.022,2.089,2.089,0,0,1-2.782-.013,2.138,2.138,0,0,1-.36-2.826,12.953,12.953,0,0,1,.923-1.163C126.359,39,127.644,37.423,129,35.91c1.189-1.332,2.258-1.371,3.607-.225,1.4,1.187,2.744,2.436,4.176,3.576,2.53,2.014,5.572.832,6.161-2.343,1.481-7.992,2.978-15.981,4.437-23.976a7.481,7.481,0,0,0,.119-2.652,3.465,3.465,0,0,0-4.4-2.688c-2.363.705-4.675,1.587-7,2.412q-8.625,3.056-17.242,6.135c-2.4.859-3.492,3.007-2.55,5.074a4.644,4.644,0,0,0,1.108,1.464c1.323,1.2,2.714,2.313,4.054,3.489,1.554,1.364,1.632,2.344.29,3.929q-7.4,8.736-14.828,17.449c-1.231,1.445-2.346,1.5-3.737.206Q91.967,37.341,80.75,26.919c-.615-.571-1.286-1.084-1.951-1.6a4.3,4.3,0,0,0-.791-.371c-.117,1.177-.162,2.239-.336,3.28C75.952,38.521,70.129,45.365,60.3,48.688a5.481,5.481,0,0,0-3.193,2.529c-2.81,4.582-5.721,9.1-8.616,13.631-1.024,1.6-2.418,1.731-3.927.357-3.1-2.818-6.166-5.666-9.251-8.5q-4.517-4.148-9.041-8.287c-.967-.887-1.873-1.85-2.9-2.667a4.573,4.573,0,0,0-7.272,2.7,4.727,4.727,0,0,0,1.664,4.661q5.631,5.075,11.216,10.2c3.383,3.093,6.747,6.207,10.137,9.291a1.494,1.494,0,0,0,.926.333q6.792.034,13.584,0a1.161,1.161,0,0,0,.826-.469Q65.2,55.779,75.9,39.067c1.065-1.659,2.458-1.815,3.89-.478,7.389,6.9,14.824,13.749,22.144,20.721a5.011,5.011,0,0,0,7.528-.472c2.842-3.532,5.857-6.925,8.8-10.377a2.265,2.265,0,0,1,2.491-.889,2.1,2.1,0,0,1,1.234,3.149,13.009,13.009,0,0,1-1.139,1.465c-2.655,3.174-5.291,6.367-7.984,9.509a9.385,9.385,0,0,1-8.156,3.6,9,9,0,0,1-5.537-2.582c-1.962-1.82-3.911-3.653-5.867-5.48q-7.224-6.749-14.448-13.5c-.141-.132-.289-.256-.456-.4L59.442,72.944c.29.021.549.056.808.056q31.993-.021,63.987-.045,12.211-.008,24.422,0c.272,0,.545,0,.816.017a2.408,2.408,0,0,1,2.558,2.713,78.742,78.742,0,0,1-3.458,22.189,70.47,70.47,0,0,1-7.649,17.027,75.9,75.9,0,0,1-50.632,35.159,74.61,74.61,0,0,1-42.091-3.97c-2.68-1.067-5.274-2.363-7.864-3.644-1.62-.8-1.917-2.48-.75-3.6a2,2,0,0,1,2.394-.387c2.06.959,4.1,1.961,6.174,2.891a69.671,69.671,0,0,0,12.535,4.03,4.827,4.827,0,0,0,.9.007,50.051,50.051,0,0,1-10.81-14.668,96.267,96.267,0,0,1-6.456-16.982c-.3.127-.552.214-.785.331a70.93,70.93,0,0,0-17.119,12.185c-.47.448-.11.662.145.882q3.235,2.788,6.5,5.544c.567.479,1.2.882,1.76,1.366a2.086,2.086,0,0,1,.435,2.917,2.021,2.021,0,0,1-2.947.486c-2.7-2.092-5.442-4.146-7.968-6.436A75.42,75.42,0,0,1,9.5,111.984,74.55,74.55,0,0,1,.946,86.716,63.893,63.893,0,0,1,0,75.756c.026-1.873.826-2.775,2.691-2.788,4.8-.033,9.6-.017,14.4-.013q7.608.006,15.216.023c.091,0,.181-.041.446-.269-.268-.2-.555-.381-.8-.607-5.487-5.05-10.984-10.089-16.44-15.173a17.646,17.646,0,0,1-2.732-3.115,8.908,8.908,0,0,1,6.18-13.259,8.794,8.794,0,0,1,7.983,2.412q4.921,4.532,9.845,9.06c3.026,2.781,6.056,5.558,9.223,8.464l6.834-10.579c-.963-.082-1.817-.113-2.658-.232A24.83,24.83,0,0,1,36.213,43.25a24.145,24.145,0,0,1-7.947-18.567c.118-9.385,4.4-16.513,12.4-21.33A24.768,24.768,0,0,1,70.344,7a25.17,25.17,0,0,1,7.038,12.775.8.8,0,0,0,.753.741,8.8,8.8,0,0,1,4.638,2.337Q89.219,28.8,95.642,34.769q4.329,4.023,8.623,8.082c.423.4.64.424,1.036-.05q5.315-6.362,10.681-12.68c.445-.526.947-1,1.521-1.606m-12.69,78.937a145.72,145.72,0,0,0,3.381-29.905H43.885c-.018.219-.048.387-.045.555A141.478,141.478,0,0,0,45.6,98.689c.455,2.735.99,5.457,1.495,8.184.07.378.121.72.707.486a76.182,76.182,0,0,1,23.825-5.348,73.435,73.435,0,0,1,26.847,3.3c2.089.663,4.154,1.4,6.34,2.142M48.3,111.786l.408,1.406a77.57,77.57,0,0,0,9.627,21.867,31.868,31.868,0,0,0,8.824,9.131,15.113,15.113,0,0,0,16.549.748,27.228,27.228,0,0,0,7.748-6.851,52.094,52.094,0,0,0,7.709-13.161,95.132,95.132,0,0,0,4.4-12.453c.138-.514.039-.718-.473-.925a69.716,69.716,0,0,0-22.372-5.058,71.382,71.382,0,0,0-26.557,3.189c-1.961.643-3.887,1.394-5.861,2.107M147.539,77.54c-.27-.018-.486-.045-.7-.045q-16.7,0-33.4-.016c-.639,0-.752.213-.78.806-.19,3.94-.309,7.889-.678,11.814a132.1,132.1,0,0,1-3.021,18.629.7.7,0,0,0,.452.934c.982.466,1.973.919,2.924,1.444a80.19,80.19,0,0,1,15.622,11.382c.339.313.692.61,1.082.954a70.39,70.39,0,0,0,18.5-45.9M4.486,77.522a70.973,70.973,0,0,0,18.5,45.892c.352-.31.6-.517.832-.733a77.963,77.963,0,0,1,11.572-8.922c2.369-1.475,4.85-2.769,7.28-4.147.3-.167.558-.266.45-.774-.627-2.955-1.29-5.909-1.755-8.892-.575-3.7-1.073-7.412-1.411-11.136-.328-3.6-.41-7.232-.6-10.849a4.4,4.4,0,0,0-.07-.441Zm48.78-32.1a20.524,20.524,0,1,0-.628-41.044C41.472,4.521,32.1,14.54,32.612,25.832c.49,10.723,9.711,19.857,20.654,19.586M90.573,145.3l.148.228a70.94,70.94,0,0,0,35.228-18.838,69.32,69.32,0,0,0-18.139-12.947,1.225,1.225,0,0,0-.157.228q-.165.493-.314.991a88.446,88.446,0,0,1-5.893,15.369c-2.67,5.179-5.7,10.1-9.991,14.124-.3.278-.589.562-.882.844" transform="translate(0 0)" fill="#161615"/>
    <path id="Trazado_705848" data-name="Trazado 705848" d="M134.557,160.066c-2.187-.741-4.252-1.479-6.34-2.142a73.45,73.45,0,0,0-26.848-3.3,76.2,76.2,0,0,0-23.824,5.348c-.587.234-.637-.108-.708-.486-.505-2.726-1.04-5.448-1.494-8.184a141.312,141.312,0,0,1-1.759-20.587c0-.167.026-.336.045-.555h64.309a145.721,145.721,0,0,1-3.38,29.905" transform="translate(-29.744 -52.614)" fill="#abffff"/>
    <path id="Trazado_705849" data-name="Trazado 705849" d="M81.065,183.942c1.974-.713,3.9-1.464,5.861-2.107a71.382,71.382,0,0,1,26.557-3.188,69.716,69.716,0,0,1,22.372,5.058c.512.207.611.411.473.925a95.079,95.079,0,0,1-4.4,12.453,52.091,52.091,0,0,1-7.709,13.16,27.231,27.231,0,0,1-7.748,6.851,15.113,15.113,0,0,1-16.549-.748,31.868,31.868,0,0,1-8.824-9.131,77.569,77.569,0,0,1-9.627-21.867c-.122-.422-.245-.845-.408-1.406" transform="translate(-32.768 -72.156)" fill="#abffff"/>
    <path id="Trazado_705850" data-name="Trazado 705850" d="M221.436,130.108a70.39,70.39,0,0,1-18.5,45.9c-.39-.344-.743-.641-1.082-.954a80.191,80.191,0,0,0-15.622-11.382c-.951-.525-1.942-.978-2.924-1.444a.7.7,0,0,1-.452-.934,132.183,132.183,0,0,0,3.02-18.629c.369-3.924.488-7.874.678-11.814.029-.593.141-.807.78-.806q16.7.029,33.4.015c.216,0,.431.027.7.045" transform="translate(-73.897 -52.568)" fill="#abffff"/>
    <path id="Trazado_705851" data-name="Trazado 705851" d="M7.529,130.118h34.8a4.4,4.4,0,0,1,.07.441c.192,3.617.275,7.244.6,10.849.338,3.724.836,7.439,1.411,11.136.464,2.984,1.127,5.937,1.755,8.892.108.508-.155.606-.45.774-2.43,1.377-4.911,2.672-7.281,4.147a77.989,77.989,0,0,0-11.571,8.922c-.235.216-.48.423-.833.733a70.972,70.972,0,0,1-18.5-45.892" transform="translate(-3.043 -52.596)" fill="#abffff"/>
    <path id="Trazado_705852" data-name="Trazado 705852" d="M75.378,48.384c-10.943.271-20.164-8.863-20.654-19.586C54.208,17.506,63.584,7.488,74.75,7.34a20.524,20.524,0,1,1,.629,41.044M71.849,21.571a2.857,2.857,0,0,1,2.494-3.055,5.453,5.453,0,0,1,4.026.863,2.07,2.07,0,0,0,3.111-.49,2.126,2.126,0,0,0-.708-3.093,16.71,16.71,0,0,0-2.79-1.339c-.54-.212-.842-.438-.765-1.059a2.469,2.469,0,0,0-.074-.884,2.157,2.157,0,0,0-2.356-1.607,2.034,2.034,0,0,0-1.9,2.176,1.555,1.555,0,0,1-1.142,1.734A7.071,7.071,0,0,0,67.5,21.36a6.015,6.015,0,0,0,3.8,6.076c1.672.791,3.406,1.448,5.089,2.218a5.425,5.425,0,0,1,2,1.206A3.919,3.919,0,0,1,76,36.966,7.532,7.532,0,0,1,70.182,35.9a2.64,2.64,0,0,0-1.736-.324,1.94,1.94,0,0,0-1.59,1.752,1.919,1.919,0,0,0,.938,2.111,27.414,27.414,0,0,0,3.738,1.75c1.2.446,1.229.36,1.36,1.677a2.191,2.191,0,0,0,4.291.41,5.247,5.247,0,0,0,.119-1.47A.69.69,0,0,1,77.853,41a7.743,7.743,0,0,0,3.209-2.069c3.578-3.636,3.287-9.422-.68-12.174a18.9,18.9,0,0,0-3.01-1.4c-1.481-.674-2.975-1.32-4.436-2.035a1.732,1.732,0,0,1-1.087-1.755" transform="translate(-22.112 -2.966)" fill="#ffc403"/>
    <path id="Trazado_705853" data-name="Trazado 705853" d="M152.024,222.468c.294-.282.585-.566.882-.844,4.291-4.024,7.32-8.945,9.991-14.124a88.447,88.447,0,0,0,5.893-15.369q.148-.5.314-.991a1.226,1.226,0,0,1,.157-.228A69.321,69.321,0,0,1,187.4,203.858,70.94,70.94,0,0,1,152.172,222.7l-.148-.228" transform="translate(-61.451 -77.17)" fill="#abffff"/>
    <path id="Trazado_705854" data-name="Trazado 705854" d="M80.067,23.985a1.732,1.732,0,0,0,1.087,1.755c1.461.715,2.955,1.361,4.436,2.035a18.9,18.9,0,0,1,3.01,1.4c3.967,2.752,4.258,8.538.68,12.174a7.742,7.742,0,0,1-3.209,2.069.69.69,0,0,0-.553.807,5.247,5.247,0,0,1-.119,1.47,2.191,2.191,0,0,1-4.291-.41c-.131-1.316-.163-1.23-1.36-1.677a27.413,27.413,0,0,1-3.738-1.75,1.919,1.919,0,0,1-.938-2.111,1.94,1.94,0,0,1,1.59-1.752,2.64,2.64,0,0,1,1.736.324,7.532,7.532,0,0,0,5.821,1.062,3.919,3.919,0,0,0,2.385-6.1,5.425,5.425,0,0,0-2-1.206c-1.682-.77-3.417-1.427-5.089-2.218a6.015,6.015,0,0,1-3.8-6.076,7.071,7.071,0,0,1,4.25-6.544A1.555,1.555,0,0,0,81.109,15.5,2.034,2.034,0,0,1,83,13.32a2.157,2.157,0,0,1,2.356,1.607,2.469,2.469,0,0,1,.074.884c-.077.62.225.847.765,1.059a16.711,16.711,0,0,1,2.79,1.339A2.126,2.126,0,0,1,89.7,21.3a2.07,2.07,0,0,1-3.111.49,5.453,5.453,0,0,0-4.026-.863,2.857,2.857,0,0,0-2.494,3.055" transform="translate(-30.331 -5.38)" fill="#161615"/>
  </g>
</svg>
