<svg id="Grupo_975104" data-name="Grupo 975104" xmlns="http://www.w3.org/2000/svg" xmlns:xlink="http://www.w3.org/1999/xlink" width="154.58" height="152.15" viewBox="0 0 154.58 152.15">
  <defs>
    <clipPath id="clip-path">
      <rect id="Rectángulo_349255" data-name="Rectángulo 349255" width="154.58" height="152.15" fill="none"/>
    </clipPath>
  </defs>
  <g id="Grupo_975104-2" data-name="Grupo 975104" clip-path="url(#clip-path)">
    <path id="Trazado_705905" data-name="Trazado 705905" d="M134.064,28.605c.75.518,1.471.973,2.145,1.489a15.736,15.736,0,0,1,6.435,12.718c.094,4.6.025,9.207.018,13.811a7.266,7.266,0,0,1-6.989,7.364c-1.555.077-3.117,0-4.677,0-8.3.005-16.6,0-24.9.031a8.357,8.357,0,0,1-4.183-1.056,1.214,1.214,0,0,0-1.008-.014,8.977,8.977,0,0,1-4.559,1.089q-14.526-.019-29.053.013a5.562,5.562,0,0,1-3.349-.944,1.253,1.253,0,0,0-1.661-.016,6.389,6.389,0,0,1-3.67.936Q46.649,64,34.689,63.991c-1.635,0-3.274-.052-4.9.037-4.981.271-7.976-3.516-7.967-7.71.01-4.98-.118-9.968.133-14.936a14.338,14.338,0,0,1,5.891-10.929c.829-.639,1.733-1.181,2.673-1.816-3.83-4.995-5.05-10.534-3.134-16.591a17.072,17.072,0,0,1,6.978-9.108A17.461,17.461,0,0,1,57.439,28.664a17.516,17.516,0,0,1,5.667,4.889,17.74,17.74,0,0,1,5.714-4.834C64.941,23.7,63.76,18.211,65.628,12.2A17.577,17.577,0,0,1,72.8,2.792C79.478-1.8,89.326-.471,94.66,5.157c5.7,6.015,7.228,15.411,1.142,23.526a16.251,16.251,0,0,1,5.608,4.811,14.568,14.568,0,0,1,5.7-4.785c-4.354-5.693-5.405-11.845-2.46-18.455a17.2,17.2,0,0,1,8.309-8.532,17.505,17.505,0,0,1,21.107,26.884M82.247,58.015v-.027q6.9,0,13.8,0c.426,0,.853-.027,1.28-.038a.921.921,0,0,0,.972-.941c.048-.548.04-1.1.039-1.654-.008-4.324-.008-8.649-.034-12.973a9.647,9.647,0,0,0-7.238-9.051,2.66,2.66,0,0,0-1.649.111,17.58,17.58,0,0,1-14.479-.067,2.372,2.372,0,0,0-1.44-.085,9.76,9.76,0,0,0-7.355,9.3c-.07,4.575-.028,9.152-.021,13.727,0,1.346.412,1.7,1.793,1.7q7.165-.005,14.33,0M44.126,57.98v0q3.547,0,7.093,0c2.389,0,4.779.02,7.168-.019,1.381-.022,1.692-.353,1.7-1.706.018-4.578.058-9.157.006-13.735a9.7,9.7,0,0,0-7.485-9.26,2.333,2.333,0,0,0-1.373.128,17.348,17.348,0,0,1-14.61-.053,1.717,1.717,0,0,0-.938-.167c-3.691.672-7.748,4.565-7.748,8.969q0,4.528,0,9.056c0,1.761-.009,3.522,0,5.283.007,1.008.336,1.361,1.318,1.47a7.085,7.085,0,0,0,.752.037q7.056,0,14.111,0m76.416,0v0q7.052,0,14.1,0c1.659,0,1.978-.333,1.978-1.98q0-6.525,0-13.049a9.642,9.642,0,0,0-7.409-9.671,2.367,2.367,0,0,0-1.438.1,17.342,17.342,0,0,1-14.534-.025,2.057,2.057,0,0,0-1.157-.157c-3.886.781-7.461,4.685-7.592,8.639-.157,4.746-.05,9.5-.04,14.251,0,1.569.284,1.834,1.834,1.891.125,0,.251,0,.377,0h13.878M82.189,6.035a11.461,11.461,0,1,0,.4,22.916A11.4,11.4,0,0,0,93.731,17.287,11.321,11.321,0,0,0,82.189,6.035M55.46,17.467A11.435,11.435,0,0,0,44.134,6.041C37.1,5.862,32.616,11.908,32.469,17.078A11.759,11.759,0,0,0,43.5,28.953,11.531,11.531,0,0,0,55.46,17.467m76.556-.012a11.5,11.5,0,1,0-11.508,11.479,11.468,11.468,0,0,0,11.508-11.479" transform="translate(-8.595 0)" fill="#161615"/>
    <path id="Trazado_705906" data-name="Trazado 705906" d="M59.553,168c.509.443,1.046.858,1.52,1.335,1.609,1.619,1.681,3.159.087,4.812-3.805,3.948-7.673,7.835-11.5,11.764-2.6,2.668-5.158,5.368-7.744,8.046a13.5,13.5,0,0,1-1.533,1.446,2.749,2.749,0,0,1-3.784-.111c-1.325-1.159-2.585-2.39-3.859-3.6Q21.077,180.576,9.418,169.46c-2.441-2.323-4.909-4.619-7.364-6.928-.293-.276-.59-.549-.867-.84-1.553-1.632-1.595-3.135-.045-4.766,1.715-1.8,3.5-3.541,5.23-5.334q7.46-7.742,14.9-15.507c.191-.2.375-.407.574-.6a2.874,2.874,0,0,1,4.354-.054c1.345,1.355,2.555,2.845,3.823,4.275l.4-.234c.231-.242.484-.467.69-.729a45.192,45.192,0,0,1,10.347-9.831,31.922,31.922,0,0,1,19.172-5.457,40.232,40.232,0,0,1,8.522,1.471A56.879,56.879,0,0,0,83.131,126.5c7.295-.014,14.59-.043,21.884.021a19.112,19.112,0,0,1,4.679.64,10.144,10.144,0,0,1,5.49,4.265c.154.211.33.406.662.81,2.65-2.731,5.2-5.4,7.8-8.026,2.923-2.947,5.915-5.824,8.836-8.774a12.52,12.52,0,0,1,10.573-3.913c6.551.641,10.83,5.355,11.45,10.348a10.019,10.019,0,0,1-1.962,7.26c-1.432,1.968-3.044,3.808-4.62,5.668q-8.487,10.016-17.008,20-2.349,2.752-4.793,5.422a20.086,20.086,0,0,1-12.021,6.058,45.987,45.987,0,0,1-7.122.592c-12.049.058-24.1-.024-36.146.06-3.284.023-6.565.448-9.847.69-.417.03-.835.07-1.251.106l-.179.27M89.5,160.831c5.861,0,11.723.018,17.584-.012a40.725,40.725,0,0,0,5.117-.258,15.49,15.49,0,0,0,10.591-5.58c1.194-1.491,2.467-2.92,3.7-4.376q9.847-11.583,19.689-23.171a17.332,17.332,0,0,0,1.621-2.171,3.934,3.934,0,0,0,.447-3.671c-1.524-3.781-7.166-5.393-10.413-2.93a23.729,23.729,0,0,0-2.179,2.079q-8.933,8.782-17.871,17.559a1.99,1.99,0,0,0-.618,1.37,11.336,11.336,0,0,1-5.606,9.289,12.471,12.471,0,0,1-6.573,1.612q-9.736,0-19.471-.007a7.875,7.875,0,0,1-1.352-.1,3,3,0,0,1-2.386-3.6c.353-1.59,1.507-2.406,3.432-2.406q9.81,0,19.622.01a13.924,13.924,0,0,0,1.583-.047,4.687,4.687,0,0,0,4-2.563,7.391,7.391,0,0,0-.109-6.894,3.88,3.88,0,0,0-2.836-2.171,13.946,13.946,0,0,0-2.321-.213c-7.143-.018-14.287-.072-21.429,0a63.551,63.551,0,0,1-17.073-2.12,25.854,25.854,0,0,0-20.387,2.469,36.355,36.355,0,0,0-11,10.277c-.348.476-.3.72.111,1.117,5.622,5.44,11.259,10.864,16.8,16.383,1.2,1.2,2.31,1.995,4.037,1.413a4.39,4.39,0,0,1,.9-.1,127.48,127.48,0,0,1,15.782-1.192c5.534.05,11.069.011,16.6.01M55.028,171.8,24.1,141.768,7.4,159.174c.178.2.239.283.311.351Q16.8,168.19,25.89,176.856q6,5.732,11.963,11.5c.38.366.64.615,1.142.067,1.34-1.466,2.76-2.858,4.14-4.287,3.946-4.088,7.888-8.18,11.894-12.336" transform="translate(0 -43.951)" fill="#161615"/>
    <path id="Trazado_705907" data-name="Trazado 705907" d="M111.1,79.643q-7.165,0-14.33,0c-1.38,0-1.791-.359-1.793-1.7-.007-4.576-.048-9.152.021-13.727a9.759,9.759,0,0,1,7.355-9.3,2.368,2.368,0,0,1,1.44.084,17.58,17.58,0,0,0,14.479.067,2.664,2.664,0,0,1,1.649-.111,9.648,9.648,0,0,1,7.238,9.051c.025,4.325.026,8.649.034,12.973,0,.552.009,1.106-.039,1.654a.921.921,0,0,1-.972.941c-.427.011-.853.038-1.28.038q-6.9,0-13.8,0v.027" transform="translate(-37.448 -21.628)" fill="#b20d0d"/>
    <path id="Trazado_705908" data-name="Trazado 705908" d="M48.127,79.563q-7.056,0-14.111,0a6.928,6.928,0,0,1-.752-.036c-.982-.109-1.311-.463-1.318-1.47-.012-1.761,0-3.522,0-5.283q0-4.528,0-9.056c0-4.4,4.057-8.3,7.748-8.97a1.721,1.721,0,0,1,.937.168,17.348,17.348,0,0,0,14.61.053,2.333,2.333,0,0,1,1.373-.128,9.7,9.7,0,0,1,7.485,9.26c.051,4.577.012,9.157-.006,13.735-.005,1.353-.316,1.684-1.7,1.706-2.389.039-4.779.017-7.168.019q-3.547,0-7.093,0Z" transform="translate(-12.596 -21.584)" fill="#ffc403"/>
    <path id="Trazado_705909" data-name="Trazado 705909" d="M174.336,79.586H160.458c-.126,0-.251.008-.377,0-1.549-.057-1.831-.322-1.834-1.891-.01-4.751-.117-9.506.041-14.251.131-3.955,3.706-7.859,7.592-8.639a2.057,2.057,0,0,1,1.157.157,17.342,17.342,0,0,0,14.534.025,2.368,2.368,0,0,1,1.438-.1,9.642,9.642,0,0,1,7.41,9.671q0,6.525,0,13.049c0,1.647-.32,1.977-1.978,1.98q-7.052.009-14.1,0Z" transform="translate(-62.388 -21.603)" fill="#06d1d1"/>
    <path id="Trazado_705910" data-name="Trazado 705910" d="M114.076,9.961a11.461,11.461,0,0,1,.4,22.917,11.461,11.461,0,1,1-.4-22.917" transform="translate(-40.481 -3.927)" fill="#c5a683"/>
    <path id="Trazado_705911" data-name="Trazado 705911" d="M62.408,21.4A11.531,11.531,0,0,1,50.447,32.883,11.758,11.758,0,0,1,39.418,21.008c.147-5.17,4.629-11.216,11.665-11.037A11.436,11.436,0,0,1,62.408,21.4" transform="translate(-15.543 -3.93)" fill="#f5e4d0"/>
    <path id="Trazado_705912" data-name="Trazado 705912" d="M188.813,21.4a11.5,11.5,0,1,1-11.423-11.4,11.446,11.446,0,0,1,11.423,11.4" transform="translate(-65.392 -3.94)" fill="#f5e4d0"/>
    <path id="Trazado_705913" data-name="Trazado 705913" d="M112.308,164.763c-5.534,0-11.069.038-16.6-.012a127.71,127.71,0,0,0-15.782,1.192,4.443,4.443,0,0,0-.9.1c-1.726.583-2.835-.217-4.037-1.413-5.543-5.519-11.181-10.943-16.8-16.383-.411-.4-.46-.641-.111-1.118a36.339,36.339,0,0,1,11-10.277,25.854,25.854,0,0,1,20.387-2.47,63.551,63.551,0,0,0,17.073,2.12c7.142-.073,14.286-.019,21.429,0a13.88,13.88,0,0,1,2.321.213,3.879,3.879,0,0,1,2.836,2.171,7.393,7.393,0,0,1,.109,6.894,4.689,4.689,0,0,1-4,2.564,14.06,14.06,0,0,1-1.583.047q-9.811,0-19.622-.01c-1.925,0-3.078.815-3.432,2.406a3,3,0,0,0,2.386,3.6,7.946,7.946,0,0,0,1.352.1q9.736.011,19.471.007a12.466,12.466,0,0,0,6.574-1.612,11.332,11.332,0,0,0,5.606-9.289,1.991,1.991,0,0,1,.619-1.37q8.951-8.763,17.871-17.558a23.742,23.742,0,0,1,2.179-2.08c3.247-2.463,8.89-.85,10.413,2.93a3.937,3.937,0,0,1-.447,3.671,17.341,17.341,0,0,1-1.621,2.171q-9.834,11.594-19.689,23.171c-1.238,1.456-2.51,2.885-3.7,4.376a15.494,15.494,0,0,1-10.591,5.58,40.848,40.848,0,0,1-5.118.258c-5.861.029-11.722.011-17.584.012M95.144,154.422a2.913,2.913,0,0,0,3.009-2.914,3.1,3.1,0,0,0-3.007-3.223,3.025,3.025,0,0,0-3.024,2.946,3.078,3.078,0,0,0,3.022,3.191" transform="translate(-22.811 -47.882)" fill="#ffe8ce"/>
    <path id="Trazado_705914" data-name="Trazado 705914" d="M59.843,191.543c-4.006,4.156-7.948,8.248-11.894,12.336-1.38,1.429-2.8,2.822-4.14,4.287-.5.548-.762.3-1.142-.067q-5.974-5.759-11.963-11.5-9.081-8.678-18.184-17.331c-.072-.068-.133-.149-.311-.351l16.7-17.406,30.933,30.034" transform="translate(-4.816 -63.692)" fill="#fff"/>
    <path id="Trazado_705915" data-name="Trazado 705915" d="M117.463,171.916a3.078,3.078,0,0,1-3.022-3.191,3.025,3.025,0,0,1,3.024-2.946A3.1,3.1,0,0,1,120.472,169a2.913,2.913,0,0,1-3.009,2.914" transform="translate(-45.13 -65.376)" fill="#161615"/>
  </g>
</svg>
