<svg id="Grupo_975140" data-name="Grupo 975140" xmlns="http://www.w3.org/2000/svg" xmlns:xlink="http://www.w3.org/1999/xlink" width="140.333" height="140.333" viewBox="0 0 140.333 140.333">
  <defs>
    <clipPath id="clip-path">
      <rect id="Rectángulo_349285" data-name="Rectángulo 349285" width="140.333" height="140.333" fill="none"/>
    </clipPath>
  </defs>
  <g id="Grupo_975139" data-name="Grupo 975139" clip-path="url(#clip-path)">
    <path id="Trazado_705987" data-name="Trazado 705987" d="M140.333,70.167A70.167,70.167,0,1,1,70.167,0a70.167,70.167,0,0,1,70.167,70.167" fill="#06d1d1"/>
    <path id="Trazado_705988" data-name="Trazado 705988" d="M138.043,117.58s-4.106-13.043-7.488-14.734c0,0-6.28-16.424,14.492-20.772,0,0,19.082,0,15.941,19.565,0,0-8.212,12.56-7.971,15.941Z" transform="translate(-76.814 -48.621)" fill="#ffc403"/>
    <path id="Trazado_705989" data-name="Trazado 705989" d="M119.86,94.565a11.607,11.607,0,0,0-1.395.011c-.566.071-.737-.192-.873-.692a20.823,20.823,0,0,0-4.573-8.375c-3.849-4.38-4.656-9.4-2.72-14.865.292-.824.77-1.579,1.113-2.387a1.413,1.413,0,0,0-1.513-1.979,1.693,1.693,0,0,0-1.3,1.025,17.248,17.248,0,0,0-2.125,11.149.609.609,0,0,1-.369.715A28.678,28.678,0,0,0,95.165,91.6a29.342,29.342,0,0,0-2.65,15.565,30.824,30.824,0,0,0,3.8,12.156,28.9,28.9,0,0,0,5.712,7.15,3.9,3.9,0,0,1,1.394,3.107c-.05,5-.021,9.993-.021,14.989,0,.152,0,.305.013.457a3.871,3.871,0,0,0,3.667,3.952,18.717,18.717,0,0,0,3.039.031,1.521,1.521,0,0,0,1.364-.92,1.5,1.5,0,0,0-1.423-2.082c-.775-.043-1.555,0-2.333-.009-1.049-.018-1.255-.259-1.255-1.312q0-7.189-.008-14.378c0-.21.029-.421.049-.689.218.117.362.2.512.274.775.375,1.535.788,2.332,1.107a1.421,1.421,0,0,0,1.833-.733,1.513,1.513,0,0,0-.655-1.968,7.039,7.039,0,0,0-.686-.324,21.5,21.5,0,0,1-7.662-5.551,26.666,26.666,0,0,1-6.657-21,25.869,25.869,0,0,1,8.34-16.8c1.054-.987,2.242-1.831,3.431-2.792.15.289.252.458.329.638a17.886,17.886,0,0,0,2.987,4.806,18.8,18.8,0,0,1,1.237,1.48c2.055,2.887,3.457,5.992,3.235,9.657a10.31,10.31,0,0,0,.131,2.728,3.781,3.781,0,0,0,2.744,2.9,13.989,13.989,0,0,0,.16,1.473,5.755,5.755,0,0,0,4,4.632,5.289,5.289,0,0,0,5.681-1.581,5.946,5.946,0,0,0,1.563-4.077.546.546,0,0,1,.384-.589,3.929,3.929,0,0,0,2.552-3.644c.033-.93-.023-1.862-.017-2.794a8.133,8.133,0,0,1,.092-1.517,17.34,17.34,0,0,1,4.224-8.416,16.236,16.236,0,0,0,3-4.671,17.3,17.3,0,0,0,1.519-7.4,17.679,17.679,0,0,0-4.946-11.709,17.116,17.116,0,0,0-19.406-3.8,20.08,20.08,0,0,0-2.565,1.422,1.358,1.358,0,0,0-.381,1.928,1.429,1.429,0,0,0,1.854.565,4.782,4.782,0,0,0,.621-.34,14.141,14.141,0,0,1,9.243-1.964,13.476,13.476,0,0,1,7.345,3.278c4.314,3.644,5.849,8.306,4.91,13.819a14.716,14.716,0,0,1-3.675,7.232,20.035,20.035,0,0,0-4.446,8.338c-.031.122-.157.309-.245.313-.615.028-1.232.015-1.855.015a1.433,1.433,0,0,1,.011-.213c1.355-5.446,2.691-10.9,4.085-16.332a1.631,1.631,0,0,0-1.619-2.159c-4.228.007-8.456,0-12.685.007a1.523,1.523,0,0,0-1.613,2.047c.961,3.958,1.945,7.911,2.921,11.866.388,1.572.777,3.144,1.184,4.79m27.311,29.959h-.128c0,1.575.056,3.152-.024,4.722a6.032,6.032,0,0,1-.531,2.3,8.5,8.5,0,0,1-8.373,5.209c-2.3-.057-4.6-.163-6.9-.206a4.415,4.415,0,0,0-4.745,4.709c0,1.168.029,2.338,0,3.5-.029,1.064-.221,1.233-1.275,1.236-2.435.007-4.871,0-7.307,0a4.18,4.18,0,0,0-.954.1,1.422,1.422,0,0,0-1.071,1.376,1.551,1.551,0,0,0,1.752,1.553c2.588.012,5.176.034,7.763,0a3.9,3.9,0,0,0,4.051-4.125c-.053-1.2-.042-2.405-.013-3.607.029-1.221.571-1.717,1.781-1.689,1.69.04,3.38.117,5.07.133a26.372,26.372,0,0,0,3.9-.093,11.354,11.354,0,0,0,9.932-11.492c-.055-2.742.056-5.486.064-8.23a.923.923,0,0,1,.688-.982c.525-.187,1.051-.373,1.561-.594a4.1,4.1,0,0,0,2.145-1.926,4.222,4.222,0,0,0-.37-4.469c-1.152-1.733-2.309-3.463-3.5-5.167a2.007,2.007,0,0,1-.014-2.434,11.683,11.683,0,0,0,1.288-2.841,10.928,10.928,0,0,0-.044-4.687,24.765,24.765,0,0,0-5.387-12.135,9.129,9.129,0,0,0-1.051-1.1,1.438,1.438,0,0,0-2.245,1.6,4.181,4.181,0,0,0,.614.921c.509.654,1.092,1.256,1.544,1.946a24.208,24.208,0,0,1,3.678,9.743,6.674,6.674,0,0,1-1.108,5.389,4,4,0,0,0-.718,2.6,5.45,5.45,0,0,0,1.187,2.915c1.125,1.648,2.247,3.3,3.344,4.968a1.265,1.265,0,0,1-.642,2.017c-.545.227-1.108.411-1.662.614a3.216,3.216,0,0,0-1.989,1.974,5.575,5.575,0,0,0-.295,1.734c-.04,1.506-.013,3.014-.013,4.521M94.8,65.495a1.45,1.45,0,0,0-1.564,1.531,1.488,1.488,0,0,0,1.127,1.4c1.151.386,2.308.754,3.463,1.129.9.291,1.789.61,2.7.865a1.467,1.467,0,1,0,.864-2.8c-2.042-.7-4.1-1.364-6.147-2.037a3.021,3.021,0,0,0-.441-.09m51.782,5c.146-.038.443-.1.731-.191q2.1-.673,4.186-1.36c.592-.195,1.192-.376,1.766-.617a1.418,1.418,0,0,0,.875-1.6,1.5,1.5,0,0,0-1.388-1.2,2.455,2.455,0,0,0-.84.143c-1.635.533-3.265,1.081-4.9,1.627a11.32,11.32,0,0,0-1.286.458,1.309,1.309,0,0,0-.727,1.6,1.492,1.492,0,0,0,1.579,1.142m-10.34-13.535c.044.225.057.343.09.454A1.455,1.455,0,0,0,137.48,58.5a1.4,1.4,0,0,0,1.513-.586c.889-1.213,1.753-2.444,2.624-3.67a14.26,14.26,0,0,0,.969-1.423,1.825,1.825,0,0,0,.214-1,1.35,1.35,0,0,0-1.142-1.2,1.39,1.39,0,0,0-1.5.619q-1.8,2.453-3.565,4.931a3.9,3.9,0,0,0-.35.784m-11.03-7.371h-.009c0-.88.007-1.76,0-2.64a3.694,3.694,0,0,0-.092-.854A1.494,1.494,0,0,0,123.635,45a1.513,1.513,0,0,0-1.372,1.219,1.624,1.624,0,0,0-.049.3c0,2-.027,3.994.028,5.988a1.472,1.472,0,0,0,1.549,1.473,1.5,1.5,0,0,0,1.422-1.652c.005-.914,0-1.828,0-2.742m-14.082,7.328a3.711,3.711,0,0,0-.348-.759c-1.144-1.614-2.309-3.213-3.469-4.815a2.333,2.333,0,0,0-.3-.34,1.365,1.365,0,0,0-1.5-.318,1.26,1.26,0,0,0-.924,1.213,3.007,3.007,0,0,0,.538,1.428c.885,1.3,1.835,2.554,2.766,3.82a9.185,9.185,0,0,0,.793.986,1.283,1.283,0,0,0,1.541.265,1.537,1.537,0,0,0,.9-1.482" transform="translate(-54.716 -26.655)" fill="#fff"/>
    <path id="Trazado_705990" data-name="Trazado 705990" d="M119.86,114.1c-.407-1.645-.8-3.218-1.184-4.79-.976-3.955-1.961-7.908-2.921-11.866a1.523,1.523,0,0,1,1.613-2.047c4.228-.011,8.456,0,12.684-.007a1.631,1.631,0,0,1,1.619,2.159c-1.4,5.435-2.73,10.886-4.086,16.332a1.494,1.494,0,0,0-.011.213c.624,0,1.24.013,1.855-.015.088,0,.215-.191.245-.313a20.035,20.035,0,0,1,4.446-8.338,14.716,14.716,0,0,0,3.675-7.232c.939-5.514-.6-10.175-4.91-13.819a13.476,13.476,0,0,0-7.345-3.278,14.139,14.139,0,0,0-9.243,1.964,4.786,4.786,0,0,1-.621.34,1.429,1.429,0,0,1-1.854-.565,1.358,1.358,0,0,1,.381-1.928,20.079,20.079,0,0,1,2.565-1.422,17.117,17.117,0,0,1,19.406,3.8,17.679,17.679,0,0,1,4.946,11.709,17.293,17.293,0,0,1-1.519,7.4,16.228,16.228,0,0,1-3,4.671,17.34,17.34,0,0,0-4.224,8.416,8.133,8.133,0,0,0-.092,1.517c-.006.931.05,1.864.017,2.794a3.929,3.929,0,0,1-2.552,3.644.546.546,0,0,0-.384.589,5.946,5.946,0,0,1-1.563,4.077,5.288,5.288,0,0,1-5.681,1.581,5.754,5.754,0,0,1-4-4.632,13.882,13.882,0,0,1-.161-1.473,3.781,3.781,0,0,1-2.744-2.9,10.31,10.31,0,0,1-.131-2.728c.222-3.665-1.18-6.769-3.235-9.657a18.8,18.8,0,0,0-1.237-1.48,17.875,17.875,0,0,1-2.986-4.806c-.077-.18-.179-.348-.329-.638-1.189.96-2.377,1.8-3.431,2.792a25.869,25.869,0,0,0-8.34,16.8,26.666,26.666,0,0,0,6.657,21,21.507,21.507,0,0,0,7.662,5.551,7.042,7.042,0,0,1,.686.324,1.513,1.513,0,0,1,.656,1.968,1.421,1.421,0,0,1-1.833.733c-.8-.319-1.557-.732-2.332-1.107-.15-.073-.294-.157-.512-.274-.02.268-.049.479-.049.689q0,7.189.008,14.378c0,1.052.206,1.294,1.255,1.312.778.013,1.557-.034,2.333.009a1.5,1.5,0,0,1,1.423,2.082,1.521,1.521,0,0,1-1.364.92,18.671,18.671,0,0,1-3.039-.031,3.871,3.871,0,0,1-3.667-3.952c-.011-.152-.013-.3-.013-.457,0-5-.029-9.993.021-14.989a3.9,3.9,0,0,0-1.394-3.107,28.887,28.887,0,0,1-5.711-7.15,30.818,30.818,0,0,1-3.8-12.156,29.342,29.342,0,0,1,2.65-15.565A28.679,28.679,0,0,1,106.109,98.7a.609.609,0,0,0,.368-.715A17.248,17.248,0,0,1,108.6,86.835a1.694,1.694,0,0,1,1.3-1.025,1.413,1.413,0,0,1,1.513,1.979c-.343.808-.821,1.564-1.112,2.387-1.936,5.469-1.129,10.485,2.72,14.865a20.823,20.823,0,0,1,4.572,8.375c.136.5.307.763.873.692a11.61,11.61,0,0,1,1.395-.011m4.63,0,3.867-15.635h-9.314l3.867,15.635Zm-6.427,3.112c0,.875-.044,1.671.012,2.459a1.074,1.074,0,0,0,1.233,1.12q4.412.016,8.824,0a1.066,1.066,0,0,0,1.165-1.13c.029-.642-.023-1.287.009-1.928.02-.395-.076-.522-.5-.52-3.212.017-6.424.006-9.636,0h-1.111m2.987,6.669a2.771,2.771,0,0,0,1.488,2.686,2.436,2.436,0,0,0,2.761-.191,2.631,2.631,0,0,0,1.039-2.494Z" transform="translate(-54.716 -46.187)" fill="#161615"/>
    <path id="Trazado_705991" data-name="Trazado 705991" d="M181.329,180.15c0-1.507-.026-3.015.013-4.522a5.547,5.547,0,0,1,.295-1.734,3.213,3.213,0,0,1,1.988-1.974c.554-.2,1.117-.388,1.662-.614a1.265,1.265,0,0,0,.642-2.018c-1.1-1.668-2.218-3.319-3.343-4.967a5.453,5.453,0,0,1-1.187-2.915,4,4,0,0,1,.718-2.6,6.672,6.672,0,0,0,1.108-5.388,24.2,24.2,0,0,0-3.678-9.743c-.452-.69-1.035-1.293-1.544-1.947a4.177,4.177,0,0,1-.614-.92,1.438,1.438,0,0,1,2.245-1.6,9.134,9.134,0,0,1,1.051,1.1,24.763,24.763,0,0,1,5.387,12.135,10.935,10.935,0,0,1,.044,4.687,11.7,11.7,0,0,1-1.288,2.841,2.007,2.007,0,0,0,.014,2.434c1.194,1.7,2.351,3.434,3.5,5.167a4.222,4.222,0,0,1,.37,4.469,4.1,4.1,0,0,1-2.145,1.926c-.51.221-1.037.407-1.561.594a.922.922,0,0,0-.688.982c-.008,2.743-.119,5.488-.064,8.23a11.354,11.354,0,0,1-9.932,11.491,26.259,26.259,0,0,1-3.9.093c-1.69-.016-3.38-.093-5.07-.132-1.21-.029-1.752.468-1.781,1.689-.029,1.2-.04,2.407.013,3.607a3.9,3.9,0,0,1-4.051,4.125c-2.587.039-5.176.016-7.763,0a1.551,1.551,0,0,1-1.752-1.553,1.422,1.422,0,0,1,1.071-1.376,4.182,4.182,0,0,1,.954-.1c2.435-.007,4.871,0,7.306,0,1.055,0,1.247-.172,1.276-1.236.031-1.168,0-2.337,0-3.5a4.414,4.414,0,0,1,4.745-4.709c2.3.043,4.6.148,6.9.205a8.5,8.5,0,0,0,8.373-5.209,6.036,6.036,0,0,0,.531-2.3c.08-1.57.024-3.148.024-4.722h.128" transform="translate(-88.874 -82.28)" fill="#161615"/>
    <path id="Trazado_705992" data-name="Trazado 705992" d="M96.074,95.29a3.024,3.024,0,0,1,.441.09c2.051.673,4.1,1.339,6.146,2.037a1.467,1.467,0,1,1-.864,2.8c-.908-.255-1.8-.573-2.7-.865-1.155-.375-2.312-.743-3.463-1.129a1.488,1.488,0,0,1-1.127-1.4,1.45,1.45,0,0,1,1.564-1.531" transform="translate(-55.987 -56.45)" fill="#161615"/>
    <path id="Trazado_705993" data-name="Trazado 705993" d="M223.019,100.315a1.492,1.492,0,0,1-1.579-1.142,1.31,1.31,0,0,1,.727-1.6,11.4,11.4,0,0,1,1.286-.458c1.631-.546,3.261-1.094,4.9-1.627a2.466,2.466,0,0,1,.84-.143,1.5,1.5,0,0,1,1.388,1.2,1.417,1.417,0,0,1-.875,1.6c-.574.241-1.173.422-1.766.617q-2.09.687-4.186,1.36c-.287.092-.584.153-.731.191" transform="translate(-131.15 -56.48)" fill="#161615"/>
    <path id="Trazado_705994" data-name="Trazado 705994" d="M200.025,65.077a3.88,3.88,0,0,1,.35-.784q1.763-2.479,3.565-4.931a1.39,1.39,0,0,1,1.5-.619,1.351,1.351,0,0,1,1.142,1.2,1.825,1.825,0,0,1-.214,1,14.348,14.348,0,0,1-.969,1.423c-.871,1.226-1.735,2.457-2.624,3.67a1.4,1.4,0,0,1-1.513.586,1.455,1.455,0,0,1-1.145-1.093c-.033-.112-.046-.23-.09-.454" transform="translate(-118.496 -34.776)" fill="#161615"/>
    <path id="Trazado_705995" data-name="Trazado 705995" d="M168.6,49.584c0,.914,0,1.828,0,2.742a1.5,1.5,0,0,1-1.423,1.652,1.471,1.471,0,0,1-1.549-1.473c-.055-2-.026-3.992-.028-5.988a1.624,1.624,0,0,1,.049-.3A1.513,1.513,0,0,1,167.016,45a1.494,1.494,0,0,1,1.475,1.094,3.694,3.694,0,0,1,.092.854c.011.88,0,1.76,0,2.64h.009" transform="translate(-98.096 -26.654)" fill="#161615"/>
    <path id="Trazado_705996" data-name="Trazado 705996" d="M128.9,65.03a1.537,1.537,0,0,1-.9,1.482,1.283,1.283,0,0,1-1.541-.265,9.183,9.183,0,0,1-.793-.986c-.932-1.267-1.881-2.522-2.766-3.82a3.007,3.007,0,0,1-.538-1.428,1.26,1.26,0,0,1,.924-1.213,1.365,1.365,0,0,1,1.5.318,2.332,2.332,0,0,1,.3.34c1.161,1.6,2.326,3.2,3.469,4.815a3.711,3.711,0,0,1,.348.759" transform="translate(-72.485 -34.773)" fill="#161615"/>
    <path id="Trazado_705997" data-name="Trazado 705997" d="M163.269,143.881h-1.579l-3.868-15.635h9.314c-1.294,5.23-2.577,10.418-3.868,15.635" transform="translate(-93.495 -75.974)" fill="#ffc403"/>
    <path id="Trazado_705998" data-name="Trazado 705998" d="M155.393,174.234H156.5c3.212,0,6.424.013,9.636,0,.421,0,.516.125.5.52-.032.641.02,1.286-.009,1.928a1.066,1.066,0,0,1-1.165,1.131q-4.412.018-8.824,0a1.074,1.074,0,0,1-1.233-1.12c-.056-.788-.013-1.584-.013-2.459" transform="translate(-92.046 -103.215)" fill="#fff"/>
    <path id="Trazado_705999" data-name="Trazado 705999" d="M162.744,190.6h5.289a2.631,2.631,0,0,1-1.039,2.494,2.436,2.436,0,0,1-2.761.191,2.771,2.771,0,0,1-1.488-2.686" transform="translate(-96.41 -112.914)" fill="#fff"/>
  </g>
</svg>
