<svg id="Grupo_975141" data-name="Grupo 975141" xmlns="http://www.w3.org/2000/svg" xmlns:xlink="http://www.w3.org/1999/xlink" width="140.333" height="140.333" viewBox="0 0 140.333 140.333">
  <defs>
    <clipPath id="clip-path">
      <rect id="Rect치ngulo_349285" data-name="Rect치ngulo 349285" width="140.333" height="140.333" fill="none"/>
    </clipPath>
    <clipPath id="clip-path-2">
      <rect id="Rect치ngulo_349286" data-name="Rect치ngulo 349286" width="105" height="103.056" fill="none"/>
    </clipPath>
  </defs>
  <g id="Grupo_975139" data-name="Grupo 975139" clip-path="url(#clip-path)">
    <path id="Trazado_705987" data-name="Trazado 705987" d="M140.333,70.167A70.167,70.167,0,1,1,70.167,0a70.167,70.167,0,0,1,70.167,70.167" transform="translate(2)" fill="#06d1d1"/>
    <g id="Grupo_975144" data-name="Grupo 975144" transform="translate(21.333 15.341)">
      <path id="Trazado_706000" data-name="Trazado 706000" d="M31.5,169.077l7.8,7.072L36.378,191.27h3.9l7.073-17.559L36.134,161.272Z" transform="translate(-18.537 -94.902)" fill="#abffff"/>
      <path id="Trazado_706001" data-name="Trazado 706001" d="M182.612,102.606l4.146,7.072,10.975,5.853-.976,11.706,9.024,3.9.976-15.12-4.146-4.878Z" transform="translate(-107.459 -60.379)" fill="#ffc403"/>
      <g id="Grupo_975143" data-name="Grupo 975143">
        <g id="Grupo_975142" data-name="Grupo 975142" clip-path="url(#clip-path-2)">
          <path id="Trazado_706002" data-name="Trazado 706002" d="M54.6,62.912a6,6,0,0,0-.8-.183c-.817-.065-1.643-.058-2.454-.166a2.3,2.3,0,0,1-2.208-2.622,1.1,1.1,0,0,0-.447-1.005c-.531-.429-1.017-.916-1.556-1.335a.765.765,0,0,0-.622-.085c-.546.192-1.054.5-1.6.664a.688.688,0,0,0-.546.736c-.039.751-.08,1.5-.141,2.251a2.905,2.905,0,0,1-3.132,2.888c-.615,0-1.232-.036-1.846-.013a.562.562,0,0,0-.429.279,7.273,7.273,0,0,1-6.8,5.583q-3.566.386-7.121.868a3.672,3.672,0,0,1-2.273-.417c-.875-.462-1.738-.95-2.607-1.423-.162-.088-.331-.161-.568-.276-.015.221-.033.38-.034.54-.009,1.777,0,3.555-.032,5.333a1.287,1.287,0,0,0,.5.957q3.351,3.464,6.7,6.93c1.067,1.108,2.134,2.217,3.171,3.353a4.721,4.721,0,0,1,.889,5.483c-1.582,3.7-3.052,7.45-4.58,11.175-.615,1.5-1.285,2.976-1.886,4.481a1.871,1.871,0,0,1-1.862,1.255c-1.042.025-2.086,0-3.129,0a1.668,1.668,0,0,1-1.732-2.2c1.045-4.381,2.02-8.778,3.036-13.166a.919.919,0,0,0-.261-1c-.73-.719-1.418-1.482-2.108-2.24a1.591,1.591,0,0,1-.495-1.488,1.45,1.45,0,0,1,2.391-.839c1.122,1.1,2.162,2.281,3.187,3.47a2.3,2.3,0,0,1,.346,2.1Q22.273,98.47,21,104.138a3.234,3.234,0,0,0-.073.351c-.024.213-.232.5.144.587a.587.587,0,0,0,.785-.366c.6-1.507,1.21-3.006,1.827-4.5,1.389-3.375,2.764-6.757,4.19-10.116a1.906,1.906,0,0,0-.364-2.334q-2.5-2.537-4.981-5.1c-1.349-1.4-2.675-2.824-4.053-4.283a5.5,5.5,0,0,0-.268.56q-2.8,8.154-5.6,16.31-1.99,5.782-4,11.556a1.753,1.753,0,0,1-1.915,1.367c-1.077.008-2.154.012-3.231,0-1.316-.016-1.951-.674-1.8-1.964.3-2.628.657-5.25.989-7.874.286-2.27.563-4.541.857-6.81.353-2.727.74-5.449,1.073-8.178.361-2.947.821-5.891.976-8.851.183-3.478.149-6.973.087-10.459a9.085,9.085,0,0,1,3.045-6.953.558.558,0,0,0,.129-.824A4.666,4.666,0,0,1,8.182,53.3c.122-1.154.2-2.315.354-3.464a4.543,4.543,0,0,1,4.67-4.019,7.317,7.317,0,0,1,3.25.582,4.3,4.3,0,0,1,2.561,4,38.686,38.686,0,0,1-.278,4.088A4.949,4.949,0,0,1,17.321,57.4c.438.284.847.551,1.258.816,1.708,1.1,3.442,2.164,5.115,3.316a3.708,3.708,0,0,0,2.86.717c2.057-.322,4.136-.507,6.208-.732.326-.035.443-.131.411-.474-.068-.731-.07-1.469-.154-2.2a.764.764,0,0,0-.38-.507c-.662-.313-1.358-.554-2.024-.86a.534.534,0,0,0-.679.12c-.657.6-1.321,1.191-2.007,1.755a2.632,2.632,0,0,1-3.787-.094C22.817,58,21.526,56.7,20.263,55.38a2.584,2.584,0,0,1-.168-3.545c.561-.731,1.177-1.421,1.795-2.107a.525.525,0,0,0,.13-.67c-.367-.787-.7-1.588-1.057-2.4-1.021-.075-2.062-.119-3.095-.235a2.752,2.752,0,0,1-2.56-2.831c-.03-1.812-.025-3.624,0-5.436.02-1.508,1.125-2.538,2.867-2.708.8-.078,1.6-.108,2.4-.2a.7.7,0,0,0,.459-.352c.317-.679.608-1.372.863-2.076a.694.694,0,0,0-.117-.569c-.485-.6-1.009-1.161-1.517-1.739-1.33-1.514-1.307-2.85.1-4.282q1.742-1.775,3.518-3.517a2.718,2.718,0,0,1,4.062-.117c.595.514,1.188,1.031,1.766,1.563a.516.516,0,0,0,.675.084,21.739,21.739,0,0,1,2.123-.886.711.711,0,0,0,.545-.736c.048-.886.091-1.777.209-2.655a2.622,2.622,0,0,1,2.648-2.374q2.819-.053,5.641,0a2.55,2.55,0,0,1,2.571,2.266,24.96,24.96,0,0,1,.228,2.756c.018.448.121.705.591.851a9.12,9.12,0,0,1,1.687.732.691.691,0,0,0,.942-.144c.61-.573,1.235-1.134,1.886-1.659A2.6,2.6,0,0,1,53,22.456c1.449,1.375,2.847,2.81,4.2,4.281a2.511,2.511,0,0,1,.033,3.3c-.576.72-1.2,1.4-1.829,2.078a.633.633,0,0,0-.155.81c.288.618.544,1.252.775,1.893a.609.609,0,0,0,.633.463c.768.034,1.535.1,2.3.165a2.83,2.83,0,0,1,2.784,2.9c.027.717.031,1.435.037,2.153.006.7,0,1.394,0,2.1.031-.007.1,0,.122-.03a3.224,3.224,0,0,1,2.785-1c.9.037,1.812,0,2.718.019a2.471,2.471,0,0,1,2.668,2.557c.069.935.14,1.87.219,2.914a3.951,3.951,0,0,0,.564-.312q.875-.712,1.728-1.449a2.457,2.457,0,0,1,3.76.1c.792.779,1.562,1.58,2.338,2.375a2.357,2.357,0,0,1,.747,2.136c-.067.375.185.469.425.6q4.309,2.31,8.616,4.625c1.018.551,2.015,1.139,3.083,1.745.164-.42.277-.789.447-1.131.63-1.269,1.239-2.55,1.927-3.787a4.4,4.4,0,0,1,5.571-1.8,13.1,13.1,0,0,1,1.913.976,4.43,4.43,0,0,1,1.815,5.658,40.542,40.542,0,0,1-1.915,3.733,12.571,12.571,0,0,1-1.262,1.579,8.026,8.026,0,0,1,1.614,5.63c-.038,1.554.011,3.111.012,4.666a1.5,1.5,0,0,1-1.028,1.6,1.574,1.574,0,0,1-2.042-1.634q-.027-2.667,0-5.334A4.536,4.536,0,0,0,96,62.643C90.306,59.6,84.646,56.5,78.974,53.428c-.132-.072-.27-.133-.541-.264a9.3,9.3,0,0,0,.234,1.267,5.853,5.853,0,0,0,2.372,3.127c1.33.863,2.706,1.654,4.058,2.482,3.028,1.857,6.062,3.705,9.071,5.592a2.819,2.819,0,0,1,.96,1.065,1.268,1.268,0,0,1-.344,1.5,1.31,1.31,0,0,1-1.469.308,12.381,12.381,0,0,1-1.213-.618,1.23,1.23,0,0,0-.059.257q-.062,4-.12,8c0,.283,0,.513.34.651,2.006.819,4,1.663,6,2.5.091.038.19.059.307.095a7.194,7.194,0,0,1,.073-.782,1.538,1.538,0,0,1,1.538-1.37,1.516,1.516,0,0,1,1.45,1.514,15.49,15.49,0,0,1-.486,5.172c-.8,2.981-1.494,5.993-2.251,8.986a2.03,2.03,0,0,0,.173,1.531q1.145,2.146,2.278,4.3c1.269,2.417,2.553,4.826,3.79,7.259a1.525,1.525,0,0,1-1.378,2.35c-1.176.061-2.359.022-3.538,0a1.862,1.862,0,0,1-1.392-.765q-3.071-3.58-6.148-7.155c-.913-1.062-1.838-2.115-2.723-3.2-.557-.682-1.051-1.417-1.6-2.159-.036.273-.091.576-.114.88q-.419,5.442-.83,10.885a1.5,1.5,0,0,1-1.468,1.5c-1.21.047-2.427.025-3.637-.044a1.44,1.44,0,0,1-1.447-1.4c-.193-1.542-.345-3.089-.5-4.635-.323-3.126-.6-6.258-.977-9.377a5.441,5.441,0,0,1,1.071-4.038q2.907-4,5.789-8.021c.709-.984,1.4-1.981,2.123-2.956a2.325,2.325,0,0,0,.471-1.422c.04-3.179.07-6.359.182-9.535a1.361,1.361,0,0,0-.815-1.427c-2.026-1.169-4.02-2.394-6.021-3.606-.256-.155-.465-.257-.718.01a2.786,2.786,0,0,1-2.063.742c-.734.029-1.468.049-2.2.1-.446.034-.521.2-.247.55.407.526.857,1.019,1.286,1.53.209.249.423.494.61.758A2.157,2.157,0,0,1,78.77,68.4c-.941,1.058-1.939,2.073-2.975,3.038a2.181,2.181,0,0,1-2.8.116c-.78-.581-1.5-1.235-2.254-1.857l-.456-.383c-.074,1.075-.148,2.049-.208,3.023a2.236,2.236,0,0,1-2.018,2.336,30.243,30.243,0,0,1-4.5-.026c-1.28-.105-1.977-1.067-2.087-2.515-.035-.46-.067-.92-.109-1.38s-.091-.907-.147-1.466a4.31,4.31,0,0,0-.606.353c-.627.529-1.233,1.082-1.858,1.613a2.3,2.3,0,0,1-3.464-.1c-.837-.807-1.663-1.627-2.468-2.467a2.3,2.3,0,0,1-.106-3.429c.478-.58.974-1.146,1.454-1.725.137-.165.246-.355.43-.624M22.5,28.47c.778.893,1.528,1.78,2.308,2.639a1.73,1.73,0,0,1,.277,2.11c-.557,1.2-1.048,2.439-1.5,3.687a1.775,1.775,0,0,1-1.691,1.314c-1.006.065-2.01.163-3.017.2-.414.014-.519.164-.512.55.022,1.333.03,2.666.012,4-.006.4.148.481.509.494,1.041.04,2.081.116,3.122.184a1.7,1.7,0,0,1,1.623,1.242A36.382,36.382,0,0,0,25.16,48.56a1.781,1.781,0,0,1-.236,2.2c-.69.782-1.351,1.589-2.046,2.365-.209.234-.207.378.013.593q1.466,1.434,2.908,2.893c.256.26.417.272.7,0,.823-.77,1.682-1.5,2.541-2.233a1.4,1.4,0,0,1,1.53-.251q2.2.906,4.4,1.8a1.461,1.461,0,0,1,.941,1.184c.056.337.087.678.114,1.018.075.945.142,1.891.212,2.827h4.915c.074-1.148.142-2.27.22-3.392A1.719,1.719,0,0,1,42.8,55.711c.977-.351,1.952-.723,2.892-1.163,1.6-.75,1.708-.754,3.057.442.715.633,1.443,1.25,2.15,1.861.072-.028.111-.032.133-.053,1.075-1.051,2.155-2.1,3.21-3.168.077-.078.037-.383-.054-.5-.687-.851-1.4-1.682-2.106-2.515a1.639,1.639,0,0,1-.17-1.983,36.363,36.363,0,0,0,1.537-3.616A1.827,1.827,0,0,1,55.2,43.638c.972-.058,1.944-.159,2.917-.179.5-.011.638-.2.623-.671-.029-.939-.005-1.88,0-2.819,0-.475,0-.951,0-1.461-.233-.024-.4-.045-.565-.058-1.022-.08-2.044-.156-3.066-.238a1.619,1.619,0,0,1-1.5-1.124c-.519-1.35-1.046-2.7-1.618-4.027a1.607,1.607,0,0,1,.272-1.886c.806-.9,1.6-1.816,2.388-2.719l-3.557-3.5c-.893.764-1.812,1.553-2.734,2.339a1.58,1.58,0,0,1-1.931.177,32.852,32.852,0,0,0-3.42-1.478c-1.272-.466-1.582-.82-1.654-2.182-.054-1.035-.145-2.068-.222-3.131h-4.9c-.071,1.065-.151,2.087-.2,3.109-.071,1.347-.39,1.7-1.642,2.126a30.894,30.894,0,0,0-3.4,1.4c-1.23.594-1.515.608-2.568-.286-.169-.144-.33-.3-.5-.442-.65-.549-1.3-1.1-1.905-1.6L22.5,28.47M67.01,71.635c.034-.419.068-.793.094-1.167q.069-.972.13-1.943A1.719,1.719,0,0,1,68.5,66.849a5.677,5.677,0,0,0,1.135-.463,1.829,1.829,0,0,1,2.479.413c.554.557,1.159,1.062,1.733,1.6.279.261.5.342.8-.014A7.3,7.3,0,0,1,75.7,67.34c.39-.313.321-.552.03-.877-.6-.675-1.18-1.374-1.77-2.061a1.6,1.6,0,0,1-.233-1.938,11.375,11.375,0,0,0,.622-1.458,1.74,1.74,0,0,1,1.732-1.261c.791-.03,1.582-.09,2.484-.143-.216-.243-.367-.4-.5-.566-.483-.617-.982-1.224-1.429-1.866a.781.781,0,0,0-.675-.435,1.444,1.444,0,0,1-1.395-.873c-.322-.752-.616-1.516-.912-2.279a1.272,1.272,0,0,1,.238-1.342c.327-.395.678-.769,1.012-1.159.429-.5.851-1.01,1.343-1.6-.558-.524-1.088-1.006-1.6-1.508-.221-.217-.368-.136-.56.033-.719.631-1.463,1.235-2.171,1.878a1.54,1.54,0,0,1-1.884.246,9.451,9.451,0,0,0-1.41-.6A1.873,1.873,0,0,1,67.2,47.59c-.044-.984-.142-1.965-.219-2.983-.677,0-1.309.026-1.938-.009-.432-.024-.566.151-.59.553-.055.921-.139,1.84-.219,2.759a1.581,1.581,0,0,1-1.057,1.44c-.619.245-1.243.48-1.84.77a1.623,1.623,0,0,1-1.942-.231c-.711-.614-1.429-1.221-2.159-1.814-.12-.1-.394-.2-.46-.139-.571.5-1.112,1.04-1.661,1.567.126.172.181.257.247.333.655.765,1.322,1.52,1.964,2.3A1.408,1.408,0,0,1,57.34,54.2c-.3.371-.606.741-.923,1.1-1.242,1.4-2.491,2.795-3.767,4.226a3.206,3.206,0,0,0,.369.074q1.15.085,2.3.16a1.65,1.65,0,0,1,1.645,1.214,6.658,6.658,0,0,0,.562,1.316,1.884,1.884,0,0,1-.392,2.495c-.639.659-1.23,1.365-1.784,1.984l1.728,1.884c.853-.739,1.68-1.454,2.5-2.17a1.5,1.5,0,0,1,1.623-.3c.7.27,1.392.56,2.085.849a1.341,1.341,0,0,1,.867,1.061c.079.488.131.981.181,1.473.07.688.128,1.377.191,2.068ZM8.632,74.114c.217,0,.368,0,.518,0,2.205-.034,4.41-.079,6.615-.095.438,0,.549-.163.548-.572,0-1.555.021-3.11.032-4.666,0-.608.208-1.344-.061-1.791-.286-.475-1.026-.678-1.568-1-.441-.261-.907-.485-1.318-.786a1.467,1.467,0,0,1,1.524-2.5c.247.115.49.242.728.375,2.565,1.427,5.14,2.839,7.687,4.3a2.826,2.826,0,0,0,1.861.343c2.118-.272,4.235-.549,6.355-.8A4.8,4.8,0,0,0,35.294,64.9a4.954,4.954,0,0,0,.28-.608c-3,.325-5.89.581-8.762.972a5.334,5.334,0,0,1-4.174-.868c-.641-.478-1.368-.839-2.042-1.274-2.154-1.387-4.283-2.812-6.459-4.164a2.54,2.54,0,0,0-2.819-.171A5.472,5.472,0,0,0,8.736,63.33q-.054,5.024-.1,10.049c0,.219,0,.439,0,.736m-.2,3.032c-.04.225-.073.373-.092.523-.529,4.217-1.046,8.435-1.588,12.65-.614,4.77-1.25,9.537-1.871,14.306a.517.517,0,0,0,.066.373c.242.255,1.08,0,1.2-.342q.531-1.52,1.058-3.041,4.144-11.986,8.284-23.973a4.5,4.5,0,0,0,.116-.5Zm92.805,28.21.107-.142c-.128-.256-.25-.514-.384-.767q-2.326-4.384-4.653-8.768a4.527,4.527,0,0,1-.383-3.415c.817-3.081,1.572-6.178,2.363-9.265.084-.326.017-.48-.311-.611-1.9-.76-3.789-1.546-5.684-2.319-.149-.061-.309-.1-.565-.172,0,.32.007.553,0,.785-.053,1.57-.1,3.141-.167,4.711-.107,2.577-.217,5.153-.349,7.729a2.275,2.275,0,0,0,.61,1.68c.191.219.386.434.575.654q1.926,2.23,3.849,4.462c1.467,1.71,2.921,3.432,4.4,5.134a1.853,1.853,0,0,0,.595.305M88.593,82.916l-.143-.052q-.857,1.2-1.714,2.391c-1.256,1.746-2.5,3.5-3.778,5.232a2.55,2.55,0,0,0-.589,1.991c.146.978.231,1.966.336,2.95q.5,4.685.986,9.373c.03.285.071.493.433.488s.34-.242.359-.487c.226-2.912.485-5.821.673-8.735a5.955,5.955,0,0,1,2.121-4.537c.2-.161.362-.364.559-.527a1.159,1.159,0,0,0,.44-.929c.043-1.5.111-3,.177-4.506.039-.884.093-1.768.14-2.652m8.722-23.133a1.5,1.5,0,0,0,1.434-.755c.6-1.128,1.189-2.261,1.735-3.415a1.429,1.429,0,0,0-.555-1.877,10.016,10.016,0,0,0-1.64-.822,1.394,1.394,0,0,0-1.812.632c-.628,1.131-1.2,2.292-1.762,3.458a1.3,1.3,0,0,0,.2,1.535,4.79,4.79,0,0,0,2.4,1.245M13.348,48.858c-.967-.005-1.628.335-1.72,1.032q-.277,2.1-.415,4.22A1.243,1.243,0,0,0,12.45,55.4c.493.039.986.084,1.474.158a1.347,1.347,0,0,0,1.735-1.238c.161-1.25.277-2.507.358-3.765A1.4,1.4,0,0,0,14.721,49c-.454-.07-.915-.1-1.373-.143m46.545-2.375a6.194,6.194,0,0,0,.894.489.476.476,0,0,0,.421-.193c.1-.451.125-.916.193-1.5l-1.508,1.205" transform="translate(-0.959 -10.336)" fill="#161615"/>
          <path id="Trazado_706003" data-name="Trazado 706003" d="M21.085,16.089c.587-.192,1.111-.4,1.654-.532a1.461,1.461,0,0,1,.947,2.747c-1.779.7-3.576,1.346-5.381,1.968a1.435,1.435,0,0,1-1.736-.847c-.675-1.75-1.321-3.513-1.917-5.29a1.411,1.411,0,0,1,.946-1.756,1.428,1.428,0,0,1,1.824.807c.237.528.42,1.079.658,1.7.149-.2.3-.363.414-.551A29.357,29.357,0,0,1,30.663,3.059,27.593,27.593,0,0,1,40.694.179C41.681.1,42.671,0,43.659,0a1.515,1.515,0,0,1,1.449,2.2,1.742,1.742,0,0,1-1.689.858A26.229,26.229,0,0,0,21.355,15.408a5.4,5.4,0,0,0-.267.495c-.019.038,0,.093,0,.186" transform="translate(-8.581 0)" fill="#161615"/>
          <path id="Trazado_706004" data-name="Trazado 706004" d="M178.126,66.66c.1-.34.2-.737.344-1.118a1.46,1.46,0,0,1,1.823-.91,1.5,1.5,0,0,1,1.047,1.753c-.35,1.476-.7,2.953-1.089,4.42a1.5,1.5,0,0,1-2.038,1.237c-1.579-.36-3.16-.719-4.719-1.155a1.475,1.475,0,0,1-.691-2.508,1.727,1.727,0,0,1,1.633-.343c.281.047.557.123.926.206a2.634,2.634,0,0,0-.222-.368,18.022,18.022,0,0,0-10.36-6.067c-1.172-.205-2.375-.229-3.562-.354a1.489,1.489,0,0,1-1.262-2.164,1.359,1.359,0,0,1,1.345-.855,29.9,29.9,0,0,1,3.313.268,20.016,20.016,0,0,1,10.513,4.921c1.056.934,1.988,2.007,3,3.038" transform="translate(-94.036 -34.385)" fill="#161615"/>
          <path id="Trazado_706005" data-name="Trazado 706005" d="M4.752,242.947c.99,0,1.98-.021,2.97.005a1.528,1.528,0,0,1,1.385,2.275,1.372,1.372,0,0,1-1.3.763c-2.082.023-4.164.035-6.246,0A1.546,1.546,0,0,1,0,244.473a1.573,1.573,0,0,1,1.628-1.507c1.04-.033,2.082-.007,3.123-.007Z" transform="translate(0 -142.959)" fill="#161615"/>
          <path id="Trazado_706006" data-name="Trazado 706006" d="M237.208,242.965c1.026,0,2.052-.015,3.077.005a1.511,1.511,0,0,1,1.428.915,1.414,1.414,0,0,1-.168,1.5,1.516,1.516,0,0,1-1.294.62c-2.068.022-4.137.036-6.205,0a1.514,1.514,0,0,1,.034-3.027c1.041-.044,2.085-.01,3.128-.01Z" transform="translate(-136.856 -142.97)" fill="#161615"/>
          <path id="Trazado_706007" data-name="Trazado 706007" d="M43.287,242.955c.973,0,1.947-.005,2.92,0a1.525,1.525,0,0,1,1.644,1.41,1.5,1.5,0,0,1-1.431,1.615,5.278,5.278,0,0,1-.766.039q-2.356,0-4.713,0c-.154,0-.307,0-.461,0-1.144-.03-1.863-.634-1.848-1.552s.736-1.5,1.889-1.508c.922-.007,1.844,0,2.766,0v0" transform="translate(-22.733 -142.967)" fill="#161615"/>
          <path id="Trazado_706008" data-name="Trazado 706008" d="M192.87,242.957c.957,0,1.914-.007,2.871,0a1.535,1.535,0,0,1,1.631,1.433A1.519,1.519,0,0,1,196,245.969a3.278,3.278,0,0,1-.56.051q-2.717.006-5.433,0a1.784,1.784,0,0,1-1.551-.628,1.465,1.465,0,0,1,.737-2.316,3.268,3.268,0,0,1,.858-.114c.94-.014,1.88,0,2.819-.005" transform="translate(-110.713 -142.968)" fill="#161615"/>
          <path id="Trazado_706009" data-name="Trazado 706009" d="M46.423,32.927l3.515-3.489c.6.507,1.255,1.054,1.905,1.6.17.143.33.3.5.442,1.052.894,1.337.88,2.567.286a30.926,30.926,0,0,1,3.4-1.4c1.253-.43,1.572-.779,1.642-2.126.053-1.022.133-2.043.2-3.108h4.9c.077,1.063.168,2.1.223,3.131.072,1.362.382,1.715,1.654,2.182a32.883,32.883,0,0,1,3.42,1.478,1.581,1.581,0,0,0,1.931-.177c.921-.786,1.84-1.575,2.733-2.339l3.557,3.5c-.792.9-1.582,1.819-2.388,2.719a1.607,1.607,0,0,0-.272,1.886c.572,1.328,1.1,2.676,1.618,4.027a1.619,1.619,0,0,0,1.5,1.124c1.021.082,2.044.158,3.066.238.167.013.333.034.566.058,0,.511,0,.986,0,1.461,0,.94-.025,1.881,0,2.819.015.475-.119.66-.623.671-.973.021-1.944.122-2.916.179a1.827,1.827,0,0,0-1.749,1.381,36.457,36.457,0,0,1-1.537,3.616,1.638,1.638,0,0,0,.17,1.983c.708.833,1.419,1.665,2.106,2.515.092.114.131.419.055.5-1.056,1.071-2.136,2.117-3.211,3.168-.022.021-.061.026-.133.053-.707-.611-1.435-1.228-2.15-1.861-1.35-1.2-1.454-1.192-3.058-.442-.94.439-1.914.811-2.892,1.163A1.719,1.719,0,0,0,65.3,62.022c-.078,1.122-.146,2.245-.22,3.392H60.164c-.07-.936-.137-1.882-.212-2.827-.027-.34-.058-.682-.114-1.018a1.46,1.46,0,0,0-.941-1.184q-2.2-.893-4.4-1.8a1.4,1.4,0,0,0-1.53.251c-.86.73-1.719,1.463-2.541,2.233-.288.27-.449.257-.705,0q-1.44-1.46-2.908-2.893c-.22-.215-.222-.359-.012-.593.7-.776,1.356-1.583,2.046-2.365a1.781,1.781,0,0,0,.236-2.2,36.378,36.378,0,0,1-1.53-3.673A1.7,1.7,0,0,0,45.933,48.1c-1.04-.068-2.08-.144-3.122-.184-.361-.014-.514-.1-.509-.494.019-1.333.01-2.666-.012-4-.007-.386.1-.535.512-.55,1.007-.035,2.012-.133,3.017-.2a1.775,1.775,0,0,0,1.691-1.314c.45-1.247.941-2.484,1.5-3.687a1.73,1.73,0,0,0-.277-2.11c-.779-.86-1.529-1.746-2.308-2.639M70.683,45.279a8.191,8.191,0,1,1-14.4-5.348,8.4,8.4,0,0,1,10.438-1.7c.35.212.668.476,1.018.688a1.472,1.472,0,0,0,1.783-2.329,4.813,4.813,0,0,0-.556-.451,11.207,11.207,0,0,0-17.1,12.746,11.2,11.2,0,0,0,20.8,1.017,10.582,10.582,0,0,0,.726-7.1,1.386,1.386,0,0,0-1.409-1.043,1.461,1.461,0,0,0-1.4,1.075,3.773,3.773,0,0,0-.018,1.016c.027.477.083.952.126,1.428" transform="translate(-24.885 -14.793)" fill="#a03d3d"/>
          <path id="Trazado_706010" data-name="Trazado 706010" d="M139.96,110.285h-2.479c-.063-.691-.121-1.38-.191-2.068-.05-.492-.1-.985-.182-1.473a1.341,1.341,0,0,0-.867-1.061c-.693-.289-1.385-.579-2.085-.849a1.5,1.5,0,0,0-1.623.3c-.825.716-1.652,1.431-2.5,2.17l-1.728-1.884c.554-.619,1.145-1.324,1.784-1.984a1.885,1.885,0,0,0,.392-2.5,6.646,6.646,0,0,1-.562-1.315,1.65,1.65,0,0,0-1.645-1.214q-1.151-.075-2.3-.16a3.189,3.189,0,0,1-.369-.074c1.277-1.431,2.525-2.826,3.767-4.226.317-.358.621-.728.923-1.1a1.408,1.408,0,0,0-.009-2.068c-.642-.775-1.31-1.53-1.964-2.3-.065-.077-.121-.162-.247-.333.55-.527,1.09-1.065,1.661-1.567.066-.058.34.042.46.139q1.094.888,2.159,1.813a1.623,1.623,0,0,0,1.942.231c.6-.291,1.221-.525,1.84-.77a1.581,1.581,0,0,0,1.057-1.44c.08-.919.164-1.838.219-2.759.024-.4.158-.577.59-.553.628.035,1.26.009,1.938.009.077,1.018.175,2,.219,2.983a1.873,1.873,0,0,0,1.42,1.942,9.409,9.409,0,0,1,1.41.6,1.54,1.54,0,0,0,1.884-.246c.708-.643,1.452-1.247,2.171-1.878.192-.169.339-.25.56-.033.51.5,1.04.984,1.6,1.508-.493.586-.914,1.093-1.344,1.6-.333.389-.684.764-1.011,1.158a1.273,1.273,0,0,0-.238,1.343c.3.763.59,1.527.912,2.279a1.443,1.443,0,0,0,1.395.873.783.783,0,0,1,.675.435c.447.642.946,1.249,1.429,1.866.132.169.283.323.5.567-.9.053-1.692.113-2.484.143a1.74,1.74,0,0,0-1.731,1.261,11.32,11.32,0,0,1-.623,1.458,1.6,1.6,0,0,0,.233,1.938c.59.687,1.166,1.387,1.77,2.061.291.325.36.565-.03.877a7.362,7.362,0,0,0-1.056,1.045c-.293.356-.518.274-.8.014-.574-.537-1.179-1.042-1.733-1.6a1.828,1.828,0,0,0-2.479-.413,5.677,5.677,0,0,1-1.135.463,1.72,1.72,0,0,0-1.265,1.675q-.06.972-.129,1.944c-.027.374-.06.748-.094,1.167m-1.224-19.417a6.071,6.071,0,0,0-6.062,5.624,6.007,6.007,0,0,0,5.628,6.235,5.841,5.841,0,0,0,6.23-5.748,5.9,5.9,0,0,0-5.8-6.111" transform="translate(-73.91 -48.986)" fill="#a03d3d"/>
          <path id="Trazado_706011" data-name="Trazado 706011" d="M18.643,132.552c0-.3,0-.516,0-.735q.051-5.024.1-10.049a5.47,5.47,0,0,1,2.582-4.538,2.54,2.54,0,0,1,2.82.17c2.175,1.352,4.305,2.777,6.459,4.164.675.435,1.4.8,2.042,1.274a5.334,5.334,0,0,0,4.174.868c2.872-.391,5.762-.648,8.762-.972a4.914,4.914,0,0,1-.28.608,4.8,4.8,0,0,1-3.741,2.02c-2.12.254-4.237.53-6.355.8a2.823,2.823,0,0,1-1.861-.343c-2.547-1.46-5.121-2.872-7.687-4.3-.239-.133-.481-.26-.728-.375a1.467,1.467,0,0,0-1.524,2.5c.411.3.877.526,1.318.786.542.321,1.282.523,1.568,1,.27.447.065,1.182.061,1.791-.011,1.556-.037,3.111-.032,4.667,0,.409-.11.569-.548.572-2.205.015-4.41.06-6.615.094-.151,0-.3,0-.518,0" transform="translate(-10.97 -68.774)" fill="#b20d0d"/>
          <path id="Trazado_706012" data-name="Trazado 706012" d="M13.071,162.341h7.174a4.56,4.56,0,0,1-.115.5q-4.14,11.988-8.284,23.973-.526,1.522-1.058,3.041c-.121.347-.959.6-1.2.342a.517.517,0,0,1-.066-.373c.621-4.769,1.258-9.536,1.871-14.306.542-4.215,1.058-8.433,1.588-12.65.019-.15.052-.3.092-.523" transform="translate(-5.598 -95.53)" fill="#abffff"/>
          <path id="Trazado_706013" data-name="Trazado 706013" d="M229.321,194.485a1.865,1.865,0,0,1-.595-.305c-1.476-1.7-2.931-3.423-4.4-5.134q-1.917-2.237-3.848-4.462c-.19-.22-.385-.435-.575-.654a2.271,2.271,0,0,1-.61-1.68c.132-2.575.242-5.152.349-7.729.065-1.57.113-3.14.166-4.711.008-.232,0-.465,0-.785.255.077.415.111.565.172,1.894.774,3.784,1.559,5.683,2.319.328.131.395.285.311.612-.791,3.087-1.547,6.184-2.363,9.265a4.529,4.529,0,0,0,.383,3.415q2.32,4.387,4.653,8.768c.134.252.256.511.384.767l-.107.142" transform="translate(-129.043 -99.464)" fill="#abffff"/>
          <path id="Trazado_706014" data-name="Trazado 706014" d="M204,176.285c-.047.884-.1,1.767-.14,2.652-.067,1.5-.134,3-.177,4.506a1.159,1.159,0,0,1-.44.929c-.2.163-.361.366-.559.527a5.957,5.957,0,0,0-2.121,4.537c-.187,2.914-.447,5.823-.672,8.734-.019.245.006.482-.359.487s-.4-.2-.433-.488q-.485-4.687-.986-9.373c-.1-.984-.19-1.972-.336-2.95a2.551,2.551,0,0,1,.589-1.99c1.279-1.729,2.522-3.486,3.778-5.232q.859-1.195,1.714-2.391l.144.052" transform="translate(-116.365 -103.705)" fill="#abffff"/>
          <path id="Trazado_706015" data-name="Trazado 706015" d="M230.187,110.162a4.789,4.789,0,0,1-2.4-1.245,1.3,1.3,0,0,1-.2-1.535c.56-1.166,1.134-2.328,1.762-3.458a1.393,1.393,0,0,1,1.812-.632,9.978,9.978,0,0,1,1.64.822,1.43,1.43,0,0,1,.556,1.877c-.546,1.154-1.137,2.287-1.735,3.415a1.5,1.5,0,0,1-1.434.755" transform="translate(-133.831 -60.714)" fill="#ffe8ce"/>
          <path id="Trazado_706016" data-name="Trazado 706016" d="M27.045,93.6c.458.046.919.073,1.373.143a1.4,1.4,0,0,1,1.3,1.557c-.081,1.258-.2,2.515-.358,3.765a1.348,1.348,0,0,1-1.736,1.238c-.488-.075-.981-.119-1.473-.158a1.243,1.243,0,0,1-1.238-1.291q.135-2.116.416-4.22c.092-.7.753-1.037,1.72-1.032" transform="translate(-14.656 -55.082)" fill="#ffe8ce"/>
          <path id="Trazado_706017" data-name="Trazado 706017" d="M143.2,86.109l1.508-1.205c-.068.586-.1,1.05-.193,1.5a.476.476,0,0,1-.421.193,6.191,6.191,0,0,1-.894-.489" transform="translate(-84.267 -49.962)" fill="#fff"/>
          <path id="Trazado_706018" data-name="Trazado 706018" d="M83.485,58.015c-.044-.476-.1-.951-.126-1.428a3.772,3.772,0,0,1,.018-1.016,1.461,1.461,0,0,1,1.4-1.075,1.386,1.386,0,0,1,1.409,1.043,10.582,10.582,0,0,1-.726,7.1,11.2,11.2,0,0,1-20.8-1.017,11.207,11.207,0,0,1,17.1-12.746,4.811,4.811,0,0,1,.556.451,1.472,1.472,0,0,1-1.783,2.329c-.35-.212-.668-.476-1.018-.688a8.4,8.4,0,0,0-10.438,1.7,8.191,8.191,0,1,0,14.4,5.348" transform="translate(-37.687 -27.528)" fill="#161615"/>
          <path id="Trazado_706019" data-name="Trazado 706019" d="M148.847,101.763a5.9,5.9,0,0,1,5.8,6.111,5.84,5.84,0,0,1-6.23,5.748,6.007,6.007,0,0,1-5.628-6.235,6.07,6.07,0,0,1,6.062-5.624m-.111,8.805a2.806,2.806,0,0,0,2.89-2.71,2.943,2.943,0,0,0-2.822-3.038,2.875,2.875,0,1,0-.068,5.748" transform="translate(-84.02 -59.881)" fill="#161615"/>
          <path id="Trazado_706020" data-name="Trazado 706020" d="M153.154,114.942a2.875,2.875,0,1,1,.068-5.748,2.943,2.943,0,0,1,2.822,3.038,2.806,2.806,0,0,1-2.89,2.71" transform="translate(-88.439 -64.255)" fill="#fff"/>
        </g>
      </g>
    </g>
  </g>
</svg>
