<svg id="Grupo_975136" data-name="Grupo 975136" xmlns="http://www.w3.org/2000/svg" xmlns:xlink="http://www.w3.org/1999/xlink" width="135.333" height="135.333" viewBox="0 0 135.333 135.333">
  <defs>
    <clipPath id="clip-path">
      <rect id="Rectángulo_349284" data-name="Rectángulo 349284" width="135.333" height="135.333" fill="none"/>
    </clipPath>
  </defs>
  <g id="Grupo_975135" data-name="Grupo 975135" clip-path="url(#clip-path)">
    <path id="Trazado_705970" data-name="Trazado 705970" d="M135.333,67.667A67.667,67.667,0,1,1,67.667,0a67.667,67.667,0,0,1,67.667,67.667" fill="#ffc403"/>
    <path id="Trazado_705971" data-name="Trazado 705971" d="M145.489,119.6c.254.007.4-.075.3-.363a2.436,2.436,0,0,1,.029-.888c.077-2.924.01-5.849.032-8.773,0-.585.024-1.172-.016-1.755-.02-.294-.3-.319-.551-.318q-2.21.009-4.421.012c-.286,0-.572,0-.858-.006a1.309,1.309,0,0,1-1.208-1.127,1.152,1.152,0,0,1,1.076-1.369,23.343,23.343,0,0,1,3.035-.065c.872-.024,1.745-.013,2.618-.007.2,0,.336-.009.318-.264a9.035,9.035,0,0,0-.069-1.822c-.052-.192.086-.372.086-.576-.011-2.832-.007-5.664-.011-8.5,0-.262-.021-.523-.032-.785,0-.114-.025-.186-.159-.129-1.774-.016-3.547-.037-5.321.015a1.337,1.337,0,0,1-1.45-.79,1.249,1.249,0,0,1,1.159-1.756c1.874-.023,3.748-.008,5.623-.009.139.017.239.006.109-.16a5.356,5.356,0,0,0,.05-1.309c.046-2.788.04-5.578.011-8.367-.007-.629-.017-1.257-.007-1.887,0-.2-.109-.328-.375-.327-1.817.009-3.634,0-5.45-.01a1.266,1.266,0,0,1-1.21-.974,1.3,1.3,0,0,1,.9-1.543,3.938,3.938,0,0,1,1.047-.09q2.167,0,4.336,0c.606,0,.888-.314.762-.925a3.445,3.445,0,0,1-.005-.731,23.888,23.888,0,0,0-.047-3.243,2.335,2.335,0,0,1,.059-1.176c.1-.268,0-.57.2-.85a1.319,1.319,0,0,1,1.378-.446c.508.044.754.434.891.871a2.621,2.621,0,0,1,.107.794q-.008,39.866-.011,79.732c0,.634,0,1.3-.692,1.678a1.4,1.4,0,0,1-.543.186,19.673,19.673,0,0,1-1.973.031q-30.242,0-60.483,0-9.852,0-19.7-.013a2.174,2.174,0,0,1-1.237-.18,1.419,1.419,0,0,1-.619-1.442,1.338,1.338,0,0,1,1.078-.892c1.487-.078,2.975-.024,4.463-.03.243,0,.485-.005.728-.008.006.042.026.081.07.056.095-.052.073-.13.031-.208,0-.049,0-.1.005-.147a.176.176,0,0,0-.052-.261.851.851,0,0,0,0-.619.193.193,0,0,0,.006-.325.344.344,0,0,0,.01-.355.1.1,0,0,0,0-.08,2.235,2.235,0,0,0,.038-.292q0-4.365,0-8.73a1.96,1.96,0,0,0-.032-.251c0-.029,0-.057,0-.086.1-.807-.038-1.62.065-2.432a1.066,1.066,0,0,1,.8-.986,5.981,5.981,0,0,1,.885-.1q7.418.011,14.836,0a1.43,1.43,0,0,1,1.586,1.644c-.035,4.171-.017,8.343-.019,12.515,0,.171,0,.342,0,.514.026.222.174.178.317.145,1.359.009,2.718.005,4.076.037.333.008.394-.086.393-.4-.012-3.361-.007-6.722-.007-10.082,0-5.749.026-11.5-.02-17.247a1.55,1.55,0,0,1,1.777-1.753c4.692.025,9.384.005,14.076.01a5.969,5.969,0,0,1,1.263.085,1.354,1.354,0,0,1,1.1,1.321c.009.128,0,.257,0,.386q0,13.493,0,26.986c0,.645,0,.645.605.7a.2.2,0,0,0,.335-.009l2.246-.037q.119.28.24,0c.329,0,.658-.012.986.007.263.015.334-.068.334-.34q-.01-8.723,0-17.446c0-.257.008-.514.009-.771a1.221,1.221,0,0,1,1.327-1.358,1.375,1.375,0,0,1,1.214,1.52q0,8.561,0,17.122c0,.243.012.487-.007.729-.02.262.079.364.341.349.328-.019.658-.023.987-.024,3.735,0,7.469-.013,11.2,0,.435,0,.536-.116.535-.549q-.022-13-.011-26,0-7.552,0-15.105c0-.238.092-.506-.353-.5q-6.138.023-12.276,0c-.335,0-.426.078-.425.428.013,5.65,0,11.3.02,16.95a1.536,1.536,0,0,1-1.314,1.633,1.339,1.339,0,0,1-1.257-1.41q.024-9.332.014-18.664A1.287,1.287,0,0,1,116.7,104.1c.171-.011.343-.019.514-.019l14.637,0c1.258,0,1.7.446,1.7,1.7q0,20.876,0,41.753c0,.386.017.773,0,1.158-.009.244.079.337.322.326.3-.014.6-.007.9-.007q5.344,0,10.688.01c.3,0,.394-.08.393-.385q-.011-5.728.007-11.457c0-.341-.1-.423-.428-.42-1.66.017-3.319.008-4.979.008a1.852,1.852,0,0,1-.907-.156,1.424,1.424,0,0,1-.749-1.291,1.335,1.335,0,0,1,1.219-1.112c1.7-.018,3.405-.006,5.108,0a.968.968,0,0,1,.205.041c.413.094.519.016.518-.405q0-5.407-.014-10.813a2.578,2.578,0,0,0-.029-.765c-.013-.034-.02-.09-.042-.1s-.038.023-.005.045c-.04-.117-.136-.074-.215-.074l-5.235.018a1.381,1.381,0,0,1-1.444-.908,1.22,1.22,0,0,1,.811-1.591,4.565,4.565,0,0,1,1.024-.075q2.317-.01,4.634-.013c0,.06.015.112.084.1.027,0,.048-.049.072-.075M95,135.476h.011q0,1.18,0,2.359,0,5.3-.017,10.6c0,.318.063.406.4.4q2.639-.037,5.277-.01c2.4.02,4.8-.074,7.2.044.137.007.178-.059.2-.2a6.842,6.842,0,0,0-.008-.992q0-12.547,0-25.094c0-.331-.085-.445-.428-.443-1.53.011-3.06-.007-4.59-.009q-3.712-.005-7.423,0c-.625,0-.625.016-.625.615v12.74m-16.4,1.315v0c-2.016,0-4.032.007-6.048-.007-.349,0-.462.083-.461.45q.019,5.578,0,11.156c0,.337.107.4.415.4q6.1-.018,12.2-.008c.3,0,.416-.054.415-.395q-.024-5.532,0-11.063c0-.462-.151-.538-.558-.535-1.987.017-3.975.008-5.963.008" transform="translate(-38.319 -41.432)" fill="#060607"/>
    <path id="Trazado_705972" data-name="Trazado 705972" d="M57.748,69.093a1.434,1.434,0,0,1-1.265-.8,1.251,1.251,0,0,1,.882-1.745,8.668,8.668,0,0,1,1.319-.069l5.533-.005a2.9,2.9,0,0,1,2.2.7c.14.139.268.128.41-.063a35.14,35.14,0,0,1,3.47-4.042,19.378,19.378,0,0,1,1.575-1.307,17.23,17.23,0,0,1,3.462-2.141,17.718,17.718,0,0,1,3.975-1.305,25.306,25.306,0,0,1,4.327-.216c.271-.008.543-.009.814-.013a.324.324,0,0,0,.349-.013c1.444,0,2.888.024,4.331,0,.634-.011,1.267.044,1.9.021a5.46,5.46,0,0,1,1.3.34A5.394,5.394,0,0,1,95.4,60.442a5.617,5.617,0,0,1,.81,1.563c.051.145.041.345.279.347.074,0,.083.064.068.125a20.593,20.593,0,0,0,.02,2.54c-.033.264.13.53,0,.818-.071.159.046.3.248.305.186,0,.372,0,.557,0q7.272,0,14.544,0a8.315,8.315,0,0,1,2.459.36,4.591,4.591,0,0,1,2.274,1.887,3.033,3.033,0,0,1,.46.731,5.307,5.307,0,0,1-.224,4.665,5.034,5.034,0,0,1-3.493,2.53,7.436,7.436,0,0,1-1.443.087c-1.873-.02-3.747-.012-5.62-.014-.1-.183-.207-.171-.32-.013a2.783,2.783,0,0,1-.717.059c-.18,0-.336.07-.233.285.118.245.13.515.226.762a4.881,4.881,0,0,1-1.479,5.35c-.2.167-.545.272-.607.472-.069.222.258.427.392.654a4.96,4.96,0,0,1,.24,5.016,5.027,5.027,0,0,1-2.849,2.457c-.25.093-.283.171-.165.389a4.247,4.247,0,0,1,.519,2.055A4.769,4.769,0,0,1,97.6,98.487a6.811,6.811,0,0,1-1.443.093c-6.209,0-12.418.015-18.627-.023A12.232,12.232,0,0,1,71.809,96.9c-.494-.265-.96-.631-1.448-.858-.926-.43-1.713-1.078-2.629-1.5-.276-.128-.463-.378-.766-.47a.4.4,0,0,0-.456.077,2.764,2.764,0,0,1-1.932.762q-3.476.01-6.951-.024a1.409,1.409,0,0,1-1.245-.962,1.428,1.428,0,0,1,1.039-1.533,1.381,1.381,0,0,0,.246-.064.436.436,0,0,0,.121.037c2.213,0,4.426,0,6.638.012.357,0,.466-.142.465-.488-.009-1.985.033-3.97-.017-5.953-.015-.6.088-1.2.019-1.8a1.293,1.293,0,1,1,2.551-.1q.025,3.453-.007,6.907a.642.642,0,0,0,.339.656q2.321,1.373,4.632,2.764a10.591,10.591,0,0,0,5.19,1.609c2.215.068,4.434.029,6.651.035,1.145,0,2.289,0,3.433.007.272,0,.425.011.268-.355a4.46,4.46,0,0,1-.4-1.7,4.511,4.511,0,0,1,.684-2.366c.18-.3.188-.445-.15-.659a5.045,5.045,0,0,1-2.411-3.882,4.9,4.9,0,0,1,1.513-4.007c.168-.173.25-.282.05-.485A5.012,5.012,0,0,1,85.751,78.2a4.65,4.65,0,0,1,1.217-2.6c.165-.178.19-.262.05-.432a6.612,6.612,0,0,1-1.324-2.873c-.364.327-.692.64-1.04.929a9.4,9.4,0,0,1-5.8,2.256,1.23,1.23,0,0,1-1.282-1.221,1.167,1.167,0,0,1,1.24-1.366,7.58,7.58,0,0,0,1.171-.133,7.221,7.221,0,0,0,3.474-1.9,6.852,6.852,0,0,0,2.079-3.371c.1-.4.043-.823.178-1.208a1.222,1.222,0,0,1,1.583-.936,1.306,1.306,0,0,1,.958,1.307.042.042,0,0,0,0,.069c0,1.573.008,3.146-.009,4.719a3.046,3.046,0,0,0,.378,1.671,2.868,2.868,0,0,0,3.747,1.124,2.776,2.776,0,0,0,1.689-2.689c.053-2,.022-4,.03-6.007a10.078,10.078,0,0,0-.182-2.235,3.03,3.03,0,0,0-2.606-2.514,8.538,8.538,0,0,0-1.622-.132c-2.619.008-5.237.025-7.856.021a11.747,11.747,0,0,0-4.382.81,18.679,18.679,0,0,0-7,5.1,25.809,25.809,0,0,0-2.661,3.683,2.183,2.183,0,0,0-.34,1.226q0,2.876,0,5.751a4.721,4.721,0,0,1-.035.684A1.342,1.342,0,0,1,66,79.184a1.327,1.327,0,0,1-1.1-1.351c-.006-2.742-.014-5.484,0-8.225,0-.438-.137-.561-.558-.557-1.871.016-3.742,0-5.613.007a4,4,0,0,0-.979.036m32.57,25.536a2.009,2.009,0,0,0,1.546,1.36c1.673.02,3.346.029,5.018,0a1.955,1.955,0,0,0,1.737-1.522A2.021,2.021,0,0,0,96.614,91.8c-1.47-.031-2.94,0-4.41-.007a2.064,2.064,0,0,0-1.886,2.835m12.667-15.37a2.584,2.584,0,0,0-2.637-2.855c-2.059.044-4.118.012-6.178.011a1.726,1.726,0,0,0-.778.149,4.725,4.725,0,0,1-3.6.334.6.6,0,0,0-.5.007,2.423,2.423,0,0,0-.951,2.531A2.384,2.384,0,0,0,90.6,81.488c3.313.011,6.626,0,9.939,0a1.947,1.947,0,0,0,.7-.048,3.338,3.338,0,0,0,1.827-1.915c.049-.116-.028-.187-.081-.268m-1.19,7.476A2.546,2.546,0,0,0,99.95,84.2a4.965,4.965,0,0,0-1.22-.123c-2.4-.011-4.8-.007-7.2,0a10.334,10.334,0,0,0-1.19.069,2.457,2.457,0,0,0-2.072,2.589,1.836,1.836,0,0,0,.264,1.1,2.506,2.506,0,0,0,2.34,1.364c2.686,0,5.372,0,8.058,0a6.467,6.467,0,0,0,.77-.045,2.448,2.448,0,0,0,2.1-2.418m11.273-17.858a4.417,4.417,0,0,0-1.362-.175q-7.037,0-14.074,0c-.164,0-.336-.025-.495-.037-.214-.017-.516-.018-.493.414.044.812.014,1.629.014,2.444a.772.772,0,0,1-.077.45,3.846,3.846,0,0,1-.327,1.548c-.083.2-.058.349.239.334.557-.028,1.116-.029,1.673-.029q6.931,0,13.863,0a3.22,3.22,0,0,0,1.86-.451,2.453,2.453,0,0,0,1.027-2.8,2.37,2.37,0,0,0-1.849-1.692" transform="translate(-34.209 -35.247)" fill="#060607"/>
    <path id="Trazado_705973" data-name="Trazado 705973" d="M199.229,184.911a1.535,1.535,0,0,0,1.314-1.633c-.024-5.65-.007-11.3-.02-16.95,0-.35.091-.429.426-.428q6.137.015,12.276,0c.445,0,.353.266.353.5q0,7.552,0,15.105,0,13,.011,26c0,.432-.1.551-.535.549-3.735-.015-7.469-.006-11.2,0-.329,0-.658,0-.987.023-.261.015-.361-.087-.341-.349.019-.242.007-.486.007-.729q0-8.561,0-17.122a1.374,1.374,0,0,0-1.214-1.52c-.152-1.147-.007-2.3-.088-3.45" transform="translate(-120.917 -100.687)" fill="#06d1d1"/>
    <path id="Trazado_705974" data-name="Trazado 705974" d="M68,99.534a1.336,1.336,0,0,0-1.1,1.536c.069.6-.034,1.2-.019,1.8.05,1.983.008,3.969.017,5.953,0,.346-.108.49-.465.488-2.213-.011-4.426-.009-6.638-.013a.435.435,0,0,1-.121-.037c.135-.2,0-.412,0-.617q.023-10.33.026-20.66a11.22,11.22,0,0,1,.055-1.953A3.984,3.984,0,0,1,60.735,86c1.871-.006,3.742.009,5.612-.007.421,0,.561.119.558.557-.018,2.742-.009,5.483,0,8.225A1.327,1.327,0,0,0,68,96.122a3.906,3.906,0,0,1,.087,1.133A14.571,14.571,0,0,1,68,99.534" transform="translate(-36.217 -52.186)" fill="#f6f8fa"/>
    <path id="Trazado_705975" data-name="Trazado 705975" d="M79.234,244.947c0,.029,0,.057,0,.085L79.17,245l.064-.058" transform="translate(-48.05 -148.665)" fill="#99c485"/>
    <path id="Trazado_705976" data-name="Trazado 705976" d="M144.2,218.628v-12.74c0-.6,0-.614.625-.615q3.712-.008,7.423,0c1.53,0,3.06.02,4.59.009.344,0,.429.112.429.443q-.011,12.547,0,25.094a6.843,6.843,0,0,1,.008.992c-.021.146-.062.211-.2.2-2.4-.117-4.8-.024-7.2-.044q-2.639-.022-5.277.01c-.342,0-.406-.083-.4-.4q.021-5.3.017-10.6,0-1.18,0-2.359Z" transform="translate(-87.514 -124.585)" fill="#06d1d1"/>
    <path id="Trazado_705977" data-name="Trazado 705977" d="M92.439,242.579c1.987,0,3.975.009,5.963-.008.407,0,.56.073.558.535q-.031,5.532,0,11.063c0,.34-.112.4-.415.395q-6.1-.009-12.2.008c-.309,0-.417-.061-.415-.4q.021-5.578,0-11.156c0-.368.112-.453.461-.45,2.016.015,4.032.007,6.048.007Z" transform="translate(-52.151 -147.221)" fill="#06d1d1"/>
    <path id="Trazado_705978" data-name="Trazado 705978" d="M80.864,86.578a14.572,14.572,0,0,0,.089-2.279,3.906,3.906,0,0,0-.087-1.133A1.342,1.342,0,0,0,82.28,81.91a4.727,4.727,0,0,0,.035-.684q0-2.875,0-5.75a2.182,2.182,0,0,1,.34-1.226,25.787,25.787,0,0,1,2.661-3.683,18.68,18.68,0,0,1,7-5.1,11.747,11.747,0,0,1,4.382-.81c2.619,0,5.237-.013,7.856-.021a8.535,8.535,0,0,1,1.622.132,3.031,3.031,0,0,1,2.606,2.514,10.1,10.1,0,0,1,.182,2.235c-.008,2,.023,4.006-.03,6.007a2.777,2.777,0,0,1-1.689,2.689A2.869,2.869,0,0,1,103.5,77.09a3.05,3.05,0,0,1-.378-1.671c.017-1.573.008-3.146.009-4.719l.033-.016-.035-.053a1.307,1.307,0,0,0-.958-1.307,1.223,1.223,0,0,0-1.583.937c-.135.386-.079.8-.178,1.208a6.85,6.85,0,0,1-2.079,3.371,7.224,7.224,0,0,1-3.474,1.9,7.629,7.629,0,0,1-1.171.133,1.167,1.167,0,0,0-1.24,1.366,1.23,1.23,0,0,0,1.282,1.22,9.4,9.4,0,0,0,5.8-2.255c.348-.289.676-.6,1.04-.929a6.612,6.612,0,0,0,1.324,2.873c.14.17.115.255-.05.432a4.651,4.651,0,0,0-1.217,2.6,5.012,5.012,0,0,0,1.487,4.356c.2.2.118.313-.05.485a4.9,4.9,0,0,0-1.512,4.007,5.043,5.043,0,0,0,2.411,3.881c.338.215.33.356.15.659a4.509,4.509,0,0,0-.685,2.366,4.464,4.464,0,0,0,.4,1.7c.157.366,0,.357-.268.355-1.144-.008-2.289,0-3.434-.007-2.217-.006-4.436.033-6.651-.034a10.591,10.591,0,0,1-5.19-1.609q-2.309-1.393-4.632-2.764a.643.643,0,0,1-.339-.656q.034-3.454.007-6.908a1.327,1.327,0,0,0-1.448-1.439" transform="translate(-49.079 -39.23)" fill="#f6f8fa"/>
    <path id="Trazado_705979" data-name="Trazado 705979" d="M158.681,88.309a.771.771,0,0,0,.077-.45c0-.815.03-1.632-.014-2.444-.024-.431.279-.43.493-.414.159.012.331.037.495.037q7.037.006,14.074,0a4.424,4.424,0,0,1,1.361.175,3.01,3.01,0,0,1-1.417,2.582,4.343,4.343,0,0,1-2.207.581c-4.287-.035-8.575.1-12.861-.07" transform="translate(-96.308 -51.587)" fill="#f6f8fa"/>
    <path id="Trazado_705980" data-name="Trazado 705980" d="M137.483,126.879a2.457,2.457,0,0,1,2.072-2.589,10.17,10.17,0,0,1,1.191-.069c2.4,0,4.8-.007,7.2,0a4.965,4.965,0,0,1,1.22.124,2.546,2.546,0,0,1,1.845,2.53c-.142-.035-.237.042-.346.119a3.631,3.631,0,0,1-1.607.647,17.6,17.6,0,0,1-2.38.161q-2.677,0-5.355,0a7.218,7.218,0,0,1-3.84-.927" transform="translate(-83.425 -75.392)" fill="#f6f8fa"/>
    <path id="Trazado_705981" data-name="Trazado 705981" d="M137.541,107.738a2.423,2.423,0,0,1,.951-2.531.6.6,0,0,1,.5-.007,4.725,4.725,0,0,0,3.6-.334,1.726,1.726,0,0,1,.778-.149c2.059,0,4.119.033,6.178-.011a2.584,2.584,0,0,1,2.637,2.855c-.175-.032-.254.153-.423.17a19.892,19.892,0,0,1-2.164.173c-3.327-.011-6.655,0-9.982-.012-.693,0-1.386-.1-2.079-.154" transform="translate(-83.413 -63.549)" fill="#f6f8fa"/>
    <path id="Trazado_705982" data-name="Trazado 705982" d="M158.112,88.648c4.286.169,8.574.036,12.861.07a4.343,4.343,0,0,0,2.207-.581,3.01,3.01,0,0,0,1.417-2.582,2.371,2.371,0,0,1,1.849,1.693,2.453,2.453,0,0,1-1.027,2.8,3.221,3.221,0,0,1-1.86.451q-6.931-.013-13.863,0c-.558,0-1.116,0-1.673.029-.3.015-.321-.133-.239-.334a3.837,3.837,0,0,0,.328-1.548" transform="translate(-95.739 -51.926)" fill="#f6f8fa"/>
    <path id="Trazado_705983" data-name="Trazado 705983" d="M137.705,112.141c.693.054,1.386.151,2.079.154,3.327.016,6.655,0,9.982.012a19.893,19.893,0,0,0,2.164-.173c.169-.018.248-.2.423-.17.054.081.131.153.082.268a3.338,3.338,0,0,1-1.828,1.915,1.947,1.947,0,0,1-.7.048c-3.313,0-6.626.008-9.938,0a2.385,2.385,0,0,1-2.264-2.051" transform="translate(-83.577 -67.952)" fill="#f6f8fa"/>
    <path id="Trazado_705984" data-name="Trazado 705984" d="M142.448,146.683a2.064,2.064,0,0,1,1.886-2.835c1.47,0,2.941-.024,4.41.007a2.021,2.021,0,0,1,2.005,2.662,15.806,15.806,0,0,0-1.682.419c-1.252.168-2.508.024-3.76.082a8.317,8.317,0,0,1-2.859-.335" transform="translate(-86.339 -87.301)" fill="#f6f8fa"/>
    <path id="Trazado_705985" data-name="Trazado 705985" d="M137.513,130.975a7.218,7.218,0,0,0,3.84.927q2.677,0,5.355,0a17.6,17.6,0,0,0,2.38-.161,3.631,3.631,0,0,0,1.607-.647c.11-.077.2-.154.346-.119a2.448,2.448,0,0,1-2.1,2.418,6.635,6.635,0,0,1-.77.045c-2.686,0-5.372,0-8.058,0a2.5,2.5,0,0,1-2.34-1.364,1.837,1.837,0,0,1-.264-1.1" transform="translate(-83.455 -79.487)" fill="#f6f8fa"/>
    <path id="Trazado_705986" data-name="Trazado 705986" d="M142.744,150.816a8.317,8.317,0,0,0,2.859.335c1.252-.058,2.508.086,3.76-.082a15.807,15.807,0,0,1,1.682-.419,1.955,1.955,0,0,1-1.737,1.522c-1.672.033-3.345.023-5.018,0a2.01,2.01,0,0,1-1.546-1.36" transform="translate(-86.635 -91.434)" fill="#f6f8fa"/>
  </g>
</svg>
