<svg xmlns="http://www.w3.org/2000/svg" xmlns:xlink="http://www.w3.org/1999/xlink" width="156" height="150" viewBox="0 0 156 150">
  <defs>
    <clipPath id="clip-path">
      <rect id="Rectángulo_353120" data-name="Rectángulo 353120" width="113" height="130.637" fill="none"/>
    </clipPath>
  </defs>
  <g id="Grupo_1003226" data-name="Grupo 1003226" transform="translate(-180 -7246)">
    <circle id="Elipse_5671" data-name="Elipse 5671" cx="75" cy="75" r="75" transform="translate(180 7246)" fill="#abffff"/>
    <g id="Grupo_1003191" data-name="Grupo 1003191" transform="translate(223 7265.363)">
      <g id="Grupo_1003190" data-name="Grupo 1003190" clip-path="url(#clip-path)">
        <path id="Trazado_715044" data-name="Trazado 715044" d="M27.022,22.4c.747-.037,1.15-.648,1.67-1.037A32.251,32.251,0,0,1,37.8,16.587a44.32,44.32,0,0,1,6.327-1.669c1.492-.266,3.017-.378,4.52-.586a32.706,32.706,0,0,1,3.8-.163,17.057,17.057,0,0,1,3.786.2,21.2,21.2,0,0,0,2.19.092c1.618.156,3.211.443,4.81.7,1.864.3,3.713.682,5.552,1.12,1.913.455,3.766,1.1,5.65,1.65A38.3,38.3,0,0,1,83.532,22c1.215.735,2.344,1.608,3.511,2.421.1.072.183.19.385.124-.238-.355,0-.707,0-1.075q-.025-4.64,0-9.279a.814.814,0,0,0-.6-.9A6.436,6.436,0,0,1,82.8,8.6a5.29,5.29,0,0,1,.263-3.267,11.708,11.708,0,0,1,1.883-3.347A5.607,5.607,0,0,1,88.453.137a5.426,5.426,0,0,1,1.9-.078,6.861,6.861,0,0,1,2.462,1.034,6.356,6.356,0,0,1,1.294,9.282,7.046,7.046,0,0,1-3.1,2.663c-.3.111-.258.309-.258.512q-.017,6.7-.031,13.394a1.254,1.254,0,0,0,.4.991,45.092,45.092,0,0,1,4.013,4.408,26.694,26.694,0,0,1,2.175,3.26,35.219,35.219,0,0,1,3.161,6.275,52.069,52.069,0,0,1,1.883,6.267,27.137,27.137,0,0,1,.7,4.068,40.082,40.082,0,0,1,.213,6.223c-.13,1.755-.309,3.5-.575,5.234a49.362,49.362,0,0,1-1.473,6.246,53.985,53.985,0,0,1-4.712,10.956,43.971,43.971,0,0,1-3.768,5.6,3.794,3.794,0,0,0-.4.58c-.087.172-.409.234-.313.436.115.244.416.176.648.173,2.221-.031,4.442-.1,6.66.04.473.03.622-.154.774-.574a6.3,6.3,0,0,1,2.105-3.021,5.974,5.974,0,0,1,5.406-.873,7.2,7.2,0,0,1,3.453,1.744,6.265,6.265,0,0,1-.764,9.658,5.588,5.588,0,0,1-3.05,1.039c-2.1.134-3.709-.866-5.258-2.084a5.23,5.23,0,0,1-1.745-2.3.689.689,0,0,0-.78-.487q-4.412.026-8.822,0a.754.754,0,0,0-.805.472,42.065,42.065,0,0,0-1.863,4.388,31.353,31.353,0,0,0-1.385,6.226,43.144,43.144,0,0,0-.184,8.176,36.668,36.668,0,0,0,.793,5.544c.418,2.123,1.092,4.176,1.485,6.3.032.174.173.435-.132.557-.094.038-.113.1-.081.2.594,1.811-.272,3.291-1.217,4.662a8.025,8.025,0,0,1-4.911,3.2,8.472,8.472,0,0,1-1.949.086c-10.083.006-20.165-.01-30.247.024a8.657,8.657,0,0,1-4.68-1.212,7.548,7.548,0,0,1-3.542-5.251c-.538-2.667-1.066-5.336-1.726-7.977-.319-1.28-1.2-1.688-2.485-1.83a17.2,17.2,0,0,0-5.589.682c-.836.185-1.672.118-2.505.321-1.318.321-2.711.216-4.049.533a7.468,7.468,0,0,1-1.531.131c-1.663.033-3.31.319-4.981.254a8.347,8.347,0,0,1-2.81-.744,9.584,9.584,0,0,1-4.552-4.226,7.684,7.684,0,0,1-.925-2.4,13.749,13.749,0,0,1,.283-5.505c.275-1.421.5-2.85.9-4.245.14-.491-.172-.832-.506-1.122a5.558,5.558,0,0,1-1.789-3.014A2.854,2.854,0,0,1,9.947,93.1a2.209,2.209,0,0,0-.276-2.684,3.343,3.343,0,0,1-.338-3.882,13.5,13.5,0,0,0,.613-1.427,2.84,2.84,0,0,0-.725-3.157,9.221,9.221,0,0,0-2.593-1.677A5.62,5.62,0,0,1,3.582,76.78a4.636,4.636,0,0,1,.836-4.167c1.127-1.55,2.652-2.747,3.916-4.182a25.207,25.207,0,0,0,5.014-8.307,26.059,26.059,0,0,0,1.379-5.5,30.052,30.052,0,0,0,.1-4.939,28.156,28.156,0,0,1,.534-6.157,48.314,48.314,0,0,1,1.649-6.285,27.662,27.662,0,0,1,1.881-4.184,45.912,45.912,0,0,1,4.739-7.046c-2.665-.218-5.285-.069-7.9-.114-.758-.013-1.517-.014-2.275-.049-.242-.011-.276.129-.345.285a8.66,8.66,0,0,1-.6,1.314,6.7,6.7,0,0,1-1.63,1.943A5.265,5.265,0,0,1,8.46,30.509,6.353,6.353,0,0,1,5.7,30.432a10.026,10.026,0,0,1-4.409-3.049A5.449,5.449,0,0,1,0,23.507a6.167,6.167,0,0,1,5.137-5.86c3.517-.491,5.849,1.318,7.493,4.214a.971.971,0,0,0,1.024.617c4.373-.192,8.747-.072,13.121-.08-.032.11.022.173.122.173s.154-.063.119-.173m62.1,20.635q-1.533-.008-3.067-.016-2.708-.01-5.419-.015c-.206,0-.457-.093-.6.134-.162.255.125.39.215.553a25.5,25.5,0,0,1,2.065,4.872,30.288,30.288,0,0,1,1.224,6.519A23.693,23.693,0,0,1,83.22,60.9a26.424,26.424,0,0,1-3.534,9.647A26,26,0,0,1,73.3,77.72a1.14,1.14,0,0,0-.535,1.086c.072,1.015.1,2.035.111,3.053q.022,2.839-.009,5.68c0,.386.092.554.5.551,2.589-.019,5.179-.024,7.769-.033,2.329.01,4.656.017,6.984.034a.667.667,0,0,0,.655-.337c1.3-2.354,3.049-4.4,4.466-6.681A48.726,48.726,0,0,0,99.8,64.811a46.779,46.779,0,0,0,.809-8.021c.03-1.122-.189-2.238-.224-3.353a30.845,30.845,0,0,0-.636-4.769,31.587,31.587,0,0,0-1.306-4.479,36.813,36.813,0,0,0-2.756-6.129,39.392,39.392,0,0,0-4.47-6.291c-.113-.131-.167-.389-.44-.279-.089-.024-.032.035-.033.06q.019.2.038.393l-.028,0,.028,0c.007,3.066.019,6.132.019,9.2,0,1.182-.209,1.468-1.292,1.874l-.258.009-.13.005m-1.1-9.055q.027-2.472.055-4.943a.679.679,0,0,0-.225-.586,24.567,24.567,0,0,0-3.04-2.321,25.315,25.315,0,0,0-2.74-1.817,35.346,35.346,0,0,0-6.8-3.27c-.9-.339-1.829-.6-2.76-.852a21.269,21.269,0,0,1-2.027-.668,40.942,40.942,0,0,0-4.543-1.112c-2.387-.614-4.849-.747-7.272-1.135a31.441,31.441,0,0,0-5.293-.338c-1.3.014-2.6.041-3.9.149a52.32,52.32,0,0,0-6,.785,33.46,33.46,0,0,0-10.419,3.938c-.207.121-.481.172-.592.431.169.184.355.113.516.113,2.678,0,5.356-.014,8.035,0,1.3,0,1.763.327,1.947,1.321a4.716,4.716,0,0,1,.021.848c0,2.7,0,5.4-.014,8.1,0,.483.027.708.585.392a24.65,24.65,0,0,1,7.77-2.854,26.334,26.334,0,0,1,8.093-.4,29.783,29.783,0,0,1,5.919,1.315,23.666,23.666,0,0,1,8.349,4.751A24.746,24.746,0,0,1,77.713,39.9a1.067,1.067,0,0,0,1.214.449,4.242,4.242,0,0,1,1.023-.1c2.5,0,5.008-.008,7.513.018.476,0,.639-.106.626-.61-.05-1.893-.053-3.787-.073-5.681M40.328,25.513c.06-.509-.309-.427-.6-.427-3.528,0-7.055,0-10.584-.006a1.434,1.434,0,0,0-1.058.406,32.954,32.954,0,0,0-3.678,4.026,35.256,35.256,0,0,0-5.493,10.666,32.665,32.665,0,0,0-1.266,6.058,2.507,2.507,0,0,0,.075,1.528c-.313.071-.2.257-.117.433-.14,1.119.044,2.243-.1,3.368-.128,1.006,0,2.024-.123,3.047a28.3,28.3,0,0,1-1.567,6.56,31.018,31.018,0,0,1-5.793,9.362C9,71.726,7.818,72.76,6.759,73.913a2.248,2.248,0,0,0-.047,3.1,4.052,4.052,0,0,0,1.451,1.06A9.4,9.4,0,0,1,11.436,80.4a5.276,5.276,0,0,1,1.382,3.419,7.359,7.359,0,0,1-1,3.642,1.29,1.29,0,0,0,.109,1.5c.142.192.272.394.406.591a4.05,4.05,0,0,1,.223,4.3,1.218,1.218,0,0,0-.018,1.2,6.121,6.121,0,0,0,.877,1.179,3.961,3.961,0,0,1,1.2,2.968c-.06.929-.389,1.8-.534,2.7-.172,1.075-.42,2.133-.52,3.226a9.429,9.429,0,0,0-.147,2.786,6.835,6.835,0,0,0,2.916,4.534,7.343,7.343,0,0,0,5.461,1.006,10.661,10.661,0,0,1,1.891-.2,28.742,28.742,0,0,0,4.4-.377c2.273-.248,4.532-.645,6.788-1.03a12.057,12.057,0,0,1,3.317-.145,5.223,5.223,0,0,1,4.661,4.117c.2,1,.5,1.986.751,2.978.344,1.691.667,3.387,1.04,5.071a5.067,5.067,0,0,0,2.785,3.529,5.621,5.621,0,0,0,2.722.473c6.815-.025,13.63-.014,20.444-.016,3.506,0,7.012.032,10.517-.026,3.374-.056,5.538-3.088,4.747-6.567-.353-1.55-.822-3.075-1.166-4.627a55.181,55.181,0,0,1-.922-5.775,11.021,11.021,0,0,1-.208-1.3c.016-.618.087-1.235.076-1.867A39.447,39.447,0,0,1,83.872,102a34.245,34.245,0,0,1,1.288-6.043A26.733,26.733,0,0,1,86.773,91.5c.141-.268.4-.69-.277-.687q-3.787.019-7.574.028c-.348-.008-.7-.023-1.045-.024-1.981,0-3.964.009-5.946-.009-1.292-.012-1.764-.5-1.765-1.769q0-4.214,0-8.429c0-.412-.082-.682-.533-.419a20.907,20.907,0,0,1-2.5,1.218,26.264,26.264,0,0,1-7.148,1.968c-.66.074-1.318.238-1.978.249a31.176,31.176,0,0,1-4.979-.232,26.439,26.439,0,0,1-6.808-1.854,27.07,27.07,0,0,1-11.492-9.093A26.716,26.716,0,0,1,30.515,49.5a28.272,28.272,0,0,1,4.3-8.837,31.3,31.3,0,0,1,5.447-5.567c-.009-.195.37-.373.025-.583q.017-4.47.037-8.941l.024-.026ZM55.2,44.69h-.016c0-3.9-.008-7.8.009-11.7,0-.455-.114-.647-.58-.595-.555.063-1.123.055-1.671.161a24.218,24.218,0,0,0-6.187,1.805c-.959.47-1.929.914-2.846,1.476a24.4,24.4,0,0,0-11.637,19.44,20.189,20.189,0,0,0,.282,5.114A24.715,24.715,0,0,0,54.983,80.87a22.5,22.5,0,0,0,5.053-.247,24.8,24.8,0,0,0,12.27-5.538c.373-.3.363-.494.038-.819C66.969,68.894,61.612,63.5,56.22,58.145a3.2,3.2,0,0,1-1.033-2.479c.035-3.658.014-7.318.014-10.976m25.526,9.7a2.73,2.73,0,0,0-.11-1.108,22.692,22.692,0,0,0-1.444-5.634c-.158-.394-.356-.393-.7-.225-3.292,1.62-6.6,3.2-9.883,4.846-3.067,1.542-6.2,2.948-9.285,4.453-.4.2-.545.323-.122.685.6.515,1.151,1.09,1.712,1.65,4.434,4.429,8.882,8.844,13.279,13.31.519.527.673.29.988-.081a23.081,23.081,0,0,0,4.9-9.411,23.562,23.562,0,0,0,.7-4.612,19.989,19.989,0,0,0-.034-3.873m-22.749-.481c-.043.684.335.359.619.221q8.867-4.292,17.73-8.593c1.551-.751,1.56-.753.614-2.2A24.09,24.09,0,0,0,66.3,34.323a31.106,31.106,0,0,0-7.9-1.915c-.415-.065-.519.161-.506.542.04,1.174.075,2.349.076,3.524q.011,8.718,0,17.438M85.946,6.221A3.688,3.688,0,0,0,89.26,9.789,3.44,3.44,0,0,0,92.9,6.356a3.585,3.585,0,0,0-3.477-3.529,3.4,3.4,0,0,0-3.478,3.394m24.347,83.365a3.456,3.456,0,0,0-3.475-3.6,3.337,3.337,0,0,0-3.42,3.505,3.49,3.49,0,0,0,3.476,3.436,3.335,3.335,0,0,0,3.419-3.342M6.192,20.378c-2.021-.27-3.5,1.754-3.454,3.345A3.515,3.515,0,0,0,6.3,27.2a3.409,3.409,0,1,0-.111-6.818" transform="translate(0 0)" fill="#060708"/>
        <path id="Trazado_715045" data-name="Trazado 715045" d="M51.448,42.8c.035.11-.018.173-.119.173s-.155-.062-.122-.173a.2.2,0,0,1,.242,0" transform="translate(-24.425 -20.397)" fill="#254c99"/>
        <path id="Trazado_715046" data-name="Trazado 715046" d="M33.7,91.343c0,.156.133.347-.117.434-.081-.177-.2-.363.117-.434" transform="translate(-15.981 -43.579)" fill="#254c99"/>
        <path id="Trazado_715047" data-name="Trazado 715047" d="M76.969,66.579A.99.99,0,0,1,76.993,66c.346.209-.033.388-.024.583" transform="translate(-36.705 -31.486)" fill="#e1363a"/>
        <path id="Trazado_715048" data-name="Trazado 715048" d="M173.548,60.216l0,.041-.036.02c0-.027-.055-.085.033-.061" transform="translate(-82.774 -28.726)" fill="#254c99"/>
        <path id="Trazado_715049" data-name="Trazado 715049" d="M77.077,48.846l-.041-.03.045-.026.019.03Z" transform="translate(-36.753 -23.277)" fill="#e1363a"/>
        <path id="Trazado_715050" data-name="Trazado 715050" d="M173.579,61.087v0l-.027,0Z" transform="translate(-82.799 -29.144)" fill="#254c99"/>
        <path id="Trazado_715051" data-name="Trazado 715051" d="M170.56,82.286c-.041.063-.084.07-.129.005Z" transform="translate(-81.31 -39.258)" fill="#ca887c"/>
      </g>
    </g>
  </g>
</svg>
