<svg xmlns="http://www.w3.org/2000/svg" xmlns:xlink="http://www.w3.org/1999/xlink" width="164" height="150" viewBox="0 0 164 150">
  <defs>
    <clipPath id="clip-path">
      <rect id="Rectángulo_352985" data-name="Rectángulo 352985" width="126" height="125" fill="none"/>
    </clipPath>
  </defs>
  <g id="Grupo_1003228" data-name="Grupo 1003228" transform="translate(-185 -8204)">
    <circle id="Elipse_5673" data-name="Elipse 5673" cx="75" cy="75" r="75" transform="translate(185 8204)" fill="#ff9393"/>
    <g id="Grupo_1003117" data-name="Grupo 1003117" transform="translate(223 8215)">
      <g id="Grupo_1003071" data-name="Grupo 1003071" clip-path="url(#clip-path)">
        <path id="Trazado_714914" data-name="Trazado 714914" d="M46.431,160.03c.208-1.23.418-2.41.6-3.595.1-.622.147-1.253.223-1.88.144-1.176.285-2.352.439-3.526a30.127,30.127,0,0,1,.456-3.126,6.744,6.744,0,0,1,3.4-4.56c2.164-1.173,4.327-2.347,6.5-3.5a2.194,2.194,0,0,1,.983-.221c2.484-.021,4.969-.042,7.453,0a4.256,4.256,0,0,1,1.846.406c2.185,1.13,4.362,2.288,6.483,3.55a6.741,6.741,0,0,1,3.213,5.79c.061,1.015.283,2.019.427,3.028.139.97.271,1.941.407,2.912.107.768.222,1.536.318,2.306.078.627.145,1.257.194,1.888.024.305.036.562.414.56,1.959-.009,3.919-.009,5.878-.014.032,0,.063-.03.135-.067-.183-.966-.382-1.939-.549-2.92-.124-.726-.2-1.463-.309-2.192-.145-.946-.327-1.887-.459-2.835-.153-1.1-.316-2.206-.387-3.315a1.967,1.967,0,0,1,1.606-2.175,1.943,1.943,0,0,1,2.375,1.711c.206,1.065.273,2.161.442,3.235.157,1,.385,1.992.552,2.993.249,1.5.471,3,.7,4.494.051.33.1.66.16,1.039H94.5c0-1.277-.007-2.576,0-3.875a5.315,5.315,0,0,1,.1-1.045c.277-1.316,1.007-1.806,2.41-1.841,2.221-.054,4.444-.036,6.665,0a2.753,2.753,0,0,0,1.624-.486c2.716-1.783,5.447-3.54,8.156-5.335A19.575,19.575,0,0,0,115.271,146a6.64,6.64,0,0,1,5.019-1.733,6.331,6.331,0,0,1,5.5,5.455,24.35,24.35,0,0,1,.2,2.962c.016,6.8,0,13.6.013,20.4a2.665,2.665,0,0,1-1.734,2.871.5.5,0,0,0-.378.561q.015,9.831.008,19.661v.258h2.078v4.526H.039v-4.519H2.091V180.581A2.384,2.384,0,0,1,.1,178.645a2.975,2.975,0,0,1-.082-.537c0-9.129-.061-18.258.027-27.386a6.428,6.428,0,0,1,6.08-6.469,6.378,6.378,0,0,1,4.324,1.528,69.615,69.615,0,0,0,7.011,4.848c1.242.841,2.516,1.628,3.785,2.423a1.241,1.241,0,0,0,.624.186c2.222.013,4.444,0,6.666.014a7.708,7.708,0,0,1,1.29.119,1.94,1.94,0,0,1,1.572,1.859c.068,1.373.077,2.749.109,4.123.005.222,0,.445,0,.689h4.507c.214-1.213.441-2.42.636-3.632s.356-2.409.532-3.614.336-2.419.535-3.623a7.813,7.813,0,0,1,.383-1.454,1.9,1.9,0,0,1,2.2-1.177,1.938,1.938,0,0,1,1.584,2.039c-.057,1.016-.2,2.029-.341,3.037-.214,1.535-.451,3.067-.7,4.6-.173,1.08-.374,2.154-.561,3.231-.032.181-.057.363-.091.584Zm63.928,35.038a8.986,8.986,0,0,0-.121-.927c-.472-2.017-.958-4.03-1.434-6.046-.488-2.069-.981-4.137-1.445-6.213a5.273,5.273,0,0,1-.2-1.685,2.281,2.281,0,0,1,1.495-1.843c2.3-1.046,4.582-2.12,6.873-3.179,2.082-.962,4.164-1.921,6.269-2.892v-.6q0-9.118,0-18.236c0-.957-.051-1.914-.093-2.871a1.8,1.8,0,0,0-1.073-1.666,2.427,2.427,0,0,0-2.687.46c-.691.544-1.325,1.184-2.05,1.665-2.781,1.846-5.619,3.593-8.375,5.482a6.753,6.753,0,0,1-4.417,1.3c-1.308-.085-2.623-.018-3.935-.016-.15,0-.3.017-.427.025v2.249c2.29,0,4.546-.038,6.8.019a4.56,4.56,0,0,0,2.4-.635c2.25-1.243,4.5-2.481,6.786-3.653a2.1,2.1,0,0,1,1.4-.065c1,.267,1.465,1.152,1.471,2.613.012,2.689.016,5.378,0,8.067a2.731,2.731,0,0,1-1.265,2.539c-.777.467-1.512,1.015-2.268,1.524q-6.109,4.12-12.222,8.232c-.3.2-.357.371-.176.72,1.161,2.239,2.3,4.493,3.448,6.737q2.346,4.574,4.7,9.142l.69,1.23.223-.115-.363-1.354m-22.17-21.352H75.62a2.817,2.817,0,0,1-.024.318,2.342,2.342,0,0,0-.093.37,6.664,6.664,0,0,1-1.761,4.453c-.686.781-1.419,1.516-2.1,2.3a1.886,1.886,0,0,0-.431.865c-.117.691-.146,1.4-.216,2.1-.073.726-.14,1.453-.231,2.177-.162,1.283-.347,2.563-.508,3.846-.1.791-.16,1.588-.259,2.38-.16,1.28-.339,2.557-.513,3.867H88.189Zm-50.351,0V196.4H56.455c-.146-1.22-.288-2.394-.425-3.57-.123-1.05-.247-2.1-.36-3.149-.087-.814-.143-1.632-.237-2.445-.2-1.692-.395-3.384-.622-5.071a1.824,1.824,0,0,0-.351-.894c-.734-.863-1.53-1.665-2.272-2.521a6.646,6.646,0,0,1-1.544-2.94c-.148-.678-.2-1.381-.3-2.089ZM24.393,196.434a5.356,5.356,0,0,0-.1-.8c-.633-2.288-1.287-4.57-1.919-6.859-.437-1.584-.837-3.18-1.272-4.764q-.775-2.824-1.59-5.634c-.117-.4-.247-.933-.531-1.122-3.152-2.095-6.336-4.133-9.511-6.188a2.282,2.282,0,0,1-1.041-1.96c-.033-3.75-.028-7.5,0-11.25a2.175,2.175,0,0,1,1.519-2.174,2.6,2.6,0,0,1,1.948.369c2.258,1.226,4.511,2.466,6.781,3.669a2.8,2.8,0,0,0,1.228.33c2.309.031,4.619.015,6.928.014.151,0,.3-.015.448-.023v-2.249c-1.916,0-3.8-.025-5.69.012a3.564,3.564,0,0,1-2.061-.647q-3.543-2.309-7.08-4.627a26.088,26.088,0,0,1-4.307-3.106,2.742,2.742,0,0,0-.913-.533c-1.7-.688-3.055.527-3.042,2.311.06,8.3.03,16.592.016,24.888a.7.7,0,0,0,.531.806c1.833.627,3.658,1.28,5.485,1.929,1.474.525,2.944,1.065,4.421,1.585a2.8,2.8,0,0,1,2.146,2.065c.279,1.232.624,2.446.941,3.668q.918,3.533,1.838,7.064c.238.907.47,1.816.747,2.709.064.2.295.489.456.495,1.185.042,2.373.023,3.624.023m72.194-31.79H29.441v4.48H96.587ZM65.422,196.432a7.927,7.927,0,0,1,.005-.913c.164-1.3.361-2.6.518-3.9.191-1.587.351-3.179.526-4.768q.32-2.909.646-5.818a3.956,3.956,0,0,1,1.073-2.479c.86-.861,1.673-1.777,2.506-2.669a2.789,2.789,0,0,0,.707-2.139H54.643A2.4,2.4,0,0,0,55.409,176c.822.878,1.669,1.73,2.457,2.642A3.248,3.248,0,0,1,58.656,180c.234,1.174.321,2.381.463,3.576.072.609.126,1.22.2,1.828.1.806.237,1.608.324,2.416.122,1.127.2,2.259.318,3.386.164,1.573.351,3.144.515,4.717.031.3.1.508.419.508,1.485,0,2.97,0,4.522,0M54.606,160.046c0-2.975-.04-5.891.015-8.8.034-1.8.948-2.493,2.244-2.513,4.022-.062,8.046-.039,12.069-.021a2.1,2.1,0,0,1,2.3,1.622A5.19,5.19,0,0,1,71.4,151.6c.015,2.632.007,5.264.007,7.9v.538h3.918c-.062-.528-.107-1.025-.179-1.516-.152-1.04-.334-2.074-.473-3.116-.107-.809-.146-1.629-.255-2.439-.142-1.064-.32-2.123-.49-3.182a4.129,4.129,0,0,0-.285-1.4,3.417,3.417,0,0,0-1.171-1.157c-1.643-.953-3.312-1.853-5-2.72a3.248,3.248,0,0,0-1.4-.337c-2.1-.036-4.2-.019-6.3-.01a1.53,1.53,0,0,0-.7.116c-2.044,1.094-4.09,2.186-6.1,3.342a1.774,1.774,0,0,0-.726,1.059c-.285,1.349-.49,2.719-.677,4.089-.264,1.929-.488,3.864-.723,5.8-.059.487-.1.977-.15,1.484ZM25.135,164.61c-1.976,0-3.953.012-5.93-.011a2.563,2.563,0,0,1-1.089-.251c-1.09-.546-2.157-1.149-3.234-1.726-.743-.4-1.489-.789-2.27-1.2,0,2.032.012,4-.009,5.968a.869.869,0,0,0,.459.848c2.762,1.772,5.5,3.588,8.277,5.332a3.86,3.86,0,0,1,1.863,2.55c.436,1.877.992,3.721,1.5,5.58.108.4.209.8.313,1.2l.124-.015Zm94.53,31.824V178.093l-8.135,3.758c.208.735.436,1.434.6,2.149.42,1.8.812,3.606,1.217,5.409.3,1.319.594,2.64.9,3.957.2.853.393,1.708.632,2.549.058.2.28.493.432.5,1.447.038,2.894.022,4.351.022m-103.526-.021c-.45-1.7-.878-3.309-1.305-4.922-.565-2.131-1.138-4.26-1.686-6.4a.868.868,0,0,0-.564-.722c-.667-.221-1.329-.458-1.991-.7-1.406-.506-2.81-1.016-4.252-1.538v14.274Zm13.3-.012H33.58V173.716H29.44Zm62.99,0H96.57V173.716H92.431Zm8.384-22.184c.145-.091.218-.134.288-.182,3.6-2.448,7.175-4.953,10.828-7.312a2.6,2.6,0,0,0,1.487-2.861,17.388,17.388,0,0,1-.02-2.445c-1.033.558-1.982,1.068-2.929,1.583-.669.364-1.33.745-2,1.1a5.5,5.5,0,0,1-2.726.514c-1.636-.017-3.273,0-4.926,0Zm-42-14.184h8.356v-6.753H58.818Zm42.1,27.091-.085.033V196.4h4.849l-4.764-9.275" transform="translate(0 -75.957)"/>
        <path id="Trazado_714915" data-name="Trazado 714915" d="M188.21,9.1h.5c2.414,0,4.83-.043,7.243.015a6.476,6.476,0,0,1,4.511,1.547,6.743,6.743,0,0,1,2.284,5.106c.032,4.291.106,8.582.085,12.873a8.3,8.3,0,0,1-1.032,4.571,7.4,7.4,0,0,1-3.148,2.752c0,2.3.005,4.587,0,6.878a2.314,2.314,0,0,1-1.406,2.4,2.022,2.022,0,0,1-2.022-.337c-1.233-.894-2.462-1.794-3.7-2.687-2.5-1.806-4.986-3.625-7.5-5.4a2.532,2.532,0,0,0-1.347-.429c-2.309-.042-4.619.016-6.928-.029a6.221,6.221,0,0,1-5.763-3.828,19.24,19.24,0,0,1-.685-1.856c-1.253.9-2.5,1.789-3.75,2.69-1.06.767-2.111,1.549-3.17,2.316a2.435,2.435,0,0,1-1.931.637c-1.132-.253-1.632-1.1-1.673-2.5-.062-2.138-.024-4.28-.009-6.42a.713.713,0,0,0-.424-.766A6.366,6.366,0,0,1,155,22.707a10.447,10.447,0,0,1-.419-2.84c-.041-4.431-.091-8.865.01-13.294A6.525,6.525,0,0,1,159.6.238a12.974,12.974,0,0,1,2.374-.222c6.386-.017,12.772-.027,19.158,0a6.6,6.6,0,0,1,4.023,1.074,6.692,6.692,0,0,1,2.9,5.56c.016.787.1,1.572.152,2.445m-.053,4.546c0,1.8.037,3.536-.013,5.273a16.6,16.6,0,0,1-.322,3.38,6.1,6.1,0,0,1-4.222,4.638,13.309,13.309,0,0,1-4.19.348c-1.679,0-3.359-.006-5.038,0-.662,0-.911.289-.913.984,0,.473-.012.947,0,1.42A2.123,2.123,0,0,0,175.5,31.84c2.606-.036,5.213-.01,7.819-.012a3.546,3.546,0,0,1,2.158.685q4.219,3.066,8.45,6.112c.161.116.324.228.512.361.008-.114.013-.152.013-.19,0-1.364.011-2.727,0-4.09-.015-1.756.668-2.6,2.015-2.834.1-.018.205-.021.306-.041a1.907,1.907,0,0,0,1.691-1.287,4.478,4.478,0,0,0,.183-1.256q.02-5.937,0-11.874c0-.616-.047-1.234-.1-1.848-.13-1.438-.928-1.883-1.879-1.9-2.814-.055-5.629-.02-8.512-.02m-25.2,16.279c2.058-1.48,4.063-2.911,6.049-4.372a.967.967,0,0,0,.24-.675c.016-2.841.009-5.682.011-8.522a7.722,7.722,0,0,1,.566-3.141A6.251,6.251,0,0,1,175.5,9.126c2.637-.121,5.282-.027,7.923-.027H184c-.051-.957-.032-1.864-.163-2.745-.2-1.346-.846-1.775-1.918-1.781-7.067-.039-14.135-.027-21.2-.012a2.03,2.03,0,0,0-1.959,2.158q.006,6.932,0,13.863a2.018,2.018,0,0,0,1.37,2.026,6.571,6.571,0,0,0,.969.234,1.921,1.921,0,0,1,1.706,1.569,6.439,6.439,0,0,1,.146,1.274c.018,1.393.006,2.786.006,4.238m21-16.273c-2.929,0-5.809-.038-8.687.022a1.938,1.938,0,0,0-1.808,2.124c-.013,1.173,0,2.346,0,3.518v3.42c2.928,0,5.809.062,8.685-.031,1.144-.037,1.762-.793,1.8-2.177.059-2.267.016-4.537.016-6.876" transform="translate(-89.457 0)"/>
        <path id="Trazado_714916" data-name="Trazado 714916" d="M16.3,42.256a6.611,6.611,0,0,1-6.052-5.079,7.717,7.717,0,0,1-.237-2.1c-.016-4.45-.037-8.9.014-13.349a6.615,6.615,0,0,1,5.5-6.643,12.424,12.424,0,0,1,1.6-.117c7.889-.007,15.778-.019,23.667.009a6.493,6.493,0,0,1,6.9,6.651c.043,4.4.1,8.808.094,13.211a7.29,7.29,0,0,1-2.47,5.922,5.363,5.363,0,0,1-3.4,1.363c-3.229.044-6.458.065-9.687.131a2.262,2.262,0,0,0-1.219.376c-3.643,2.6-7.264,5.242-10.893,7.869a2.784,2.784,0,0,1-1.77.729,1.911,1.911,0,0,1-1.935-1.645A4.775,4.775,0,0,1,16.3,48.6c-.01-1.932,0-3.863,0-5.795v-.545m4.2,2.55c.063.024.085.041.094.034q4.35-3.157,8.7-6.319a3.5,3.5,0,0,1,2.1-.83c3.236.019,6.472,0,9.709.026,1.724.012,2.5-.777,2.5-2.632q0-6.051,0-12.1c0-.5-.071-1-.1-1.508a1.866,1.866,0,0,0-2-1.955q-12.621-.025-25.243-.01a2.106,2.106,0,0,0-2.056,2.24c.02,4.545.035,9.091-.01,13.635a2.215,2.215,0,0,0,2.162,2.318,9,9,0,0,1,1.625,0c1.236.107,2.011.348,2.355,1.616a5.194,5.194,0,0,1,.167,1.269c.02,1.411.008,2.823.008,4.217" transform="translate(-5.783 -8.141)"/>
        <path id="Trazado_714917" data-name="Trazado 714917" d="M276.04,113.846c.093,5.21-3.794,9.143-8.389,9.126-4.439-.016-8.321-3.974-8.275-9.185.043-4.849,3.682-8.616,7.7-8.867,5.809-.364,9.167,4.794,8.967,8.927m-12.493-.026a4.374,4.374,0,0,0,4.227,4.66,4.324,4.324,0,0,0,4.164-4.542c-.024-2.788-1.727-4.449-4.1-4.592a4.282,4.282,0,0,0-4.289,4.474" transform="translate(-150.15 -57.076)" fill="#010101"/>
        <path id="Trazado_714918" data-name="Trazado 714918" d="M137.992,94.989c4.912-.129,8.236,4.2,8.411,8.364.25,5.945-3.945,9.755-8.562,9.677-4.221-.071-8.169-3.94-8.119-9.259.043-4.62,3.74-8.911,8.271-8.781m-4.093,8.892a4.373,4.373,0,0,0,4.228,4.659A4.323,4.323,0,0,0,142.29,104c-.024-2.789-1.728-4.448-4.1-4.591a4.282,4.282,0,0,0-4.289,4.475" transform="translate(-75.094 -51.681)" fill="#010101"/>
        <path id="Trazado_714919" data-name="Trazado 714919" d="M8.362,104.959c4.913-.126,8.234,4.208,8.406,8.369.248,5.973-3.991,9.784-8.62,9.67-4.2-.1-8.114-3.954-8.062-9.263.045-4.614,3.738-8.908,8.276-8.776M8.4,118.484a4.226,4.226,0,0,0,4.256-4.473c-.006-2.8-1.689-4.473-4.062-4.632-2.625-.176-4.26,2.353-4.361,4.257-.15,2.825,2.1,5.009,4.166,4.849" transform="translate(-0.05 -57.106)" fill="#010101"/>
        <rect id="Rectángulo_352982" data-name="Rectángulo 352982" width="4.157" height="4.481" transform="translate(29.441 18.224)"/>
        <rect id="Rectángulo_352983" data-name="Rectángulo 352983" width="4.157" height="4.481" transform="translate(21.042 18.224)"/>
        <rect id="Rectángulo_352984" data-name="Rectángulo 352984" width="4.139" height="4.501" transform="translate(12.643 18.204)"/>
      </g>
    </g>
  </g>
</svg>
