<svg xmlns="http://www.w3.org/2000/svg" xmlns:xlink="http://www.w3.org/1999/xlink" width="167" height="150" viewBox="0 0 167 150">
  <defs>
    <clipPath id="clip-path">
      <rect id="Rectángulo_352975" data-name="Rectángulo 352975" width="128.599" height="101.536"/>
    </clipPath>
  </defs>
  <g id="Grupo_1003095" data-name="Grupo 1003095" transform="translate(-285 -826)">
    <circle id="Elipse_5683" data-name="Elipse 5683" cx="75" cy="75" r="75" transform="translate(285 826)" fill="#abffff"/>
    <g id="Grupo_1003115" data-name="Grupo 1003115" transform="translate(323.401 850)">
      <g id="Grupo_1003064" data-name="Grupo 1003064" transform="translate(0 0)" clip-path="url(#clip-path)">
        <path id="Trazado_714892" data-name="Trazado 714892" d="M60.857,27.749q-18.686,0-37.373-.008c-.366,0-.491.081-.49.467.008,4.451,0,8.9,0,13.355A2.361,2.361,0,0,1,22.652,43a1.843,1.843,0,0,1-3.367-.808c-.057-.917-.051-1.839-.052-2.758q-.005-16.092,0-32.185c0-.535,0-1.071.036-1.606a.569.569,0,0,0-.323-.609A10.211,10.211,0,0,0,4.284,10.561a10.511,10.511,0,0,0-.549,3.453q-.018,11.3-.019,22.594,0,20.386.01,40.771c0,.234-.146.578.108.687.228.1.357-.244.524-.394a13.883,13.883,0,0,1,11.151-3.736,20.9,20.9,0,0,1,3.4.847c.267.073.383.075.377-.268-.112-6.309-.031-12.619-.053-18.928-.006-1.573.015-3.147.006-4.72A2.066,2.066,0,0,1,19.9,49.2a1.634,1.634,0,0,1,1.656-.455,1.934,1.934,0,0,1,1.352,1.362,3.369,3.369,0,0,1,.07.9q0,13,0,26.008c0,.368.027.737.006,1.1a1.874,1.874,0,0,1-3.008,1.444,10.156,10.156,0,1,0-7.886,18.124,13.028,13.028,0,0,0,2.4.157q25.367,0,50.734-.008c.335,0,.671,0,1,.029a1.8,1.8,0,0,1,.279,3.551,8.842,8.842,0,0,1-2.1.109q-24.915.009-49.83.006a15.164,15.164,0,0,1-4.13-.434,13.9,13.9,0,0,1-9.11-7.589A13.408,13.408,0,0,1,.013,87.582Q-.013,51,.008,14.425A13.832,13.832,0,0,1,4.759,3.51,13.578,13.578,0,0,1,15.44.135a14.084,14.084,0,0,1,6.232,2.315A2.642,2.642,0,0,1,23,4.9c-.033,6.192,0,12.385-.006,18.577,0,.385.083.514.5.514q32.2-.016,64.4-.012c3.4,0,6.8-.02,10.2,0,.543,0,.618-.191.617-.663-.015-5.272,0-10.544-.014-15.816a7.382,7.382,0,0,1,1.262-4.557A6.406,6.406,0,0,1,104.866.106a60.113,60.113,0,0,1,7.778.041,6.734,6.734,0,0,1,5.806,5.906,16.32,16.32,0,0,1,.1,1.8c0,5.188,0,10.377-.012,15.565,0,.452.1.584.575.578,2.36-.031,4.721-.024,7.082-.014a2.1,2.1,0,0,1,2.4,2.405q0,36.378,0,72.756c0,1.666-.661,2.352-2.333,2.38-1.356.023-2.712,0-4.069,0l-47.017.008a4.888,4.888,0,0,1-1.143-.14,1.789,1.789,0,0,1-1.319-1.939,1.733,1.733,0,0,1,1.5-1.577,9.4,9.4,0,0,1,1.151-.073q24.136,0,48.271,0c1.234,0,1.232,0,1.232-1.208q0-34.043,0-68.086c0-.786.147-.759-.742-.761q-2.637-.008-5.273-.034c-.218,0-.313.054-.3.273.006.117,0,.234,0,.352q0,6.176,0,12.352a4.434,4.434,0,0,1-.108,1.045,1.739,1.739,0,0,1-2,1.412,1.676,1.676,0,0,1-1.569-1.607c-.064-.849-.055-1.706-.055-2.559q-.008-10.47,0-20.941c0-.435-.13-.505-.536-.516-3.767-.106-7.534-.041-11.3-.046-.426,0-.516.122-.516.531q.016,27.641,0,55.282c0,.332.017.505.441.5,3.734-.021,7.468-.013,11.2-.019.706,0,.707-.012.706-.7q0-7.657,0-15.314c0-2.577.016-5.155.024-7.732a1.689,1.689,0,0,1,.528-1.405,1.73,1.73,0,0,1,1.826-.491,2.059,2.059,0,0,1,1.346,1.884,4.664,4.664,0,0,1,.011.552q0,12.025.012,24.051a5.517,5.517,0,0,1-.637,2.593q-3.638,7.121-7.258,14.251a9.539,9.539,0,0,1-.561,1.006,1.753,1.753,0,0,1-2.9.122,3.913,3.913,0,0,1-.419-.681q-3.851-7.546-7.7-15.094a4.244,4.244,0,0,1-.406-1.99q0-20.938,0-41.876c0-1.574-.012-3.147,0-4.72,0-.358-.066-.49-.463-.49q-18.686.016-37.373.009ZM108.6,13.741v0c1.923,0,3.847-.008,5.77.007.343,0,.456-.081.455-.442-.012-2.14.013-4.28.006-6.419a3.155,3.155,0,0,0-3.295-3.171c-.535.014-1.07.035-1.6.035-1.505,0-3.01-.03-4.515-.008a2.918,2.918,0,0,0-2.942,2.971c0,2.207.006,4.413-.006,6.62,0,.319.068.422.413.419,1.906-.02,3.813-.01,5.72-.01m.008,73.677,1.279-2.493q1.819-3.545,3.642-7.089c.143-.277.063-.362-.215-.364-.251,0-.5-.016-.753-.013-2.9.033-5.791.056-8.687-.021-.27-.007-.346.05-.2.31.2.348.372.711.554,1.068l4.378,8.6" transform="translate(0 0)"/>
        <path id="Trazado_714893" data-name="Trazado 714893" d="M100.215,190H70.177a6.079,6.079,0,0,1-.7-.026c-1.4-.164-2-.773-2.028-2.184-.062-3.8-.085-7.6.012-11.4a1.81,1.81,0,0,1,1.934-1.971c.969-.05,1.941-.029,2.912-.031,3.315-.006,6.63-.016,9.945-.007.449,0,.589-.122.586-.6-.019-3.4-.006-6.794.006-10.191a1.815,1.815,0,0,1,1.551-1.757,4.558,4.558,0,0,1,.65-.039q7.258,0,14.516,0c1.575,0,2.267.645,2.336,2.223.038.852.042,1.707.022,2.56-.008.352.077.454.441.453q5.952-.014,11.9.006c.4,0,.805,0,1.2.038a1.738,1.738,0,0,1,1.756,1.663,10.424,10.424,0,0,1,.066,1.7c.01,1.155.018,2.31,0,3.464-.006.363.089.495.475.493q6.028-.022,12.055-.014c.3,0,.6,0,.9.019a1.812,1.812,0,0,1,1.909,1.737,4.125,4.125,0,0,1,.043.65q0,5.422-.007,10.845a4.1,4.1,0,0,1-.081.8,1.882,1.882,0,0,1-1.784,1.557c-.2.015-.4.009-.6.009H100.215m-2.08-14.083h-.012c0-3.3,0-6.594.006-9.89,0-.357-.036-.518-.476-.516-3.482.015-6.965,0-10.447-.012-.676,0-.693,0-.692.667q.013,9.865.031,19.729c0,.285.108.336.352.335q5.474-.015,10.949-.014c.253,0,.3-.065.3-.308q-.015-5-.007-9.99m3.778,2.534H101.9c0,2.46,0,4.92-.006,7.381,0,.3.054.44.385.406a8.981,8.981,0,0,1,.9-.021q4.922-.007,9.845-.006c.345,0,.5-.048.5-.46q-.026-7.255-.008-14.51c0-.347-.021-.535-.468-.533q-5.324.03-10.648,0c-.408,0-.5.125-.5.511.016,2.41.008,4.82.008,7.23M76.985,186.2c1.806,0,3.613,0,5.418,0,.317,0,.4-.076.406-.423.057-2.44.025-4.88.015-7.32,0-.259-.049-.353-.323-.352q-5.444.014-10.887.006c-.337,0-.411.113-.41.435.014,2.391.019,4.781,0,7.171,0,.423.14.49.516.486,1.756-.018,3.512-.008,5.268-.008m46.142-8.08c-1.791,0-3.582.007-5.373-.006-.325,0-.47.037-.467.427q.029,3.613,0,7.227c0,.43.195.446.516.445q5.348-.012,10.695,0c.3,0,.4-.059.4-.381q-.023-3.664-.006-7.327c0-.306-.07-.392-.391-.388-1.791.019-3.582.009-5.372.008" transform="translate(-40.252 -96.633)"/>
        <path id="Trazado_714894" data-name="Trazado 714894" d="M72.7,96.072q0-5.145,0-10.291a2.756,2.756,0,0,1,.113-1.041,1.709,1.709,0,0,1,1.5-1.229c.416-.033.834-.055,1.252-.055,6.747-.005,13.493.019,20.239-.027A2.1,2.1,0,0,1,98.066,85.7q0,10.417,0,20.833a2.037,2.037,0,0,1-2.29,2.243l-20.089,0q-.427,0-.853-.019a2.036,2.036,0,0,1-2.149-2.239q.012-5.07.02-10.14v-.3Zm3.739.071h.013c0,2.795.005,5.589-.006,8.384,0,.354.068.495.469.489,1.623-.023,3.248,0,4.872,0,3.951-.009,7.9-.032,11.853-.028.407,0,.629.021.627-.515q-.028-8.384,0-16.769c0-.41-.108-.538-.532-.537q-8.387.021-16.776,0c-.376,0-.532.072-.53.492.017,2.828.009,5.656.009,8.484" transform="translate(-43.41 -49.829)"/>
        <path id="Trazado_714895" data-name="Trazado 714895" d="M265.06,81.093q0-9.461,0-18.921c0-.234.006-.469.019-.7a1.835,1.835,0,0,1,1.8-1.892,2.009,2.009,0,0,1,1.939,1.868c.013.15.007.3.007.451q0,19.273,0,38.546a3.27,3.27,0,0,1-.2,1.277,1.726,1.726,0,0,1-1.783,1.109,1.783,1.783,0,0,1-1.674-1.415,13.633,13.633,0,0,1-.1-2.5q-.014-8.909,0-17.818" transform="translate(-158.307 -35.583)"/>
        <path id="Trazado_714896" data-name="Trazado 714896" d="M166.289,110.136h12.354a2.136,2.136,0,0,1,1.343.312,1.91,1.91,0,0,1,.792,2.023,1.719,1.719,0,0,1-1.488,1.366,3.748,3.748,0,0,1-.9.092q-12.153.01-24.306.005a4.849,4.849,0,0,1-.9-.081,1.7,1.7,0,0,1-1.517-1.817,1.759,1.759,0,0,1,1.514-1.834,4.547,4.547,0,0,1,.847-.064q6.127-.006,12.254,0" transform="translate(-90.589 -65.78)"/>
        <path id="Trazado_714897" data-name="Trazado 714897" d="M166.247,91.633q-6.329,0-12.657,0a1.82,1.82,0,0,1-1.829-2.484c.255-.874.943-1.108,1.717-1.224a5.488,5.488,0,0,1,.8-.023h24.008a4.676,4.676,0,0,1,1.146.106,1.674,1.674,0,0,1,1.374,2.007A1.8,1.8,0,0,1,179,91.63c-1.323.009-2.645,0-3.968,0h-8.79" transform="translate(-90.58 -52.497)"/>
        <path id="Trazado_714898" data-name="Trazado 714898" d="M160.969,136.227c-2.476,0-4.952.021-7.427-.008a1.832,1.832,0,0,1-1.707-2.672,1.754,1.754,0,0,1,1.545-1.032,12.966,12.966,0,0,1,1.7-.047q6.224,0,12.448,0a4.322,4.322,0,0,1,1.342.128,1.845,1.845,0,0,1,1.355,1.928,1.793,1.793,0,0,1-1.832,1.706c-2.476.023-4.952.008-7.427.008v-.016" transform="translate(-90.577 -79.115)"/>
        <path id="Trazado_714899" data-name="Trazado 714899" d="M101.062,104.613a1.974,1.974,0,0,1-.63,1.329c-1.969,1.983-3.937,3.968-5.927,5.93a1.788,1.788,0,0,1-2.749,0q-1.48-1.431-2.912-2.91a1.746,1.746,0,0,1-.505-1.88,1.816,1.816,0,0,1,1.495-1.322,1.54,1.54,0,0,1,1.387.414c.51.507,1.029,1.006,1.531,1.521.293.3.5.306.814-.022q2.129-2.2,4.321-4.339a1.713,1.713,0,0,1,2.062-.433,1.887,1.887,0,0,1,1.112,1.709" transform="translate(-52.701 -61.352)"/>
      </g>
    </g>
  </g>
</svg>
