<svg xmlns="http://www.w3.org/2000/svg" xmlns:xlink="http://www.w3.org/1999/xlink" width="161.146" height="150" viewBox="0 0 161.146 150">
  <defs>
    <clipPath id="clip-path">
      <rect id="Rectángulo_352979" data-name="Rectángulo 352979" width="111.73" height="111.733"/>
    </clipPath>
  </defs>
  <g id="Grupo_1003227" data-name="Grupo 1003227" transform="translate(-1253.854 -7886)">
    <circle id="Elipse_5672" data-name="Elipse 5672" cx="75" cy="75" r="75" transform="translate(1265 7886)" fill="#fdd75b"/>
    <g id="Grupo_1003115" data-name="Grupo 1003115" transform="translate(1253.854 7907.267)">
      <g id="Grupo_1003067" data-name="Grupo 1003067" clip-path="url(#clip-path)">
        <path id="Trazado_714900" data-name="Trazado 714900" d="M50.487,205.33q-16.745,0-33.489,0c-4.043,0-6.026-1.852-6.159-5.856-.035-1.031-.391-1.276-1.331-1.246-1.8.056-3.6.046-5.407.007-2.637-.057-4.081-1.508-4.085-4.146q-.025-13.954,0-27.908c.005-2.636,1.326-3.939,3.973-3.988,1.8-.033,3.606-.047,5.406.006,1,.03,1.418-.213,1.445-1.341.095-3.95,2.166-5.895,6.143-5.9,5.756-.011,11.513.055,17.267-.042,1.526-.025,1.765.491,1.8,1.87.034,1.517-.487,1.8-1.882,1.78-5.639-.079-11.279-.032-16.919-.033a3.215,3.215,0,0,0-2.022.362,2.5,2.5,0,0,0-.823,2.68c.193,1.032,1.128.567,1.73.589,1.8.066,3.605-.014,5.406.04a3.452,3.452,0,0,1,3.669,3.745q.039,14.215,0,28.431a3.649,3.649,0,0,1-3.838,3.849c-1.742.066-3.49-.038-5.231.043-.655.031-1.772-.582-1.781.888-.009,1.27.279,2.345,1.736,2.588a10.683,10.683,0,0,0,1.742.031q33.228,0,66.456-.034c1.666,0,2.444.26,2.254,2.147-.113,1.125-.385,1.474-1.521,1.466-6.4-.048-12.791-.023-19.187-.023H50.487M21.656,180.3c0-4.362-.037-8.724.025-13.085.016-1.141-.319-1.477-1.462-1.464q-7.589.086-15.179,0c-1.2-.015-1.459.41-1.455,1.506q.051,12.911,0,25.822c-.006,1.166.381,1.483,1.5,1.472,5-.049,10-.074,15,.014,1.382.024,1.615-.468,1.595-1.7-.07-4.186-.027-8.374-.027-12.562" transform="translate(-0.002 -100.846)"/>
        <path id="Trazado_714901" data-name="Trazado 714901" d="M226.183,28.921c-6.049,0-12.1-.033-18.146.026-1.32.013-1.841-.287-1.8-1.73.1-3.778.068-7.561.015-11.341-.016-1.127.317-1.518,1.485-1.481,2.673.084,5.351.073,8.025,0,1.1-.028,1.4.376,1.376,1.41-.051,2.733.049,5.469-.039,8.2-.051,1.566.959,1.264,1.847,1.271.9.008,1.848.262,1.824-1.293-.077-5,.012-10-.056-15.005-.017-1.268.28-1.736,1.63-1.678,2.554.11,5.12.109,7.675,0,1.358-.058,1.64.429,1.623,1.69-.068,4.885.038,9.772-.067,14.656-.032,1.5.565,1.664,1.812,1.672,1.279.009,1.813-.228,1.8-1.695-.081-7.328-.013-14.657-.061-21.985C235.11.471,235.356,0,236.634.051c2.672.1,5.351.064,8.025.012.941-.018,1.318.193,1.313,1.235q-.059,13.174.005,26.347c.007,1.205-.54,1.291-1.474,1.287-6.107-.022-12.214-.012-18.321-.011M238.7,14.57c0,3.135.068,6.272-.031,9.4-.044,1.378.713,1.4,1.633,1.3.835-.095,2.083.575,2.072-1.2q-.063-9.579,0-19.159c.013-1.586-1.032-1.2-1.892-1.234-.921-.032-1.857-.219-1.813,1.309.091,3.191.028,6.386.028,9.579m-10.8,3.487c0-2.036-.013-4.071,0-6.107.014-1.683-1.255-.943-2.015-1.037s-1.625-.277-1.6,1.091c.067,4.07.055,8.142.008,12.213-.018,1.575,1.1,1.012,1.827,1.039.765.027,1.842.427,1.795-1.093-.064-2.034-.016-4.071-.017-6.106m-17.919,3.57a14.891,14.891,0,0,1-.017,2.082c-.2,1.37.417,1.7,1.664,1.6,1.039-.083,2.129.219,1.932-1.518a22.174,22.174,0,0,1-.007-4.163c.1-1.27-.43-1.49-1.583-1.537-1.531-.064-2.284.32-2,1.977a9.428,9.428,0,0,1,.014,1.561" transform="translate(-134.256 -0.031)"/>
        <path id="Trazado_714902" data-name="Trazado 714902" d="M143.236,135.573c1.738,2.143,1.739,2.143-.128,4.01-1.438,1.438-2.933,2.824-4.294,4.331-.944,1.046-1.72,1.506-2.672.082a.687.687,0,0,0-.706-.4c-.507,2.56-.507,2.56-3.3,2.56-1.918,0-3.84-.083-5.751.027-1.5.086-2.361-.248-2.063-1.958a2.027,2.027,0,0,0-.128-.664c-2.272,1.486-2.272,1.486-4.29-.531-1.356-1.356-2.647-2.785-4.086-4.045-1.116-.977-1.379-1.755-.028-2.671a2.337,2.337,0,0,0,.419-.5c-.093-.136-.144-.29-.211-.3-2.388-.264-2.388-.262-2.388-2.7,0-2.092.095-4.19-.031-6.274-.095-1.565.353-2.3,2-2.029a1.95,1.95,0,0,0,.647-.144c-1.549-2.2-1.549-2.2.416-4.165,1.4-1.4,2.878-2.721,4.162-4.215,1.019-1.188,1.787-1.24,2.678.025a2.311,2.311,0,0,0,.5.405c.14-.116.285-.176.292-.25.23-2.36.229-2.361,2.722-2.361h5.4c2.651,0,2.651,0,2.971,2.515.105.015.254.081.311.034,1.869-1.542,1.867-1.543,3.668.259,1.479,1.479,2.9,3.02,4.456,4.415,1.035.929,1.3,1.664.045,2.549a3.355,3.355,0,0,0-.535.621c.168.149.243.275.327.281,2.312.174,2.313.172,2.313,2.578,0,2.15-.092,4.305.032,6.448.087,1.5-.324,2.206-1.906,1.942a3.394,3.394,0,0,0-.845.128m-21.212-10.61c.1,1.6-1.414,3.317-2.886,3.207-1.448-.107-2.018.218-1.989,1.856.028,1.531.532,1.957,1.9,1.736,1.274-.206,1.833.374,2.464,1.532.9,1.66.143,2.512-.965,3.335-1.362,1.01-.373,1.591.306,2.249.653.632,1.18,1.713,2.262.377.5-.622.956-1.56,1.985-1.48a2.826,2.826,0,0,1,2.861,3.238c-.089,1.447.549,1.607,1.728,1.56,1.1-.044,2.133.119,1.887-1.557a2.17,2.17,0,0,1,1.4-2.726c1.55-.683,2.514-.414,3.363.827.984,1.44,1.609.513,2.382-.227.824-.788,1.465-1.412.177-2.409-.569-.441-1.461-.842-1.321-1.865.268-1.96,1.262-2.94,3.278-2.815,1.532.095,1.5-.692,1.509-1.779.013-1.166,0-2.049-1.6-1.863-.721.083-1.619.4-2.227-.484-1.193-1.74-1.21-2.855.432-4.262,1.21-1.037.585-1.569-.195-2.277-.721-.655-1.268-1.768-2.395-.372-.488.6-.907,1.567-2,1.391-2.04-.329-2.753-1.2-2.836-3.3-.02-.5.329-1.169-.545-1.427-1.987-.587-3.113.1-2.952,2.13.124,1.569-.913,1.746-1.887,2.237a1.751,1.751,0,0,1-2.422-.361c-1.626-1.718-1.628-1.614-3.336.062-.773.759-.571,1.163.085,1.776a5.236,5.236,0,0,1,1.534,1.694" transform="translate(-73.933 -74.086)"/>
        <path id="Trazado_714903" data-name="Trazado 714903" d="M48.846,25.259c-5.817,0-11.633.022-17.449-.019a2.926,2.926,0,0,0-2.637,1.215,16.068,16.068,0,0,1-18.394,4.927A16.21,16.21,0,1,1,31.868,20.2c-.352,1.342.011,1.52,1.237,1.516q16.838-.059,33.677-.009c.53,0,1.36-.333,1.538.362a4.764,4.764,0,0,1-.057,2.908c-.21.524-.947.27-1.445.272q-8.987.021-17.973.009m-20.02-8.987a12.6,12.6,0,1,0-12.657,12.6,12.652,12.652,0,0,0,12.657-12.6" transform="translate(0 0)"/>
        <path id="Trazado_714904" data-name="Trazado 714904" d="M260.264,227.2c5.383.02,9.4,2.318,11.658,7.274,2.1,4.624.966,9.661-2.864,13.573a10.848,10.848,0,0,1-1.116,1.1,5.571,5.571,0,0,0-2.338,5.214,5.1,5.1,0,0,1-4.944,5.264,5.311,5.311,0,0,1-5.6-4.422,1.025,1.025,0,0,1-.068-.34c.6-3.169-1.479-4.949-3.424-6.887-3.867-3.854-4.878-8.741-2.925-13.4,1.939-4.623,6.245-7.355,11.62-7.381M260.176,238c1.453,0,2.905-.014,4.357.008.42.007.9-.157,1.122.5.622,1.844-.146,3.1-2.055,3.068-1.108-.018-1.569.281-1.5,1.468.1,1.562.011,3.136.035,4.7.005.365-.187.863.361,1.032a1.031,1.031,0,0,0,1.091-.362c1.363-1.427,2.863-2.747,4.07-4.294a7.705,7.705,0,0,0,1.118-7.735c-1.63-4.472-6.453-6.686-11.318-5.268a8.406,8.406,0,0,0-5.886,10.038c.774,3.4,3.543,5.21,5.753,7.45.6.611,1.282.292,1.258-.77a35.736,35.736,0,0,1,.023-4.354c.156-1.573-.408-2.083-1.935-1.92-.585.062-1.44.4-1.765-.569-.656-1.969.074-3,2.127-3h3.138m1.939,15.573c.4-1.361-.7-1.188-1.661-1.178s-2.026-.291-1.9,1.38c.091,1.2.372,2.154,1.68,2.2,1.368.044,1.935-.853,1.88-2.4" transform="translate(-161.235 -147.907)"/>
        <path id="Trazado_714905" data-name="Trazado 714905" d="M234.829,103.718c0,2.791.021,5.582-.006,8.372-.038,3.97-2.083,6.019-6.015,6.038-3.547.017-7.1-.071-10.639.037-1.588.049-1.288-.92-1.272-1.8.015-.848-.385-1.886,1.23-1.839,3.311.1,6.627.03,9.941.028,2.792,0,3.148-.349,3.149-3.07,0-5.582.049-11.164-.032-16.745-.02-1.4.28-1.864,1.78-1.881,1.578-.017,1.959.461,1.9,1.965-.118,2.961-.035,5.929-.035,8.894" transform="translate(-141.177 -60.451)"/>
        <path id="Trazado_714906" data-name="Trazado 714906" d="M300.188,207.909a8.377,8.377,0,0,1-2.569-1.22c-.549-.54.31-1.344.53-2.027.317-.987.9-1.9,1.155-2.894.422-1.668,1.248-1.652,2.6-1.03,1.074.492,1.581.87.925,2.115-.724,1.375-1.213,2.873-1.831,4.306-.142.329-.134.867-.814.75" transform="translate(-193.632 -130.428)"/>
        <path id="Trazado_714907" data-name="Trazado 714907" d="M259.842,205.79c.1.792-.619.727-1.021.913-2.11.976-2.116.959-2.972-1.12-.506-1.228-.97-2.475-1.537-3.674-.688-1.454.673-1.387,1.294-1.631.6-.237,1.484-1.333,2.053.22.655,1.787,1.447,3.524,2.184,5.292" transform="translate(-165.432 -129.992)"/>
        <path id="Trazado_714908" data-name="Trazado 714908" d="M282.395,199.781a10.524,10.524,0,0,0,.015,1.731c.275,1.624-.5,1.894-1.936,1.872-1.264-.019-1.756-.3-1.654-1.637a41.093,41.093,0,0,0,.016-4.678c-.053-1.412.961-1.065,1.661-1s1.9-.623,1.895.943c0,.925,0,1.849,0,2.774" transform="translate(-181.502 -127.574)"/>
        <path id="Trazado_714909" data-name="Trazado 714909" d="M25.73,241.157H22.6c-2.065,0-2.731-.971-2.147-3.011.179-.628.6-.618,1.057-.619,2.895-.006,5.789-.013,8.684,0,1.632.009.926,1.279,1.026,2.054.105.812.147,1.656-1.152,1.589-1.443-.074-2.894-.017-4.341-.015" transform="translate(-13.185 -154.624)"/>
        <path id="Trazado_714910" data-name="Trazado 714910" d="M26.1,199.709c-1.158,0-2.318.036-3.475-.015-.6-.026-1.525.344-1.709-.369a7.736,7.736,0,0,1,0-2.92c.061-.439.688-.294,1.074-.3,2.78-.01,5.563.06,8.34-.031,1.586-.052,1.217.985,1.248,1.847.033.93.2,1.907-1.313,1.8-1.384-.1-2.779-.02-4.169-.019" transform="translate(-13.522 -127.646)"/>
        <path id="Trazado_714911" data-name="Trazado 714911" d="M26.05,220.607c-1.447,0-2.9-.043-4.341.012-1.43.054-1.042-.991-.991-1.68s-.622-1.9.946-1.892c2.952.007,5.9-.027,8.856.014,1.664.023.784,1.351.932,2.1s.139,1.524-1.061,1.467c-1.443-.069-2.893-.016-4.34-.016" transform="translate(-13.422 -141.292)"/>
        <path id="Trazado_714912" data-name="Trazado 714912" d="M155.341,150.041a5.411,5.411,0,1,1-5.469-5.394,5.479,5.479,0,0,1,5.469,5.394m-5.56-1.764a1.689,1.689,0,0,0-1.593,1.814,1.742,1.742,0,0,0,3.482-.071c-.016-1.107-.7-1.648-1.89-1.744" transform="translate(-94.081 -94.164)"/>
        <path id="Trazado_714913" data-name="Trazado 714913" d="M27.66,42.647c-.332-.3-.6-.52-.838-.76-1.073-1.065-2.113-2.165-3.219-3.194-.629-.585-.741-.973-.066-1.667,1.63-1.675,1.635-1.766,3.331-.148.755.72,1.124.4,1.676-.157,2.532-2.564,5.166-5.033,7.606-7.681,1.115-1.211,1.607-.434,2.284.285.628.667,1.623,1.1.388,2.277-3.488,3.328-6.843,6.8-10.254,10.207-.276.276-.574.53-.91.838" transform="translate(-15.024 -18.494)"/>
      </g>
    </g>
  </g>
</svg>
