<svg xmlns="http://www.w3.org/2000/svg" width="103" height="103" viewBox="0 0 103 103">
  <g id="Grupo_1003222" data-name="Grupo 1003222" transform="translate(-285 -4919)">
    <circle id="Elipse_5668" data-name="Elipse 5668" cx="51.5" cy="51.5" r="51.5" transform="translate(285 4919)" fill="#b20d0d"/>
    <path id="Trazado_706087" data-name="Trazado 706087" d="M35.147,83.911H20.106a1.34,1.34,0,0,1-1.4-1.269V34.167a1.38,1.38,0,0,0-1.794-1.218L2.973,36.637A1.381,1.381,0,0,1,1.179,35.42V25.778a1.284,1.284,0,0,1,.943-1.2l32.567-10.2a1.556,1.556,0,0,1,.458-.069,1.34,1.34,0,0,1,1.4,1.269V82.642a1.34,1.34,0,0,1-1.4,1.269" transform="translate(315.943 4923.09)" fill="#8d0a0a"/>
    <path id="Trazado_706088" data-name="Trazado 706088" d="M30.759,80.411H17.139a1.269,1.269,0,0,1-1.269-1.269V30.667a1.268,1.268,0,0,0-1.624-1.218L1.624,33.137A1.269,1.269,0,0,1,0,31.92V22.278a1.268,1.268,0,0,1,.854-1.2l29.49-10.2a1.282,1.282,0,0,1,.415-.069,1.268,1.268,0,0,1,1.269,1.269V79.142a1.268,1.268,0,0,1-1.269,1.269" transform="translate(317 4923.19)" fill="#fff"/>
  </g>
</svg>
