<svg xmlns="http://www.w3.org/2000/svg" width="103" height="103" viewBox="0 0 103 103">
  <g id="Grupo_1003224" data-name="Grupo 1003224" transform="translate(-285 -5260)">
    <circle id="Elipse_5670" data-name="Elipse 5670" cx="51.5" cy="51.5" r="51.5" transform="translate(285 5260)" fill="#b20d0d"/>
    <path id="Trazado_706085" data-name="Trazado 706085" d="M237.4,37.554a5.144,5.144,0,0,1,5.144-5.144h1.937q8.416,0,8.417-8.239a7.124,7.124,0,0,0-2-5.232,7.6,7.6,0,0,0-5.656-2.027,8.134,8.134,0,0,0-5.188,1.737,6.05,6.05,0,0,0-1.535,1.73,5.142,5.142,0,0,1-4.458,2.59h-4.807a5.138,5.138,0,0,1-4.545-7.562,15.728,15.728,0,0,1,.983-1.568,18.812,18.812,0,0,1,7.9-6.257,27.038,27.038,0,0,1,11.111-2.249q10.822,0,17.012,4.943t6.19,13.582a13.7,13.7,0,0,1-2.561,7.905,15.536,15.536,0,0,1-1.7,2.053,5.107,5.107,0,0,0,.224,7.412,15.717,15.717,0,0,1,2.119,2.247,14.956,14.956,0,0,1,2.939,9.419,16.73,16.73,0,0,1-6.68,13.894Q255.572,72,244.706,72a28.748,28.748,0,0,1-11.824-2.427,18.524,18.524,0,0,1-8.261-6.724,17.038,17.038,0,0,1-1.4-2.605,5.147,5.147,0,0,1,4.733-7.17h4.986a5.029,5.029,0,0,1,4.58,2.8,7.508,7.508,0,0,0,1.794,2.362,8.49,8.49,0,0,0,5.923,2.183,8.9,8.9,0,0,0,6.324-2.2,7.367,7.367,0,0,0,2.361-5.633q0-4.9-2.449-6.947a10.246,10.246,0,0,0-6.769-2.049h-2.16a5.143,5.143,0,0,1-5.144-5.143Z" transform="translate(92.973 5272.666)" fill="#8d0a0a"/>
    <path id="Trazado_706086" data-name="Trazado 706086" d="M234.439,32.22a5.144,5.144,0,0,1,5.144-5.144h1.937q8.416,0,8.417-8.239a7.124,7.124,0,0,0-2-5.232,7.6,7.6,0,0,0-5.656-2.027,8.134,8.134,0,0,0-5.188,1.737,6.05,6.05,0,0,0-1.535,1.73,5.142,5.142,0,0,1-4.458,2.59h-4.807a5.138,5.138,0,0,1-4.545-7.562,15.729,15.729,0,0,1,.983-1.568,18.812,18.812,0,0,1,7.9-6.257A27.037,27.037,0,0,1,241.743,0q10.822,0,17.012,4.943t6.19,13.582a13.7,13.7,0,0,1-2.561,7.905,15.534,15.534,0,0,1-1.7,2.053,5.107,5.107,0,0,0,.224,7.412,15.719,15.719,0,0,1,2.119,2.247,14.956,14.956,0,0,1,2.939,9.419,16.73,16.73,0,0,1-6.68,13.894q-6.68,5.211-17.546,5.211a28.748,28.748,0,0,1-11.824-2.427,18.524,18.524,0,0,1-8.261-6.724,17.038,17.038,0,0,1-1.4-2.605,5.147,5.147,0,0,1,4.733-7.17h4.986a5.029,5.029,0,0,1,4.58,2.8,7.508,7.508,0,0,0,1.794,2.362,8.49,8.49,0,0,0,5.923,2.183,8.9,8.9,0,0,0,6.324-2.2,7.367,7.367,0,0,0,2.361-5.633q0-4.9-2.449-6.947a10.246,10.246,0,0,0-6.769-2.049h-2.16a5.143,5.143,0,0,1-5.144-5.143Z" transform="translate(92.159 5278)" fill="#fff"/>
  </g>
</svg>
