<svg xmlns="http://www.w3.org/2000/svg" width="103" height="103" viewBox="0 0 103 103">
  <g id="Grupo_1003223" data-name="Grupo 1003223" transform="translate(-285 -5079)">
    <circle id="Elipse_5669" data-name="Elipse 5669" cx="51.5" cy="51.5" r="51.5" transform="translate(285 5079)" fill="#b20d0d"/>
    <path id="Trazado_706083" data-name="Trazado 706083" d="M147.656,76.516H112.047a6.067,6.067,0,0,1-6.067-6.067V68.6a6.066,6.066,0,0,1,1.671-4.181l20.32-21.363Q136.1,33.8,136.1,28.351q0-4.417-1.926-6.72a6.882,6.882,0,0,0-5.592-2.3,6.966,6.966,0,0,0-5.874,3.078,11.087,11.087,0,0,0-1.691,3.46,6.01,6.01,0,0,1-5.8,4.223h-3.471a6.078,6.078,0,0,1-5.643-8.308,22.875,22.875,0,0,1,1.62-3.322,22.074,22.074,0,0,1,8.74-8.341,25.967,25.967,0,0,1,12.5-3.007q11.089,0,17.081,5.122t5.991,14.708a21.358,21.358,0,0,1-1.5,7.871,34.513,34.513,0,0,1-4.675,8.035,116.6,116.6,0,0,1-10.071,11.1c-.1.1-.2.2-.286.307l-7.153,8.256a1.077,1.077,0,0,0,.814,1.783h18.5a6.067,6.067,0,0,1,6.067,6.066v.084a6.067,6.067,0,0,1-6.067,6.067" transform="translate(208.766 5089.895)" fill="#8d0a0a"/>
    <path id="Trazado_706084" data-name="Trazado 706084" d="M143.508,69.4H107.9a6.067,6.067,0,0,1-6.067-6.067V61.491A6.066,6.066,0,0,1,103.5,57.31l20.32-21.363q8.129-9.257,8.129-14.707,0-4.417-1.926-6.72a6.882,6.882,0,0,0-5.592-2.3,6.966,6.966,0,0,0-5.874,3.078,11.087,11.087,0,0,0-1.691,3.46,6.01,6.01,0,0,1-5.8,4.223h-3.471a6.078,6.078,0,0,1-5.643-8.308,22.876,22.876,0,0,1,1.62-3.322,22.074,22.074,0,0,1,8.74-8.341A25.967,25.967,0,0,1,124.811,0Q135.9,0,141.892,5.122t5.991,14.708a21.358,21.358,0,0,1-1.5,7.871,34.513,34.513,0,0,1-4.675,8.035,116.6,116.6,0,0,1-10.071,11.1c-.1.1-.2.2-.286.307L124.194,55.4a1.077,1.077,0,0,0,.814,1.783h18.5a6.067,6.067,0,0,1,6.067,6.066v.084a6.067,6.067,0,0,1-6.067,6.067" transform="translate(209.474 5095)" fill="#fff"/>
  </g>
</svg>
