<svg xmlns="http://www.w3.org/2000/svg" width="85.283" height="83.324" viewBox="0 0 85.283 83.324">
  <g id="Grupo_1003236" data-name="Grupo 1003236" transform="translate(-751.353 -3786)">
    <rect id="Rectángulo_353128" data-name="Rectángulo 353128" width="18" height="16" transform="translate(758 3853)" fill="#d37e7e"/>
    <rect id="Rectángulo_353129" data-name="Rectángulo 353129" width="16" height="30" transform="translate(781 3839)" fill="#d37e7e"/>
    <rect id="Rectángulo_353130" data-name="Rectángulo 353130" width="16" height="46" transform="translate(804 3823)" fill="#d37e7e"/>
    <path id="Trazado_715081" data-name="Trazado 715081" d="M145.489,119.6c.254.007.4-.075.3-.363a2.436,2.436,0,0,1,.029-.888c.077-2.924.01-5.849.032-8.773,0-.585.024-1.172-.016-1.755-.02-.294-.3-.319-.551-.318q-2.21.009-4.421.012c-.286,0-.572,0-.858-.006a1.309,1.309,0,0,1-1.208-1.127,1.152,1.152,0,0,1,1.076-1.369,23.343,23.343,0,0,1,3.035-.065c.872-.024,1.745-.013,2.618-.007.2,0,.336-.009.318-.264a9.035,9.035,0,0,0-.069-1.822c-.052-.192.086-.372.086-.576-.011-2.832-.007-5.664-.011-8.5,0-.262-.021-.523-.032-.785,0-.114-.025-.186-.159-.129-1.774-.016-3.547-.037-5.321.015a1.337,1.337,0,0,1-1.45-.79,1.249,1.249,0,0,1,1.159-1.756c1.874-.023,3.748-.008,5.623-.009.139.017.239.006.109-.16a5.356,5.356,0,0,0,.05-1.309c.046-2.788.04-5.578.011-8.367-.007-.629-.017-1.257-.007-1.887,0-.2-.109-.328-.375-.327-1.817.009-3.634,0-5.45-.01a1.266,1.266,0,0,1-1.21-.974,1.3,1.3,0,0,1,.9-1.543,3.938,3.938,0,0,1,1.047-.09q2.167,0,4.336,0c.606,0,.888-.314.762-.925a3.445,3.445,0,0,1-.005-.731,23.888,23.888,0,0,0-.047-3.243,2.335,2.335,0,0,1,.059-1.176c.1-.268,0-.57.2-.85a1.319,1.319,0,0,1,1.378-.446c.508.044.754.434.891.871a2.621,2.621,0,0,1,.107.794q-.008,39.866-.011,79.732c0,.634,0,1.3-.692,1.678a1.4,1.4,0,0,1-.543.186,19.673,19.673,0,0,1-1.973.031q-30.242,0-60.483,0-9.852,0-19.7-.013a2.174,2.174,0,0,1-1.237-.18,1.419,1.419,0,0,1-.619-1.442,1.338,1.338,0,0,1,1.078-.892c1.487-.078,2.975-.024,4.463-.03.243,0,.485-.005.728-.008.006.042.026.081.07.056.095-.052.073-.13.031-.208,0-.049,0-.1.005-.147a.176.176,0,0,0-.052-.261.851.851,0,0,0,0-.619.193.193,0,0,0,.006-.325.344.344,0,0,0,.01-.355.1.1,0,0,0,0-.08,2.235,2.235,0,0,0,.038-.292q0-4.365,0-8.73a1.96,1.96,0,0,0-.032-.251c0-.029,0-.057,0-.086.1-.807-.038-1.62.065-2.432a1.066,1.066,0,0,1,.8-.986,5.981,5.981,0,0,1,.885-.1q7.418.011,14.836,0a1.43,1.43,0,0,1,1.586,1.644c-.035,4.171-.017,8.343-.019,12.515,0,.171,0,.342,0,.514.026.222.174.178.317.145,1.359.009,2.718.005,4.076.037.333.008.394-.086.393-.4-.012-3.361-.007-6.722-.007-10.082,0-5.749.026-11.5-.02-17.247a1.55,1.55,0,0,1,1.777-1.753c4.692.025,9.384.005,14.076.01a5.969,5.969,0,0,1,1.263.085,1.354,1.354,0,0,1,1.1,1.321c.009.128,0,.257,0,.386q0,13.493,0,26.986c0,.645,0,.645.605.7a.2.2,0,0,0,.335-.009l2.246-.037q.119.28.24,0c.329,0,.658-.012.986.007.263.015.334-.068.334-.34q-.01-8.723,0-17.446c0-.257.008-.514.009-.771a1.221,1.221,0,0,1,1.327-1.358,1.375,1.375,0,0,1,1.214,1.52q0,8.561,0,17.122c0,.243.012.487-.007.729-.02.262.079.364.341.349.328-.019.658-.023.987-.024,3.735,0,7.469-.013,11.2,0,.435,0,.536-.116.535-.549q-.022-13-.011-26,0-7.552,0-15.105c0-.238.092-.506-.353-.5q-6.138.023-12.276,0c-.335,0-.426.078-.425.428.013,5.65,0,11.3.02,16.95a1.536,1.536,0,0,1-1.314,1.633,1.339,1.339,0,0,1-1.257-1.41q.024-9.332.014-18.664A1.287,1.287,0,0,1,116.7,104.1c.171-.011.343-.019.514-.019l14.637,0c1.258,0,1.7.446,1.7,1.7q0,20.876,0,41.753c0,.386.017.773,0,1.158-.009.244.079.337.322.326.3-.014.6-.007.9-.007q5.344,0,10.688.01c.3,0,.394-.08.393-.385q-.011-5.728.007-11.457c0-.341-.1-.423-.428-.42-1.66.017-3.319.008-4.979.008a1.852,1.852,0,0,1-.907-.156,1.424,1.424,0,0,1-.749-1.291,1.335,1.335,0,0,1,1.219-1.112c1.7-.018,3.405-.006,5.108,0a.968.968,0,0,1,.205.041c.413.094.519.016.518-.405q0-5.407-.014-10.813a2.578,2.578,0,0,0-.029-.765c-.013-.034-.02-.09-.042-.1s-.038.023-.005.045c-.04-.117-.136-.074-.215-.074l-5.235.018a1.381,1.381,0,0,1-1.444-.908,1.22,1.22,0,0,1,.811-1.591,4.565,4.565,0,0,1,1.024-.075q2.317-.01,4.634-.013c0,.06.015.112.084.1.027,0,.048-.049.072-.075M95,135.476h.011q0,1.18,0,2.359,0,5.3-.017,10.6c0,.318.063.406.4.4q2.639-.037,5.277-.01c2.4.02,4.8-.074,7.2.044.137.007.178-.059.2-.2a6.842,6.842,0,0,0-.008-.992q0-12.547,0-25.094c0-.331-.085-.445-.428-.443-1.53.011-3.06-.007-4.59-.009q-3.712-.005-7.423,0c-.625,0-.625.016-.625.615v12.74m-16.4,1.315v0c-2.016,0-4.032.007-6.048-.007-.349,0-.462.083-.461.45q.019,5.578,0,11.156c0,.337.107.4.415.4q6.1-.018,12.2-.008c.3,0,.416-.054.415-.395q-.024-5.532,0-11.063c0-.462-.151-.538-.558-.535-1.987.017-3.975.008-5.963.008" transform="translate(688.216 3717.734)" fill="#fff"/>
  </g>
</svg>
