<svg xmlns="http://www.w3.org/2000/svg" xmlns:xlink="http://www.w3.org/1999/xlink" width="80" height="80.111" viewBox="0 0 80 80.111">
  <defs>
    <clipPath id="clip-path">
      <rect id="Rectángulo_353126" data-name="Rectángulo 353126" width="79.892" height="80.111" fill="#fff"/>
    </clipPath>
  </defs>
  <g id="Grupo_1003198" data-name="Grupo 1003198" transform="translate(-760 -3471.889)">
    <circle id="Elipse_5690" data-name="Elipse 5690" cx="30.5" cy="30.5" r="30.5" transform="translate(779 3472)" fill="#d37e7e"/>
    <path id="Trazado_715070" data-name="Trazado 715070" d="M4094-8179l8,8-16.667,16s-5,1.667-7.333-2,2-7.333,2-7.333Z" transform="translate(-3315 11704)" fill="#d49494"/>
    <g id="Grupo_1003197" data-name="Grupo 1003197" transform="translate(760 3471.889)">
      <g id="Grupo_1003196" data-name="Grupo 1003196" clip-path="url(#clip-path)">
        <path id="Trazado_715067" data-name="Trazado 715067" d="M23.243,53.486,25.992,50.7c-.249-.328-.516-.7-.8-1.051A29.977,29.977,0,0,1,19.2,36.515a29.119,29.119,0,0,1-.626-6.061,32.54,32.54,0,0,1,1.2-8.065A30.9,30.9,0,0,1,37.52,2.285,26.53,26.53,0,0,1,46.266.11a33.509,33.509,0,0,1,9.712.549A30.794,30.794,0,0,1,66.054,4.931,30.691,30.691,0,0,1,79.188,23.937a32.949,32.949,0,0,1,.637,4.874,33.075,33.075,0,0,1-.037,4.774,29.546,29.546,0,0,1-2.861,10.382,30.559,30.559,0,0,1-21.9,16.9,28.99,28.99,0,0,1-9.286.37,30.927,30.927,0,0,1-16.141-7c-.088-.074-.186-.137-.276-.2l-2.692,2.757.573.577q1.64,1.651,3.283,3.3c.175.176.274.3.035.535Q24.7,67.006,18.9,72.826c-1.677,1.679-3.32,3.4-5.044,5.025a7.777,7.777,0,0,1-6.6,2.183,8.18,8.18,0,0,1-7.12-6.807,7.869,7.869,0,0,1,2.14-7.065c2-2.094,4.073-4.115,6.117-6.166q5.234-5.252,10.467-10.505c.188-.189.294-.176.47,0,1.231,1.24,2.472,2.47,3.707,3.706a2.179,2.179,0,0,1,.207.286m26.071,3.259A26.071,26.071,0,1,0,23.271,30.5,25.968,25.968,0,0,0,49.314,56.745M12.451,62.492c-.019.018-.115.1-.2.195L6.876,68.1c-.477.481-1,.925-1.427,1.445a3.6,3.6,0,0,0,1.643,5.688,3.743,3.743,0,0,0,4.063-1.177c1.885-1.948,3.815-3.853,5.726-5.776.244-.246.482-.5.738-.763l-5.167-5.025m6.706-6.711c-.143.124-.2.171-.258.225-.927.934-1.841,1.881-2.786,2.8-.254.245-.209.371.007.586q2.213,2.208,4.407,4.436c.5.506.448.371.833-.013.857-.856,1.7-1.73,2.569-2.571.238-.23.248-.351.014-.583q-2-1.98-3.974-3.987c-.274-.276-.526-.574-.811-.888" transform="translate(0 0)" fill="#fff"/>
        <path id="Trazado_715068" data-name="Trazado 715068" d="M88.718,50.628a21.469,21.469,0,1,1,42.938.263,21.469,21.469,0,1,1-42.938-.263m21.118,16.947A16.841,16.841,0,1,0,93.408,49.954a16.748,16.748,0,0,0,16.427,17.621" transform="translate(-60.913 -20.06)" fill="#fff"/>
        <path id="Trazado_715069" data-name="Trazado 715069" d="M140.262,79.369l-3.421,2c-.078.046-.161.086-.236.138-.219.155-.346.125-.533-.108-.758-.944-1.551-1.858-2.337-2.778a3.3,3.3,0,0,0-.35-.309c-.672,4.212-2.943,6.769-7.236,7.173a6.957,6.957,0,0,1-5.4-1.933,7.74,7.74,0,0,1-2.515-5.194l-.129-.028c-.663.746-1.334,1.486-1.987,2.241a8.579,8.579,0,0,0-.669.915c-.127.195-.236.233-.44.1q-1.684-1.064-3.381-2.109c-.2-.121-.29-.216-.122-.454a22.915,22.915,0,0,1,5.9-5.923,14.726,14.726,0,0,1,8.929-2.7,14.918,14.918,0,0,1,5.929,1.523,20.477,20.477,0,0,1,7.872,7.191,2.45,2.45,0,0,1,.122.242M128.69,78a2.9,2.9,0,1,0-2.837,2.872A2.852,2.852,0,0,0,128.69,78" transform="translate(-76.499 -48.337)" fill="#fff"/>
      </g>
    </g>
  </g>
</svg>
