<svg xmlns="http://www.w3.org/2000/svg" xmlns:xlink="http://www.w3.org/1999/xlink" width="85" height="85" viewBox="0 0 85 85">
  <defs>
    <clipPath id="clip-path">
      <rect id="Rectángulo_353127" data-name="Rectángulo 353127" width="85" height="85" transform="translate(0 0)" fill="none"/>
    </clipPath>
  </defs>
  <g id="Grupo_1003200" data-name="Grupo 1003200" transform="translate(0 0)">
    <g id="Grupo_1003199" data-name="Grupo 1003199" transform="translate(0 0)" clip-path="url(#clip-path)">
      <path id="Trazado_715071" data-name="Trazado 715071" d="M77.161,40.2l-4.729-4.72L61.784,45.793V30.147q0-2.454.007-4.908c0-.042,0-.079-.007-.12V23.228H56.07q-1.828,0-3.657,0h-4.93c0-.547-.015-1.092-.042-1.637-.057-1.145-.8-1.683-1.96-1.684-1.245,0-2.489.008-3.734,0A1.615,1.615,0,0,1,40,18.474a2.629,2.629,0,0,1,.307-1.255,4.983,4.983,0,1,0-9.34-1.415,8.984,8.984,0,0,0,.647,1.781,1.583,1.583,0,0,1-1.174,2.253,2.806,2.806,0,0,1-.614.067c-1.245.006-2.489,0-3.734.005a1.653,1.653,0,0,0-1.836,1.853q0,.732,0,1.465H14.389c-.805,0-1.611,0-2.416-.008-.046,0-.088.006-.133.008h-.2v.012a1.755,1.755,0,0,0-1.674,1.98q.029,30.531.014,61.062c0,.125,0,.249,0,.374a1.608,1.608,0,0,0,1.416,1.588,8.888,8.888,0,0,0,1.24.072q23.308.005,46.617,0c.138,0,.277,0,.415,0A2.231,2.231,0,0,0,61.8,86.4q-.02-5.579-.018-11.159V55.1L77.161,40.2M35.873,13.285a1.742,1.742,0,0,1,1.66,1.683,1.7,1.7,0,0,1-1.668,1.618,1.666,1.666,0,0,1-1.644-1.67,1.7,1.7,0,0,1,1.653-1.631" transform="translate(-6.654 -6.647)" fill="#d37e7e"/>
      <path id="Trazado_715072" data-name="Trazado 715072" d="M228.105,56.535c-.729-.811-1.509-1.577-2.291-2.339a1.967,1.967,0,0,0-.74-.432,1.827,1.827,0,0,0-1.937.627c-1.042,1.03-2.075,2.07-3.109,3.108-.054.054-.084.132-.066.1l4.631,4.763a1.59,1.59,0,0,0,.179-.132c1.089-1.082,2.188-2.152,3.26-3.251a1.643,1.643,0,0,0,.073-2.447" transform="translate(-146.909 -35.851)" fill="#d37e7e"/>
      <path id="Trazado_715073" data-name="Trazado 715073" d="M206.022,75.033l4.6,4.671,2.293-2.386-4.809-4.6-2.083,2.318" transform="translate(-137.602 -48.566)" fill="#d37e7e"/>
      <path id="Trazado_715074" data-name="Trazado 715074" d="M83.741,25.076a4.784,4.784,0,0,0-.116-6.591c-.832-.907-1.71-1.774-2.61-2.613a4.737,4.737,0,0,0-3.606-1.294,5.285,5.285,0,0,0-3.491,1.705q-4.025,3.958-8.065,7.9-3.591,3.511-7.189,7.014a1.484,1.484,0,0,1-.213.138v-.507q0-5.977,0-11.955a5.235,5.235,0,0,0-2.977-4.937,6.26,6.26,0,0,0-3.041-.678c-2.726,0-5.452,0-8.178.008a.555.555,0,0,1-.592-.363,4.878,4.878,0,0,0-3.958-2.909c-.629-.071-1.27-.04-1.906-.056-.144,0-.288-.014-.437-.021A8.4,8.4,0,0,0,29.379.006a7.755,7.755,0,0,0-6,2.5,8.2,8.2,0,0,0-2.294,7.437c-.6,0-1.168-.018-1.732,0a4.976,4.976,0,0,0-4.58,2.96.546.546,0,0,1-.586.366q-4.3-.019-8.593,0a5.645,5.645,0,0,0-3.589,1.064A5.351,5.351,0,0,0,0,18.852Q0,31.741,0,44.63,0,61.941,0,79.252a6.184,6.184,0,0,0,.439,2.64,5.007,5.007,0,0,0,4.873,3.1q23.31.014,46.619,0c.277,0,.554.011.83,0a5.966,5.966,0,0,0,4.915-2.645,5.568,5.568,0,0,0,.768-3.261q.011-14.4.012-28.809a.948.948,0,0,1,.2-.622q3.968-3.9,7.965-7.765c2.5-2.424,5.025-4.832,7.531-7.256,1.074-1.039,2.126-2.1,3.191-3.148.1-.1.224-.192.371-.317.455.493.921.93,1.305,1.431a1.564,1.564,0,0,1-.039,2.03,5.251,5.251,0,0,1-.472.523q-4.108,4.111-8.217,8.221a10.643,10.643,0,0,0-.947,1.042,1.459,1.459,0,0,0-.151,1.567,1.626,1.626,0,0,0,2.674.43c.38-.363.731-.755,1.1-1.127,2.67-2.672,5.352-5.333,8.01-8.016a4.882,4.882,0,0,0,.113-7.242c-.348-.37-.765-.675-1.245-1.094.326-.265.536-.4.709-.581,1.067-1.085,2.179-2.131,3.176-3.278M44.186,16.6c.147-.007.28-.019.413-.019,2.726,0,5.451-.015,8.177.013a3.168,3.168,0,0,1,1.307.317,1.729,1.729,0,0,1,1.054,1.68c-.018,5.216-.006,10.432-.017,15.648a.847.847,0,0,1-.222.545c-1.116,1.114-2.25,2.21-3.381,3.309a1.325,1.325,0,0,1-.23.138v-.814q0-7.367-.007-14.734a5.986,5.986,0,0,0-.055-.786,1.594,1.594,0,0,0-1.366-1.413,6.247,6.247,0,0,0-.991-.07c-1.411,0-2.822,0-4.233.009h-.448ZM19.439,13.262c1.244-.01,2.489,0,3.734-.005a2.806,2.806,0,0,0,.614-.067,1.583,1.583,0,0,0,1.174-2.253,8.989,8.989,0,0,1-.647-1.78,4.983,4.983,0,1,1,9.34,1.415,2.629,2.629,0,0,0-.307,1.255,1.615,1.615,0,0,0,1.745,1.43c1.244.011,2.489,0,3.734,0,1.161,0,1.9.539,1.96,1.684.089,1.8.024,3.614.024,5.456H17.622c-.007-.161-.019-.3-.019-.43q0-2.427,0-4.854a1.653,1.653,0,0,1,1.836-1.853M53.012,81.669c-.138.008-.277,0-.415,0q-23.309,0-46.617,0A8.886,8.886,0,0,1,4.74,81.6a1.608,1.608,0,0,1-1.416-1.588c0-.124,0-.249,0-.374q0-30.531-.014-61.062a1.8,1.8,0,0,1,2.01-2c2.836.026,5.673.009,8.51.009h.434v3.844h-.541c-1.467-.006-2.933-.019-4.4-.01a3.679,3.679,0,0,0-.979.136,1.5,1.5,0,0,0-1.121,1.3,6.266,6.266,0,0,0-.066.95q-.007,4.525,0,9.049A5.308,5.308,0,0,0,7.2,32.6a1.615,1.615,0,0,0,1.651,1.529,1.7,1.7,0,0,0,1.6-1.7c.017-.345-.008-.691-.008-1.037,0-2.408.015-4.815,0-7.223,0-.377.115-.459.469-.458q9.111.01,18.223,0,9.132,0,18.264.011c.565,0,.57,0,.57.562,0,5.313-.028,10.627.031,15.94a2.742,2.742,0,0,1-.975,2.286c-1.706,1.557-3.339,3.193-5.014,4.783a.817.817,0,0,1-.519.165c-2.795.01-5.59,0-8.385.014a3.96,3.96,0,0,0-1.139.172,1.584,1.584,0,0,0,.186,3.056,3.873,3.873,0,0,0,.78.083c1.688.007,3.376,0,5.065,0,.1,0,.21.009.354.016-1.12,1.186-1.283,2.741-1.8,4.13-.784,2.121-1.437,4.291-2.13,6.446a2.69,2.69,0,0,1-.726,1.182,21.925,21.925,0,0,0-1.583,1.585,1.623,1.623,0,0,0,.788,2.7,1.459,1.459,0,0,0,1.419-.382q.824-.758,1.6-1.57a3.156,3.156,0,0,1,1.359-.828c3.085-1.006,6.168-2.017,9.237-3.067a8.164,8.164,0,0,0,1.425-.836.832.832,0,0,1,.034.183q0,6.808,0,13.615c0,.542,0,.552-.539.553q-11.6.01-23.2.015-6.7,0-13.408.007c-.27,0-.391-.038-.39-.355q.012-12.972.006-25.944c0-.747.021-1.495.006-2.242a1.65,1.65,0,0,0-1.657-1.791,1.575,1.575,0,0,0-1.565,1.335,5.659,5.659,0,0,0-.071.908q-.005,14.529,0,29.058a6.218,6.218,0,0,0,.062.868A1.639,1.639,0,0,0,8.6,77.781a5.032,5.032,0,0,0,.784.063q19.614,0,39.228,0a9.719,9.719,0,0,0,1.2-.07,1.6,1.6,0,0,0,1.419-1.453c.046-.495.053-.994.052-1.492q-.01-8.821-.023-17.642a.869.869,0,0,1,.162-.566c1.192-1.193,2.405-2.365,3.67-3.6.019.181.039.28.039.38,0,8.786-.012,17.573.02,26.359a2.231,2.231,0,0,1-2.136,1.911m-9.98-22.977-4.843,1.658,1.617-4.828,3.227,3.17M46.205,57.1l-4.621-4.835L65.778,28.832l4.729,4.72L46.205,57.1M73.02,31.138l-4.6-4.671L70.5,24.149l4.81,4.6L73.02,31.138m4.844-4.756a1.6,1.6,0,0,1-.18.132l-4.631-4.763c-.018.03.012-.048.066-.1,1.034-1.038,2.066-2.079,3.109-3.108a1.827,1.827,0,0,1,1.937-.627,1.968,1.968,0,0,1,.739.431c.782.762,1.563,1.528,2.292,2.339a1.643,1.643,0,0,1-.073,2.447c-1.071,1.1-2.171,2.169-3.26,3.251" transform="translate(0 0)" fill="#fff"/>
      <path id="Trazado_715075" data-name="Trazado 715075" d="M46.628,142.242a2.638,2.638,0,0,0,.854.565,1.669,1.669,0,0,0,1.858-.581q3.117-3.1,6.219-6.218a3.143,3.143,0,0,0,.5-.655,1.615,1.615,0,0,0-2.178-2.188,3.518,3.518,0,0,0-.712.563q-2.385,2.367-4.752,4.752a3.75,3.75,0,0,0-.342.469l-.187-.035a2.61,2.61,0,0,0-.223-.3c-.611-.621-1.2-1.265-1.847-1.847a1.611,1.611,0,0,0-2.642.467,1.642,1.642,0,0,0,.454,2.024c.991,1,1.985,2,3,2.985" transform="translate(-28.717 -88.802)" fill="#f5f5f5"/>
      <path id="Trazado_715076" data-name="Trazado 715076" d="M46.5,192.092c1.046,1.039,1.887,1.046,2.929.01q3.061-3.044,6.1-6.107a3.308,3.308,0,0,0,.617-.873,1.431,1.431,0,0,0-.329-1.646A1.334,1.334,0,0,0,54.291,183a3.49,3.49,0,0,0-1.136.715c-1.643,1.6-3.256,3.241-4.88,4.865-.095.1-.2.181-.355.322-.3-.322-.576-.63-.863-.926-.415-.426-.815-.871-1.263-1.259a1.633,1.633,0,0,0-2.749.822,1.655,1.655,0,0,0,.578,1.675c.951.966,1.913,1.922,2.875,2.878" transform="translate(-28.71 -122.167)" fill="#f5f5f5"/>
      <path id="Trazado_715077" data-name="Trazado 715077" d="M46.713,92.3a1.581,1.581,0,0,0,2.485.048A5.076,5.076,0,0,0,49.605,92q2.935-2.933,5.863-5.874a3.751,3.751,0,0,0,.587-.745,1.533,1.533,0,0,0-.293-1.928,1.552,1.552,0,0,0-1.976-.218,4.227,4.227,0,0,0-.664.56q-2.294,2.283-4.577,4.577c-.174.175-.314.384-.493.606-.166-.15-.23-.2-.288-.261-.6-.609-1.2-1.229-1.813-1.825a1.679,1.679,0,0,0-1.568-.566,1.631,1.631,0,0,0-.848,2.819c1.026,1.085,2.091,2.135,3.178,3.158" transform="translate(-28.724 -55.42)" fill="#f5f5f5"/>
      <path id="Trazado_715078" data-name="Trazado 715078" d="M94.933,96.24c1.563.015,3.126,0,4.689,0,1.535,0,3.07.009,4.605-.008a3.175,3.175,0,0,0,.972-.168,1.624,1.624,0,0,0,1.09-1.557,1.678,1.678,0,0,0-1.292-1.5,3.674,3.674,0,0,0-.78-.09q-4.523-.009-9.045,0a3.466,3.466,0,0,0-1.1.181,1.574,1.574,0,0,0-.871,2.209,1.751,1.751,0,0,0,1.728.919" transform="translate(-62.135 -62.062)" fill="#f5f5f5"/>
      <path id="Trazado_715079" data-name="Trazado 715079" d="M23.264,116.317a1.6,1.6,0,1,0,.027-3.2,1.6,1.6,0,0,0-.027,3.2" transform="translate(-14.483 -75.55)" fill="#f5f5f5"/>
      <path id="Trazado_715080" data-name="Trazado 715080" d="M84.646,23.289a1.7,1.7,0,0,0,1.668-1.618,1.743,1.743,0,0,0-1.66-1.683A1.7,1.7,0,0,0,83,21.619a1.666,1.666,0,0,0,1.645,1.67" transform="translate(-55.437 -13.35)" fill="#f5f5f5"/>
    </g>
  </g>
</svg>
