<svg xmlns="http://www.w3.org/2000/svg" xmlns:xlink="http://www.w3.org/1999/xlink" width="80.16" height="85.236" viewBox="0 0 80.16 85.236">
  <defs>
    <clipPath id="clip-path">
      <rect id="Rectángulo_353136" data-name="Rectángulo 353136" width="80.16" height="85.236" fill="none"/>
    </clipPath>
  </defs>
  <g id="Grupo_1003237" data-name="Grupo 1003237" transform="translate(-764.938 -3953)">
    <g id="Grupo_1003204" data-name="Grupo 1003204" transform="translate(764.938 3953)">
      <path id="Trazado_715083" data-name="Trazado 715083" d="M1.076,69.98l16.7,16.7,53.333.589,7.78-6.934L68.2,69.98,68.868,4.8.076,4.5Z" transform="translate(-0.05 -2.997)" fill="#d49494"/>
      <g id="Grupo_1003203" data-name="Grupo 1003203">
        <g id="Grupo_1003202" data-name="Grupo 1003202" clip-path="url(#clip-path)">
          <path id="Trazado_715084" data-name="Trazado 715084" d="M69.486,61.257H66.832V2.693H2.719v63.89H16.964c1.22,0,1.762.538,1.762,1.748q0,6.845,0,13.69v.536H66.794v2.669h-.44q-24.335,0-48.67.01a2.1,2.1,0,0,1-1.563-.729c-4.975-4.966-9.939-9.943-14.95-14.872A3.58,3.58,0,0,1,0,66.832Q.049,34.375.024,1.918c0-.139-.005-.278,0-.416A1.449,1.449,0,0,1,1.492.006C1.631,0,1.771,0,1.91,0H67.694c1.269,0,1.792.526,1.792,1.8V61.257ZM4.715,69.268l11.3,11.314V69.268Z" transform="translate(0 0)" fill="#fff"/>
          <path id="Trazado_715085" data-name="Trazado 715085" d="M71.012,91.221l-5.533-5.436C58.223,91.1,50.2,93.154,41.3,90.928A27.178,27.178,0,0,1,25.067,79.735,27.972,27.972,0,0,1,65.82,42.215a27.558,27.558,0,0,1,8.42,11.631,26.788,26.788,0,0,1,1.559,14.2,27.856,27.856,0,0,1-5.746,13.1l5.5,5.474c.255-.261.555-.582.869-.888a1.3,1.3,0,0,1,2.154.022q7.024,7,14.049,14.005c1.172,1.168,1.168,1.581,0,2.737q-2.867,2.85-5.721,5.713c-.1.1-.2.2-.295.295a1.324,1.324,0,0,1-2.215-.008q-2.318-2.309-4.633-4.621-4.782-4.766-9.564-9.532a4.211,4.211,0,0,1-.445-.494,1.108,1.108,0,0,1,.052-1.487c.362-.4.782-.745,1.207-1.143M48,89.146A25.307,25.307,0,1,0,22.71,63.087,25.3,25.3,0,0,0,48,89.146m37.4,16.8,4.835-4.824-8.791-8.778a.126.126,0,0,0-.049.026q-2.275,2.263-4.551,4.525c-.212.209-.138.336.036.508q1.409,1.391,2.8,2.8,2.867,2.878,5.717,5.749m-7.88-17.533-4.793,4.722,2.058,2.049,4.8-4.756-2.07-2.015m-4.765.939.94-.993c-1.625-1.56-3.211-3.074-4.786-4.6-.608-.588-.585-.587-1.2-.02-.236.218-.181.344.012.534q1.332,1.317,2.649,2.65c.78.788,1.555,1.582,2.385,2.428" transform="translate(-13.339 -23.894)" fill="#fff"/>
          <path id="Trazado_715086" data-name="Trazado 715086" d="M22.738,26.6q-2.482,0-4.963,0a1.5,1.5,0,0,1-1.7-1.679q0-3.639,0-7.277a1.493,1.493,0,0,1,1.687-1.7q5.026-.005,10.053,0a1.466,1.466,0,0,1,1.616,1.6q.009,3.721,0,7.443A1.468,1.468,0,0,1,27.786,26.6c-1.682.005-3.365,0-5.047,0M18.77,23.91h7.966V18.635H18.77Z" transform="translate(-10.703 -10.623)" fill="#fff"/>
          <rect id="Rectángulo_353131" data-name="Rectángulo 353131" width="36.029" height="2.612" transform="translate(26.758 5.35)" fill="#fff"/>
          <rect id="Rectángulo_353132" data-name="Rectángulo 353132" width="24.006" height="2.611" transform="translate(21.415 71.932)" fill="#fff"/>
          <rect id="Rectángulo_353133" data-name="Rectángulo 353133" width="23.992" height="2.616" transform="translate(26.76 77.256)" fill="#fff"/>
          <path id="Trazado_715087" data-name="Trazado 715087" d="M22.724,55.838v2.64H18.759v8.046A14.648,14.648,0,0,1,17,66.362a1.331,1.331,0,0,1-.93-1.342q-.018-3.845,0-7.689a1.363,1.363,0,0,1,1.376-1.479c1.748-.044,3.5-.013,5.279-.013" transform="translate(-10.696 -37.184)" fill="#fff"/>
          <rect id="Rectángulo_353134" data-name="Rectángulo 353134" width="2.622" height="2.612" transform="translate(21.418 5.36)" fill="#fff"/>
          <rect id="Rectángulo_353135" data-name="Rectángulo 353135" width="2.619" height="2.612" transform="translate(21.42 77.27)" fill="#fff"/>
          <path id="Trazado_715088" data-name="Trazado 715088" d="M60.933,55.86A21.285,21.285,0,1,1,40.149,78.136,21.226,21.226,0,0,1,60.933,55.86m.629,39.921a18.648,18.648,0,1,0-18.8-19.414,18.655,18.655,0,0,0,18.8,19.414" transform="translate(-26.723 -37.203)" fill="#fff"/>
          <path id="Trazado_715089" data-name="Trazado 715089" d="M76.143,98.014c.873-.892,1.671-1.723,2.485-2.538q3.517-3.523,7.045-7.034c.863-.86,1.444-.85,2.3.008,1.185,1.191,2.382,2.37,3.567,3.561.806.811.8,1.4-.009,2.2q-7.062,7.047-14.125,14.092c-.088.088-.176.177-.267.262a1.255,1.255,0,0,1-2-.006q-3.242-3.208-6.46-6.44a1.251,1.251,0,0,1,0-2.054q1.887-1.912,3.807-3.792a1.245,1.245,0,0,1,2,.029c.541.536,1.065,1.089,1.669,1.708m-2.585.971-2.181,2.065,4.761,4.8L88.912,93.1,86.8,90.957c-.092.086-.184.167-.271.253q-4.628,4.619-9.256,9.237c-.839.836-1.433.833-2.275,0-.5-.5-.994-1.006-1.441-1.459" transform="translate(-45.38 -58.481)" fill="#fff"/>
        </g>
      </g>
    </g>
  </g>
</svg>
