<svg xmlns="http://www.w3.org/2000/svg" xmlns:xlink="http://www.w3.org/1999/xlink" width="81.785" height="69" viewBox="0 0 81.785 69">
  <defs>
    <clipPath id="clip-path">
      <rect id="Rectángulo_353125" data-name="Rectángulo 353125" width="81.785" height="69" fill="none"/>
    </clipPath>
  </defs>
  <g id="Grupo_1003235" data-name="Grupo 1003235" transform="translate(-758.108 -3314)">
    <path id="Trazado_715066" data-name="Trazado 715066" d="M0,0H78V62H61.594L50,68,38.625,62H0Z" transform="translate(760 3314)" fill="#ffdbdb" opacity="0.4"/>
    <g id="Grupo_1003194" data-name="Grupo 1003194" transform="translate(758.108 3314)" clip-path="url(#clip-path)">
      <path id="Trazado_715061" data-name="Trazado 715061" d="M34.486,61.338v2.54c-.132.006-.248.016-.364.016q-14.036,0-28.072,0A5.74,5.74,0,0,1,.123,59.033a7.161,7.161,0,0,1-.117-1.309Q0,31.788,0,5.853A5.756,5.756,0,0,1,5.236.068C5.672.027,6.112,0,6.55,0q34.5,0,69,.009a7.828,7.828,0,0,1,2.164.282,5.818,5.818,0,0,1,4.006,4.944c.032.331.06.664.06,1q0,25.756,0,51.512A6.1,6.1,0,0,1,80.6,61.6a5.181,5.181,0,0,1-3.88,2.185c-2.547.138-5.1.109-7.683.151v-2.6h.431l6.429,0A3.2,3.2,0,0,0,79.229,58q0-22.362,0-44.724V12.8H71.587V10.234h7.641v-.41c0-1.371,0-2.742,0-4.113A3.2,3.2,0,0,0,76.07,2.557q-35.18,0-70.36,0A3.284,3.284,0,0,0,2.558,5.7c0,1.489,0,2.978,0,4.511h63.87v2.546H2.557V58.063A3.292,3.292,0,0,0,5.825,61.34l28.192,0h.469" transform="translate(0 0)" fill="#fff"/>
      <path id="Trazado_715062" data-name="Trazado 715062" d="M110.841,101.7a4.284,4.284,0,0,1,2.521-1.777,4.022,4.022,0,0,1,2.013-.014c.248.066.344.01.431-.236a4.266,4.266,0,0,1,5.088-2.921c.264.048.34-.027.413-.264a3.972,3.972,0,0,1,3.138-2.906A4.208,4.208,0,0,1,128.793,95a7.78,7.78,0,0,1,.758,1.121q3.978,6.865,7.944,13.738,1.745,3.021,3.482,6.047a3.045,3.045,0,0,1,.565,1.951,2.789,2.789,0,0,1-1.457,2.121c-2.343,1.364-4.682,2.736-7.028,4.094q-5.106,2.956-10.22,5.9c-.829.478-1.66.952-2.484,1.437a2.581,2.581,0,0,1-2.724.024c-1.678-.918-3.368-1.816-5.048-2.731-1.821-.991-3.652-1.963-5.45-2.994a4.292,4.292,0,0,1-1.218-6.627,4.17,4.17,0,0,1,4.683-.988.641.641,0,0,0,.145.064,2.757,2.757,0,0,0,.291.006,1.112,1.112,0,0,0-.058-.291c-.107-.213-.234-.417-.353-.624q-4.91-8.49-9.819-16.981c-.405-.7-.783-1.419-1.178-2.127a3.939,3.939,0,0,1,6.769-4.022c.785,1.216,1.471,2.5,2.2,3.749.667,1.15,1.327,2.3,1.993,3.453.07.122.158.234.258.382m-3.447,20.285a1.609,1.609,0,0,0,.749,1.417,5.533,5.533,0,0,0,.681.413c3.139,1.709,6.286,3.406,9.413,5.136a1.019,1.019,0,0,0,1.174.007q9.674-5.573,19.376-11.1c.28-.159.272-.3.131-.533q-.559-.92-1.1-1.85-2.3-3.969-4.584-7.943Q130.611,102.97,128,98.4c-.344-.6-.676-1.209-1.075-1.77A1.711,1.711,0,0,0,125.034,96a1.819,1.819,0,0,0-1.438,1.39,2.358,2.358,0,0,0,.445,1.881c.8,1.383,1.6,2.76,2.395,4.143a3.056,3.056,0,0,1,.287.611,1.16,1.16,0,0,1-1.063,1.525,1.354,1.354,0,0,1-1.336-.827c-.793-1.384-1.584-2.769-2.388-4.146a4.058,4.058,0,0,0-.62-.873,1.885,1.885,0,0,0-1.952-.477,1.708,1.708,0,0,0-1.234,1.384,2.165,2.165,0,0,0,.276,1.574q.68,1.173,1.353,2.35c.514.9,1.033,1.8,1.533,2.706a1.043,1.043,0,0,1-.153,1.228,1.187,1.187,0,0,1-1.243.444,1.411,1.411,0,0,1-.915-.772c-.808-1.39-1.607-2.785-2.413-4.177a8.855,8.855,0,0,0-.528-.844,1.979,1.979,0,0,0-2.284-.673,1.858,1.858,0,0,0-1.15,1.914,3.545,3.545,0,0,0,.462,1.255c.9,1.612,1.837,3.206,2.762,4.805a1.209,1.209,0,0,1,.156,1.029,1.232,1.232,0,0,1-.958.867,1.068,1.068,0,0,1-1.161-.446c-.365-.538-.7-1.1-1.023-1.663q-3.853-6.661-7.7-13.326c-.279-.483-.54-.98-.86-1.435a1.516,1.516,0,0,0-1.965-.4,1.45,1.45,0,0,0-.542,1.819,6.6,6.6,0,0,0,.4.78c.7,1.206,1.417,2.4,2.115,3.614q3.747,6.493,7.485,12.992c.5.875,1.033,1.738,1.488,2.639a2.572,2.572,0,0,1-1.523,3.712,3.012,3.012,0,0,1-2.132-.186,1.559,1.559,0,0,0-2.215,1.569" transform="translate(-67.462 -62.806)" fill="#fff"/>
      <path id="Trazado_715063" data-name="Trazado 715063" d="M136.964,76.932h-2.488c-.006-.135-.018-.263-.018-.39q0-1.477,0-2.955A2.994,2.994,0,0,0,131.4,70.54c-1.087.069-2.181.013-3.3.013V68c.159,0,.326,0,.494,0,1.21.023,2.424-.012,3.629.084a5.249,5.249,0,0,1,4.691,4.645c.117,1.349.071,2.711.1,4.067a.431.431,0,0,1-.045.138" transform="translate(-87.176 -46.273)" fill="#fff"/>
      <path id="Trazado_715064" data-name="Trazado 715064" d="M72,120.056h2.538c.006.128.017.256.018.383,0,1.064,0,2.127,0,3.191a2.943,2.943,0,0,0,2.789,2.8c1.181.007,2.363,0,3.572,0v2.556c-.557,0-1.111.015-1.664,0a22.149,22.149,0,0,1-2.9-.148,5.371,5.371,0,0,1-4.276-4.666c-.026-.265-.072-.529-.074-.793-.008-1.09,0-2.18,0-3.316" transform="translate(-48.996 -81.702)" fill="#fff"/>
      <path id="Trazado_715065" data-name="Trazado 715065" d="M80.966,68.154v2.5h-.385c-1.051,0-2.1,0-3.152,0A2.868,2.868,0,0,0,74.585,73.5c0,1.167,0,2.334,0,3.522h-2.5c-.013-.015-.045-.036-.044-.055a41.387,41.387,0,0,1,.118-4.3,5.308,5.308,0,0,1,4.873-4.508c1.3-.035,2.6-.006,3.934-.006" transform="translate(-49.027 -46.373)" fill="#fff"/>
      <rect id="Rectángulo_353122" data-name="Rectángulo 353122" width="2.507" height="2.507" transform="translate(5.14 5.129)" fill="#fff"/>
      <rect id="Rectángulo_353123" data-name="Rectángulo 353123" width="2.507" height="2.507" transform="translate(10.251 5.129)" fill="#fff"/>
      <rect id="Rectángulo_353124" data-name="Rectángulo 353124" width="2.502" height="2.509" transform="translate(15.358 5.131)" fill="#fff"/>
    </g>
  </g>
</svg>
