<svg id="Grupo_1003207" data-name="Grupo 1003207" xmlns="http://www.w3.org/2000/svg" xmlns:xlink="http://www.w3.org/1999/xlink" width="130.395" height="130.395" viewBox="0 0 130.395 130.395">
  <defs>
    <clipPath id="clip-path">
      <rect id="Rectángulo_353138" data-name="Rectángulo 353138" width="105.395" height="102.271" fill="none"/>
    </clipPath>
  </defs>
  <path id="Trazado_715003" data-name="Trazado 715003" d="M65.2,0A65.2,65.2,0,1,1,0,65.2,65.2,65.2,0,0,1,65.2,0" fill="#ffe8ce"/>
  <g id="Grupo_1003209" data-name="Grupo 1003209" transform="translate(25 24.127)">
    <g id="Grupo_1003208" data-name="Grupo 1003208" clip-path="url(#clip-path)">
      <path id="Trazado_715109" data-name="Trazado 715109" d="M73.832,62.565c1.7,1.637,3.384,3.251,5.058,4.874q1.774,1.719,3.524,3.463a.639.639,0,0,0,.806.176,4.613,4.613,0,0,1,4.953.793c.385.314.744.661,1.1,1.007q7.1,6.87,14.19,13.752a7.635,7.635,0,0,1,1.273,1.537,4.464,4.464,0,0,1-.629,5.467c-2.315,2.462-4.66,4.9-7.061,7.275a4.562,4.562,0,0,1-6.488.019c-2.053-1.948-4.048-3.957-6.082-5.925Q79.8,90.475,75.1,85.969a4.938,4.938,0,0,1-1.507-2.634,4.6,4.6,0,0,1,.606-3.31c.135-.231.189-.385-.049-.614q-4.061-3.906-8.1-7.838c-.049-.047-.1-.089-.168-.145C54.23,80.276,41.42,83,27.388,78.366a38.784,38.784,0,0,1-21.407-17.1A40.232,40.232,0,0,1,64.571,8.2,39.578,39.578,0,0,1,77.029,23.906,38.979,38.979,0,0,1,80.414,43.6a40.508,40.508,0,0,1-6.582,18.967m3.455-22.351C77.473,19.861,60.022,2.332,38.528,3.3A37.019,37.019,0,1,0,77.287,40.214m24.948,50.318-.126-.078a1.788,1.788,0,0,0-.744-1.4Q97.695,85.525,94.024,82c-2.58-2.486-5.147-4.986-7.733-7.466a1.574,1.574,0,0,0-2.545.024c-.577.562-1.135,1.145-1.691,1.728q-2.38,2.493-4.748,4.995a1.5,1.5,0,0,0,.016,2.382c.093.1.187.2.286.3,2.639,2.523,5.287,5.038,7.917,7.57,2.371,2.283,4.717,4.593,7.088,6.876a1.543,1.543,0,0,0,2.47-.021c.866-.855,1.715-1.728,2.558-2.605,1.283-1.335,2.569-2.667,3.822-4.03a7.93,7.93,0,0,0,.772-1.212M80.414,73.521,71.946,65.2,68.3,69.234l8.109,7.9,4.006-3.613" transform="translate(0 0)" fill="#161615"/>
      <path id="Trazado_715110" data-name="Trazado 715110" d="M81.966,44.87A37.007,37.007,0,1,1,43.207,7.953C64.7,6.987,82.153,24.517,81.966,44.87M11.89,44.821A33.068,33.068,0,1,0,45.377,11.87,33.078,33.078,0,0,0,11.89,44.821" transform="translate(-4.68 -4.656)" fill="#b20d0d"/>
      <path id="Trazado_715111" data-name="Trazado 715111" d="M211.859,196.112a7.93,7.93,0,0,1-.772,1.212c-1.253,1.363-2.539,2.7-3.822,4.03-.844.877-1.693,1.751-2.559,2.605a1.543,1.543,0,0,1-2.47.021c-2.371-2.283-4.716-4.593-7.087-6.876-2.63-2.533-5.277-5.047-7.917-7.57-.1-.095-.193-.2-.286-.3a1.5,1.5,0,0,1-.016-2.382q2.363-2.507,4.748-4.995c.557-.583,1.114-1.166,1.691-1.728a1.574,1.574,0,0,1,2.546-.024c2.585,2.481,5.153,4.98,7.732,7.466q3.666,3.533,7.341,7.057a1.788,1.788,0,0,1,.744,1.4l.126.078" transform="translate(-109.624 -105.581)" fill="#b20d0d"/>
      <path id="Trazado_715112" data-name="Trazado 715112" d="M178,166.677l-4.006,3.613-8.109-7.9,3.648-4.035L178,166.677" transform="translate(-97.586 -93.157)" fill="#ffe388"/>
      <path id="Trazado_715113" data-name="Trazado 715113" d="M17.513,50.47A33.068,33.068,0,1,1,49.648,83.628,33.024,33.024,0,0,1,17.513,50.47M50.665,20.778c-16.562-.2-29.8,13.588-29.915,29.542a29.844,29.844,0,0,0,59.684.61c.179-16.208-13.045-30.237-29.769-30.152" transform="translate(-10.302 -10.305)" fill="#161615"/>
      <path id="Trazado_715114" data-name="Trazado 715114" d="M55.288,25.434c16.723-.085,29.948,13.944,29.769,30.152a29.844,29.844,0,0,1-59.684-.61c.116-15.954,13.354-29.739,29.915-29.542m-.11,47.231q7.59,0,15.179,0A8.519,8.519,0,0,0,77.711,59.61q-5.3-9.2-10.608-18.383c-1.586-2.744-3.168-5.49-4.786-8.214a7.661,7.661,0,0,0-3.05-2.836A8.481,8.481,0,0,0,48.2,32.856c-.462.679-.857,1.4-1.269,2.115q-6.882,11.9-13.768,23.8c-1.149,1.978-2.04,3.978-1.68,6.362a8.423,8.423,0,0,0,8.26,7.509c5.144.1,10.291.023,15.436.023" transform="translate(-14.926 -14.961)" fill="#abffff"/>
      <path id="Trazado_715115" data-name="Trazado 715115" d="M63.794,77.974c-5.146,0-10.293.077-15.436-.022a8.423,8.423,0,0,1-8.26-7.509c-.36-2.383.531-4.383,1.68-6.362q6.906-11.887,13.768-23.8c.412-.712.807-1.437,1.269-2.115a8.482,8.482,0,0,1,11.068-2.679,7.659,7.659,0,0,1,3.05,2.836c1.618,2.724,3.2,5.471,4.787,8.214q5.31,9.188,10.608,18.383a8.519,8.519,0,0,1-7.353,13.053q-7.589.007-15.179,0m-.027-3.262v0q7.744,0,15.487,0a4.514,4.514,0,0,0,.919-.083A5.337,5.337,0,0,0,83.711,66.8c-.446-.829-.979-1.61-1.45-2.425q-5.43-9.414-10.849-18.833C70.4,43.794,69.469,42,68.389,40.291a5.275,5.275,0,0,0-9.1.063c-1.717,2.823-3.338,5.7-4.99,8.566Q49.179,57.8,44.06,66.683a5.286,5.286,0,0,0,4.477,8.031c5.077-.011,10.154,0,15.23,0" transform="translate(-23.541 -20.271)" fill="#161615"/>
      <path id="Trazado_715116" data-name="Trazado 715116" d="M68.446,79.373c-5.077,0-10.153-.008-15.23,0a5.287,5.287,0,0,1-4.477-8.032q5.133-8.875,10.244-17.763c1.652-2.862,3.273-5.744,4.99-8.566a5.275,5.275,0,0,1,9.1-.063c1.08,1.706,2.015,3.5,3.022,5.255Q81.513,59.626,86.94,69.04c.471.816,1,1.6,1.45,2.426a5.336,5.336,0,0,1-3.538,7.818,4.49,4.49,0,0,1-.919.084q-7.743.007-15.487,0v0m3.8-21.046c.042-1.484.126-3.505.148-5.528a3.5,3.5,0,0,0-2.325-3.473,5.141,5.141,0,0,0-2.844-.075,3.568,3.568,0,0,0-2.628,3.77c.036,1.457.108,2.913.163,4.369.1,2.724.182,5.448.314,8.17a3.422,3.422,0,0,0,4.433,3.071,3.578,3.578,0,0,0,2.453-3.4c.1-2.124.176-4.248.285-6.91m-7.686,15.3a4.017,4.017,0,0,0,3.924,4.006,4.066,4.066,0,0,0,3.977-3.976,3.951,3.951,0,1,0-7.9-.031" transform="translate(-28.22 -24.932)" fill="#ffc403"/>
      <path id="Trazado_715117" data-name="Trazado 715117" d="M95.995,67.907c-.109,2.662-.189,4.786-.285,6.91a3.578,3.578,0,0,1-2.453,3.4,3.423,3.423,0,0,1-4.433-3.071c-.132-2.722-.211-5.447-.314-8.171-.055-1.456-.127-2.912-.163-4.369a3.568,3.568,0,0,1,2.628-3.77,5.137,5.137,0,0,1,2.844.074,3.5,3.5,0,0,1,2.325,3.474c-.022,2.022-.106,4.044-.148,5.528m-3.834,7.177.157.017a2.666,2.666,0,0,0,.107-.481c.15-4.039.287-8.079.447-12.119.02-.515-.268-.5-.614-.488s-.654-.037-.63.525c.171,4,.305,8.01.455,12.014a4.772,4.772,0,0,0,.078.53" transform="translate(-51.971 -34.512)" fill="#161615"/>
      <path id="Trazado_715118" data-name="Trazado 715118" d="M88.257,112.622a3.951,3.951,0,1,1,7.9.031,4.066,4.066,0,0,1-3.977,3.976,4.018,4.018,0,0,1-3.924-4.007m3.935.7a.747.747,0,0,0,.691-.642.77.77,0,0,0-.64-.7.79.79,0,0,0-.75.65.725.725,0,0,0,.7.69" transform="translate(-51.919 -63.927)" fill="#161615"/>
      <path id="Trazado_715119" data-name="Trazado 715119" d="M96.85,79.86a4.773,4.773,0,0,1-.078-.53c-.149-4-.284-8.01-.455-12.014-.024-.562.287-.511.63-.525s.634-.027.614.488c-.16,4.039-.3,8.079-.447,12.119a2.666,2.666,0,0,1-.107.481l-.157-.017" transform="translate(-56.66 -39.288)" fill="#fff"/>
      <path id="Trazado_715120" data-name="Trazado 715120" d="M96.817,118.048a.725.725,0,0,1-.7-.69.79.79,0,0,1,.75-.65.77.77,0,0,1,.64.7.747.747,0,0,1-.691.642" transform="translate(-56.544 -68.656)" fill="#fff"/>
    </g>
  </g>
</svg>
