<svg xmlns="http://www.w3.org/2000/svg" width="1240" height="247" viewBox="0 0 1240 247">
  <g id="Grupo_1003219" data-name="Grupo 1003219" transform="translate(-180 -1172)">
    <rect id="Rectángulo_349306" data-name="Rectángulo 349306" width="1240" height="247" rx="25" transform="translate(180 1172)" fill="#fff1e1"/>
    <g id="Grupo_992316" data-name="Grupo 992316" transform="translate(0 26)">
      <path id="Trazado_715151" data-name="Trazado 715151" d="M18,0H254a18,18,0,0,1,18,18V155a18,18,0,0,1-18,18H18A18,18,0,0,1,0,155V18A18,18,0,0,1,18,0Z" transform="translate(285 1176)" fill="#b20d0d"/>
      <path id="Trazado_715152" data-name="Trazado 715152" d="M109.012,12.07a1.374,1.374,0,0,0-.527-1.156,6.345,6.345,0,0,0-1.9-.82,9.186,9.186,0,0,1-2.187-.922,2.919,2.919,0,0,1-1.555-2.547,2.772,2.772,0,0,1,1.121-2.266,4.538,4.538,0,0,1,2.91-.891,4.916,4.916,0,0,1,2.117.438,3.475,3.475,0,0,1,1.461,1.246,3.2,3.2,0,0,1,.531,1.793h-1.969a1.782,1.782,0,0,0-.559-1.395,2.305,2.305,0,0,0-1.6-.5,2.408,2.408,0,0,0-1.5.414,1.379,1.379,0,0,0-.535,1.156,1.247,1.247,0,0,0,.578,1.043,6.66,6.66,0,0,0,1.906.813,8.769,8.769,0,0,1,2.133.9,3.392,3.392,0,0,1,1.18,1.156,3.011,3.011,0,0,1,.375,1.527,2.707,2.707,0,0,1-1.09,2.262,4.727,4.727,0,0,1-2.957.84,5.557,5.557,0,0,1-2.27-.457,3.812,3.812,0,0,1-1.609-1.262,3.144,3.144,0,0,1-.574-1.875h1.977a1.84,1.84,0,0,0,.641,1.5,2.805,2.805,0,0,0,1.836.531,2.437,2.437,0,0,0,1.551-.418A1.349,1.349,0,0,0,109.012,12.07Zm5.8,2.93H112.84V3.625h1.969ZM119.8,3.625l3.281,8.719,3.273-8.719h2.555V15h-1.969V11.25l.2-5.016L123.777,15h-1.414l-3.352-8.758.2,5.008V15h-1.969V3.625ZM25.336,34.383a12.079,12.079,0,0,1,.473-3.391,9.85,9.85,0,0,1,1.41-2.953,6,6,0,0,1,1.945-1.875l.3.953a6.222,6.222,0,0,0-1.871,2.672,11.583,11.583,0,0,0-.8,4.023l-.008.664a11.643,11.643,0,0,0,1.1,5.234,6.252,6.252,0,0,0,1.578,2.078l-.3.883a6.192,6.192,0,0,1-1.984-1.937A10.859,10.859,0,0,1,25.336,34.383Zm9.1-.453a7.053,7.053,0,0,1-2.809-1.363,2.6,2.6,0,0,1-.879-2,2.751,2.751,0,0,1,1.074-2.223,4.269,4.269,0,0,1,2.793-.879,4.66,4.66,0,0,1,2.09.453,3.436,3.436,0,0,1,1.422,1.25,3.2,3.2,0,0,1,.5,1.742H37.125a2.08,2.08,0,0,0-.656-1.627,2.669,2.669,0,0,0-1.852-.592,2.732,2.732,0,0,0-1.73.489,1.632,1.632,0,0,0-.621,1.358,1.468,1.468,0,0,0,.59,1.178,5.786,5.786,0,0,0,2.008.88,9.316,9.316,0,0,1,2.219.88A3.367,3.367,0,0,1,38.27,34.6a2.861,2.861,0,0,1,.387,1.508,2.658,2.658,0,0,1-1.078,2.215,4.6,4.6,0,0,1-2.883.832,5.347,5.347,0,0,1-2.187-.449,3.681,3.681,0,0,1-1.566-1.23,3,3,0,0,1-.551-1.773H31.9a1.959,1.959,0,0,0,.762,1.629,3.207,3.207,0,0,0,2.035.6,2.948,2.948,0,0,0,1.82-.484,1.573,1.573,0,0,0,.633-1.32,1.545,1.545,0,0,0-.586-1.293A6.755,6.755,0,0,0,34.438,33.93ZM41.922,39H40.477V30.547h1.445ZM40.359,28.3a.863.863,0,0,1,.215-.594.807.807,0,0,1,.637-.242.819.819,0,0,1,.641.242.854.854,0,0,1,.219.594.826.826,0,0,1-.219.586.834.834,0,0,1-.641.234.821.821,0,0,1-.637-.234A.834.834,0,0,1,40.359,28.3Zm8.8,8.453a1.064,1.064,0,0,0-.441-.91,4.249,4.249,0,0,0-1.539-.559,7.277,7.277,0,0,1-1.742-.562,2.479,2.479,0,0,1-.953-.781,1.869,1.869,0,0,1-.309-1.078,2.193,2.193,0,0,1,.879-1.758,3.432,3.432,0,0,1,2.246-.719,3.532,3.532,0,0,1,2.332.742,2.357,2.357,0,0,1,.895,1.9H49.07a1.3,1.3,0,0,0-.5-1.023,1.888,1.888,0,0,0-1.27-.43,1.976,1.976,0,0,0-1.234.344,1.082,1.082,0,0,0-.445.9.877.877,0,0,0,.414.789,5.1,5.1,0,0,0,1.5.508,7.8,7.8,0,0,1,1.754.578,2.558,2.558,0,0,1,1,.809,1.988,1.988,0,0,1,.324,1.152,2.163,2.163,0,0,1-.906,1.816,3.8,3.8,0,0,1-2.352.684,4.257,4.257,0,0,1-1.8-.359,2.922,2.922,0,0,1-1.223-1,2.42,2.42,0,0,1-.441-1.395h1.445a1.5,1.5,0,0,0,.582,1.152,2.258,2.258,0,0,0,1.434.426,2.331,2.331,0,0,0,1.316-.332A1.02,1.02,0,0,0,49.156,36.758ZM54.445,28.5v2.047h1.578v1.117H54.445v5.249a1.173,1.173,0,0,0,.211.763.888.888,0,0,0,.719.254,3.5,3.5,0,0,0,.688-.094V39a4.215,4.215,0,0,1-1.109.155,1.8,1.8,0,0,1-1.461-.586A2.517,2.517,0,0,1,53,36.906V31.664H51.461V30.547H53V28.5Zm6.773,10.656a3.693,3.693,0,0,1-2.8-1.129,4.19,4.19,0,0,1-1.078-3.02v-.266a5.073,5.073,0,0,1,.48-2.246,3.748,3.748,0,0,1,1.344-1.547,3.378,3.378,0,0,1,1.871-.559A3.166,3.166,0,0,1,63.6,31.477a4.7,4.7,0,0,1,.914,3.109v.6H58.789a3,3,0,0,0,.73,2.02,2.3,2.3,0,0,0,1.777.77,2.517,2.517,0,0,0,1.3-.312,3.258,3.258,0,0,0,.93-.828l.883.688A3.55,3.55,0,0,1,61.219,39.156Zm-.18-7.578a1.928,1.928,0,0,0-1.469.637A3.1,3.1,0,0,0,58.836,34H63.07v-.109a2.753,2.753,0,0,0-.594-1.707A1.815,1.815,0,0,0,61.039,31.578Zm6.508-1.031.039.938a3.122,3.122,0,0,1,2.508-1.094,2.417,2.417,0,0,1,2.414,1.359,3.2,3.2,0,0,1,1.1-.984,3.242,3.242,0,0,1,1.6-.375q2.781,0,2.828,2.945V39H76.586V33.422a1.941,1.941,0,0,0-.414-1.355,1.823,1.823,0,0,0-1.391-.449,1.916,1.916,0,0,0-1.336.48,1.949,1.949,0,0,0-.617,1.293V39H71.375V33.461a1.613,1.613,0,0,0-1.8-1.844,1.934,1.934,0,0,0-1.945,1.211V39H66.18V30.547ZM85.43,39a3.036,3.036,0,0,1-.2-.891,3.225,3.225,0,0,1-2.406,1.047,2.984,2.984,0,0,1-2.051-.707,2.288,2.288,0,0,1-.8-1.793,2.39,2.39,0,0,1,1-2.051,4.733,4.733,0,0,1,2.824-.73H85.2v-.664A1.623,1.623,0,0,0,84.75,32a1.821,1.821,0,0,0-1.336-.449,2.108,2.108,0,0,0-1.3.391,1.151,1.151,0,0,0-.523.945H80.141a2,2,0,0,1,.449-1.223,3.066,3.066,0,0,1,1.219-.934,4.1,4.1,0,0,1,1.691-.344,3.342,3.342,0,0,1,2.289.73,2.635,2.635,0,0,1,.859,2.012v3.891a4.757,4.757,0,0,0,.3,1.852V39Zm-2.4-1.1a2.54,2.54,0,0,0,1.289-.352,2.127,2.127,0,0,0,.883-.914V34.9H84.07q-2.656,0-2.656,1.555a1.316,1.316,0,0,0,.453,1.063A1.742,1.742,0,0,0,83.031,37.9Zm10.8-1.141a1.064,1.064,0,0,0-.441-.91,4.249,4.249,0,0,0-1.539-.559,7.277,7.277,0,0,1-1.742-.562,2.479,2.479,0,0,1-.953-.781,1.869,1.869,0,0,1-.309-1.078,2.193,2.193,0,0,1,.879-1.758,3.432,3.432,0,0,1,2.246-.719,3.532,3.532,0,0,1,2.332.742,2.357,2.357,0,0,1,.895,1.9H93.75a1.3,1.3,0,0,0-.5-1.023,1.888,1.888,0,0,0-1.27-.43,1.976,1.976,0,0,0-1.234.344,1.082,1.082,0,0,0-.445.9.877.877,0,0,0,.414.789,5.1,5.1,0,0,0,1.5.508,7.8,7.8,0,0,1,1.754.578,2.558,2.558,0,0,1,1,.809,1.988,1.988,0,0,1,.324,1.152,2.163,2.163,0,0,1-.906,1.816,3.8,3.8,0,0,1-2.352.684,4.257,4.257,0,0,1-1.8-.359,2.922,2.922,0,0,1-1.223-1,2.42,2.42,0,0,1-.441-1.395h1.445a1.5,1.5,0,0,0,.582,1.152,2.258,2.258,0,0,0,1.434.426,2.331,2.331,0,0,0,1.316-.332A1.02,1.02,0,0,0,93.836,36.758Zm6.938-2.055a4.952,4.952,0,0,1,.922-3.129,3.137,3.137,0,0,1,4.766-.168V27h1.445V39h-1.328l-.07-.906a2.943,2.943,0,0,1-2.414,1.063,2.887,2.887,0,0,1-2.395-1.2,5.008,5.008,0,0,1-.926-3.141Zm1.445.164a3.749,3.749,0,0,0,.594,2.25,1.92,1.92,0,0,0,1.641.813,2.108,2.108,0,0,0,2.008-1.234V32.813a2.125,2.125,0,0,0-1.992-1.2,1.929,1.929,0,0,0-1.656.82A4.128,4.128,0,0,0,102.219,34.867Zm11.438,4.289a3.693,3.693,0,0,1-2.8-1.129,4.19,4.19,0,0,1-1.078-3.02v-.266a5.073,5.073,0,0,1,.48-2.246,3.748,3.748,0,0,1,1.344-1.547,3.378,3.378,0,0,1,1.871-.559,3.166,3.166,0,0,1,2.563,1.086,4.7,4.7,0,0,1,.914,3.109v.6h-5.727a3,3,0,0,0,.73,2.02,2.3,2.3,0,0,0,1.777.77,2.517,2.517,0,0,0,1.3-.312,3.259,3.259,0,0,0,.93-.828l.883.688A3.55,3.55,0,0,1,113.656,39.156Zm-.18-7.578a1.928,1.928,0,0,0-1.469.637A3.1,3.1,0,0,0,111.273,34h4.234v-.109a2.753,2.753,0,0,0-.594-1.707A1.815,1.815,0,0,0,113.477,31.578ZM124.422,39h-1.5V27.625h1.5Zm3.883-8.453.047,1.063a3.08,3.08,0,0,1,2.531-1.219q2.68,0,2.7,3.023V39h-1.445V33.406a1.946,1.946,0,0,0-.418-1.352,1.675,1.675,0,0,0-1.277-.437,2.086,2.086,0,0,0-1.234.375,2.546,2.546,0,0,0-.828.984V39h-1.445V30.547ZM136.477,39V31.664h-1.336V30.547h1.336V29.68a2.878,2.878,0,0,1,.727-2.1,2.745,2.745,0,0,1,2.055-.742,3.816,3.816,0,0,1,.992.132l-.078,1.165a4.151,4.151,0,0,0-.781-.07,1.41,1.41,0,0,0-1.086.411,1.669,1.669,0,0,0-.383,1.18v.893h1.8v1.117h-1.8V39Zm4.461-4.3a4.993,4.993,0,0,1,.488-2.234,3.642,3.642,0,0,1,1.359-1.531,3.7,3.7,0,0,1,1.988-.539,3.565,3.565,0,0,1,2.793,1.2,4.6,4.6,0,0,1,1.066,3.18v.1a5.036,5.036,0,0,1-.473,2.215,3.589,3.589,0,0,1-1.352,1.527,3.743,3.743,0,0,1-2.02.547,3.556,3.556,0,0,1-2.785-1.2,4.575,4.575,0,0,1-1.066-3.164Zm1.453.172a3.616,3.616,0,0,0,.652,2.258,2.211,2.211,0,0,0,3.5-.012,3.954,3.954,0,0,0,.648-2.418,3.61,3.61,0,0,0-.66-2.254,2.1,2.1,0,0,0-1.754-.863,2.075,2.075,0,0,0-1.727.852A3.925,3.925,0,0,0,142.391,34.867Zm12.141-3.023a4.331,4.331,0,0,0-.711-.055A1.9,1.9,0,0,0,151.891,33v6h-1.445V30.547h1.406l.023.977a2.251,2.251,0,0,1,2.016-1.133,1.477,1.477,0,0,1,.641.109Zm2.688-1.3.039.938a3.122,3.122,0,0,1,2.508-1.094,2.417,2.417,0,0,1,2.414,1.359,3.2,3.2,0,0,1,1.1-.984,3.242,3.242,0,0,1,1.6-.375q2.781,0,2.828,2.945V39h-1.445V33.422a1.941,1.941,0,0,0-.414-1.355,1.823,1.823,0,0,0-1.391-.449,1.917,1.917,0,0,0-1.336.48,1.949,1.949,0,0,0-.617,1.293V39h-1.453V33.461a1.613,1.613,0,0,0-1.8-1.844,1.934,1.934,0,0,0-1.945,1.211V39h-1.445V30.547ZM175.1,39a3.036,3.036,0,0,1-.2-.891,3.225,3.225,0,0,1-2.406,1.047,2.984,2.984,0,0,1-2.051-.707,2.287,2.287,0,0,1-.8-1.793,2.39,2.39,0,0,1,1-2.051,4.733,4.733,0,0,1,2.824-.73h1.406v-.664A1.623,1.623,0,0,0,174.422,32a1.821,1.821,0,0,0-1.336-.449,2.107,2.107,0,0,0-1.3.391,1.151,1.151,0,0,0-.523.945h-1.453a2,2,0,0,1,.449-1.223,3.066,3.066,0,0,1,1.219-.934,4.1,4.1,0,0,1,1.691-.344,3.342,3.342,0,0,1,2.289.73,2.635,2.635,0,0,1,.859,2.012v3.891a4.757,4.757,0,0,0,.3,1.852V39Zm-2.4-1.1a2.54,2.54,0,0,0,1.289-.352,2.127,2.127,0,0,0,.883-.914V34.9h-1.133q-2.656,0-2.656,1.555a1.316,1.316,0,0,0,.453,1.063A1.742,1.742,0,0,0,172.7,37.9Zm9.273.078a2.082,2.082,0,0,0,1.352-.469,1.649,1.649,0,0,0,.641-1.172h1.367a2.621,2.621,0,0,1-.5,1.383,3.293,3.293,0,0,1-1.23,1.047,3.55,3.55,0,0,1-1.629.391A3.482,3.482,0,0,1,179.23,38a4.59,4.59,0,0,1-1.02-3.152v-.242a5.089,5.089,0,0,1,.453-2.2,3.451,3.451,0,0,1,1.3-1.492,3.7,3.7,0,0,1,2-.531,3.39,3.39,0,0,1,2.363.852,3.043,3.043,0,0,1,1,2.211h-1.367a1.992,1.992,0,0,0-.621-1.348,1.932,1.932,0,0,0-1.379-.527,2.023,2.023,0,0,0-1.707.793,3.724,3.724,0,0,0-.605,2.293v.273a3.65,3.65,0,0,0,.6,2.25A2.033,2.033,0,0,0,181.977,37.977ZM188.531,39h-1.445V30.547h1.445Zm-1.562-10.7a.863.863,0,0,1,.215-.594.807.807,0,0,1,.637-.242.819.819,0,0,1,.641.242.854.854,0,0,1,.219.594.826.826,0,0,1-.219.586.834.834,0,0,1-.641.234.821.821,0,0,1-.637-.234A.834.834,0,0,1,186.969,28.3Zm3.492,6.391a4.993,4.993,0,0,1,.488-2.234,3.642,3.642,0,0,1,1.359-1.531,3.7,3.7,0,0,1,1.988-.539,3.565,3.565,0,0,1,2.793,1.2,4.6,4.6,0,0,1,1.066,3.18v.1a5.036,5.036,0,0,1-.473,2.215,3.589,3.589,0,0,1-1.352,1.527,3.743,3.743,0,0,1-2.02.547,3.556,3.556,0,0,1-2.785-1.2,4.575,4.575,0,0,1-1.066-3.164Zm1.453.172a3.616,3.616,0,0,0,.652,2.258,2.211,2.211,0,0,0,3.5-.012,3.954,3.954,0,0,0,.648-2.418,3.61,3.61,0,0,0-.66-2.254,2.1,2.1,0,0,0-1.754-.863,2.075,2.075,0,0,0-1.727.852A3.925,3.925,0,0,0,191.914,34.867ZM194.953,27h1.75l-2.094,2.3-1.164,0Zm6.383,3.547.047,1.063a3.08,3.08,0,0,1,2.531-1.219q2.68,0,2.7,3.023V39h-1.445V33.406a1.946,1.946,0,0,0-.418-1.352,1.675,1.675,0,0,0-1.277-.437,2.086,2.086,0,0,0-1.234.375,2.546,2.546,0,0,0-.828.984V39h-1.445V30.547ZM67.637,58.7a4.952,4.952,0,0,1,.922-3.129,3.137,3.137,0,0,1,4.766-.168V51H74.77V63H73.441l-.07-.906a2.943,2.943,0,0,1-2.414,1.063,2.887,2.887,0,0,1-2.395-1.2,5.008,5.008,0,0,1-.926-3.141Zm1.445.164a3.749,3.749,0,0,0,.594,2.25,1.92,1.92,0,0,0,1.641.813A2.108,2.108,0,0,0,73.324,60.7V56.813a2.125,2.125,0,0,0-1.992-1.2,1.929,1.929,0,0,0-1.656.82A4.128,4.128,0,0,0,69.082,58.867ZM80.52,63.156a3.693,3.693,0,0,1-2.8-1.129,4.19,4.19,0,0,1-1.078-3.02v-.266a5.073,5.073,0,0,1,.48-2.246,3.748,3.748,0,0,1,1.344-1.547,3.378,3.378,0,0,1,1.871-.559A3.166,3.166,0,0,1,82.9,55.477a4.7,4.7,0,0,1,.914,3.109v.6H78.09a3,3,0,0,0,.73,2.02,2.3,2.3,0,0,0,1.777.77,2.517,2.517,0,0,0,1.3-.312,3.259,3.259,0,0,0,.93-.828l.883.688A3.55,3.55,0,0,1,80.52,63.156Zm-.18-7.578a1.928,1.928,0,0,0-1.469.637A3.1,3.1,0,0,0,78.137,58h4.234v-.109a2.753,2.753,0,0,0-.594-1.707A1.815,1.815,0,0,0,80.34,55.578Zm11.273-3.953,3.719,9.281,3.719-9.281H101V63H99.5V58.57l.141-4.781L95.9,63H94.754l-3.727-9.187.148,4.758V63h-1.5V51.625Zm15.313,11.531a3.693,3.693,0,0,1-2.8-1.129,4.19,4.19,0,0,1-1.078-3.02v-.266a5.073,5.073,0,0,1,.48-2.246,3.748,3.748,0,0,1,1.344-1.547,3.378,3.378,0,0,1,1.871-.559,3.166,3.166,0,0,1,2.563,1.086,4.7,4.7,0,0,1,.914,3.109v.6H104.5a3,3,0,0,0,.73,2.02,2.3,2.3,0,0,0,1.777.77,2.517,2.517,0,0,0,1.3-.312,3.259,3.259,0,0,0,.93-.828l.883.688A3.55,3.55,0,0,1,106.926,63.156Zm-.18-7.578a1.928,1.928,0,0,0-1.469.637A3.1,3.1,0,0,0,104.543,58h4.234v-.109a2.753,2.753,0,0,0-.594-1.707A1.815,1.815,0,0,0,106.746,55.578Zm9.234.266a4.331,4.331,0,0,0-.711-.055A1.9,1.9,0,0,0,113.34,57v6h-1.445V54.547H113.3l.023.977a2.251,2.251,0,0,1,2.016-1.133,1.477,1.477,0,0,1,.641.109Zm4.57,6.133a2.082,2.082,0,0,0,1.352-.469,1.649,1.649,0,0,0,.641-1.172h1.367a2.621,2.621,0,0,1-.5,1.383,3.293,3.293,0,0,1-1.23,1.047,3.55,3.55,0,0,1-1.629.391A3.482,3.482,0,0,1,117.8,62a4.59,4.59,0,0,1-1.02-3.152v-.242a5.089,5.089,0,0,1,.453-2.2,3.451,3.451,0,0,1,1.3-1.492,3.7,3.7,0,0,1,2-.531,3.39,3.39,0,0,1,2.363.852,3.043,3.043,0,0,1,1,2.211h-1.367a1.992,1.992,0,0,0-.621-1.348,1.932,1.932,0,0,0-1.379-.527,2.023,2.023,0,0,0-1.707.793,3.724,3.724,0,0,0-.605,2.293v.273a3.65,3.65,0,0,0,.6,2.25A2.033,2.033,0,0,0,120.551,61.977ZM130.754,63a3.036,3.036,0,0,1-.2-.891,3.225,3.225,0,0,1-2.406,1.047,2.984,2.984,0,0,1-2.051-.707,2.288,2.288,0,0,1-.8-1.793,2.39,2.39,0,0,1,1-2.051,4.733,4.733,0,0,1,2.824-.73h1.406v-.664A1.623,1.623,0,0,0,130.074,56a1.821,1.821,0,0,0-1.336-.449,2.107,2.107,0,0,0-1.3.391,1.151,1.151,0,0,0-.523.945h-1.453a2,2,0,0,1,.449-1.223,3.066,3.066,0,0,1,1.219-.934,4.1,4.1,0,0,1,1.691-.344,3.342,3.342,0,0,1,2.289.73,2.635,2.635,0,0,1,.859,2.012v3.891a4.757,4.757,0,0,0,.3,1.852V63Zm-2.4-1.1a2.54,2.54,0,0,0,1.289-.352,2.127,2.127,0,0,0,.883-.914V58.9h-1.133q-2.656,0-2.656,1.555a1.316,1.316,0,0,0,.453,1.063A1.742,1.742,0,0,0,128.355,61.9Zm5.531-3.2a4.952,4.952,0,0,1,.922-3.129,3.137,3.137,0,0,1,4.766-.168V51h1.445V63h-1.328l-.07-.906a2.943,2.943,0,0,1-2.414,1.063,2.887,2.887,0,0,1-2.395-1.2,5.008,5.008,0,0,1-.926-3.141Zm1.445.164a3.749,3.749,0,0,0,.594,2.25,1.919,1.919,0,0,0,1.641.813,2.108,2.108,0,0,0,2.008-1.234V56.813a2.125,2.125,0,0,0-1.992-1.2,1.929,1.929,0,0,0-1.656.82A4.128,4.128,0,0,0,135.332,58.867Zm7.547-.172a4.993,4.993,0,0,1,.488-2.234,3.642,3.642,0,0,1,1.359-1.531,3.7,3.7,0,0,1,1.988-.539,3.565,3.565,0,0,1,2.793,1.2,4.6,4.6,0,0,1,1.066,3.18v.1a5.036,5.036,0,0,1-.473,2.215,3.589,3.589,0,0,1-1.352,1.527,3.743,3.743,0,0,1-2.02.547,3.556,3.556,0,0,1-2.785-1.2,4.575,4.575,0,0,1-1.066-3.164Zm1.453.172a3.616,3.616,0,0,0,.652,2.258,2.211,2.211,0,0,0,3.5-.012,3.954,3.954,0,0,0,.648-2.418,3.61,3.61,0,0,0-.66-2.254,2.1,2.1,0,0,0-1.754-.863,2.075,2.075,0,0,0-1.727.852A3.925,3.925,0,0,0,144.332,58.867Zm12.977,1.891a1.064,1.064,0,0,0-.441-.91,4.249,4.249,0,0,0-1.539-.559,7.277,7.277,0,0,1-1.742-.562,2.479,2.479,0,0,1-.953-.781,1.869,1.869,0,0,1-.309-1.078,2.193,2.193,0,0,1,.879-1.758,3.432,3.432,0,0,1,2.246-.719,3.532,3.532,0,0,1,2.332.742,2.357,2.357,0,0,1,.895,1.9h-1.453a1.3,1.3,0,0,0-.5-1.023,1.888,1.888,0,0,0-1.27-.43,1.976,1.976,0,0,0-1.234.344,1.082,1.082,0,0,0-.445.9.877.877,0,0,0,.414.789,5.1,5.1,0,0,0,1.5.508,7.8,7.8,0,0,1,1.754.578,2.558,2.558,0,0,1,1,.809,1.988,1.988,0,0,1,.324,1.152,2.163,2.163,0,0,1-.906,1.816,3.8,3.8,0,0,1-2.352.684,4.257,4.257,0,0,1-1.8-.359,2.922,2.922,0,0,1-1.223-1,2.42,2.42,0,0,1-.441-1.395h1.445a1.5,1.5,0,0,0,.582,1.152,2.258,2.258,0,0,0,1.434.426,2.331,2.331,0,0,0,1.316-.332A1.02,1.02,0,0,0,157.309,60.758Zm6.664-2.3a12.085,12.085,0,0,1-.457,3.34,9.876,9.876,0,0,1-1.4,2.949,6.127,6.127,0,0,1-1.973,1.922l-.3-.883a6.281,6.281,0,0,0,1.934-2.863,12.387,12.387,0,0,0,.746-4.309v-.25a12.861,12.861,0,0,0-.344-3.051,10.3,10.3,0,0,0-.957-2.527,5.838,5.838,0,0,0-1.379-1.742l.3-.883a6.1,6.1,0,0,1,1.965,1.906,9.9,9.9,0,0,1,1.4,2.945A12.364,12.364,0,0,1,163.973,58.461Z" transform="translate(305 1230)" fill="#fff"/>
      <path id="Trazado_706021" data-name="Trazado 706021" d="M-4201-10473.5h39.059" transform="translate(4757.679 11735.979)" fill="none" stroke="#707070" stroke-width="3"/>
      <path id="Trazado_706022" data-name="Trazado 706022" d="M0,0H39.059" transform="translate(665.78 1247.222) rotate(-90)" fill="none" stroke="#707070" stroke-width="3"/>
      <path id="Trazado_706026" data-name="Trazado 706026" d="M0,0H39.059" transform="translate(889.085 1247.222) rotate(-90)" fill="none" stroke="#707070" stroke-width="3"/>
      <path id="Trazado_706032" data-name="Trazado 706032" d="M0,0H68.354" transform="translate(1105 1250.883) rotate(-90)" fill="none" stroke="#707070" stroke-width="3"/>
      <path id="Trazado_706024" data-name="Trazado 706024" d="M0,0H38.688" transform="translate(705 1209.383) rotate(180)" fill="none" stroke="#707070" stroke-width="3"/>
      <path id="Trazado_706027" data-name="Trazado 706027" d="M0,0H33.49" transform="translate(855 1209.383)" fill="none" stroke="#707070" stroke-width="3"/>
      <path id="Trazado_706033" data-name="Trazado 706033" d="M45.259,0H0" transform="translate(1105 1183.75)" fill="none" stroke="#707070" stroke-width="3"/>
      <path id="Trazado_706034" data-name="Trazado 706034" d="M45.259,0H0" transform="translate(1105 1235.016)" fill="none" stroke="#707070" stroke-width="3"/>
      <path id="Trazado_706035" data-name="Trazado 706035" d="M45.259,0H0" transform="translate(1105 1299.708)" fill="none" stroke="#707070" stroke-width="3"/>
      <path id="Trazado_706025" data-name="Trazado 706025" d="M0,0H38.688" transform="translate(705 1318.017) rotate(180)" fill="none" stroke="#707070" stroke-width="3"/>
      <path id="Trazado_706028" data-name="Trazado 706028" d="M0,0H33.49" transform="translate(855 1318.016)" fill="none" stroke="#707070" stroke-width="3"/>
      <path id="Trazado_706031" data-name="Trazado 706031" d="M45.259,0H0" transform="translate(1105 1357.686)" fill="none" stroke="#707070" stroke-width="3"/>
      <path id="Trazado_706023" data-name="Trazado 706023" d="M0,0H39.059" transform="translate(665.78 1318.017) rotate(-90)" fill="none" stroke="#707070" stroke-width="3"/>
      <path id="Trazado_706029" data-name="Trazado 706029" d="M0,0H40.043" transform="translate(889.085 1319) rotate(-90)" fill="none" stroke="#707070" stroke-width="3"/>
      <path id="Trazado_706030" data-name="Trazado 706030" d="M0,0H78.729" transform="translate(1105 1357.686) rotate(-90)" fill="none" stroke="#707070" stroke-width="3"/>
      <g id="Trazado_715153" data-name="Trazado 715153" transform="translate(580 1245)" fill="#ffdbdb">
        <path d="M 137 35.5 L 15 35.5 C 11.39402008056641 35.5 8.003879547119141 34.09576034545898 5.454060077667236 31.54594039916992 C 2.904239892959595 28.99613952636719 1.5 25.60597991943359 1.5 22 L 1.5 15 C 1.5 11.39402008056641 2.904239892959595 8.003860473632812 5.454060077667236 5.454060077667236 C 8.003879547119141 2.904239892959595 11.39402008056641 1.5 15 1.5 L 137 1.5 C 140.6059875488281 1.5 143.9961395263672 2.904239892959595 146.5459442138672 5.454060077667236 C 149.0957641601562 8.003860473632812 150.5 11.39402008056641 150.5 15 L 150.5 22 C 150.5 25.60597991943359 149.0957641601562 28.99613952636719 146.5459442138672 31.54594039916992 C 143.9961395263672 34.09576034545898 140.6059875488281 35.5 137 35.5 Z" stroke="none"/>
        <path d="M 15 3 C 11.794677734375 3 8.781219482421875 4.248218536376953 6.514724731445312 6.514717102050781 C 4.248214721679688 8.781217575073242 3 11.79467391967773 3 15 L 3 22 C 3 25.20530319213867 4.248214721679688 28.21878242492676 6.514724731445312 30.48528289794922 C 8.781219482421875 32.75178146362305 11.794677734375 34 15 34 L 137 34 C 140.2053070068359 34 143.2187805175781 32.75178146362305 145.4852752685547 30.48528289794922 C 147.7517852783203 28.21878242492676 149 25.20530319213867 149 22 L 149 15 C 149 11.79467391967773 147.7517852783203 8.781217575073242 145.4852752685547 6.514717102050781 C 143.2187805175781 4.248218536376953 140.2053070068359 3 137 3 L 15 3 M 15 0 L 137 0 C 145.2842559814453 0 152 6.715717315673828 152 15 L 152 22 C 152 30.28425979614258 145.2842559814453 37 137 37 L 15 37 C 6.715713500976562 37 0 30.28425979614258 0 22 L 0 15 C 0 6.715717315673828 6.715713500976562 0 15 0 Z" stroke="none" fill="#707070"/>
      </g>
      <g id="Trazado_715154" data-name="Trazado 715154" transform="translate(855 1245)" fill="#ffdbdb">
        <path d="M 264 35.5 L 15 35.5 C 11.39403533935547 35.5 8.00389289855957 34.09574890136719 5.454071521759033 31.54592895507812 C 2.904249906539917 28.99614334106445 1.5 25.60600090026855 1.5 22 L 1.5 15 C 1.5 11.39400005340576 2.904249906539917 8.003857612609863 5.454071521759033 5.454071521759033 C 8.00389289855957 2.904249906539917 11.39403533935547 1.5 15 1.5 L 264 1.5 C 267.6059875488281 1.5 270.9961547851562 2.904249906539917 273.5459594726562 5.454035758972168 C 276.0957641601562 8.003857612609863 277.5 11.39400005340576 277.5 15 L 277.5 22 C 277.5 25.60600090026855 276.0957641601562 28.99614334106445 273.5459594726562 31.54596519470215 C 270.9961547851562 34.09574890136719 267.6059875488281 35.5 264 35.5 Z" stroke="none"/>
        <path d="M 15 3 C 11.794677734375 3 8.781219482421875 4.24822998046875 6.514739990234375 6.514730453491211 C 4.24822998046875 8.781230926513672 3 11.79469299316406 3 15 L 3 22 C 3 25.20530700683594 4.24822998046875 28.21876907348633 6.514739990234375 30.48526954650879 C 8.781219482421875 32.75177001953125 11.794677734375 34 15 34 L 264 34 C 267.205322265625 34 270.2187805175781 32.75177001953125 272.4852600097656 30.48526954650879 C 274.7517700195312 28.21876907348633 276 25.20530700683594 276 22 L 276 15 C 276 11.79469299316406 274.7517700195312 8.781230926513672 272.4852600097656 6.514730453491211 C 270.2187805175781 4.24822998046875 267.205322265625 3 264 3 L 15 3 M 15 0 L 264 0 C 272.2842712402344 0 279 6.715730667114258 279 15 L 279 22 C 279 30.28426933288574 272.2842712402344 37 264 37 L 15 37 C 6.715728759765625 37 0 30.28426933288574 0 22 L 0 15 C 0 6.715730667114258 6.715728759765625 0 15 0 Z" stroke="none" fill="#707070"/>
      </g>
      <path id="Trazado_715155" data-name="Trazado 715155" d="M25.148,10.859a5.033,5.033,0,0,1-.891,3.129,3.094,3.094,0,0,1-4.617.254V18.25h-1.9V6.547h1.75l.078.859a2.788,2.788,0,0,1,2.273-1.016A2.881,2.881,0,0,1,24.27,7.543a5.167,5.167,0,0,1,.879,3.2ZM23.258,10.7a3.526,3.526,0,0,0-.5-2.008,1.638,1.638,0,0,0-1.441-.742,1.747,1.747,0,0,0-1.672.961v3.75a1.763,1.763,0,0,0,1.688.984,1.636,1.636,0,0,0,1.418-.73A3.881,3.881,0,0,0,23.258,10.7Zm8.617,3.477a2.944,2.944,0,0,1-2.375.984,2.624,2.624,0,0,1-2.082-.8,3.423,3.423,0,0,1-.707-2.328V6.547h1.9V12q0,1.609,1.336,1.609a1.876,1.876,0,0,0,1.867-.992V6.547h1.9V15H31.922Zm7.492.984a3.928,3.928,0,0,1-2.926-1.137,4.124,4.124,0,0,1-1.121-3.027v-.234A5.072,5.072,0,0,1,35.809,8.5,3.716,3.716,0,0,1,37.18,6.945a3.625,3.625,0,0,1,1.969-.555,3.318,3.318,0,0,1,2.668,1.1,4.658,4.658,0,0,1,.941,3.117v.766H37.234a2.539,2.539,0,0,0,.7,1.656,2.1,2.1,0,0,0,1.543.609A2.571,2.571,0,0,0,41.6,12.586l1.023.977a3.418,3.418,0,0,1-1.355,1.176A4.244,4.244,0,0,1,39.367,15.156Zm-.227-7.242a1.6,1.6,0,0,0-1.262.547,2.835,2.835,0,0,0-.613,1.523h3.617V9.844A2.307,2.307,0,0,0,40.375,8.4,1.586,1.586,0,0,0,39.141,7.914Zm4.734,2.8a5.026,5.026,0,0,1,.906-3.137,2.9,2.9,0,0,1,2.43-1.184,2.759,2.759,0,0,1,2.172.938V3h1.9V15H49.563l-.094-.875A2.8,2.8,0,0,1,47.2,15.156a2.887,2.887,0,0,1-2.4-1.2A5.21,5.21,0,0,1,43.875,10.711Zm1.9.164a3.519,3.519,0,0,0,.5,2.012,1.61,1.61,0,0,0,1.41.723,1.793,1.793,0,0,0,1.7-1.039V8.961A1.766,1.766,0,0,0,47.7,7.945a1.622,1.622,0,0,0-1.422.73A3.919,3.919,0,0,0,45.773,10.875Zm11.211,4.281a3.928,3.928,0,0,1-2.926-1.137,4.124,4.124,0,0,1-1.121-3.027v-.234A5.072,5.072,0,0,1,53.426,8.5,3.716,3.716,0,0,1,54.8,6.945a3.625,3.625,0,0,1,1.969-.555,3.318,3.318,0,0,1,2.668,1.1,4.658,4.658,0,0,1,.941,3.117v.766H54.852a2.539,2.539,0,0,0,.7,1.656,2.1,2.1,0,0,0,1.543.609,2.571,2.571,0,0,0,2.125-1.055l1.023.977a3.418,3.418,0,0,1-1.355,1.176A4.244,4.244,0,0,1,56.984,15.156Zm-.227-7.242a1.6,1.6,0,0,0-1.262.547,2.835,2.835,0,0,0-.613,1.523H58.5V9.844A2.307,2.307,0,0,0,57.992,8.4,1.586,1.586,0,0,0,56.758,7.914Zm6.852-1.367.055.977a3.039,3.039,0,0,1,2.461-1.133q2.641,0,2.688,3.023V15h-1.9V9.523a1.741,1.741,0,0,0-.348-1.191,1.462,1.462,0,0,0-1.137-.387,1.829,1.829,0,0,0-1.711,1.039V15h-1.9V6.547ZM79.469,12.7a.861.861,0,0,0-.418-.773,4.445,4.445,0,0,0-1.387-.469,7.129,7.129,0,0,1-1.617-.516,2.158,2.158,0,0,1-1.422-1.992,2.25,2.25,0,0,1,.922-1.828,3.644,3.644,0,0,1,2.344-.734,3.792,3.792,0,0,1,2.449.75,2.38,2.38,0,0,1,.934,1.945h-1.9a1.17,1.17,0,0,0-.406-.91,1.557,1.557,0,0,0-1.078-.363,1.682,1.682,0,0,0-1.02.289.911.911,0,0,0-.395.773.769.769,0,0,0,.367.68,5.049,5.049,0,0,0,1.484.488,7.027,7.027,0,0,1,1.754.586,2.484,2.484,0,0,1,.945.816,2.082,2.082,0,0,1,.309,1.156,2.2,2.2,0,0,1-.945,1.848,4.031,4.031,0,0,1-2.477.707,4.371,4.371,0,0,1-1.852-.375A3.047,3.047,0,0,1,74.8,13.75a2.441,2.441,0,0,1-.453-1.414h1.844a1.338,1.338,0,0,0,.508,1.035,1.973,1.973,0,0,0,1.242.363,1.92,1.92,0,0,0,1.141-.285A.883.883,0,0,0,79.469,12.7Zm7.242,2.453a3.928,3.928,0,0,1-2.926-1.137,4.124,4.124,0,0,1-1.121-3.027v-.234A5.072,5.072,0,0,1,83.152,8.5a3.716,3.716,0,0,1,1.371-1.551,3.625,3.625,0,0,1,1.969-.555,3.318,3.318,0,0,1,2.668,1.1,4.658,4.658,0,0,1,.941,3.117v.766H84.578a2.539,2.539,0,0,0,.7,1.656,2.1,2.1,0,0,0,1.543.609,2.571,2.571,0,0,0,2.125-1.055l1.023.977a3.418,3.418,0,0,1-1.355,1.176A4.244,4.244,0,0,1,86.711,15.156Zm-.227-7.242a1.6,1.6,0,0,0-1.262.547,2.835,2.835,0,0,0-.613,1.523h3.617V9.844A2.307,2.307,0,0,0,87.719,8.4,1.586,1.586,0,0,0,86.484,7.914ZM96,8.281a4.7,4.7,0,0,0-.773-.062,1.741,1.741,0,0,0-1.758,1V15h-1.9V6.547h1.813l.047.945a2.139,2.139,0,0,1,1.906-1.1,1.777,1.777,0,0,1,.672.109Z" transform="translate(597 1252)"/>
      <path id="Trazado_715156" data-name="Trazado 715156" d="M42.684,12.07a1.374,1.374,0,0,0-.527-1.156,6.345,6.345,0,0,0-1.9-.82,9.186,9.186,0,0,1-2.187-.922,2.919,2.919,0,0,1-1.555-2.547,2.772,2.772,0,0,1,1.121-2.266,4.538,4.538,0,0,1,2.91-.891,4.916,4.916,0,0,1,2.117.438,3.475,3.475,0,0,1,1.461,1.246,3.2,3.2,0,0,1,.531,1.793H42.684a1.782,1.782,0,0,0-.559-1.395,2.305,2.305,0,0,0-1.6-.5,2.408,2.408,0,0,0-1.5.414,1.379,1.379,0,0,0-.535,1.156,1.247,1.247,0,0,0,.578,1.043,6.66,6.66,0,0,0,1.906.813,8.768,8.768,0,0,1,2.133.9,3.392,3.392,0,0,1,1.18,1.156,3.011,3.011,0,0,1,.375,1.527,2.707,2.707,0,0,1-1.09,2.262,4.727,4.727,0,0,1-2.957.84,5.557,5.557,0,0,1-2.27-.457,3.812,3.812,0,0,1-1.609-1.262,3.144,3.144,0,0,1-.574-1.875h1.977a1.84,1.84,0,0,0,.641,1.5,2.805,2.805,0,0,0,1.836.531,2.437,2.437,0,0,0,1.551-.418A1.349,1.349,0,0,0,42.684,12.07Zm7.25,3.086a3.928,3.928,0,0,1-2.926-1.137,4.124,4.124,0,0,1-1.121-3.027v-.234A5.072,5.072,0,0,1,46.375,8.5a3.716,3.716,0,0,1,1.371-1.551,3.625,3.625,0,0,1,1.969-.555,3.318,3.318,0,0,1,2.668,1.1,4.658,4.658,0,0,1,.941,3.117v.766H47.8a2.539,2.539,0,0,0,.7,1.656,2.1,2.1,0,0,0,1.543.609,2.571,2.571,0,0,0,2.125-1.055l1.023.977a3.418,3.418,0,0,1-1.355,1.176A4.244,4.244,0,0,1,49.934,15.156Zm-.227-7.242a1.6,1.6,0,0,0-1.262.547,2.835,2.835,0,0,0-.613,1.523h3.617V9.844A2.307,2.307,0,0,0,50.941,8.4,1.586,1.586,0,0,0,49.707,7.914Zm16.477,2.945a5.033,5.033,0,0,1-.891,3.129,3.094,3.094,0,0,1-4.617.254V18.25h-1.9V6.547h1.75l.078.859a2.788,2.788,0,0,1,2.273-1.016A2.881,2.881,0,0,1,65.3,7.543a5.167,5.167,0,0,1,.879,3.2ZM64.293,10.7a3.526,3.526,0,0,0-.5-2.008,1.638,1.638,0,0,0-1.441-.742,1.747,1.747,0,0,0-1.672.961v3.75a1.763,1.763,0,0,0,1.688.984,1.636,1.636,0,0,0,1.418-.73A3.881,3.881,0,0,0,64.293,10.7Zm8.617,3.477a2.944,2.944,0,0,1-2.375.984,2.624,2.624,0,0,1-2.082-.8,3.423,3.423,0,0,1-.707-2.328V6.547h1.9V12q0,1.609,1.336,1.609a1.876,1.876,0,0,0,1.867-.992V6.547h1.9V15H72.957Zm7.492.984a3.928,3.928,0,0,1-2.926-1.137,4.124,4.124,0,0,1-1.121-3.027v-.234A5.072,5.072,0,0,1,76.844,8.5a3.716,3.716,0,0,1,1.371-1.551,3.625,3.625,0,0,1,1.969-.555,3.318,3.318,0,0,1,2.668,1.1,4.658,4.658,0,0,1,.941,3.117v.766H78.27a2.539,2.539,0,0,0,.7,1.656,2.1,2.1,0,0,0,1.543.609,2.571,2.571,0,0,0,2.125-1.055l1.023.977A3.418,3.418,0,0,1,82.3,14.738,4.244,4.244,0,0,1,80.4,15.156Zm-.227-7.242a1.6,1.6,0,0,0-1.262.547A2.835,2.835,0,0,0,78.3,9.984h3.617V9.844A2.307,2.307,0,0,0,81.41,8.4,1.586,1.586,0,0,0,80.176,7.914Zm4.734,2.8a5.026,5.026,0,0,1,.906-3.137,2.9,2.9,0,0,1,2.43-1.184,2.759,2.759,0,0,1,2.172.938V3h1.9V15H90.6l-.094-.875a2.8,2.8,0,0,1-2.273,1.031,2.887,2.887,0,0,1-2.4-1.2A5.21,5.21,0,0,1,84.91,10.711Zm1.9.164a3.519,3.519,0,0,0,.5,2.012,1.61,1.61,0,0,0,1.41.723,1.793,1.793,0,0,0,1.7-1.039V8.961A1.766,1.766,0,0,0,88.73,7.945a1.622,1.622,0,0,0-1.422.73A3.918,3.918,0,0,0,86.809,10.875ZM98.02,15.156a3.928,3.928,0,0,1-2.926-1.137,4.124,4.124,0,0,1-1.121-3.027v-.234A5.072,5.072,0,0,1,94.461,8.5a3.716,3.716,0,0,1,1.371-1.551A3.625,3.625,0,0,1,97.8,6.391a3.318,3.318,0,0,1,2.668,1.1,4.658,4.658,0,0,1,.941,3.117v.766H95.887a2.539,2.539,0,0,0,.7,1.656,2.1,2.1,0,0,0,1.543.609,2.571,2.571,0,0,0,2.125-1.055l1.023.977a3.418,3.418,0,0,1-1.355,1.176A4.244,4.244,0,0,1,98.02,15.156Zm-.227-7.242a1.6,1.6,0,0,0-1.262.547,2.835,2.835,0,0,0-.613,1.523h3.617V9.844A2.307,2.307,0,0,0,99.027,8.4,1.586,1.586,0,0,0,97.793,7.914Zm6.852-1.367.055.977a3.039,3.039,0,0,1,2.461-1.133q2.641,0,2.688,3.023V15h-1.9V9.523a1.741,1.741,0,0,0-.348-1.191,1.462,1.462,0,0,0-1.137-.387,1.829,1.829,0,0,0-1.711,1.039V15h-1.9V6.547ZM115.41,10.7a4.984,4.984,0,0,1,.492-2.238,3.6,3.6,0,0,1,1.383-1.531,3.9,3.9,0,0,1,2.047-.535,3.692,3.692,0,0,1,2.777,1.1,4.333,4.333,0,0,1,1.152,2.922l.008.445a5.029,5.029,0,0,1-.48,2.234,3.551,3.551,0,0,1-1.375,1.523,3.925,3.925,0,0,1-2.066.539,3.667,3.667,0,0,1-2.863-1.191,4.563,4.563,0,0,1-1.074-3.176Zm1.9.164a3.406,3.406,0,0,0,.539,2.043,1.752,1.752,0,0,0,1.5.738,1.733,1.733,0,0,0,1.5-.75,3.762,3.762,0,0,0,.535-2.2,3.362,3.362,0,0,0-.551-2.031,1.856,1.856,0,0,0-2.973-.012A3.691,3.691,0,0,0,117.309,10.859Zm14.984,0a5.078,5.078,0,0,1-.879,3.133A2.863,2.863,0,0,1,129,15.156a2.758,2.758,0,0,1-2.312-1.07L126.59,15h-1.719V3h1.9V7.359a2.748,2.748,0,0,1,2.211-.969,2.9,2.9,0,0,1,2.43,1.148,5.162,5.162,0,0,1,.883,3.211Zm-1.9-.164a3.589,3.589,0,0,0-.484-2.062,1.613,1.613,0,0,0-1.406-.687,1.763,1.763,0,0,0-1.734,1.078v3.484a1.781,1.781,0,0,0,1.75,1.1,1.6,1.6,0,0,0,1.375-.664,3.477,3.477,0,0,0,.5-2.008Zm5.867-6.2V6.547h1.492V7.953h-1.492v4.719a1.039,1.039,0,0,0,.191.7.888.888,0,0,0,.684.215,2.924,2.924,0,0,0,.664-.078v1.469a4.676,4.676,0,0,1-1.25.18q-2.187,0-2.187-2.414V7.953h-1.391V6.547h1.391V4.492Zm6.664,10.664A3.928,3.928,0,0,1,140,14.02a4.124,4.124,0,0,1-1.121-3.027v-.234a5.072,5.072,0,0,1,.488-2.262,3.716,3.716,0,0,1,1.371-1.551,3.625,3.625,0,0,1,1.969-.555,3.318,3.318,0,0,1,2.668,1.1,4.658,4.658,0,0,1,.941,3.117v.766h-5.523a2.539,2.539,0,0,0,.7,1.656,2.1,2.1,0,0,0,1.543.609,2.571,2.571,0,0,0,2.125-1.055l1.023.977a3.418,3.418,0,0,1-1.355,1.176A4.244,4.244,0,0,1,142.926,15.156ZM142.7,7.914a1.6,1.6,0,0,0-1.262.547,2.835,2.835,0,0,0-.613,1.523h3.617V9.844a2.308,2.308,0,0,0-.508-1.441A1.586,1.586,0,0,0,142.7,7.914Zm6.852-1.367.055.977a3.039,3.039,0,0,1,2.461-1.133q2.641,0,2.688,3.023V15h-1.9V9.523a1.741,1.741,0,0,0-.348-1.191,1.462,1.462,0,0,0-1.137-.387,1.829,1.829,0,0,0-1.711,1.039V15h-1.9V6.547Zm10.859,8.609a3.928,3.928,0,0,1-2.926-1.137,4.124,4.124,0,0,1-1.121-3.027v-.234a5.072,5.072,0,0,1,.488-2.262,3.716,3.716,0,0,1,1.371-1.551,3.625,3.625,0,0,1,1.969-.555,3.318,3.318,0,0,1,2.668,1.1,4.658,4.658,0,0,1,.941,3.117v.766h-5.523a2.539,2.539,0,0,0,.7,1.656,2.1,2.1,0,0,0,1.543.609,2.571,2.571,0,0,0,2.125-1.055l1.023.977a3.418,3.418,0,0,1-1.355,1.176A4.244,4.244,0,0,1,160.41,15.156Zm-.227-7.242a1.6,1.6,0,0,0-1.262.547,2.835,2.835,0,0,0-.613,1.523h3.617V9.844a2.308,2.308,0,0,0-.508-1.441A1.586,1.586,0,0,0,160.184,7.914Zm9.516.367a4.7,4.7,0,0,0-.773-.062,1.741,1.741,0,0,0-1.758,1V15h-1.9V6.547h1.813l.047.945a2.139,2.139,0,0,1,1.906-1.1,1.777,1.777,0,0,1,.672.109Zm8.656,5.359a1.716,1.716,0,0,0,1.18-.414,1.415,1.415,0,0,0,.5-1.023h1.789a2.788,2.788,0,0,1-.492,1.473,3.228,3.228,0,0,1-1.25,1.082,3.725,3.725,0,0,1-1.7.4,3.6,3.6,0,0,1-2.812-1.148,4.555,4.555,0,0,1-1.039-3.172v-.2a4.479,4.479,0,0,1,1.031-3.09,3.571,3.571,0,0,1,2.813-1.16,3.473,3.473,0,0,1,2.457.879,3.148,3.148,0,0,1,1,2.309h-1.789a1.738,1.738,0,0,0-.5-1.2,1.6,1.6,0,0,0-1.184-.469,1.671,1.671,0,0,0-1.422.668,3.408,3.408,0,0,0-.508,2.027v.3a3.465,3.465,0,0,0,.5,2.051A1.669,1.669,0,0,0,178.355,13.641ZM182.9,10.7a4.984,4.984,0,0,1,.492-2.238,3.6,3.6,0,0,1,1.383-1.531,3.9,3.9,0,0,1,2.047-.535,3.692,3.692,0,0,1,2.777,1.1,4.333,4.333,0,0,1,1.152,2.922l.008.445a5.029,5.029,0,0,1-.48,2.234,3.551,3.551,0,0,1-1.375,1.523,3.925,3.925,0,0,1-2.066.539,3.667,3.667,0,0,1-2.863-1.191,4.563,4.563,0,0,1-1.074-3.176Zm1.9.164a3.406,3.406,0,0,0,.539,2.043,1.752,1.752,0,0,0,1.5.738,1.733,1.733,0,0,0,1.5-.75,3.762,3.762,0,0,0,.535-2.2,3.362,3.362,0,0,0-.551-2.031,1.856,1.856,0,0,0-2.973-.012A3.691,3.691,0,0,0,184.8,10.859Zm9.328-4.312.055.977a3.039,3.039,0,0,1,2.461-1.133q2.641,0,2.688,3.023V15h-1.9V9.523a1.741,1.741,0,0,0-.348-1.191,1.462,1.462,0,0,0-1.137-.387,1.829,1.829,0,0,0-1.711,1.039V15h-1.9V6.547Zm10.766,4.164a5.026,5.026,0,0,1,.906-3.137,2.9,2.9,0,0,1,2.43-1.184,2.759,2.759,0,0,1,2.172.938V3h1.9V15h-1.719l-.094-.875a2.8,2.8,0,0,1-2.273,1.031,2.887,2.887,0,0,1-2.4-1.2A5.21,5.21,0,0,1,204.895,10.711Zm1.9.164a3.519,3.519,0,0,0,.5,2.012,1.61,1.61,0,0,0,1.41.723,1.793,1.793,0,0,0,1.7-1.039V8.961a1.766,1.766,0,0,0-1.687-1.016,1.622,1.622,0,0,0-1.422.73A3.919,3.919,0,0,0,206.793,10.875ZM219.332,15a2.93,2.93,0,0,1-.219-.789,3.193,3.193,0,0,1-4.3.219,2.325,2.325,0,0,1-.8-1.8,2.4,2.4,0,0,1,1-2.074,4.865,4.865,0,0,1,2.871-.723h1.164V9.281a1.481,1.481,0,0,0-.367-1.051,1.456,1.456,0,0,0-1.117-.395,1.672,1.672,0,0,0-1.062.324,1,1,0,0,0-.414.824h-1.9a2.107,2.107,0,0,1,.461-1.3,3.071,3.071,0,0,1,1.254-.949,4.4,4.4,0,0,1,1.77-.344,3.547,3.547,0,0,1,2.367.746,2.661,2.661,0,0,1,.906,2.1v3.813a4.321,4.321,0,0,0,.32,1.82V15Zm-2.086-1.367a2.16,2.16,0,0,0,1.059-.273,1.827,1.827,0,0,0,.746-.734V11.031h-1.023a2.8,2.8,0,0,0-1.586.367,1.189,1.189,0,0,0-.531,1.039,1.109,1.109,0,0,0,.363.871A1.407,1.407,0,0,0,217.246,13.633Zm8.07-9.141V6.547h1.492V7.953h-1.492v4.719a1.039,1.039,0,0,0,.191.7.888.888,0,0,0,.684.215,2.924,2.924,0,0,0,.664-.078v1.469a4.676,4.676,0,0,1-1.25.18q-2.187,0-2.187-2.414V7.953h-1.391V6.547h1.391V4.492Zm2.352,6.2a4.984,4.984,0,0,1,.492-2.238,3.6,3.6,0,0,1,1.383-1.531,3.9,3.9,0,0,1,2.047-.535,3.692,3.692,0,0,1,2.777,1.1,4.333,4.333,0,0,1,1.152,2.922l.008.445a5.029,5.029,0,0,1-.48,2.234,3.551,3.551,0,0,1-1.375,1.523,3.925,3.925,0,0,1-2.066.539,3.667,3.667,0,0,1-2.863-1.191,4.563,4.563,0,0,1-1.074-3.176Zm1.9.164a3.406,3.406,0,0,0,.539,2.043,1.752,1.752,0,0,0,1.5.738,1.733,1.733,0,0,0,1.5-.75,3.762,3.762,0,0,0,.535-2.2,3.362,3.362,0,0,0-.551-2.031,1.856,1.856,0,0,0-2.973-.012A3.691,3.691,0,0,0,229.566,10.859Zm12.3,1.844a.861.861,0,0,0-.418-.773,4.445,4.445,0,0,0-1.387-.469,7.129,7.129,0,0,1-1.617-.516,2.158,2.158,0,0,1-1.422-1.992,2.25,2.25,0,0,1,.922-1.828,3.644,3.644,0,0,1,2.344-.734,3.792,3.792,0,0,1,2.449.75,2.38,2.38,0,0,1,.934,1.945h-1.9a1.17,1.17,0,0,0-.406-.91,1.557,1.557,0,0,0-1.078-.363,1.682,1.682,0,0,0-1.02.289.911.911,0,0,0-.395.773.769.769,0,0,0,.367.68,5.049,5.049,0,0,0,1.484.488,7.027,7.027,0,0,1,1.754.586,2.484,2.484,0,0,1,.945.816,2.082,2.082,0,0,1,.309,1.156,2.2,2.2,0,0,1-.945,1.848,4.031,4.031,0,0,1-2.477.707,4.371,4.371,0,0,1-1.852-.375A3.047,3.047,0,0,1,237.2,13.75a2.441,2.441,0,0,1-.453-1.414h1.844a1.338,1.338,0,0,0,.508,1.035,1.973,1.973,0,0,0,1.242.363,1.92,1.92,0,0,0,1.141-.285A.883.883,0,0,0,241.871,12.7Z" transform="translate(856 1253)"/>
      <path id="Trazado_715157" data-name="Trazado 715157" d="M0,0H166V38H0Z" transform="translate(696 1189)" fill="#06d1d1"/>
      <path id="Trazado_715158" data-name="Trazado 715158" d="M0,0H164V39H0Z" transform="translate(1151 1163)" fill="#06d1d1"/>
      <path id="Trazado_715159" data-name="Trazado 715159" d="M0,0H164V39H0Z" transform="translate(1151 1221)" fill="#06d1d1"/>
      <path id="Trazado_715160" data-name="Trazado 715160" d="M0,0H164V39H0Z" transform="translate(1151 1280)" fill="#06d1d1"/>
      <path id="Trazado_715161" data-name="Trazado 715161" d="M0,0H164V39H0Z" transform="translate(1151 1338)" fill="#06d1d1"/>
      <path id="Trazado_715162" data-name="Trazado 715162" d="M0,0H166V40H0Z" transform="translate(696 1298)" fill="#06d1d1"/>
      <path id="Trazado_715163" data-name="Trazado 715163" d="M36.063,10.781V15H34.086V3.625h4.352a4.4,4.4,0,0,1,3.027.993,3.34,3.34,0,0,1,1.121,2.628,3.229,3.229,0,0,1-1.1,2.6,4.613,4.613,0,0,1-3.074.931Zm0-1.594h2.375a2.339,2.339,0,0,0,1.609-.5A1.823,1.823,0,0,0,40.6,7.258a1.967,1.967,0,0,0-.562-1.473,2.168,2.168,0,0,0-1.547-.566h-2.43Zm12.492-.906a4.7,4.7,0,0,0-.773-.062,1.741,1.741,0,0,0-1.758,1V15h-1.9V6.547h1.813l.047.945a2.139,2.139,0,0,1,1.906-1.1,1.777,1.777,0,0,1,.672.109ZM51.773,15h-1.9V6.547h1.9ZM49.758,4.352a1.008,1.008,0,0,1,.277-.727,1.048,1.048,0,0,1,.793-.289,1.061,1.061,0,0,1,.8.289,1,1,0,0,1,.281.727.977.977,0,0,1-.281.715,1.069,1.069,0,0,1-.8.285,1.056,1.056,0,0,1-.793-.285A.984.984,0,0,1,49.758,4.352Zm5.867,2.2.055.883a3.042,3.042,0,0,1,2.438-1.039,2.337,2.337,0,0,1,2.32,1.3,3,3,0,0,1,2.594-1.3,2.636,2.636,0,0,1,2.082.773,3.405,3.405,0,0,1,.7,2.281V15h-1.9V9.5a1.681,1.681,0,0,0-.352-1.18A1.539,1.539,0,0,0,62.4,7.945a1.581,1.581,0,0,0-1.059.348,1.833,1.833,0,0,0-.574.91l.008,5.8h-1.9V9.438a1.354,1.354,0,0,0-1.523-1.492,1.671,1.671,0,0,0-1.617.93V15h-1.9V6.547ZM72.813,15a2.93,2.93,0,0,1-.219-.789,3.193,3.193,0,0,1-4.3.219,2.325,2.325,0,0,1-.8-1.8,2.4,2.4,0,0,1,1-2.074,4.865,4.865,0,0,1,2.871-.723h1.164V9.281a1.481,1.481,0,0,0-.367-1.051,1.456,1.456,0,0,0-1.117-.395,1.672,1.672,0,0,0-1.062.324,1,1,0,0,0-.414.824h-1.9a2.107,2.107,0,0,1,.461-1.3,3.071,3.071,0,0,1,1.254-.949,4.4,4.4,0,0,1,1.77-.344,3.547,3.547,0,0,1,2.367.746,2.661,2.661,0,0,1,.906,2.1v3.813a4.321,4.321,0,0,0,.32,1.82V15Zm-2.086-1.367a2.159,2.159,0,0,0,1.059-.273,1.827,1.827,0,0,0,.746-.734V11.031H71.508a2.8,2.8,0,0,0-1.586.367,1.189,1.189,0,0,0-.531,1.039,1.109,1.109,0,0,0,.363.871A1.407,1.407,0,0,0,70.727,13.633ZM80.844,8.281a4.7,4.7,0,0,0-.773-.062,1.741,1.741,0,0,0-1.758,1V15h-1.9V6.547h1.813l.047.945a2.139,2.139,0,0,1,1.906-1.1,1.777,1.777,0,0,1,.672.109ZM84.063,15h-1.9V6.547h1.9ZM82.047,4.352a1.008,1.008,0,0,1,.277-.727,1.048,1.048,0,0,1,.793-.289,1.061,1.061,0,0,1,.8.289,1,1,0,0,1,.281.727.977.977,0,0,1-.281.715,1.069,1.069,0,0,1-.8.285,1.056,1.056,0,0,1-.793-.285A.984.984,0,0,1,82.047,4.352ZM91.18,15a2.93,2.93,0,0,1-.219-.789,3.193,3.193,0,0,1-4.3.219,2.325,2.325,0,0,1-.8-1.8,2.4,2.4,0,0,1,1-2.074,4.865,4.865,0,0,1,2.871-.723H90.9V9.281a1.481,1.481,0,0,0-.367-1.051,1.456,1.456,0,0,0-1.117-.395,1.672,1.672,0,0,0-1.062.324,1,1,0,0,0-.414.824h-1.9a2.107,2.107,0,0,1,.461-1.3,3.071,3.071,0,0,1,1.254-.949,4.4,4.4,0,0,1,1.77-.344,3.547,3.547,0,0,1,2.367.746,2.661,2.661,0,0,1,.906,2.1v3.813a4.321,4.321,0,0,0,.32,1.82V15Zm-2.086-1.367a2.159,2.159,0,0,0,1.059-.273,1.827,1.827,0,0,0,.746-.734V11.031H89.875a2.8,2.8,0,0,0-1.586.367,1.189,1.189,0,0,0-.531,1.039,1.109,1.109,0,0,0,.363.871A1.407,1.407,0,0,0,89.094,13.633Zm10.43-.93a.861.861,0,0,0-.418-.773,4.445,4.445,0,0,0-1.387-.469,7.129,7.129,0,0,1-1.617-.516A2.158,2.158,0,0,1,94.68,8.953,2.25,2.25,0,0,1,95.6,7.125a3.644,3.644,0,0,1,2.344-.734,3.792,3.792,0,0,1,2.449.75,2.38,2.38,0,0,1,.934,1.945h-1.9a1.17,1.17,0,0,0-.406-.91,1.557,1.557,0,0,0-1.078-.363,1.682,1.682,0,0,0-1.02.289.911.911,0,0,0-.395.773.769.769,0,0,0,.367.68,5.049,5.049,0,0,0,1.484.488,7.027,7.027,0,0,1,1.754.586,2.484,2.484,0,0,1,.945.816,2.082,2.082,0,0,1,.309,1.156,2.2,2.2,0,0,1-.945,1.848,4.031,4.031,0,0,1-2.477.707,4.371,4.371,0,0,1-1.852-.375,3.047,3.047,0,0,1-1.266-1.031,2.441,2.441,0,0,1-.453-1.414h1.844a1.338,1.338,0,0,0,.508,1.035,1.973,1.973,0,0,0,1.242.363,1.92,1.92,0,0,0,1.141-.285A.883.883,0,0,0,99.523,12.7Z" transform="translate(714 1195)"/>
      <path id="Trazado_715164" data-name="Trazado 715164" d="M41.137,15H39.168V3.625h1.969Zm4.008-8.453.055.977A3.039,3.039,0,0,1,47.66,6.391q2.641,0,2.688,3.023V15h-1.9V9.523A1.741,1.741,0,0,0,48.1,8.332a1.462,1.462,0,0,0-1.137-.387,1.829,1.829,0,0,0-1.711,1.039V15h-1.9V6.547ZM54.66,4.492V6.547h1.492V7.953H54.66v4.719a1.039,1.039,0,0,0,.191.7.888.888,0,0,0,.684.215,2.924,2.924,0,0,0,.664-.078v1.469a4.676,4.676,0,0,1-1.25.18q-2.187,0-2.187-2.414V7.953H51.371V6.547h1.391V4.492Zm6.664,10.664A3.928,3.928,0,0,1,58.4,14.02a4.124,4.124,0,0,1-1.121-3.027v-.234A5.072,5.072,0,0,1,57.766,8.5a3.716,3.716,0,0,1,1.371-1.551,3.625,3.625,0,0,1,1.969-.555,3.318,3.318,0,0,1,2.668,1.1,4.658,4.658,0,0,1,.941,3.117v.766H59.191a2.539,2.539,0,0,0,.7,1.656,2.1,2.1,0,0,0,1.543.609,2.571,2.571,0,0,0,2.125-1.055l1.023.977a3.418,3.418,0,0,1-1.355,1.176A4.244,4.244,0,0,1,61.324,15.156ZM61.1,7.914a1.6,1.6,0,0,0-1.262.547,2.835,2.835,0,0,0-.613,1.523H62.84V9.844A2.307,2.307,0,0,0,62.332,8.4,1.586,1.586,0,0,0,61.1,7.914Zm9.516.367a4.7,4.7,0,0,0-.773-.062,1.741,1.741,0,0,0-1.758,1V15h-1.9V6.547H68l.047.945a2.139,2.139,0,0,1,1.906-1.1,1.777,1.777,0,0,1,.672.109Zm2.961-1.734.055.977A3.039,3.039,0,0,1,76.09,6.391q2.641,0,2.688,3.023V15h-1.9V9.523a1.741,1.741,0,0,0-.348-1.191,1.462,1.462,0,0,0-1.137-.387,1.829,1.829,0,0,0-1.711,1.039V15h-1.9V6.547ZM80.355,10.7a4.984,4.984,0,0,1,.492-2.238A3.6,3.6,0,0,1,82.23,6.926a3.9,3.9,0,0,1,2.047-.535,3.692,3.692,0,0,1,2.777,1.1,4.333,4.333,0,0,1,1.152,2.922l.008.445a5.029,5.029,0,0,1-.48,2.234,3.551,3.551,0,0,1-1.375,1.523,3.925,3.925,0,0,1-2.066.539,3.667,3.667,0,0,1-2.863-1.191,4.563,4.563,0,0,1-1.074-3.176Zm1.9.164a3.406,3.406,0,0,0,.539,2.043,1.752,1.752,0,0,0,1.5.738,1.733,1.733,0,0,0,1.5-.75,3.762,3.762,0,0,0,.535-2.2,3.362,3.362,0,0,0-.551-2.031A1.856,1.856,0,0,0,82.8,8.652,3.691,3.691,0,0,0,82.254,10.859Zm12.3,1.844a.861.861,0,0,0-.418-.773,4.445,4.445,0,0,0-1.387-.469,7.129,7.129,0,0,1-1.617-.516,2.158,2.158,0,0,1-1.422-1.992,2.25,2.25,0,0,1,.922-1.828,3.644,3.644,0,0,1,2.344-.734,3.792,3.792,0,0,1,2.449.75,2.38,2.38,0,0,1,.934,1.945h-1.9a1.17,1.17,0,0,0-.406-.91,1.557,1.557,0,0,0-1.078-.363,1.682,1.682,0,0,0-1.02.289.911.911,0,0,0-.395.773.769.769,0,0,0,.367.68,5.049,5.049,0,0,0,1.484.488,7.027,7.027,0,0,1,1.754.586,2.484,2.484,0,0,1,.945.816,2.082,2.082,0,0,1,.309,1.156,2.2,2.2,0,0,1-.945,1.848A4.031,4.031,0,0,1,93,15.156a4.371,4.371,0,0,1-1.852-.375,3.047,3.047,0,0,1-1.266-1.031,2.441,2.441,0,0,1-.453-1.414h1.844a1.338,1.338,0,0,0,.508,1.035,1.973,1.973,0,0,0,1.242.363,1.92,1.92,0,0,0,1.141-.285A.883.883,0,0,0,94.559,12.7Z" transform="translate(1165 1169)"/>
      <path id="Trazado_715165" data-name="Trazado 715165" d="M43.859,9.922H39.188v3.5h5.461V15H37.211V3.625h7.383V5.219H39.188V8.359h4.672Zm5.25-.594,1.609-2.781h2.109l-2.586,4.164L52.914,15H50.82l-1.687-2.891L47.453,15H45.344l2.672-4.289L45.438,6.547h2.094ZM56.5,4.492V6.547h1.492V7.953H56.5v4.719a1.039,1.039,0,0,0,.191.7.888.888,0,0,0,.684.215,2.924,2.924,0,0,0,.664-.078v1.469a4.676,4.676,0,0,1-1.25.18q-2.187,0-2.187-2.414V7.953H53.211V6.547H54.6V4.492Zm6.664,10.664a3.928,3.928,0,0,1-2.926-1.137,4.124,4.124,0,0,1-1.121-3.027v-.234A5.072,5.072,0,0,1,59.605,8.5a3.716,3.716,0,0,1,1.371-1.551,3.625,3.625,0,0,1,1.969-.555,3.318,3.318,0,0,1,2.668,1.1,4.658,4.658,0,0,1,.941,3.117v.766H61.031a2.539,2.539,0,0,0,.7,1.656,2.1,2.1,0,0,0,1.543.609A2.571,2.571,0,0,0,65.4,12.586l1.023.977a3.418,3.418,0,0,1-1.355,1.176A4.244,4.244,0,0,1,63.164,15.156Zm-.227-7.242a1.6,1.6,0,0,0-1.262.547,2.835,2.835,0,0,0-.613,1.523H64.68V9.844A2.307,2.307,0,0,0,64.172,8.4,1.586,1.586,0,0,0,62.938,7.914Zm9.516.367a4.7,4.7,0,0,0-.773-.062,1.741,1.741,0,0,0-1.758,1V15h-1.9V6.547h1.813l.047.945a2.139,2.139,0,0,1,1.906-1.1,1.777,1.777,0,0,1,.672.109Zm2.961-1.734.055.977A3.039,3.039,0,0,1,77.93,6.391q2.641,0,2.688,3.023V15h-1.9V9.523a1.741,1.741,0,0,0-.348-1.191,1.462,1.462,0,0,0-1.137-.387,1.829,1.829,0,0,0-1.711,1.039V15h-1.9V6.547ZM82.2,10.7a4.984,4.984,0,0,1,.492-2.238A3.6,3.6,0,0,1,84.07,6.926a3.9,3.9,0,0,1,2.047-.535,3.692,3.692,0,0,1,2.777,1.1,4.333,4.333,0,0,1,1.152,2.922l.008.445a5.029,5.029,0,0,1-.48,2.234A3.551,3.551,0,0,1,88.2,14.617a3.925,3.925,0,0,1-2.066.539,3.667,3.667,0,0,1-2.863-1.191A4.563,4.563,0,0,1,82.2,10.789Zm1.9.164a3.406,3.406,0,0,0,.539,2.043,1.752,1.752,0,0,0,1.5.738,1.733,1.733,0,0,0,1.5-.75,3.762,3.762,0,0,0,.535-2.2,3.362,3.362,0,0,0-.551-2.031,1.856,1.856,0,0,0-2.973-.012A3.691,3.691,0,0,0,84.094,10.859ZM96.4,12.7a.861.861,0,0,0-.418-.773,4.445,4.445,0,0,0-1.387-.469,7.129,7.129,0,0,1-1.617-.516,2.158,2.158,0,0,1-1.422-1.992,2.25,2.25,0,0,1,.922-1.828,3.644,3.644,0,0,1,2.344-.734,3.792,3.792,0,0,1,2.449.75A2.38,2.38,0,0,1,98.2,9.086H96.3a1.17,1.17,0,0,0-.406-.91,1.557,1.557,0,0,0-1.078-.363A1.682,1.682,0,0,0,93.8,8.1a.911.911,0,0,0-.395.773.769.769,0,0,0,.367.68,5.049,5.049,0,0,0,1.484.488,7.027,7.027,0,0,1,1.754.586,2.484,2.484,0,0,1,.945.816,2.082,2.082,0,0,1,.309,1.156,2.2,2.2,0,0,1-.945,1.848,4.031,4.031,0,0,1-2.477.707,4.371,4.371,0,0,1-1.852-.375,3.047,3.047,0,0,1-1.266-1.031,2.441,2.441,0,0,1-.453-1.414h1.844a1.338,1.338,0,0,0,.508,1.035,1.973,1.973,0,0,0,1.242.363,1.92,1.92,0,0,0,1.141-.285A.883.883,0,0,0,96.4,12.7Z" transform="translate(1165 1227)"/>
      <path id="Trazado_715166" data-name="Trazado 715166" d="M29.914,11.3a4.107,4.107,0,0,1-1.344,2.84,4.581,4.581,0,0,1-3.117,1.02,4.436,4.436,0,0,1-2.395-.645,4.231,4.231,0,0,1-1.6-1.832,6.611,6.611,0,0,1-.586-2.758V8.859a6.659,6.659,0,0,1,.57-2.836,4.3,4.3,0,0,1,1.637-1.891,4.566,4.566,0,0,1,2.465-.664,4.4,4.4,0,0,1,3.031,1.02,4.26,4.26,0,0,1,1.336,2.887H27.945a2.81,2.81,0,0,0-.715-1.77,2.363,2.363,0,0,0-1.684-.543A2.308,2.308,0,0,0,23.566,6a4.709,4.709,0,0,0-.707,2.764V9.778a5,5,0,0,0,.66,2.815,2.191,2.191,0,0,0,1.934.97,2.555,2.555,0,0,0,1.75-.523,2.729,2.729,0,0,0,.742-1.742Zm6.7,2.875a2.944,2.944,0,0,1-2.375.984,2.624,2.624,0,0,1-2.082-.8,3.423,3.423,0,0,1-.707-2.328V6.547h1.9V12q0,1.609,1.336,1.609a1.876,1.876,0,0,0,1.867-.992V6.547h1.9V15H36.664Zm8.82.828a2.93,2.93,0,0,1-.219-.789,3.193,3.193,0,0,1-4.3.219,2.325,2.325,0,0,1-.8-1.8,2.4,2.4,0,0,1,1-2.074,4.865,4.865,0,0,1,2.871-.723h1.164V9.281a1.481,1.481,0,0,0-.367-1.051,1.456,1.456,0,0,0-1.117-.395,1.672,1.672,0,0,0-1.062.324,1,1,0,0,0-.414.824H40.3a2.107,2.107,0,0,1,.461-1.3,3.071,3.071,0,0,1,1.254-.949,4.4,4.4,0,0,1,1.77-.344,3.547,3.547,0,0,1,2.367.746,2.661,2.661,0,0,1,.906,2.1v3.813a4.321,4.321,0,0,0,.32,1.82V15Zm-2.086-1.367a2.159,2.159,0,0,0,1.059-.273,1.827,1.827,0,0,0,.746-.734V11.031H44.133a2.8,2.8,0,0,0-1.586.367,1.189,1.189,0,0,0-.531,1.039,1.109,1.109,0,0,0,.363.871A1.407,1.407,0,0,0,43.352,13.633ZM50.8,6.547l.055.977A3.039,3.039,0,0,1,53.32,6.391q2.641,0,2.688,3.023V15h-1.9V9.523a1.741,1.741,0,0,0-.348-1.191,1.462,1.462,0,0,0-1.137-.387,1.829,1.829,0,0,0-1.711,1.039V15h-1.9V6.547ZM60.32,4.492V6.547h1.492V7.953H60.32v4.719a1.039,1.039,0,0,0,.191.7.888.888,0,0,0,.684.215,2.924,2.924,0,0,0,.664-.078v1.469a4.676,4.676,0,0,1-1.25.18q-2.187,0-2.187-2.414V7.953H57.031V6.547h1.391V4.492ZM65.281,15h-1.9V6.547h1.9ZM63.266,4.352a1.008,1.008,0,0,1,.277-.727,1.048,1.048,0,0,1,.793-.289,1.061,1.061,0,0,1,.8.289,1,1,0,0,1,.281.727.977.977,0,0,1-.281.715,1.069,1.069,0,0,1-.8.285,1.056,1.056,0,0,1-.793-.285A.984.984,0,0,1,63.266,4.352Zm6.461.141V6.547h1.492V7.953H69.727v4.719a1.039,1.039,0,0,0,.191.7.888.888,0,0,0,.684.215,2.925,2.925,0,0,0,.664-.078v1.469a4.676,4.676,0,0,1-1.25.18q-2.188,0-2.187-2.414V7.953H66.438V6.547h1.391V4.492ZM77.719,15a2.93,2.93,0,0,1-.219-.789,3.193,3.193,0,0,1-4.3.219,2.325,2.325,0,0,1-.8-1.8,2.4,2.4,0,0,1,1-2.074,4.865,4.865,0,0,1,2.871-.723h1.164V9.281A1.481,1.481,0,0,0,77.07,8.23a1.456,1.456,0,0,0-1.117-.395,1.672,1.672,0,0,0-1.062.324,1,1,0,0,0-.414.824h-1.9a2.107,2.107,0,0,1,.461-1.3,3.071,3.071,0,0,1,1.254-.949,4.4,4.4,0,0,1,1.77-.344,3.547,3.547,0,0,1,2.367.746,2.661,2.661,0,0,1,.906,2.1v3.813a4.321,4.321,0,0,0,.32,1.82V15Zm-2.086-1.367a2.159,2.159,0,0,0,1.059-.273,1.827,1.827,0,0,0,.746-.734V11.031H76.414a2.8,2.8,0,0,0-1.586.367,1.189,1.189,0,0,0-.531,1.039,1.109,1.109,0,0,0,.363.871A1.407,1.407,0,0,0,75.633,13.633ZM83.7,4.492V6.547H85.2V7.953H83.7v4.719a1.039,1.039,0,0,0,.191.7.888.888,0,0,0,.684.215,2.925,2.925,0,0,0,.664-.078v1.469a4.676,4.676,0,0,1-1.25.18q-2.188,0-2.187-2.414V7.953H80.414V6.547H81.8V4.492ZM88.664,15h-1.9V6.547h1.9ZM86.648,4.352a1.008,1.008,0,0,1,.277-.727,1.048,1.048,0,0,1,.793-.289,1.061,1.061,0,0,1,.8.289,1,1,0,0,1,.281.727.977.977,0,0,1-.281.715,1.069,1.069,0,0,1-.8.285,1.056,1.056,0,0,1-.793-.285A.984.984,0,0,1,86.648,4.352Zm7.063,8.242L95.5,6.547h1.961L94.531,15H92.883L89.93,6.547H91.9Zm4.461-1.9a4.984,4.984,0,0,1,.492-2.238,3.6,3.6,0,0,1,1.383-1.531,3.9,3.9,0,0,1,2.047-.535,3.692,3.692,0,0,1,2.777,1.1,4.333,4.333,0,0,1,1.152,2.922l.008.445a5.029,5.029,0,0,1-.48,2.234,3.551,3.551,0,0,1-1.375,1.523,3.925,3.925,0,0,1-2.066.539,3.667,3.667,0,0,1-2.863-1.191,4.563,4.563,0,0,1-1.074-3.176Zm1.9.164a3.406,3.406,0,0,0,.539,2.043,1.752,1.752,0,0,0,1.5.738,1.733,1.733,0,0,0,1.5-.75,3.762,3.762,0,0,0,.535-2.2,3.362,3.362,0,0,0-.551-2.031,1.856,1.856,0,0,0-2.973-.012A3.691,3.691,0,0,0,100.07,10.859Zm12.3,1.844a.861.861,0,0,0-.418-.773,4.445,4.445,0,0,0-1.387-.469,7.129,7.129,0,0,1-1.617-.516,2.158,2.158,0,0,1-1.422-1.992,2.25,2.25,0,0,1,.922-1.828,3.644,3.644,0,0,1,2.344-.734,3.792,3.792,0,0,1,2.449.75,2.38,2.38,0,0,1,.934,1.945h-1.9a1.17,1.17,0,0,0-.406-.91,1.557,1.557,0,0,0-1.078-.363,1.682,1.682,0,0,0-1.02.289.911.911,0,0,0-.395.773.769.769,0,0,0,.367.68,5.049,5.049,0,0,0,1.484.488,7.027,7.027,0,0,1,1.754.586,2.484,2.484,0,0,1,.945.816,2.082,2.082,0,0,1,.309,1.156,2.2,2.2,0,0,1-.945,1.848,4.031,4.031,0,0,1-2.477.707,4.371,4.371,0,0,1-1.852-.375A3.047,3.047,0,0,1,107.7,13.75a2.441,2.441,0,0,1-.453-1.414h1.844a1.338,1.338,0,0,0,.508,1.035,1.973,1.973,0,0,0,1.242.363,1.92,1.92,0,0,0,1.141-.285A.883.883,0,0,0,112.375,12.7Z" transform="translate(1165 1286)"/>
      <path id="Trazado_715167" data-name="Trazado 715167" d="M34.98,11.3a4.107,4.107,0,0,1-1.344,2.84,4.581,4.581,0,0,1-3.117,1.02,4.436,4.436,0,0,1-2.395-.645,4.231,4.231,0,0,1-1.6-1.832,6.611,6.611,0,0,1-.586-2.758V8.859a6.659,6.659,0,0,1,.57-2.836,4.3,4.3,0,0,1,1.637-1.891,4.566,4.566,0,0,1,2.465-.664,4.4,4.4,0,0,1,3.031,1.02A4.26,4.26,0,0,1,34.98,7.375H33.012a2.81,2.81,0,0,0-.715-1.77,2.363,2.363,0,0,0-1.684-.543A2.308,2.308,0,0,0,28.633,6a4.709,4.709,0,0,0-.707,2.764V9.778a5,5,0,0,0,.66,2.815,2.191,2.191,0,0,0,1.934.97,2.555,2.555,0,0,0,1.75-.523,2.729,2.729,0,0,0,.742-1.742Zm6.7,2.875a2.944,2.944,0,0,1-2.375.984,2.624,2.624,0,0,1-2.082-.8,3.423,3.423,0,0,1-.707-2.328V6.547h1.9V12q0,1.609,1.336,1.609a1.876,1.876,0,0,0,1.867-.992V6.547h1.9V15H41.73ZM50.5,15a2.93,2.93,0,0,1-.219-.789,3.193,3.193,0,0,1-4.3.219,2.325,2.325,0,0,1-.8-1.8,2.4,2.4,0,0,1,1-2.074,4.865,4.865,0,0,1,2.871-.723h1.164V9.281a1.481,1.481,0,0,0-.367-1.051,1.456,1.456,0,0,0-1.117-.395,1.672,1.672,0,0,0-1.062.324,1,1,0,0,0-.414.824h-1.9a2.107,2.107,0,0,1,.461-1.3,3.071,3.071,0,0,1,1.254-.949,4.4,4.4,0,0,1,1.77-.344,3.547,3.547,0,0,1,2.367.746,2.661,2.661,0,0,1,.906,2.1v3.813a4.321,4.321,0,0,0,.32,1.82V15Zm-2.086-1.367a2.159,2.159,0,0,0,1.059-.273,1.827,1.827,0,0,0,.746-.734V11.031H49.2a2.8,2.8,0,0,0-1.586.367,1.189,1.189,0,0,0-.531,1.039,1.109,1.109,0,0,0,.363.871A1.407,1.407,0,0,0,48.418,13.633ZM56.129,15h-1.9V3h1.9Zm4.086,0h-1.9V6.547h1.9ZM58.2,4.352a1.008,1.008,0,0,1,.277-.727,1.048,1.048,0,0,1,.793-.289,1.061,1.061,0,0,1,.8.289,1,1,0,0,1,.281.727.977.977,0,0,1-.281.715,1.069,1.069,0,0,1-.8.285,1.056,1.056,0,0,1-.793-.285A.984.984,0,0,1,58.2,4.352Zm6.461.141V6.547h1.492V7.953H64.66v4.719a1.039,1.039,0,0,0,.191.7.888.888,0,0,0,.684.215,2.925,2.925,0,0,0,.664-.078v1.469a4.676,4.676,0,0,1-1.25.18q-2.187,0-2.187-2.414V7.953H61.371V6.547h1.391V4.492ZM72.652,15a2.93,2.93,0,0,1-.219-.789,3.193,3.193,0,0,1-4.3.219,2.325,2.325,0,0,1-.8-1.8,2.4,2.4,0,0,1,1-2.074,4.865,4.865,0,0,1,2.871-.723h1.164V9.281A1.481,1.481,0,0,0,72,8.23a1.456,1.456,0,0,0-1.117-.395,1.672,1.672,0,0,0-1.062.324,1,1,0,0,0-.414.824h-1.9a2.107,2.107,0,0,1,.461-1.3,3.071,3.071,0,0,1,1.254-.949A4.4,4.4,0,0,1,71,6.391a3.547,3.547,0,0,1,2.367.746,2.661,2.661,0,0,1,.906,2.1v3.813a4.321,4.321,0,0,0,.32,1.82V15Zm-2.086-1.367a2.159,2.159,0,0,0,1.059-.273,1.827,1.827,0,0,0,.746-.734V11.031H71.348a2.8,2.8,0,0,0-1.586.367,1.189,1.189,0,0,0-.531,1.039,1.109,1.109,0,0,0,.363.871A1.407,1.407,0,0,0,70.566,13.633Zm8.07-9.141V6.547h1.492V7.953H78.637v4.719a1.039,1.039,0,0,0,.191.7.888.888,0,0,0,.684.215,2.925,2.925,0,0,0,.664-.078v1.469a4.676,4.676,0,0,1-1.25.18q-2.188,0-2.187-2.414V7.953H75.348V6.547h1.391V4.492ZM83.6,15H81.7V6.547h1.9ZM81.582,4.352a1.008,1.008,0,0,1,.277-.727,1.048,1.048,0,0,1,.793-.289,1.061,1.061,0,0,1,.8.289,1,1,0,0,1,.281.727.977.977,0,0,1-.281.715,1.069,1.069,0,0,1-.8.285,1.056,1.056,0,0,1-.793-.285A.984.984,0,0,1,81.582,4.352Zm7.063,8.242,1.789-6.047h1.961L89.465,15H87.816L84.863,6.547h1.969Zm4.461-1.9A4.984,4.984,0,0,1,93.6,8.457,3.6,3.6,0,0,1,94.98,6.926a3.9,3.9,0,0,1,2.047-.535,3.692,3.692,0,0,1,2.777,1.1,4.333,4.333,0,0,1,1.152,2.922l.008.445a5.029,5.029,0,0,1-.48,2.234,3.551,3.551,0,0,1-1.375,1.523,3.925,3.925,0,0,1-2.066.539,3.667,3.667,0,0,1-2.863-1.191,4.563,4.563,0,0,1-1.074-3.176Zm1.9.164a3.406,3.406,0,0,0,.539,2.043,1.752,1.752,0,0,0,1.5.738,1.733,1.733,0,0,0,1.5-.75,3.762,3.762,0,0,0,.535-2.2,3.362,3.362,0,0,0-.551-2.031,1.856,1.856,0,0,0-2.973-.012A3.691,3.691,0,0,0,95,10.859Zm12.3,1.844a.861.861,0,0,0-.418-.773,4.445,4.445,0,0,0-1.387-.469,7.129,7.129,0,0,1-1.617-.516,2.158,2.158,0,0,1-1.422-1.992,2.25,2.25,0,0,1,.922-1.828,3.644,3.644,0,0,1,2.344-.734,3.792,3.792,0,0,1,2.449.75,2.38,2.38,0,0,1,.934,1.945h-1.9a1.17,1.17,0,0,0-.406-.91,1.557,1.557,0,0,0-1.078-.363,1.682,1.682,0,0,0-1.02.289.911.911,0,0,0-.395.773.769.769,0,0,0,.367.68,5.049,5.049,0,0,0,1.484.488,7.027,7.027,0,0,1,1.754.586,2.484,2.484,0,0,1,.945.816,2.082,2.082,0,0,1,.309,1.156,2.2,2.2,0,0,1-.945,1.848,4.031,4.031,0,0,1-2.477.707,4.371,4.371,0,0,1-1.852-.375,3.047,3.047,0,0,1-1.266-1.031,2.441,2.441,0,0,1-.453-1.414h1.844a1.338,1.338,0,0,0,.508,1.035,1.973,1.973,0,0,0,1.242.363,1.92,1.92,0,0,0,1.141-.285A.883.883,0,0,0,107.309,12.7Z" transform="translate(1165 1344)"/>
      <path id="Trazado_715168" data-name="Trazado 715168" d="M30.242,12.07a1.374,1.374,0,0,0-.527-1.156,6.345,6.345,0,0,0-1.9-.82,9.186,9.186,0,0,1-2.187-.922A2.919,2.919,0,0,1,24.07,6.625a2.772,2.772,0,0,1,1.121-2.266,4.538,4.538,0,0,1,2.91-.891,4.916,4.916,0,0,1,2.117.438A3.475,3.475,0,0,1,31.68,5.152a3.2,3.2,0,0,1,.531,1.793H30.242a1.782,1.782,0,0,0-.559-1.395,2.305,2.305,0,0,0-1.6-.5,2.408,2.408,0,0,0-1.5.414,1.379,1.379,0,0,0-.535,1.156,1.247,1.247,0,0,0,.578,1.043,6.66,6.66,0,0,0,1.906.813,8.768,8.768,0,0,1,2.133.9,3.392,3.392,0,0,1,1.18,1.156,3.011,3.011,0,0,1,.375,1.527,2.707,2.707,0,0,1-1.09,2.262,4.727,4.727,0,0,1-2.957.84A5.557,5.557,0,0,1,25.9,14.7a3.812,3.812,0,0,1-1.609-1.262,3.144,3.144,0,0,1-.574-1.875H25.7a1.84,1.84,0,0,0,.641,1.5,2.805,2.805,0,0,0,1.836.531,2.437,2.437,0,0,0,1.551-.418A1.349,1.349,0,0,0,30.242,12.07Zm7.25,3.086a3.928,3.928,0,0,1-2.926-1.137,4.124,4.124,0,0,1-1.121-3.027v-.234A5.072,5.072,0,0,1,33.934,8.5,3.716,3.716,0,0,1,35.3,6.945a3.625,3.625,0,0,1,1.969-.555,3.318,3.318,0,0,1,2.668,1.1,4.658,4.658,0,0,1,.941,3.117v.766H35.359a2.539,2.539,0,0,0,.7,1.656,2.1,2.1,0,0,0,1.543.609,2.571,2.571,0,0,0,2.125-1.055l1.023.977a3.418,3.418,0,0,1-1.355,1.176A4.244,4.244,0,0,1,37.492,15.156Zm-.227-7.242A1.6,1.6,0,0,0,36,8.461a2.835,2.835,0,0,0-.613,1.523h3.617V9.844A2.307,2.307,0,0,0,38.5,8.4,1.586,1.586,0,0,0,37.266,7.914Zm8.563,5.727a1.716,1.716,0,0,0,1.18-.414,1.415,1.415,0,0,0,.5-1.023H49.3a2.789,2.789,0,0,1-.492,1.473,3.228,3.228,0,0,1-1.25,1.082,3.725,3.725,0,0,1-1.7.4,3.6,3.6,0,0,1-2.812-1.148A4.555,4.555,0,0,1,42,10.836v-.2a4.479,4.479,0,0,1,1.031-3.09,3.571,3.571,0,0,1,2.813-1.16A3.473,3.473,0,0,1,48.3,7.27a3.148,3.148,0,0,1,1,2.309H47.508a1.738,1.738,0,0,0-.5-1.2,1.6,1.6,0,0,0-1.184-.469,1.671,1.671,0,0,0-1.422.668,3.408,3.408,0,0,0-.508,2.027v.3a3.465,3.465,0,0,0,.5,2.051A1.669,1.669,0,0,0,45.828,13.641Zm10.023.531a2.944,2.944,0,0,1-2.375.984,2.624,2.624,0,0,1-2.082-.8,3.423,3.423,0,0,1-.707-2.328V6.547h1.9V12q0,1.609,1.336,1.609a1.876,1.876,0,0,0,1.867-.992V6.547h1.9V15H55.9Zm5.531-7.625.055.977A3.039,3.039,0,0,1,63.9,6.391q2.641,0,2.688,3.023V15h-1.9V9.523a1.741,1.741,0,0,0-.348-1.191A1.462,1.462,0,0,0,63.2,7.945a1.829,1.829,0,0,0-1.711,1.039V15h-1.9V6.547Zm6.781,4.164a5.026,5.026,0,0,1,.906-3.137A2.9,2.9,0,0,1,71.5,6.391a2.759,2.759,0,0,1,2.172.938V3h1.9V15H73.852l-.094-.875a2.8,2.8,0,0,1-2.273,1.031,2.887,2.887,0,0,1-2.4-1.2A5.21,5.21,0,0,1,68.164,10.711Zm1.9.164a3.519,3.519,0,0,0,.5,2.012,1.61,1.61,0,0,0,1.41.723,1.793,1.793,0,0,0,1.7-1.039V8.961a1.766,1.766,0,0,0-1.687-1.016,1.622,1.622,0,0,0-1.422.73A3.918,3.918,0,0,0,70.063,10.875ZM82.6,15a2.93,2.93,0,0,1-.219-.789,3.193,3.193,0,0,1-4.3.219,2.325,2.325,0,0,1-.8-1.8,2.4,2.4,0,0,1,1-2.074,4.865,4.865,0,0,1,2.871-.723H82.32V9.281a1.481,1.481,0,0,0-.367-1.051,1.456,1.456,0,0,0-1.117-.395,1.672,1.672,0,0,0-1.062.324,1,1,0,0,0-.414.824h-1.9a2.107,2.107,0,0,1,.461-1.3,3.071,3.071,0,0,1,1.254-.949,4.4,4.4,0,0,1,1.77-.344,3.547,3.547,0,0,1,2.367.746,2.661,2.661,0,0,1,.906,2.1v3.813a4.321,4.321,0,0,0,.32,1.82V15Zm-2.086-1.367a2.159,2.159,0,0,0,1.059-.273,1.827,1.827,0,0,0,.746-.734V11.031H81.3a2.8,2.8,0,0,0-1.586.367,1.189,1.189,0,0,0-.531,1.039,1.109,1.109,0,0,0,.363.871A1.407,1.407,0,0,0,80.516,13.633ZM90.633,8.281a4.7,4.7,0,0,0-.773-.062,1.741,1.741,0,0,0-1.758,1V15H86.2V6.547h1.813l.047.945a2.139,2.139,0,0,1,1.906-1.1,1.777,1.777,0,0,1,.672.109ZM93.852,15h-1.9V6.547h1.9ZM91.836,4.352a1.008,1.008,0,0,1,.277-.727,1.048,1.048,0,0,1,.793-.289,1.061,1.061,0,0,1,.8.289,1,1,0,0,1,.281.727.977.977,0,0,1-.281.715,1.069,1.069,0,0,1-.8.285,1.056,1.056,0,0,1-.793-.285A.984.984,0,0,1,91.836,4.352ZM100.969,15a2.93,2.93,0,0,1-.219-.789,3.193,3.193,0,0,1-4.3.219,2.325,2.325,0,0,1-.8-1.8,2.4,2.4,0,0,1,1-2.074,4.865,4.865,0,0,1,2.871-.723h1.164V9.281a1.481,1.481,0,0,0-.367-1.051A1.456,1.456,0,0,0,99.2,7.836a1.672,1.672,0,0,0-1.062.324,1,1,0,0,0-.414.824h-1.9a2.107,2.107,0,0,1,.461-1.3,3.071,3.071,0,0,1,1.254-.949,4.4,4.4,0,0,1,1.77-.344,3.547,3.547,0,0,1,2.367.746,2.661,2.661,0,0,1,.906,2.1v3.813a4.321,4.321,0,0,0,.32,1.82V15Zm-2.086-1.367a2.159,2.159,0,0,0,1.059-.273,1.827,1.827,0,0,0,.746-.734V11.031H99.664a2.8,2.8,0,0,0-1.586.367,1.189,1.189,0,0,0-.531,1.039,1.109,1.109,0,0,0,.363.871A1.407,1.407,0,0,0,98.883,13.633Zm10.43-.93a.861.861,0,0,0-.418-.773,4.445,4.445,0,0,0-1.387-.469,7.129,7.129,0,0,1-1.617-.516,2.158,2.158,0,0,1-1.422-1.992,2.25,2.25,0,0,1,.922-1.828,3.644,3.644,0,0,1,2.344-.734,3.792,3.792,0,0,1,2.449.75,2.38,2.38,0,0,1,.934,1.945h-1.9a1.17,1.17,0,0,0-.406-.91,1.557,1.557,0,0,0-1.078-.363,1.682,1.682,0,0,0-1.02.289.911.911,0,0,0-.395.773.769.769,0,0,0,.367.68,5.049,5.049,0,0,0,1.484.488,7.027,7.027,0,0,1,1.754.586,2.484,2.484,0,0,1,.945.816,2.082,2.082,0,0,1,.309,1.156,2.2,2.2,0,0,1-.945,1.848,4.031,4.031,0,0,1-2.477.707,4.371,4.371,0,0,1-1.852-.375,3.047,3.047,0,0,1-1.266-1.031,2.441,2.441,0,0,1-.453-1.414h1.844a1.338,1.338,0,0,0,.508,1.035,1.973,1.973,0,0,0,1.242.363,1.92,1.92,0,0,0,1.141-.285A.883.883,0,0,0,109.313,12.7Z" transform="translate(711 1304)"/>
    </g>
  </g>
</svg>
