<svg xmlns="http://www.w3.org/2000/svg" xmlns:xlink="http://www.w3.org/1999/xlink" width="110.376" height="105" viewBox="0 0 110.376 105">
  <defs>
    <clipPath id="clip-path">
      <rect id="Rectángulo_340157" data-name="Rectángulo 340157" width="82.292" height="84.356" fill="none"/>
    </clipPath>
  </defs>
  <g id="Grupo_1003219" data-name="Grupo 1003219" transform="translate(-810 -5019)">
    <g id="Grupo_992327" data-name="Grupo 992327" transform="translate(519.32 1.319)">
      <circle id="Elipse_5667" data-name="Elipse 5667" cx="52.5" cy="52.5" r="52.5" transform="translate(290.68 5017.68)" fill="#06d1d1"/>
    </g>
    <g id="Grupo_992328" data-name="Grupo 992328" transform="translate(837.194 5020.516) rotate(13)">
      <g id="Grupo_974093" data-name="Grupo 974093" transform="translate(2.923 -0.675)" clip-path="url(#clip-path)">
        <path id="Trazado_700039" data-name="Trazado 700039" d="M28.968,154.877l.135-.031a.579.579,0,0,1-.14,0Z" transform="translate(-13.19 -70.521)" fill="#fff"/>
        <path id="Trazado_700040" data-name="Trazado 700040" d="M21.136,46.892,22.6,53.279,27.76,52.1l-.691-3.019L25.4,51.316l-2.047-1.657a.683.683,0,1,1,.859-1.061l.942.761,1.51-2.031L26.3,45.71Z" transform="translate(-9.626 -20.818)" fill="#ffc403"/>
        <path id="Trazado_700041" data-name="Trazado 700041" d="M26.264,69.28l1.463,6.386,5.161-1.182L32.2,71.467,30.532,73.7l-2.047-1.657a.683.683,0,0,1,.859-1.061l.941.761L31.8,69.716,31.425,68.1Z" transform="translate(-11.961 -31.014)" fill="#ffc403"/>
        <path id="Trazado_700042" data-name="Trazado 700042" d="M37.042,116.34l1.463,6.387,5.161-1.182-.691-3.019-1.664,2.237-2.047-1.655a.683.683,0,0,1,.859-1.062l.941.761,1.511-2.031-.371-1.618Z" transform="translate(-16.87 -52.446)" fill="#ffc403"/>
        <path id="Trazado_700043" data-name="Trazado 700043" d="M115.677,134.774l.444-.1-.051-.221a.584.584,0,0,1-.393.322" transform="translate(-52.683 -61.233)" fill="#fff"/>
        <path id="Trazado_700045" data-name="Trazado 700045" d="M31.494,92.117,32.957,98.5l5.161-1.182L37.427,94.3l-1.664,2.237-2.047-1.657a.683.683,0,1,1,.859-1.061l.941.761,1.511-2.031-.371-1.618Z" transform="translate(-14.343 -41.414)" fill="#ffc403"/>
        <path id="Trazado_700046" data-name="Trazado 700046" d="M48.254,11.6a.593.593,0,0,0-.711-.445l-4.312.988.265,1.156,3.734-.855L62.151,77.589,16.227,88.108,1.3,22.958,5.033,22.1l-.265-1.156-4.306.986a.593.593,0,0,0-.446.711L15.2,88.951a.655.655,0,0,0,.711.445L63,78.613a.616.616,0,0,0,.446-.711Z" transform="translate(0 -5.072)"/>
        <rect id="Rectángulo_340151" data-name="Rectángulo 340151" width="5.191" height="1.186" transform="translate(24.578 11.339) rotate(-12.899)"/>
        <rect id="Rectángulo_340152" data-name="Rectángulo 340152" width="5.191" height="1.186" transform="translate(12.143 14.187) rotate(-12.899)"/>
        <rect id="Rectángulo_340153" data-name="Rectángulo 340153" width="5.19" height="1.186" transform="translate(30.795 9.915) rotate(-12.9)"/>
        <rect id="Rectángulo_340154" data-name="Rectángulo 340154" width="5.191" height="1.186" transform="translate(18.36 12.763) rotate(-12.899)"/>
        <rect id="Rectángulo_340155" data-name="Rectángulo 340155" width="5.193" height="1.186" transform="matrix(0.975, -0.223, 0.223, 0.975, 5.924, 15.612)"/>
        <rect id="Rectángulo_340156" data-name="Rectángulo 340156" width="5.194" height="1.186" transform="translate(37.011 8.492) rotate(-12.898)"/>
        <path id="Trazado_700047" data-name="Trazado 700047" d="M26.669,51.007l-5.161,1.182L20.045,45.8l5.161-1.182.371,1.618.931-1.251-.277-1.209a.593.593,0,0,0-.711-.446L19.2,44.779a.593.593,0,0,0-.446.71l1.727,7.543a.594.594,0,0,0,.711.445l6.318-1.447a.592.592,0,0,0,.446-.71l-1.049-4.583-.931,1.252Z" transform="translate(-8.535 -19.728)"/>
        <path id="Trazado_700048" data-name="Trazado 700048" d="M59.87,32.907,40.521,37.338c-.206.047-.313.344-.24.663s.3.54.5.493l19.348-4.432c.206-.047.313-.344.24-.663s-.3-.54-.5-.493" transform="translate(-18.335 -14.984)" fill="#fff"/>
        <path id="Trazado_700049" data-name="Trazado 700049" d="M62.579,44.736,43.23,49.167c-.206.047-.313.344-.24.663s.3.54.5.493l19.349-4.432c.206-.047.313-.344.24-.663s-.3-.54-.5-.493" transform="translate(-19.569 -20.371)" fill="#fff"/>
        <path id="Trazado_700050" data-name="Trazado 700050" d="M65.228,38.348,50.51,41.719c-.156.036-.224.324-.151.643s.259.549.416.513L65.493,39.5c.156-.036.224-.323.151-.643s-.259-.549-.416-.513" transform="translate(-22.922 -17.463)" fill="#fff"/>
        <path id="Trazado_700051" data-name="Trazado 700051" d="M42.816,19.918l.532,2.319a.593.593,0,1,0,1.157-.265l-.531-2.32L43.708,18.5l-.531-2.32a.593.593,0,0,0-1.157.265l.531,2.32Z" transform="translate(-19.13 -7.158)"/>
        <path id="Trazado_700052" data-name="Trazado 700052" d="M77.068,12.073l.532,2.319a.593.593,0,1,0,1.157-.265l-.531-2.32-.265-1.156-.532-2.32a.593.593,0,0,0-1.157.265l.531,2.32Z" transform="translate(-34.729 -3.585)"/>
        <path id="Trazado_700053" data-name="Trazado 700053" d="M65.647,14.689l.532,2.319a.593.593,0,0,0,1.157-.265l-.531-2.32-.265-1.156-.532-2.32a.593.593,0,0,0-1.157.265l.531,2.32Z" transform="translate(-29.528 -4.776)"/>
        <path id="Trazado_700054" data-name="Trazado 700054" d="M54.232,17.3l.532,2.319a.593.593,0,0,0,1.157-.265l-.531-2.32-.265-1.156-.532-2.32a.593.593,0,0,0-1.157.265l.532,2.32Z" transform="translate(-24.329 -5.967)"/>
        <path id="Trazado_700055" data-name="Trazado 700055" d="M8.563,27.764l.532,2.319a.593.593,0,1,0,1.157-.265L9.72,27.5l-.265-1.156-.532-2.32a.593.593,0,0,0-1.157.265l.532,2.32Z" transform="translate(-3.53 -10.731)"/>
        <path id="Trazado_700056" data-name="Trazado 700056" d="M31.4,22.533l.532,2.319a.593.593,0,1,0,1.157-.265l-.532-2.32-.265-1.156-.531-2.32a.593.593,0,0,0-1.157.265l.532,2.32Z" transform="translate(-13.93 -8.348)"/>
        <path id="Trazado_700057" data-name="Trazado 700057" d="M19.982,25.148l.531,2.319A.593.593,0,0,0,21.67,27.2l-.531-2.32-.265-1.156-.531-2.32a.593.593,0,0,0-1.157.265l.532,2.32Z" transform="translate(-8.731 -9.539)"/>
        <path id="Trazado_700058" data-name="Trazado 700058" d="M30.915,42.027l-1.671,2.247-.931,1.252-1.51,2.03-.942-.761A.683.683,0,0,0,25,47.857l2.047,1.657,1.665-2.238.931-1.251,2.367-3.182a.683.683,0,0,0-1.1-.815" transform="translate(-11.271 -19.015)"/>
        <path id="Trazado_700059" data-name="Trazado 700059" d="M31.8,73.395l-5.161,1.182L25.173,68.19l5.161-1.182.37,1.618.931-1.252-.277-1.209a.593.593,0,0,0-.711-.446l-6.318,1.447a.593.593,0,0,0-.446.71l1.727,7.543a.594.594,0,0,0,.711.445l6.318-1.447a.592.592,0,0,0,.446-.71l-1.049-4.583-.931,1.251Z" transform="translate(-10.87 -29.924)"/>
        <path id="Trazado_700060" data-name="Trazado 700060" d="M65,55.295,45.648,59.726c-.206.047-.313.344-.24.663s.3.54.5.493l19.349-4.432c.206-.047.313-.344.24-.663s-.3-.54-.5-.493" transform="translate(-20.67 -25.18)" fill="#fff"/>
        <path id="Trazado_700061" data-name="Trazado 700061" d="M67.707,67.124,48.358,71.555c-.206.047-.313.344-.24.663s.3.54.5.493L67.972,68.28c.206-.047.313-.344.24-.663s-.3-.54-.5-.493" transform="translate(-21.904 -30.567)" fill="#fff"/>
        <path id="Trazado_700062" data-name="Trazado 700062" d="M70.356,60.736,55.638,64.107c-.156.036-.224.323-.151.643s.259.549.416.513l14.718-3.371c.156-.036.224-.324.151-.643s-.259-.549-.415-.513" transform="translate(-25.257 -27.659)" fill="#fff"/>
        <path id="Trazado_700063" data-name="Trazado 700063" d="M36.043,64.415l-1.671,2.247-.931,1.251L31.93,69.945l-.941-.761a.683.683,0,1,0-.859,1.061L32.178,71.9l1.664-2.237.931-1.252,2.367-3.182a.683.683,0,1,0-1.1-.815" transform="translate(-13.607 -29.211)"/>
        <path id="Trazado_700064" data-name="Trazado 700064" d="M37.028,96.232l-5.161,1.182L30.4,91.027l5.161-1.182.37,1.618.931-1.251L36.589,89a.593.593,0,0,0-.711-.446L29.56,90a.594.594,0,0,0-.446.711l1.727,7.543a.594.594,0,0,0,.711.445l6.318-1.447a.592.592,0,0,0,.446-.71l-1.049-4.583-.931,1.252Z" transform="translate(-13.253 -40.324)"/>
        <path id="Trazado_700065" data-name="Trazado 700065" d="M70.228,78.132,50.879,82.563c-.206.047-.313.344-.24.663s.3.54.5.493l19.349-4.432c.206-.047.313-.344.24-.663s-.3-.54-.5-.493" transform="translate(-23.052 -35.581)" fill="#fff"/>
        <path id="Trazado_700066" data-name="Trazado 700066" d="M72.937,89.961,53.588,94.392c-.206.047-.313.344-.24.663s.3.54.5.493L73.2,91.117c.206-.047.313-.344.24-.663s-.3-.54-.5-.493" transform="translate(-24.286 -40.968)" fill="#fff"/>
        <path id="Trazado_700067" data-name="Trazado 700067" d="M75.587,83.573,60.869,86.944c-.156.036-.224.324-.151.643s.259.549.416.513l14.718-3.371c.156-.036.224-.323.151-.643s-.259-.549-.416-.513" transform="translate(-27.64 -38.06)" fill="#fff"/>
        <path id="Trazado_700068" data-name="Trazado 700068" d="M41.274,87.252,39.6,89.5l-.931,1.251-1.511,2.031-.941-.761a.683.683,0,1,0-.859,1.061l2.047,1.657L39.073,92.5,40,91.249l2.367-3.182a.683.683,0,1,0-1.1-.815" transform="translate(-15.989 -39.612)"/>
        <path id="Trazado_700069" data-name="Trazado 700069" d="M42.576,120.454l-5.161,1.182-1.463-6.387,5.161-1.182.37,1.617.931-1.251-.277-1.209a.593.593,0,0,0-.711-.446l-6.318,1.447a.593.593,0,0,0-.446.71l1.727,7.543a.594.594,0,0,0,.711.445l6.318-1.447a.593.593,0,0,0,.446-.711l-1.049-4.583-.931,1.252Z" transform="translate(-15.779 -51.356)"/>
        <path id="Trazado_700070" data-name="Trazado 700070" d="M75.776,102.355l-19.349,4.432c-.206.047-.313.344-.24.663s.3.54.5.493l19.349-4.432c.206-.047.313-.344.24-.663s-.3-.54-.5-.493" transform="translate(-25.579 -46.613)" fill="#fff"/>
        <path id="Trazado_700071" data-name="Trazado 700071" d="M78.485,114.183l-19.349,4.432c-.206.047-.313.344-.24.663s.3.54.5.493l19.349-4.432c.206-.047.313-.344.24-.663s-.3-.54-.5-.493" transform="translate(-26.813 -51.999)" fill="#fff"/>
        <path id="Trazado_700072" data-name="Trazado 700072" d="M81.135,107.8l-14.718,3.371c-.156.036-.224.323-.151.643s.259.549.416.513L81.4,108.952c.156-.036.224-.323.151-.643s-.259-.549-.416-.513" transform="translate(-30.166 -49.092)" fill="#fff"/>
        <path id="Trazado_700073" data-name="Trazado 700073" d="M46.822,111.474l-1.671,2.247-.931,1.251L42.709,117l-.941-.761a.683.683,0,1,0-.859,1.061l2.047,1.657,1.664-2.237.931-1.252,2.367-3.182a.683.683,0,1,0-1.1-.815" transform="translate(-18.516 -50.643)"/>
        <path id="Trazado_706080" data-name="Trazado 706080" d="M45.983,19.191a.583.583,0,0,1-.7-.439l-.523-2.284L39.807,17.6l.523,2.284a.581.581,0,1,1-1.133.259l-.523-2.284L33.722,19l.523,2.284a.581.581,0,1,1-1.133.259l-.523-2.284L27.636,20.39l.523,2.284a.581.581,0,1,1-1.133.259L26.5,20.65,21.55,21.784l.523,2.283a.581.581,0,1,1-1.133.26l-.523-2.284-4.953,1.134.523,2.284a.581.581,0,1,1-1.132.259l-.523-2.283L9.377,24.573,9.9,26.856a.581.581,0,1,1-1.133.26l-.523-2.284-3.649.836L19.288,89.815l44.956-10.3L49.551,15.371l-3.655.837.523,2.284a.582.582,0,0,1-.436.7M32.163,68.776l-2.313,3.129,1.034,4.512a.582.582,0,0,1-.436.7l-6.185,1.417a.583.583,0,0,1-.7-.439l-1.7-7.427a.583.583,0,0,1,.436-.7l6.185-1.416a.582.582,0,0,1,.7.439l.273,1.19,1.634-2.209a.668.668,0,0,1,.936-.137.676.676,0,0,1,.139.941M29.188,55.788l-2.313,3.129,1.034,4.512a.582.582,0,0,1-.436.7l-6.185,1.417a.583.583,0,0,1-.7-.439l-1.7-7.426a.583.583,0,0,1,.436-.7l6.185-1.416a.582.582,0,0,1,.7.439l.273,1.191,1.634-2.21a.668.668,0,0,1,.936-.137.676.676,0,0,1,.138.941m-2.8-12.245L24.07,46.673,25.1,51.185a.582.582,0,0,1-.436.7L18.483,53.3a.583.583,0,0,1-.7-.439l-1.7-7.426a.582.582,0,0,1,.436-.7l6.185-1.417a.582.582,0,0,1,.7.439l.273,1.191,1.634-2.21a.667.667,0,0,1,.936-.137.675.675,0,0,1,.139.941m-2.75-12L21.32,34.668l1.034,4.512a.582.582,0,0,1-.436.7L15.733,41.3a.582.582,0,0,1-.7-.439l-1.7-7.426a.582.582,0,0,1,.436-.7l6.185-1.416a.582.582,0,0,1,.7.439l.273,1.191,1.634-2.21a.667.667,0,0,1,.936-.137.675.675,0,0,1,.139.941m30.6,38.932L35.29,74.81c-.2.046-.423-.172-.494-.486s.032-.607.234-.653L53.97,69.333c.2-.046.422.172.494.486s-.033.607-.234.652m-.693-3.426-14.408,3.3c-.153.035-.335-.192-.407-.506s-.007-.6.146-.632l14.408-3.3c.153-.035.335.191.407.505s.007.6-.146.633m-.76-2.916L33.837,68.467c-.2.046-.423-.172-.494-.486s.033-.607.234-.652L52.517,62.99c.2-.046.423.172.494.486s-.033.607-.234.653m-1.522-6.646L32.315,61.822c-.2.046-.423-.172-.494-.486s.033-.607.234-.653L51,56.345c.2-.046.423.172.494.486s-.033.607-.234.652m-.693-3.426-14.408,3.3c-.153.035-.335-.192-.407-.506s-.007-.6.146-.632l14.408-3.3c.153-.035.335.191.407.505s.007.6-.146.633m-.76-2.916L30.862,55.479c-.2.046-.422-.172-.494-.486s.032-.607.234-.652L49.542,50c.2-.046.423.172.494.486s-.032.607-.234.653m-1.352-5.9L29.511,49.577c-.2.046-.423-.172-.494-.486s.033-.607.234-.652L48.191,44.1c.2-.046.423.172.494.486s-.033.607-.234.653m-.693-3.426-14.408,3.3c-.153.035-.335-.191-.407-.506s-.007-.6.146-.632l14.408-3.3c.153-.035.335.192.407.506s.007.6-.146.632M47,38.9,28.058,43.234c-.2.046-.422-.172-.494-.486s.033-.606.234-.652l18.941-4.338c.2-.046.423.172.494.486S47.2,38.85,47,38.9m-1.3-5.662L26.761,37.572c-.2.046-.423-.172-.494-.486s.033-.606.234-.652L45.441,32.1c.2-.046.423.172.494.486s-.033.606-.234.652m-.693-3.426L30.6,33.108c-.153.035-.335-.191-.407-.505s-.007-.6.146-.633l14.408-3.3c.153-.035.335.192.407.506s.007.6-.146.633m-.76-2.917L25.308,31.229c-.2.046-.422-.172-.494-.486s.033-.606.234-.652l18.94-4.338c.2-.046.423.172.494.486s-.033.606-.234.652" transform="translate(368.599 703.127)" fill="#d4fffd"/>
      </g>
    </g>
  </g>
</svg>
