<svg xmlns="http://www.w3.org/2000/svg" xmlns:xlink="http://www.w3.org/1999/xlink" width="109" height="109" viewBox="0 0 109 109">
  <defs>
    <clipPath id="clip-path">
      <rect id="Rectángulo_349317" data-name="Rectángulo 349317" width="77.206" height="68.779" fill="none"/>
    </clipPath>
  </defs>
  <g id="Grupo_992324" data-name="Grupo 992324" transform="translate(-291 -5018)">
    <circle id="Elipse_5667" data-name="Elipse 5667" cx="54.5" cy="54.5" r="54.5" transform="translate(291 5018)" fill="#06d1d1"/>
    <g id="Grupo_992323" data-name="Grupo 992323" transform="translate(307.497 5038.644)">
      <g id="Grupo_992322" data-name="Grupo 992322" transform="translate(0)">
        <g id="Grupo_992321" data-name="Grupo 992321" clip-path="url(#clip-path)">
          <path id="Trazado_706039" data-name="Trazado 706039" d="M43.267,1.219C43.329.43,43.714.067,44.554.01c.138-.009.276,0,.414,0q14.3,0,28.608-.007a3.486,3.486,0,0,1,3.567,3.184c.034.411.057.819.058,1.229q.006,8.235,0,16.471a3.639,3.639,0,0,1-1.431,3.136,3.028,3.028,0,0,1-1.76.615c-1.13.022-2.261.025-3.392,0a.756.756,0,0,0-.773.457c-.922,1.735-1.916,3.43-2.908,5.126a2.487,2.487,0,0,1-1.155,1.177,1.825,1.825,0,0,1-2.313-.825c-.738-1.232-1.5-2.448-2.179-3.716-.335-.627-.7-1.238-1.041-1.864a.606.606,0,0,0-.6-.349q-7.783.009-15.566,0a.667.667,0,0,0-.656.387q-1.5,2.646-3.019,5.278a2.084,2.084,0,0,1-1.236,1.136,1.647,1.647,0,0,1-2.1-.75c-.829-1.31-1.633-2.638-2.366-4.006-.325-.606-.641-1.215-1-1.8a.458.458,0,0,0-.431-.237c-.377,0-.754,0-1.131,0-4.762,0-9.523.008-14.285-.012a.986.986,0,0,0-1,.6c-1.011,1.815-2.065,3.607-3.115,5.4a1.819,1.819,0,0,1-1.9.887,1.763,1.763,0,0,1-1.35-1.006C9.409,28.682,8.353,26.838,7.3,24.993a.6.6,0,0,0-.594-.356c-1.206.015-2.413.049-3.616,0a3.205,3.205,0,0,1-2.78-2.021A3.742,3.742,0,0,1,0,21.106Q0,12.324,0,3.542A3.272,3.272,0,0,1,.973,1.049,3.226,3.226,0,0,1,3.007.061C3.543.023,4.077.01,4.61.01Q21.929,0,39.249.012a1.588,1.588,0,0,1,1.316.413,1.787,1.787,0,0,1,.294.779,2.8,2.8,0,0,1-.3.658,1.414,1.414,0,0,1-1.192.407q-5.766-.006-11.532,0c-.643,0-.61-.125-.611.6,0,1.734.01,3.467-.013,5.2a1.871,1.871,0,0,1-1.925,1.89c-.314,0-.628,0-.942,0a2.362,2.362,0,0,0-2.173,2.154,2.455,2.455,0,0,0,2.583,2.678,5.914,5.914,0,0,1,.949-.027A1.919,1.919,0,0,1,27.188,16.3c.043.5.037,1,.039,1.494,0,1.419,0,2.839,0,4.258,0,.119-.063.365.126.321a3.018,3.018,0,0,1,.727.035c1.733-.016,3.467,0,5.2-.007a2.834,2.834,0,0,1,1.61.52,3.391,3.391,0,0,1,.9,1.169q1.276,2.237,2.57,4.463c.068.117.122.3.251.307.164.005.191-.2.261-.325q1.387-2.431,2.765-4.866a2.505,2.505,0,0,1,1.122-1,3.641,3.641,0,0,1,1.594-.27c1.733.01,3.467-.009,5.2.007.358,0,.445-.115.441-.455-.017-1.407-.007-2.814-.008-4.221,0-.623,0-.621-.6-.68-.1-.01-.191-.057-.288-.066a4.475,4.475,0,0,1-3.417-2.1,4.477,4.477,0,0,1,.1-5.185,4.422,4.422,0,0,1,3.8-1.991c.21,0,.41-.011.41-.3q0-2.431,0-4.861c0-.172-.046-.276-.283-.274-1.646.016-3.291-.011-4.937.015a1.333,1.333,0,0,1-1.494-1.057M65.053,28.894a4.526,4.526,0,0,0,.284-.386c.883-1.532,1.772-3.061,2.64-4.6A2.757,2.757,0,0,1,70.518,22.4c1.018-.007,2.036-.008,3.053-.011.981,0,1.37-.376,1.37-1.366,0-5.767-.008-11.534.01-17.3A1.293,1.293,0,0,0,73.5,2.276q-10.366.009-20.732-.005c-.591,0-.577,0-.575.574.007,1.734.02,3.468-.005,5.2a1.9,1.9,0,0,1-1.093,1.707,2.561,2.561,0,0,1-1.458.195,2.249,2.249,0,0,0-2.439,1.946,2.384,2.384,0,0,0,2.055,2.836,7.644,7.644,0,0,0,.977-.017,1.877,1.877,0,0,1,1.956,1.917c-.013,1.783.021,3.567.006,5.351,0,.369.125.432.452.429,2.312-.013,4.624,0,6.936-.014a2.8,2.8,0,0,1,2.609,1.539c.937,1.645,1.894,3.279,2.867,4.96M13.9,2.267v0H11.378c-2.6,0-5.2.011-7.8-.008a1.227,1.227,0,0,0-1.33,1.229c.016,5.916.009,11.832.012,17.749A1.07,1.07,0,0,0,3.423,22.4c1.105,0,2.211-.019,3.316.01a2.678,2.678,0,0,1,2.4,1.39c.931,1.619,1.868,3.235,2.8,4.856.131.228.2.319.369.013.851-1.506,1.756-2.983,2.578-4.5a3.124,3.124,0,0,1,3.077-1.776c2.223.044,4.447,0,6.67.015.312,0,.405-.085.4-.4-.027-.967-.012-1.934-.023-2.9-.007-.6-.076-1.2-.029-1.794.022-.274-.062-.247-.237-.257a6.564,6.564,0,0,1-1.391-.217,4.661,4.661,0,0,1,.375-9.07,10.484,10.484,0,0,0,1.044-.1c.187-.062.253-.108.251-.313q-.017-2.374,0-4.748c0-.328-.2-.372-.424-.355-.092.006-.193.031-.29.031q-5.2,0-10.4,0" transform="translate(0 0.001)" fill="#060607"/>
          <path id="Trazado_706040" data-name="Trazado 706040" d="M94.587,3.964a1.332,1.332,0,0,0,1.494,1.057c1.645-.026,3.291,0,4.937-.015.237,0,.283.1.283.274q0,2.431,0,4.861c0,.289-.2.3-.41.3a4.422,4.422,0,0,0-3.8,1.991,4.477,4.477,0,0,0-.1,5.185,4.473,4.473,0,0,0,3.417,2.1c.1.009.191.056.288.066.6.059.6.057.6.68,0,1.407-.009,2.814.008,4.221,0,.339-.083.458-.441.455-1.734-.016-3.467,0-5.2-.007a3.64,3.64,0,0,0-1.594.27,2.506,2.506,0,0,0-1.122,1q-1.379,2.435-2.765,4.866c-.07.123-.1.33-.261.325-.13,0-.183-.19-.251-.307q-1.289-2.229-2.57-4.463a3.394,3.394,0,0,0-.9-1.169,2.832,2.832,0,0,0-1.61-.52c-1.733,0-3.467-.009-5.2.007a3.017,3.017,0,0,0-.727-.035c-.189.044-.125-.2-.126-.321,0-1.419,0-2.839,0-4.258,0-.5,0-.994-.039-1.493A1.921,1.921,0,0,0,77.026,17.5a5.945,5.945,0,0,0-.949.027,2.455,2.455,0,0,1-2.584-2.678A2.362,2.362,0,0,1,75.667,12.7c.314.006.628,0,.942,0a1.871,1.871,0,0,0,1.925-1.89c.023-1.733.01-3.467.013-5.2,0-.723-.033-.6.611-.6q5.766-.01,11.532,0a1.416,1.416,0,0,0,1.192-.407,2.789,2.789,0,0,0,.3-.658c.8-.061,1.605.036,2.408.015" transform="translate(-51.32 -2.744)" fill="#abffff"/>
          <path id="Trazado_706041" data-name="Trazado 706041" d="M92.212,132.048a12.606,12.606,0,0,1,.209-2.452,7.52,7.52,0,0,1,.976-2.329,7.247,7.247,0,0,1,2.222-2.351,7.773,7.773,0,0,1,2.923-1.143,7.542,7.542,0,0,1,3.127.127,7.529,7.529,0,0,1,5.768,6.731,19.26,19.26,0,0,1,.057,3.527,7.469,7.469,0,0,1-2.887,5.677,2.039,2.039,0,0,0-.256.221c-.1.1-.316.2-.221.345a.566.566,0,0,0,.463.253c.464-.007.93-.01,1.394,0a5.217,5.217,0,0,1,2.088.4,4.024,4.024,0,0,1,2.292,2.758c.314,1.2.464,2.438.677,3.661.184,1.062.394,2.12.578,3.182a20.142,20.142,0,0,1,.375,2.471,2.056,2.056,0,0,1-2.118,2c-6.658,0-13.316-.022-19.974.013a2.17,2.17,0,0,1-2.113-2.613c.312-1.361.468-2.756.709-4.133.265-1.51.473-3.036.846-4.52a4.032,4.032,0,0,1,2.922-3.019,11.169,11.169,0,0,1,2.813-.2c.2-.009.483.051.544-.122.065-.188-.1-.4-.289-.552a10.707,10.707,0,0,1-1.009-.863,7.768,7.768,0,0,1-1.932-3.665,12.11,12.11,0,0,1-.173-2.647,1.028,1.028,0,0,0-.024-.147.915.915,0,0,0,.013-.61m13.212,10.9v-.037a6.081,6.081,0,0,1-.865-.008c-.323-.047-.386.091-.383.366a4.276,4.276,0,0,1-.154,1.178,4.548,4.548,0,0,1-4.83,3.063,4.52,4.52,0,0,1-3.674-4.326c-.011-.223-.068-.276-.275-.272-.59.01-1.181-.01-1.771,0a2.02,2.02,0,0,0-2.023,1.676c-.107.507-.187,1.019-.276,1.53q-.288,1.652-.572,3.305c-.171.984-.326,1.97-.522,2.948-.1.506-.135.494.368.494q9.27-.005,18.541-.007a1.006,1.006,0,0,1,.371.028c.26.108.321-.013.317-.234a2.678,2.678,0,0,0-.026-.412c-.161-.914-.332-1.826-.491-2.74-.262-1.508-.512-3.018-.776-4.525-.219-1.247-.742-1.84-1.831-2.02a6.991,6.991,0,0,0-1.127-.01m-.151-10.548c0-.452.012-.9-.005-1.355-.008-.2.077-.506-.128-.586-.165-.065-.379.141-.558.255a17.9,17.9,0,0,1-3.31,1.643,15.3,15.3,0,0,1-2.927.751,16.685,16.685,0,0,1-2.393.082c-.29.006-.53-.157-.824-.163-.668-.014-.66-.039-.657.653a5.665,5.665,0,0,0,1.279,3.689,8.433,8.433,0,0,0,.954.828,2.893,2.893,0,0,0,.685.489,5.713,5.713,0,0,0,3.789.4,5.334,5.334,0,0,0,3.922-3.926,12.657,12.657,0,0,0,.173-2.761m-8.4-1.47a5.54,5.54,0,0,0,1.5-.1,15.283,15.283,0,0,0,5.771-2.44c.154-.105.208-.17.068-.34a5.572,5.572,0,0,0-2.317-1.747,5.373,5.373,0,0,0-1.755-.344,5.149,5.149,0,0,0-2.814.571,5.562,5.562,0,0,0-2.727,3.619c-.088.338-.011.473.289.528s.62.076.889.141c.373.09.734.056,1.1.109m5.118,11.551c0-.314-.008-.627,0-.941.007-.2-.025-.309-.271-.249a7.542,7.542,0,0,1-3.671.015c-.228-.057-.284-.008-.276.219.018.539.008,1.079.022,1.618a2.07,2.07,0,0,0,4.06.645,7.774,7.774,0,0,0,.134-1.308" transform="translate(-61.278 -86.364)" fill="#060607"/>
          <path id="Trazado_706042" data-name="Trazado 706042" d="M10.731,153.891a1.107,1.107,0,0,1-1.282,1.2c-2.513,0-5.026.012-7.539-.006A2.063,2.063,0,0,1,.051,152.7c.233-.938.325-1.911.487-2.867.135-.8.285-1.589.424-2.384.164-.941.343-1.879.478-2.824a4.413,4.413,0,0,1,2.865-3.736,5.442,5.442,0,0,1,2.035-.274c.389,0,.779.009,1.168-.005.113,0,.306.107.334-.1.025-.187.056-.382-.161-.531A6.862,6.862,0,0,1,5.822,138.1,7.531,7.531,0,0,1,4.6,134.71a23.119,23.119,0,0,1-.045-4.052,7.347,7.347,0,0,1,2.03-4.574,7.729,7.729,0,0,1,3.772-2.256,7.287,7.287,0,0,1,3.747.054,7.178,7.178,0,0,1,4.031,2.633,7.83,7.83,0,0,1,1.632,4.122,24.678,24.678,0,0,1,.031,3.421,7.8,7.8,0,0,1-1.815,4.709,8.983,8.983,0,0,1-1.32,1.209.449.449,0,0,0-.209.512c.07.189.28.124.437.126a11.714,11.714,0,0,1,2.889.22,3.847,3.847,0,0,1,2.9,3.028c.374,1.56.608,3.153.853,4.741.178,1.152.445,2.29.638,3.44a3.706,3.706,0,0,1,.047,1.576,1.874,1.874,0,0,1-1.49,1.4,2.943,2.943,0,0,1-.773.073q-3.637,0-7.275,0a1.279,1.279,0,0,1-1.272-1.2c.23-.882.86-1.081,1.686-1.072,2.2.025,4.4,0,6.6.014.283,0,.341-.083.293-.347-.246-1.362-.48-2.727-.718-4.091-.208-1.192-.413-2.384-.625-3.575a2.171,2.171,0,0,0-2.075-1.944c-.61-.054-1.228-.015-1.843-.024-.165,0-.2.074-.216.228a6.586,6.586,0,0,1-.116.96,4.167,4.167,0,0,1-2.777,3.187,3.606,3.606,0,0,1-2.068.237,3.651,3.651,0,0,0-.379-.133A3.335,3.335,0,0,1,9.3,146.4a4.2,4.2,0,0,1-1.453-3.268c0-.175-.023-.286-.24-.281-.665.016-1.335-.024-2,.034A1.908,1.908,0,0,0,3.857,144.2a13.441,13.441,0,0,0-.507,2.516c-.192,1.28-.481,2.542-.664,3.823-.088.619-.222,1.231-.338,1.846-.061.325.023.472.4.455.727-.033,1.457-.013,2.186-.013,1.508,0,3.015,0,4.523,0a1.139,1.139,0,0,1,1.273,1.059m1.184-14.648a5.721,5.721,0,0,0,1.065-.075c.176-.045.345-.109.527-.143a4,4,0,0,0,1.277-.482,5.468,5.468,0,0,0,2.789-5.046,26.086,26.086,0,0,0-.06-2.814c-.032-.319-.142-.3-.345-.163a16.214,16.214,0,0,1-5.6,2.375,10.132,10.132,0,0,1-3.493.191c-.378-.054-.755-.116-1.134-.162-.1-.012-.272-.041-.224.145.152.6,0,1.215.138,1.818a5.833,5.833,0,0,0,1.458,2.755,5.222,5.222,0,0,0,1.828,1.212,3.971,3.971,0,0,0,1.77.39m.255-13.392a5.389,5.389,0,0,0-5.258,4.27c-.073.332.024.446.319.532a7.447,7.447,0,0,0,3.4.138,14.662,14.662,0,0,0,5.8-2.447c.147-.1.18-.173.062-.323a5.537,5.537,0,0,0-4.331-2.17M10.1,142.457c0,.276.006.477,0,.678a1.943,1.943,0,0,0,1.068,1.9,2.065,2.065,0,0,0,2.937-1.212,8.837,8.837,0,0,0,.141-2.421c.009-.193-.119-.19-.253-.154a6.888,6.888,0,0,1-1.061.2,8.635,8.635,0,0,1-2.711-.179c-.251-.054-.2.079-.178.179a6.255,6.255,0,0,1,.058,1.01" transform="translate(-0.007 -86.327)" fill="#060607"/>
          <path id="Trazado_706043" data-name="Trazado 706043" d="M177.48,146.491c-.833-.405-.952-.637-.833-1.819a4.791,4.791,0,0,1,.767-2.168,4.075,4.075,0,0,1,2.854-1.822,18.479,18.479,0,0,1,2.429-.08c.155-.007.325.045.4-.169.072-.2-.06-.315-.166-.416-.262-.251-.554-.472-.825-.715a7.566,7.566,0,0,1-2.027-3.3,7.7,7.7,0,0,1-.347-2.585c0-.678.019-1.357-.008-2.035a7.318,7.318,0,0,1,1.4-4.473,7.612,7.612,0,0,1,3.576-2.8,6.666,6.666,0,0,1,3.457-.455,7.568,7.568,0,0,1,3.554,1.306,7.673,7.673,0,0,1,3.1,4.774,18.661,18.661,0,0,1,.206,4.057,5.631,5.631,0,0,1-.233,1.708,9.844,9.844,0,0,1-.622,1.785,6.134,6.134,0,0,1-1.152,1.658,8.444,8.444,0,0,1-1.077.976.451.451,0,0,0-.232.4c-.008.228.061.293.295.3a18.875,18.875,0,0,1,2.249.059,3.885,3.885,0,0,1,2.563,1.25,4.216,4.216,0,0,1,.98,1.521,16.8,16.8,0,0,1,.417,1.933c.2,1.108.38,2.217.6,3.322.176.894.322,1.8.445,2.7.073.535.2,1.059.242,1.6a2.139,2.139,0,0,1-2.128,2.094c-5.214-.023-10.428-.01-15.642-.01-1.395,0-2.79-.024-4.184.007a2.214,2.214,0,0,1-2.323-1.88,3.764,3.764,0,0,1,.151-1.239,14.374,14.374,0,0,1,.315-1.7,1.194,1.194,0,0,1,1.275-1.014,2.6,2.6,0,0,1,.454.235.9.9,0,0,1,.437.66,7.39,7.39,0,0,1-.109,1.247,6.914,6.914,0,0,0-.2,1.069c0,.279.068.362.356.362q9.457-.022,18.914-.026c.443,0,.442,0,.362-.443q-.33-1.8-.628-3.6c-.234-1.4-.472-2.8-.732-4.194a1.948,1.948,0,0,0-1.73-1.653,15.164,15.164,0,0,0-2.182-.046c-.166,0-.2.091-.174.214a3.215,3.215,0,0,1-.22,1.262,3.913,3.913,0,0,1-1.827,2.446,3.785,3.785,0,0,1-2.872.681,4.4,4.4,0,0,1-3.757-4.357c-.012-.208-.093-.255-.272-.252-.64.007-1.281,0-1.921.015a2,2,0,0,0-.992.285,2.791,2.791,0,0,0-1.085,2.13c-.155.826-.433,1.176-1.3,1.208m15.291-14.144c0-.527.009-1.055,0-1.582-.008-.372-.131-.442-.426-.221a6.476,6.476,0,0,1-.982.648c-.5.239-1.006.488-1.521.707a14.553,14.553,0,0,1-4.752,1.219,7.677,7.677,0,0,1-2.786-.2c-.22-.067-.347.006-.32.28.046.458,0,.916.065,1.38a5.175,5.175,0,0,0,2.708,3.953,5.041,5.041,0,0,0,3.662.55,5.162,5.162,0,0,0,4.166-3.826,9.721,9.721,0,0,0,.188-2.906m-8.32-1.479c.1,0,.3-.007.5,0a3.23,3.23,0,0,0,.59-.062,14.312,14.312,0,0,0,6.04-2.451c.236-.159.176-.277.038-.444a5.41,5.41,0,0,0-9.528,2.252c-.075.29.039.408.305.483a6.644,6.644,0,0,0,2.052.221m.85,11.646h.034a7.158,7.158,0,0,0,.01,1.16,2.088,2.088,0,0,0,4.109-.456c.017-.5,0-1,.006-1.505.005-.449-.084-.52-.54-.419a6.863,6.863,0,0,1-3.357-.052c-.225-.062-.265.031-.264.218,0,.351,0,.7,0,1.054" transform="translate(-122.353 -86.313)" fill="#060607"/>
          <path id="Trazado_706044" data-name="Trazado 706044" d="M181.566,191.075c.866-.032,1.143-.381,1.3-1.208a2.79,2.79,0,0,1,1.085-2.13,2,2,0,0,1,.992-.285c.64-.019,1.281-.008,1.921-.015.179,0,.26.044.272.252a4.395,4.395,0,0,0,3.757,4.357,3.784,3.784,0,0,0,2.872-.68,3.914,3.914,0,0,0,1.827-2.447,3.213,3.213,0,0,0,.22-1.261c-.021-.124.008-.216.174-.215a15.215,15.215,0,0,1,2.182.047,1.947,1.947,0,0,1,1.73,1.653c.26,1.395.5,2.794.732,4.194q.3,1.8.628,3.6c.08.439.081.442-.362.443q-9.457.01-18.914.025c-.287,0-.351-.083-.356-.361a6.942,6.942,0,0,1,.2-1.069,7.364,7.364,0,0,0,.109-1.247.9.9,0,0,0-.437-.66,2.6,2.6,0,0,0-.454-.235,14.579,14.579,0,0,0,.521-2.762" transform="translate(-126.44 -130.897)" fill="#abffff"/>
          <path id="Trazado_706045" data-name="Trazado 706045" d="M16.106,198.438a1.139,1.139,0,0,0-1.273-1.059c-1.508-.01-3.015,0-4.523,0-.729,0-1.458-.02-2.186.013-.378.017-.462-.129-.4-.455.115-.615.249-1.227.338-1.846.182-1.281.472-2.543.664-3.823a13.442,13.442,0,0,1,.507-2.516,1.908,1.908,0,0,1,1.758-1.319c.661-.059,1.331-.019,2-.034.218-.005.241.106.24.281a4.2,4.2,0,0,0,1.453,3.268,3.335,3.335,0,0,0,1.87.935,3.655,3.655,0,0,1,.379.133A3.606,3.606,0,0,0,19,191.773a4.168,4.168,0,0,0,2.777-3.186,6.671,6.671,0,0,0,.116-.96c.011-.154.051-.23.216-.228.614.008,1.233-.03,1.843.024a2.171,2.171,0,0,1,2.075,1.944c.212,1.191.417,2.383.625,3.575.238,1.364.472,2.728.718,4.091.048.264-.01.348-.293.347-2.2-.011-4.4.011-6.6-.014-.826-.009-1.456.19-1.686,1.072-.685.023-1.37.044-2.055.069a2.1,2.1,0,0,1-.629-.067" transform="translate(-5.381 -130.873)" fill="#b20d0d"/>
          <path id="Trazado_706046" data-name="Trazado 706046" d="M102.26,151.466a.915.915,0,0,1-.013.61.437.437,0,0,1,.013-.61" transform="translate(-71.327 -105.782)" fill="#a682b9"/>
          <path id="Trazado_706047" data-name="Trazado 706047" d="M174.19,34.155c-.973-1.681-1.929-3.315-2.867-4.96a2.8,2.8,0,0,0-2.608-1.539c-2.312.01-4.624,0-6.936.014-.327,0-.455-.061-.452-.43.014-1.783-.019-3.567-.006-5.351a1.877,1.877,0,0,0-1.956-1.916,7.755,7.755,0,0,1-.977.017,2.384,2.384,0,0,1-2.055-2.836,2.249,2.249,0,0,1,2.439-1.946,2.558,2.558,0,0,0,1.458-.195,1.9,1.9,0,0,0,1.093-1.706c.026-1.734.013-3.468.006-5.2,0-.571-.016-.574.575-.573q10.366,0,20.732.005A1.293,1.293,0,0,1,184.09,8.98c-.019,5.767-.007,11.534-.011,17.3,0,.99-.388,1.364-1.37,1.366-1.018,0-2.035,0-3.053.011a2.757,2.757,0,0,0-2.541,1.511c-.869,1.54-1.757,3.069-2.64,4.6a4.532,4.532,0,0,1-.284.386" transform="translate(-109.137 -5.261)" fill="#ffc403"/>
          <path id="Trazado_706048" data-name="Trazado 706048" d="M19.105,7.438q5.2,0,10.4,0c.1,0,.2-.025.29-.031.228-.016.426.028.424.355q-.016,2.374,0,4.748c0,.2-.064.251-.251.313a10.485,10.485,0,0,1-1.044.1A4.661,4.661,0,0,0,28.553,22a6.564,6.564,0,0,0,1.391.217c.175.011.259-.017.237.257-.047.594.022,1.2.029,1.794.011.967,0,1.935.023,2.9.009.32-.084.406-.4.4-2.223-.011-4.447.029-6.67-.015a3.124,3.124,0,0,0-3.077,1.776c-.822,1.522-1.727,3-2.578,4.5-.173.306-.238.215-.369-.013-.929-1.621-1.866-3.236-2.8-4.856a2.678,2.678,0,0,0-2.4-1.39c-1.1-.028-2.211-.008-3.316-.01A1.07,1.07,0,0,1,7.462,26.4c0-5.916,0-11.832-.012-17.749A1.227,1.227,0,0,1,8.78,7.425c2.6.02,5.2.008,7.8.008h2.525Z" transform="translate(-5.203 -5.17)" fill="#ffe8ce"/>
          <path id="Trazado_706049" data-name="Trazado 706049" d="M110.692,187.471a6.985,6.985,0,0,1,1.127.01c1.09.18,1.613.772,1.832,2.02.264,1.507.515,3.017.776,4.525.159.914.331,1.827.491,2.741a2.665,2.665,0,0,1,.026.411c0,.221-.057.342-.317.234a1,1,0,0,0-.372-.028q-9.27,0-18.541.007c-.5,0-.47.012-.368-.494.2-.978.352-1.965.523-2.948q.287-1.653.572-3.305c.089-.511.169-1.023.276-1.53a2.02,2.02,0,0,1,2.023-1.675c.59-.014,1.18.006,1.771,0,.207,0,.264.05.275.273a4.521,4.521,0,0,0,3.675,4.326,4.548,4.548,0,0,0,4.83-3.063,4.287,4.287,0,0,0,.154-1.178c0-.275.06-.413.383-.366a6.042,6.042,0,0,0,.865.009v.037" transform="translate(-66.546 -130.889)" fill="#ffc403"/>
          <path id="Trazado_706050" data-name="Trazado 706050" d="M120.85,148.1a12.642,12.642,0,0,1-.173,2.762,5.333,5.333,0,0,1-3.922,3.925,5.71,5.71,0,0,1-3.789-.4,2.9,2.9,0,0,1-.684-.489,8.438,8.438,0,0,1-.954-.828,5.663,5.663,0,0,1-1.279-3.689c0-.692-.011-.666.657-.653.293.006.534.169.824.163a16.731,16.731,0,0,0,2.394-.082,15.277,15.277,0,0,0,2.927-.75,17.9,17.9,0,0,0,3.31-1.644c.179-.114.393-.32.559-.255.2.081.12.382.128.586.017.451.005.9.005,1.355" transform="translate(-76.855 -102.068)" fill="#ffdbdb"/>
          <path id="Trazado_706051" data-name="Trazado 706051" d="M112.654,136.233c-.361-.052-.722-.019-1.1-.109-.27-.065-.593-.086-.889-.141s-.377-.19-.289-.528a5.562,5.562,0,0,1,2.727-3.619,5.148,5.148,0,0,1,2.814-.571,5.381,5.381,0,0,1,1.755.343,5.575,5.575,0,0,1,2.317,1.747c.14.17.087.234-.068.34a15.288,15.288,0,0,1-5.771,2.44,5.539,5.539,0,0,1-1.5.1" transform="translate(-77.064 -91.67)" fill="#a03d3d"/>
          <path id="Trazado_706052" data-name="Trazado 706052" d="M125.206,183.257a7.771,7.771,0,0,1-.134,1.307,2.07,2.07,0,0,1-4.06-.645c-.014-.539,0-1.079-.022-1.618-.008-.227.048-.277.276-.219a7.542,7.542,0,0,0,3.671-.015c.246-.06.278.047.271.249-.01.313,0,.627,0,.941" transform="translate(-84.498 -127.142)" fill="#ffdbdb"/>
          <path id="Trazado_706053" data-name="Trazado 706053" d="M27.436,155.036a3.968,3.968,0,0,1-1.771-.39,5.222,5.222,0,0,1-1.828-1.212,5.834,5.834,0,0,1-1.458-2.756c-.134-.6.014-1.219-.138-1.818-.047-.186.126-.157.224-.145.379.046.756.109,1.134.162a10.125,10.125,0,0,0,3.493-.191,16.2,16.2,0,0,0,5.6-2.375c.2-.132.314-.156.345.163a26.091,26.091,0,0,1,.06,2.815,5.468,5.468,0,0,1-2.789,5.046,4,4,0,0,1-1.277.482c-.182.034-.351.1-.527.143-.158-.391-.493-.166-.747-.2a.258.258,0,0,0-.318.277" transform="translate(-15.527 -102.119)" fill="#ffdbdb"/>
          <path id="Trazado_706054" data-name="Trazado 706054" d="M28.1,131.045a5.537,5.537,0,0,1,4.331,2.17c.119.15.086.221-.062.323a14.663,14.663,0,0,1-5.8,2.447,7.447,7.447,0,0,1-3.4-.138c-.3-.086-.392-.2-.319-.532a5.389,5.389,0,0,1,5.258-4.27" transform="translate(-15.937 -91.52)" fill="#a03d3d"/>
          <path id="Trazado_706055" data-name="Trazado 706055" d="M33.3,183.265a6.255,6.255,0,0,0-.058-1.01c-.024-.1-.073-.232.178-.179a8.636,8.636,0,0,0,2.711.179,6.893,6.893,0,0,0,1.061-.2c.135-.036.262-.039.253.154a8.837,8.837,0,0,1-.141,2.421,2.065,2.065,0,0,1-2.937,1.212,1.943,1.943,0,0,1-1.068-1.9c.007-.2,0-.4,0-.678" transform="translate(-23.2 -127.136)" fill="#ffdbdb"/>
          <path id="Trazado_706056" data-name="Trazado 706056" d="M39.485,174.731a.258.258,0,0,1,.318-.277c.254.036.589-.189.747.2a5.721,5.721,0,0,1-1.065.075" transform="translate(-27.576 -121.814)" fill="#f6f8fa"/>
          <path id="Trazado_706057" data-name="Trazado 706057" d="M208.479,148.164a9.732,9.732,0,0,1-.188,2.906,5.163,5.163,0,0,1-4.166,3.826,5.04,5.04,0,0,1-3.662-.55,5.176,5.176,0,0,1-2.708-3.953c-.061-.464-.019-.922-.065-1.38-.027-.274.1-.347.32-.28a7.685,7.685,0,0,0,2.787.2,14.555,14.555,0,0,0,4.752-1.219c.515-.219,1.022-.468,1.52-.707a6.482,6.482,0,0,0,.982-.648c.295-.22.418-.15.426.221.012.527,0,1.054,0,1.582" transform="translate(-138.062 -102.13)" fill="#ffdbdb"/>
          <path id="Trazado_706058" data-name="Trazado 706058" d="M200.376,136.129a6.643,6.643,0,0,1-2.052-.22c-.266-.075-.38-.193-.305-.483a5.411,5.411,0,0,1,9.528-2.252c.138.167.2.285-.038.444a14.315,14.315,0,0,1-6.04,2.451,3.23,3.23,0,0,1-.59.062c-.2-.008-.4,0-.5,0" transform="translate(-138.278 -91.575)" fill="#a03d3d"/>
          <path id="Trazado_706059" data-name="Trazado 706059" d="M208.7,183.346c0-.351,0-.7,0-1.054,0-.187.039-.28.264-.218a6.863,6.863,0,0,0,3.357.052c.456-.1.545-.031.54.419-.006.5.01,1-.006,1.505a2.088,2.088,0,0,1-4.109.456,7.154,7.154,0,0,1-.01-1.16H208.7" transform="translate(-145.755 -127.145)" fill="#ffdbdb"/>
        </g>
      </g>
    </g>
  </g>
</svg>
