<svg xmlns="http://www.w3.org/2000/svg" width="109" height="109" viewBox="0 0 109 109">
  <g id="Grupo_992326" data-name="Grupo 992326" transform="translate(-291 -5018)">
    <circle id="Elipse_5667" data-name="Elipse 5667" cx="54.5" cy="54.5" r="54.5" transform="translate(291 5018)" fill="#06d1d1"/>
    <rect id="Rect치ngulo_349318" data-name="Rect치ngulo 349318" width="9" height="27" transform="translate(340 5049)" fill="#fff"/>
    <rect id="Rect치ngulo_349319" data-name="Rect치ngulo 349319" width="2.976" height="26.31" transform="translate(345.5 5102.882) rotate(180)" fill="#abffff"/>
    <path id="Trazado_706066" data-name="Trazado 706066" d="M336.874,5052.661l-15.348-4.072-3.445-10.023L310.25,5037" transform="translate(4.868 4.805)" fill="none" stroke="#fff" stroke-width="2"/>
    <path id="Trazado_706078" data-name="Trazado 706078" d="M31.635,16.6,13.4,12.284,9.3,1.66,0,0" transform="translate(374.159 5110.4) rotate(180)" fill="none" stroke="#abffff" stroke-width="2"/>
    <path id="Trazado_706071" data-name="Trazado 706071" d="M310.25,5052.661l15.348-4.072,3.445-10.023,7.83-1.566" transform="translate(38.069 3.552)" fill="none" stroke="#fff" stroke-width="2"/>
    <path id="Trazado_706074" data-name="Trazado 706074" d="M0,16.914l17.108-4.4L20.949,1.691,29.677,0" transform="translate(344.012 5111.652) rotate(180)" fill="none" stroke="#abffff" stroke-width="2"/>
    <path id="Trazado_706067" data-name="Trazado 706067" d="M333.966,5047.9l-5.951-10.336-6.264-2.819" transform="translate(7.776 4.236)" fill="none" stroke="#fff" stroke-width="2"/>
    <path id="Trazado_706077" data-name="Trazado 706077" d="M15.5,16.6,7.951,3.557,0,0" transform="translate(359.751 5113.218) rotate(180)" fill="none" stroke="#abffff" stroke-width="2"/>
    <path id="Trazado_706072" data-name="Trazado 706072" d="M321.75,5047.9l5.951-10.336,6.264-2.819" transform="translate(25.316 4.236)" fill="none" stroke="#fff" stroke-width="2"/>
    <path id="Trazado_706075" data-name="Trazado 706075" d="M0,16.6,6.943,3.557,14.251,0" transform="translate(344.247 5113.218) rotate(180)" fill="none" stroke="#abffff" stroke-width="2"/>
    <path id="Trazado_706068" data-name="Trazado 706068" d="M338.517,5053.069l-18.167-2.819-5.325,5.325H303.75" transform="translate(3.224 8.155)" fill="none" stroke="#fff" stroke-width="2"/>
    <path id="Trazado_706079" data-name="Trazado 706079" d="M38.056,2.819,18.171,0,12.343,5.325H0" transform="translate(382.303 5093.799) rotate(180)" fill="none" stroke="#abffff" stroke-width="2"/>
    <path id="Trazado_706070" data-name="Trazado 706070" d="M303.75,5053.069l18.167-2.819,5.325,5.325h11.276" transform="translate(44.569 8.155)" fill="none" stroke="#fff" stroke-width="2"/>
    <path id="Trazado_706073" data-name="Trazado 706073" d="M0,2.819,19.762,0l5.792,5.325H37.821" transform="translate(344.012 5093.799) rotate(180)" fill="none" stroke="#abffff" stroke-width="2"/>
    <path id="Trazado_706069" data-name="Trazado 706069" d="M335.069,5051.307l2.819-12.842-5.638-2.819v-9.4" transform="translate(9.178 2.086)" fill="none" stroke="#fff" stroke-width="2"/>
    <path id="Trazado_706076" data-name="Trazado 706076" d="M2.819,25.057,5.638,12.215,0,9.4V0" transform="translate(347.849 5123.868) rotate(180)" fill="none" stroke="#abffff" stroke-width="2"/>
    <path id="Trazado_706065" data-name="Trazado 706065" d="M295.75,5064.75h96.471" transform="translate(1.201 11.822)" fill="none" stroke="#000" stroke-width="3"/>
  </g>
</svg>
