<svg xmlns="http://www.w3.org/2000/svg" xmlns:xlink="http://www.w3.org/1999/xlink" width="514" height="414" viewBox="0 0 514 414">
  <defs>
    <clipPath id="clip-path">
      <rect id="Rectángulo_349212" data-name="Rectángulo 349212" width="514" height="414" transform="translate(928.488 124)" fill="none" stroke="#707070" stroke-width="1"/>
    </clipPath>
    <clipPath id="clip-path-2">
      <rect id="Rectángulo_349243" data-name="Rectángulo 349243" width="466.155" height="373.01" fill="none"/>
    </clipPath>
    <clipPath id="clip-path-4">
      <rect id="Rectángulo_349213" data-name="Rectángulo 349213" width="128.107" height="267.244" fill="none"/>
    </clipPath>
    <clipPath id="clip-path-5">
      <rect id="Rectángulo_349215" data-name="Rectángulo 349215" width="466.155" height="373.01" fill="#ffc403"/>
    </clipPath>
    <clipPath id="clip-path-7">
      <rect id="Rectángulo_349216" data-name="Rectángulo 349216" width="314.926" height="106.168" fill="none"/>
    </clipPath>
    <clipPath id="clip-path-8">
      <rect id="Rectángulo_349217" data-name="Rectángulo 349217" width="314.926" height="139.903" fill="none"/>
    </clipPath>
    <clipPath id="clip-path-9">
      <rect id="Rectángulo_349219" data-name="Rectángulo 349219" width="9.584" height="9.584" fill="none"/>
    </clipPath>
    <clipPath id="clip-path-11">
      <rect id="Rectángulo_349222" data-name="Rectángulo 349222" width="205.232" height="22.817" fill="none"/>
    </clipPath>
    <clipPath id="clip-path-12">
      <rect id="Rectángulo_349223" data-name="Rectángulo 349223" width="30.196" height="42.332" fill="none"/>
    </clipPath>
    <clipPath id="clip-path-13">
      <rect id="Rectángulo_349224" data-name="Rectángulo 349224" width="37.58" height="77.277" fill="none"/>
    </clipPath>
    <clipPath id="clip-path-14">
      <rect id="Rectángulo_349225" data-name="Rectángulo 349225" width="36.865" height="41.145" fill="none"/>
    </clipPath>
    <clipPath id="clip-path-15">
      <rect id="Rectángulo_349226" data-name="Rectángulo 349226" width="14.007" height="12.755" fill="none"/>
    </clipPath>
    <clipPath id="clip-path-16">
      <rect id="Rectángulo_349227" data-name="Rectángulo 349227" width="5.664" height="3.24" fill="none"/>
    </clipPath>
    <clipPath id="clip-path-17">
      <rect id="Rectángulo_349228" data-name="Rectángulo 349228" width="10.757" height="2.616" fill="none"/>
    </clipPath>
    <clipPath id="clip-path-18">
      <rect id="Rectángulo_349229" data-name="Rectángulo 349229" width="102.989" height="101.653" fill="none"/>
    </clipPath>
    <clipPath id="clip-path-19">
      <rect id="Rectángulo_349232" data-name="Rectángulo 349232" width="93.183" height="108.889" fill="none"/>
    </clipPath>
  </defs>
  <g id="Grupo_106" data-name="Grupo 106" transform="translate(-928.488 -124)" clip-path="url(#clip-path)">
    <g id="Grupo_975016" data-name="Grupo 975016" transform="translate(557.461 167.654)">
      <g id="Grupo_975017" data-name="Grupo 975017" transform="translate(386 -20.458)">
        <g id="Grupo_975068" data-name="Grupo 975068" clip-path="url(#clip-path-2)">
          <g id="Grupo_975021" data-name="Grupo 975021">
            <g id="Grupo_975020" data-name="Grupo 975020" clip-path="url(#clip-path-2)">
              <g id="Grupo_975019" data-name="Grupo 975019" transform="translate(132.055)" opacity="0.5">
                <g id="Grupo_975018" data-name="Grupo 975018">
                  <g id="Grupo_975017-2" data-name="Grupo 975017" clip-path="url(#clip-path-4)">
                    <path id="Trazado_705596" data-name="Trazado 705596" d="M315.461,24.018a16.575,16.575,0,0,0,1.576-4.933l.007-.045-2.748-.424a13.747,13.747,0,0,0-.033-4.307l2.749-.454a16.476,16.476,0,0,0-1.638-4.915L312.9,10.225a13.872,13.872,0,0,0-2.556-3.467L312.3,4.773a16.487,16.487,0,0,0-4.21-3.02l-1.248,2.49a13.735,13.735,0,0,0-4.073-1.3l-.033,0L303.157.19a16.524,16.524,0,0,0-5.177.029l.452,2.749a13.732,13.732,0,0,0-4.086,1.361l-1.283-2.477a16.6,16.6,0,0,0-4.168,3.067l1.982,1.962a13.749,13.749,0,0,0-2.517,3.5l-2.489-1.249a16.532,16.532,0,0,0-1.565,4.908l0,.023,2.749.41a13.746,13.746,0,0,0,.024,4.321l-2.749.45a16.5,16.5,0,0,0,1.63,4.918l2.476-1.281a13.878,13.878,0,0,0,2.551,3.472l-1.963,1.98a16.489,16.489,0,0,0,4.205,3.027l1.251-2.488a13.707,13.707,0,0,0,4.093,1.311l.01,0-.422,2.747a16.53,16.53,0,0,0,5.178-.021l-.448-2.749a13.743,13.743,0,0,0,4.088-1.355l1.279,2.477a16.616,16.616,0,0,0,4.173-3.06l-1.979-1.965a13.747,13.747,0,0,0,2.522-3.492Zm-15.9-.265a7.277,7.277,0,1,1,8.3-6.083,7.285,7.285,0,0,1-8.3,6.083" transform="translate(-188.937 0)" fill="#b0e0dc"/>
                    <path id="Trazado_705597" data-name="Trazado 705597" d="M196.471,316.569a16.625,16.625,0,0,0,1.588-4.969l.007-.046-2.769-.427a13.753,13.753,0,0,0-.033-4.338l2.769-.458a16.619,16.619,0,0,0-1.649-4.952l-2.494,1.294a14,14,0,0,0-2.574-3.492l1.974-2a16.581,16.581,0,0,0-4.241-3.043l-1.257,2.509a13.836,13.836,0,0,0-4.1-1.311l-.033,0,.419-2.769a16.649,16.649,0,0,0-5.215.029l.457,2.769a13.829,13.829,0,0,0-4.116,1.371l-1.293-2.494a16.754,16.754,0,0,0-4.2,3.089l2,1.977a13.831,13.831,0,0,0-2.536,3.521l-2.507-1.259a16.632,16.632,0,0,0-1.576,4.945l0,.023,2.77.413a13.828,13.828,0,0,0,.024,4.353l-2.769.453a16.578,16.578,0,0,0,1.641,4.955l2.494-1.29a14.011,14.011,0,0,0,2.569,3.5l-1.977,1.994a16.6,16.6,0,0,0,4.237,3.049l1.261-2.506a13.792,13.792,0,0,0,4.124,1.321l.01,0-.425,2.767a16.674,16.674,0,0,0,5.215-.021l-.45-2.769a13.879,13.879,0,0,0,4.119-1.365l1.288,2.5a16.763,16.763,0,0,0,4.2-3.083l-1.994-1.979a13.864,13.864,0,0,0,2.541-3.517Zm-16.015-.266a7.331,7.331,0,1,1,8.362-6.127,7.339,7.339,0,0,1-8.362,6.127" transform="translate(-165.084 -58.497)" fill="#b0e0dc"/>
                  </g>
                </g>
              </g>
            </g>
          </g>
          <path id="Trazado_705598" data-name="Trazado 705598" d="M128.5,276.813l-14.665,20.74,43-20.406Z" transform="translate(-22.776 -55.383)" fill="#fff"/>
          <g id="Grupo_975067" data-name="Grupo 975067">
            <g id="Grupo_975066" data-name="Grupo 975066" clip-path="url(#clip-path-2)">
              <path id="Trazado_705599" data-name="Trazado 705599" d="M445.947,30.518V217.811a12.782,12.782,0,0,1-12.789,12.782H86.686A12.782,12.782,0,0,1,73.9,217.811V30.518A12.789,12.789,0,0,1,86.686,17.729H433.158a12.789,12.789,0,0,1,12.789,12.789" transform="translate(-14.785 -3.547)" fill="#fff"/>
              <path id="Trazado_705600" data-name="Trazado 705600" d="M445.947,30.518v11.37H73.9V30.518A12.789,12.789,0,0,1,86.686,17.729H433.158a12.789,12.789,0,0,1,12.789,12.789" transform="translate(-14.785 -3.547)" fill="#b0e0dc"/>
              <path id="Trazado_705601" data-name="Trazado 705601" d="M95.448,31.738a4.366,4.366,0,1,1-4.366-4.366,4.366,4.366,0,0,1,4.366,4.366" transform="translate(-17.35 -5.476)" fill="#fff"/>
              <path id="Trazado_705602" data-name="Trazado 705602" d="M116.328,31.738a4.366,4.366,0,1,1-4.366-4.366,4.366,4.366,0,0,1,4.366,4.366" transform="translate(-21.527 -5.476)" fill="#fff"/>
              <path id="Trazado_705603" data-name="Trazado 705603" d="M137.209,31.738a4.367,4.367,0,1,1-4.367-4.366,4.366,4.366,0,0,1,4.367,4.366" transform="translate(-25.705 -5.476)" fill="#fff"/>
              <g id="Grupo_975026" data-name="Grupo 975026" transform="translate(83.481 100.774)" opacity="0.8">
                <g id="Grupo_975025" data-name="Grupo 975025">
                  <g id="Grupo_975024" data-name="Grupo 975024" clip-path="url(#clip-path-7)">
                    <path id="Trazado_705604" data-name="Trazado 705604" d="M104.361,232.147l28.023-28.273L163.5,221.8l36.222-45.98,60.868,40.722L329.91,125.98l89.377,42.4v63.772Z" transform="translate(-104.361 -125.979)" fill="#899bb8"/>
                  </g>
                </g>
              </g>
              <g id="Grupo_975029" data-name="Grupo 975029" transform="translate(83.481 67.039)" opacity="0.8">
                <g id="Grupo_975028" data-name="Grupo 975028">
                  <g id="Grupo_975027" data-name="Grupo 975027" clip-path="url(#clip-path-8)">
                    <path id="Trazado_705605" data-name="Trazado 705605" d="M104.361,223.709l57.17-34.862,29.817,11.394,48.791-69.4,27.722,35.02,32.158-38.939,41.769,18.239,77.5-61.359v139.9Z" transform="translate(-104.361 -83.807)" fill="#bdcad8"/>
                  </g>
                </g>
              </g>
              <path id="Trazado_705606" data-name="Trazado 705606" d="M102.55,190.134l-1.916-3.16,57.943-35.13,29.317,11.2L237.282,92.8l27.841,35.169,31.59-38.252,42.029,18.354,64.818-51.318,2.295,2.9-66.558,52.7L297.788,94.223,265.062,133.85l-27.6-34.87-48.195,68.547-30.316-11.586Z" transform="translate(-20.134 -11.355)" fill="#df922f"/>
              <path id="Trazado_705607" data-name="Trazado 705607" d="M460.331,60l9.731,11.417,13.74-19.18Z" transform="translate(-92.101 -10.452)" fill="#df922f"/>
              <g id="Grupo_975032" data-name="Grupo 975032" transform="translate(88.561 64.576)" opacity="0.8">
                <g id="Grupo_975031" data-name="Grupo 975031">
                  <g id="Grupo_975030" data-name="Grupo 975030" clip-path="url(#clip-path-9)">
                    <rect id="Rectángulo_349218" data-name="Rectángulo 349218" width="9.584" height="9.584" fill="#bdcad8"/>
                  </g>
                </g>
              </g>
              <path id="Trazado_705608" data-name="Trazado 705608" d="M170.968,87.835H131.753a1.2,1.2,0,0,1-1.2-1.2v-.073a1.2,1.2,0,0,1,1.2-1.2h39.215a1.2,1.2,0,0,1,1.2,1.2v.073a1.2,1.2,0,0,1-1.2,1.2" transform="translate(-26.12 -17.079)" fill="#cfd1d2"/>
              <g id="Grupo_975035" data-name="Grupo 975035" transform="translate(88.561 78.378)" opacity="0.8">
                <g id="Grupo_975034" data-name="Grupo 975034">
                  <g id="Grupo_975033" data-name="Grupo 975033" clip-path="url(#clip-path-9)">
                    <rect id="Rectángulo_349220" data-name="Rectángulo 349220" width="9.584" height="9.584" transform="translate(0 0)" fill="#899bb8"/>
                  </g>
                </g>
              </g>
              <path id="Trazado_705609" data-name="Trazado 705609" d="M170.968,105.09H131.753a1.2,1.2,0,0,1-1.2-1.2v-.073a1.2,1.2,0,0,1,1.2-1.2h39.215a1.2,1.2,0,0,1,1.2,1.2v.073a1.2,1.2,0,0,1-1.2,1.2" transform="translate(-26.12 -20.531)" fill="#cfd1d2"/>
              <path id="Trazado_705610" data-name="Trazado 705610" d="M434.314,224.2H90.787V80.727h2.218V221.984H434.314Z" transform="translate(-18.164 -16.151)" fill="#4d6088"/>
              <g id="Grupo_975038" data-name="Grupo 975038" transform="translate(6.119 344.75)" style="mix-blend-mode: multiply;isolation: isolate">
                <g id="Grupo_975037" data-name="Grupo 975037">
                  <g id="Grupo_975036" data-name="Grupo 975036" clip-path="url(#clip-path-11)">
                    <path id="Trazado_705611" data-name="Trazado 705611" d="M212.882,442.387S166.939,453.8,110.266,453.8,7.649,442.387,7.649,442.387s45.943-11.409,102.617-11.409,102.616,11.409,102.616,11.409" transform="translate(-7.649 -430.978)" fill="#e5e5e6"/>
                  </g>
                </g>
              </g>
              <path id="Trazado_705612" data-name="Trazado 705612" d="M102.9,388.649l-6.794,38.287h-2.46l6.708-55.446h5.59l-2.509,14.141h26.226l-2.326-12.017,4.7-2.571,8.5,58.018h-2.46l-3.224-16.653-18.238,1.723-.238-2.521,17.993-1.7-4.116-21.26Z" transform="translate(-18.736 -74.236)" fill="#434244"/>
              <path id="Trazado_705613" data-name="Trazado 705613" d="M72.417,430.667h-2.46l8.5-58.018,4.7,2.571-2.661,13.75H106.94l-2.232-12.576h5.59l6.708,55.446h-2.46L107.5,392.156H79.872Z" transform="translate(-13.997 -74.558)" fill="#59595b"/>
              <path id="Trazado_705614" data-name="Trazado 705614" d="M78.562,307.289l-8.475-5.559s-7.521-2.409-10.243,5.835c-2.376,7.637-2.361,53.4,9.521,58.063S84.821,345.5,84.821,345.5Z" transform="translate(-11.726 -60.303)" fill="#952f42"/>
              <path id="Trazado_705615" data-name="Trazado 705615" d="M103.456,357.726s-.729-33.04-19-48.831c-22.339-16.953-22.781-.337-16.994,10.631,6.27,12.3,6.725,29.282,1.668,43.783Z" transform="translate(-12.871 -60.35)" fill="#c44e59"/>
              <path id="Trazado_705616" data-name="Trazado 705616" d="M120.51,368.047l12.985,6.031s1.7,5.239-6.427,7.692-48.6-.362-53.758-2.057a7.913,7.913,0,0,1-5.692-6.04s4.617-3.876,14.075-4.3,38.816-1.325,38.816-1.325" transform="translate(-13.529 -73.637)" fill="#952f42"/>
              <path id="Trazado_705617" data-name="Trazado 705617" d="M78.6,367.317c8.906-3.99,21.842-4.964,36.481-3.047,17.638,1.994,26.5,10.667,16.857,13.694s-24.386.394-31.787-2.793-22.828-7.116-27.869-4.388a18.655,18.655,0,0,1,6.318-3.466" transform="translate(-14.463 -72.692)" fill="#af3a4b"/>
              <path id="Trazado_705618" data-name="Trazado 705618" d="M142.693,415.581l-4.207-.755-1.589,1.609L152.6,434.7l1.463-1.533Z" transform="translate(-27.39 -82.996)" fill="#fff"/>
              <path id="Trazado_705619" data-name="Trazado 705619" d="M154.467,431.491l-5.067-5.858-10.517-12.484a96.372,96.372,0,0,1,7.007-6.7l6.817,3.431a16.85,16.85,0,0,0-1.63,3.109c.012.5,3.482,7.527,3.482,7.527q.481.872.835,1.667c3.023,6.817-.927,9.311-.927,9.311" transform="translate(-27.787 -81.32)" fill="#434244"/>
              <path id="Trazado_705620" data-name="Trazado 705620" d="M157.1,435.426l-5.067-5.858s2.423-3.28,5.994-3.453c3.023,6.817-.927,9.311-.927,9.311" transform="translate(-30.418 -85.255)" fill="#59595b"/>
              <path id="Trazado_705621" data-name="Trazado 705621" d="M142.509,444.294l-3.44,2.537.076,2.26,24.062,1.143-.108-2.117Z" transform="translate(-27.824 -88.892)" fill="#fff"/>
              <path id="Trazado_705622" data-name="Trazado 705622" d="M163.065,445.676l-7.737-.346-16.3-.939a96.332,96.332,0,0,1-.055-9.7l7.177-2.594a16.855,16.855,0,0,0,1.139,3.321c.37.333,7.861,2.643,7.861,2.643q.965.252,1.785.539c7.029,2.489,6.127,7.073,6.127,7.073" transform="translate(-27.787 -86.453)" fill="#434244"/>
              <path id="Trazado_705623" data-name="Trazado 705623" d="M167.152,447.3l-7.737-.346s-.718-4.014,1.61-6.727c7.029,2.489,6.127,7.073,6.127,7.073" transform="translate(-31.874 -88.079)" fill="#59595b"/>
              <path id="Trazado_705624" data-name="Trazado 705624" d="M90.8,355.835c2.289,9.126,28.157,24.2,28.157,24.2l9.3,36.756,11.495-.785s-6.193-38.937-7.492-41.941c-.791-3.3-15.039-16.1-16.367-17.3l-.094-.075,2.962,2.671,26.693,10.305-10.733,24.566,8.91,4.988s17.378-30.987,16.964-34.631S118.355,338.8,118.355,338.8l-4.775.716-19.72,2.948s-3.9,10.048-3.061,13.372" transform="translate(-18.143 -67.785)" fill="#434244"/>
              <g id="Grupo_975041" data-name="Grupo 975041" transform="translate(100.623 284.116)" style="mix-blend-mode: multiply;isolation: isolate">
                <g id="Grupo_975040" data-name="Grupo 975040">
                  <g id="Grupo_975039" data-name="Grupo 975039" clip-path="url(#clip-path-12)">
                    <path id="Trazado_705625" data-name="Trazado 705625" d="M152.482,372.945,141.75,397.51l14.236-25.262-26.469-10.986.449-6.084-4.176,7.462Z" transform="translate(-125.79 -355.179)" fill="#cfd1d2"/>
                  </g>
                </g>
              </g>
              <g id="Grupo_975044" data-name="Grupo 975044" transform="translate(72.539 271.73)" style="mix-blend-mode: multiply;isolation: isolate">
                <g id="Grupo_975043" data-name="Grupo 975043">
                  <g id="Grupo_975042" data-name="Grupo 975042" clip-path="url(#clip-path-13)">
                    <path id="Trazado_705626" data-name="Trazado 705626" d="M90.8,356.014c2.289,9.126,28.157,24.2,28.157,24.2l9.3,36.756-6.545-38.234L97.063,355.769s17.5-.462,25.624-9.154c2.844-3.041-1.827-5.284-9.106-6.922l-19.72,2.948s-3.9,10.048-3.061,13.372" transform="translate(-90.683 -339.694)" fill="#cfd1d2"/>
                  </g>
                </g>
              </g>
              <path id="Trazado_705627" data-name="Trazado 705627" d="M139.637,322.833a201.934,201.934,0,0,0-.622-27.377c-3.476-14.042-10.02-1.833-10.387.741-.552,8.04-.628,32.4,3.423,35.53a7.247,7.247,0,0,0,3.207.444c.081-3.181,2.913-6.53,4.38-9.338" transform="translate(-25.681 -57.786)" fill="#fff"/>
              <path id="Trazado_705628" data-name="Trazado 705628" d="M123.8,326.688c.9,2.121,1.852,4.273,1.852,4.327-6.755,8.953-36.235,11.65-36.865,10.889,0,0,4.812-22.571,2.952-32.3,0-.007.038-2.667.061-6.279.07-7.393.138-18.774-.054-19.428a.371.371,0,0,1-.007-.062,58.049,58.049,0,0,1,11.927-6.018v-.007l.392-.138c.63-.215,1.268-.422,1.913-.614.669-.2,1.337-.385,2.013-.538a26.555,26.555,0,0,1,6.655-.807,21.482,21.482,0,0,1,6.548,3.474c.284.215.561.438.838.669.546.438,1.076.9,1.568,1.368.092.084.184.177.277.269a29.351,29.351,0,0,1,5.21,6.194s-.476,10.121-4.134,18.613c-.246,1.03-1.153,3.658-1.384,4.788-.484,2.352-.922,4.85-1.291,7.2q-.092.6-.184,1.176a20.743,20.743,0,0,0,.161,3.136,27.616,27.616,0,0,0,1.553,4.088" transform="translate(-17.764 -55.163)" fill="#4d6088"/>
              <g id="Grupo_975047" data-name="Grupo 975047" transform="translate(71.023 245.719)" style="mix-blend-mode: multiply;isolation: isolate">
                <g id="Grupo_975046" data-name="Grupo 975046">
                  <g id="Grupo_975045" data-name="Grupo 975045" clip-path="url(#clip-path-14)">
                    <path id="Trazado_705629" data-name="Trazado 705629" d="M125.652,337.311c-6.755,8.953-36.235,11.65-36.865,10.889,0,0,4.811-22.571,2.951-32.3,0-.007.038-2.667.062-6.279,1.229-1.1,2.713-2.444,2.713-2.444s-.623,16.138,10.352,23.155c6.624,4.234,14.071,3.727,18.936,2.651.9,2.121,1.852,4.273,1.852,4.327" transform="translate(-88.787 -307.178)" fill="#e5e5e6"/>
                  </g>
                </g>
              </g>
              <path id="Trazado_705630" data-name="Trazado 705630" d="M126.261,276.992s1.238,9.785-4.8,8.994S109.9,274.852,109.9,274.852l1.165-3.015,1.55-4.921,1.893-5.993,4.557,7.477,6.24-.17.179,1.657.406,3.717Z" transform="translate(-21.988 -52.204)" fill="#e5b7ac"/>
              <path id="Trazado_705631" data-name="Trazado 705631" d="M129.164,280.394l-4.816,9.488,5.232,5.57,1.813-12.988Z" transform="translate(-24.879 -56.1)" fill="#fff"/>
              <path id="Trazado_705632" data-name="Trazado 705632" d="M109.5,276.442l11.17,12.649-4.517,6.466-10.172-17.522Z" transform="translate(-21.205 -55.309)" fill="#fff"/>
              <g id="Grupo_975050" data-name="Grupo 975050" transform="translate(89.963 210.192)" opacity="0.5">
                <g id="Grupo_975049" data-name="Grupo 975049">
                  <g id="Grupo_975048" data-name="Grupo 975048" clip-path="url(#clip-path-15)">
                    <path id="Trazado_705633" data-name="Trazado 705633" d="M126.471,275.52c-.947-.049-6.723.254-14.006-6.128l2.033-6.627,4.754,7.8,6.511-.178.186,1.729Z" transform="translate(-112.464 -262.765)" fill="#ca7e86"/>
                  </g>
                </g>
              </g>
              <path id="Trazado_705634" data-name="Trazado 705634" d="M120.854,242.817l0-.006s-7.966-.542-10.342,9.356c0,0-1.327,6.363,2.179,11.673,0,0,6.707,6.657,13.342,7.686,4.626.56,7.746-8.047,6.314-15.993-1.356-7.517-6.383-12.972-11.49-12.716" transform="translate(-22.061 -48.58)" fill="#e5b7ac"/>
              <path id="Trazado_705635" data-name="Trazado 705635" d="M125.483,261.646c.129,1.217-.063,2.236-.429,2.274s-.767-.917-.9-2.133.062-2.236.429-2.275.767.917.9,2.134" transform="translate(-24.833 -51.922)" fill="#383838"/>
              <path id="Trazado_705636" data-name="Trazado 705636" d="M135.29,260.477c.121,1.145-.045,2.1-.37,2.137s-.687-.866-.808-2.012.043-2.1.369-2.137.686.866.809,2.012" transform="translate(-26.825 -51.712)" fill="#383838"/>
              <path id="Trazado_705637" data-name="Trazado 705637" d="M111.69,264.407l.641,3.554c-2.811,1.623-5.811-.9-6.7-3.238-.445-1.181-.352-2.315.564-2.865,1.94-1.147,3.871.593,4.842,1.716a8.551,8.551,0,0,1,.65.833" transform="translate(-21.083 -52.316)" fill="#e5b7ac"/>
              <g id="Grupo_975053" data-name="Grupo 975053" transform="translate(84.292 209.166)" opacity="0.5">
                <g id="Grupo_975052" data-name="Grupo 975052">
                  <g id="Grupo_975051" data-name="Grupo 975051" clip-path="url(#clip-path-16)">
                    <path id="Trazado_705638" data-name="Trazado 705638" d="M111.039,263.574l-.37,0a3.6,3.6,0,0,0-2.909-.65,2.437,2.437,0,0,0-2.127,1.8c-.445-1.181-.352-2.315.564-2.865,1.94-1.147,3.871.593,4.842,1.716" transform="translate(-105.375 -261.482)" fill="#ca7e86"/>
                  </g>
                </g>
              </g>
              <path id="Trazado_705639" data-name="Trazado 705639" d="M107.986,264.329a4.3,4.3,0,0,1,3.708,1.337.179.179,0,0,1-.013.252.179.179,0,0,1-.252-.012,4.628,4.628,0,0,0-1.481-1.009c-.639.6-.046,1.762-.039,1.775a.179.179,0,0,1-.074.241.183.183,0,0,1-.052.018.177.177,0,0,1-.189-.092c-.03-.057-.654-1.275-.01-2.071a3.114,3.114,0,0,0-1.475-.1l-.054.01a.176.176,0,0,1-.21-.141.178.178,0,0,1,.14-.21" transform="translate(-21.577 -52.873)" fill="#ca7e86"/>
              <path id="Trazado_705640" data-name="Trazado 705640" d="M121.014,265.569c.006.172-.413.328-.936.347s-.952-.1-.958-.277.412-.328.935-.347.953.1.959.277" transform="translate(-23.833 -53.078)" fill="#ca7e86"/>
              <path id="Trazado_705641" data-name="Trazado 705641" d="M121.374,266.848c-.054-.164-.5-.163-1,0s-.855.43-.8.594.5.163,1,0,.856-.43.8-.594" transform="translate(-23.923 -53.365)" fill="#ca7e86"/>
              <path id="Trazado_705642" data-name="Trazado 705642" d="M137.246,264.011c-.006-.172.413-.328.936-.347s.952.1.958.277-.412.328-.935.347-.953-.1-.959-.277" transform="translate(-27.46 -52.752)" fill="#ca7e86"/>
              <path id="Trazado_705643" data-name="Trazado 705643" d="M136.908,262.678c.054.164.5.163,1,0s.855-.431.8-.594-.5-.163-1,0-.856.43-.8.594" transform="translate(-27.391 -52.412)" fill="#ca7e86"/>
              <path id="Trazado_705644" data-name="Trazado 705644" d="M130.331,265.447l.064-.014c.259-.07.84-.408.619-2.006a13.716,13.716,0,0,0-1.07-4.033.178.178,0,1,0-.318.162,13.7,13.7,0,0,1,1.033,3.92c.149,1.077-.088,1.539-.36,1.613-.4.113-1.132-.469-1.6-1.6a.18.18,0,0,0-.234-.1.178.178,0,0,0-.1.234c.494,1.186,1.308,1.934,1.961,1.817" transform="translate(-25.681 -51.879)" fill="#ca7e86"/>
              <path id="Trazado_705645" data-name="Trazado 705645" d="M129.625,269.954a5.24,5.24,0,0,1-3.952-1.774.157.157,0,0,1,.242-.2,5.012,5.012,0,0,0,3.7,1.66,4.008,4.008,0,0,0,3.24-1.889.157.157,0,0,1,.214-.062.156.156,0,0,1,.062.213,4.265,4.265,0,0,1-3.5,2.052" transform="translate(-25.137 -53.554)" fill="#ca7e86"/>
              <path id="Trazado_705646" data-name="Trazado 705646" d="M135.709,256.408a.476.476,0,0,1-.5-.238,2.57,2.57,0,0,0-1.383-1.111,2.353,2.353,0,0,0-1.819.334.476.476,0,0,1-.473-.826,3.266,3.266,0,0,1,2.557-.422,3.514,3.514,0,0,1,1.95,1.565.475.475,0,0,1-.187.646.468.468,0,0,1-.145.051" transform="translate(-26.269 -50.827)" fill="#383838"/>
              <path id="Trazado_705647" data-name="Trazado 705647" d="M120.2,259.828a.534.534,0,0,1-.625-.6,3.964,3.964,0,0,1,1.442-2.419,3.673,3.673,0,0,1,2.862-.559.535.535,0,1,1-.174,1.057,2.65,2.65,0,0,0-2.057.367,2.912,2.912,0,0,0-1.014,1.709.535.535,0,0,1-.434.449" transform="translate(-23.923 -51.254)" fill="#383838"/>
              <path id="Trazado_705648" data-name="Trazado 705648" d="M126.877,243.727c-2.883-.975-6.926-1.525-8.962-3.847a13.9,13.9,0,0,1-1.608-2.265l-.07,0A11.622,11.622,0,0,1,106.03,244c-.128,0-.253-.016-.381-.02-.157.158-1.086-.094-1.783,1.038-1.142,1.733,2.111,10.24,2.734,11.755,2.039-.419,3.558,1.408,3.852,1.809a20.374,20.374,0,0,0,2.123,4.552,44.541,44.541,0,0,0-.965-8.124c1.065-.447,3.113-3.344,2.713-6.011a92.817,92.817,0,0,0,15.219-2.1c-.621-2.626-1.611-1.3-2.666-3.173" transform="translate(-20.733 -47.541)" fill="#383838"/>
              <path id="Trazado_705649" data-name="Trazado 705649" d="M106.521,246.116s-4.692-7.99,9.934-10.125,18.385,6.815,14.224,11.757Z" transform="translate(-21.169 -47.151)" fill="#383838"/>
              <path id="Trazado_705650" data-name="Trazado 705650" d="M132.731,248.6c.09.206.712,3.683-7.645,5.06a10.32,10.32,0,0,0,1.537-1.921s-6.712,3.747-11.944.628a4.941,4.941,0,0,1,.928-1.429c2.327-1.505,16.849-5.108,17.124-2.337" transform="translate(-22.944 -49.536)" fill="#383838"/>
              <path id="Trazado_705651" data-name="Trazado 705651" d="M121.912,335.706a24.149,24.149,0,0,0-3.228-.585l2.678-.925s1.359.984,2.973,2.041c1.769.74.822-.586.63-1.174s-3.6-3.117-4.205-2.957-2.975,1.083-4.176,1.419a25.977,25.977,0,0,0-3.424,1.6c-3.369-.622-13.341-2.782-20.808-4.505-2.649,2.208-4.724,4.372-7.83,5.5.029.053-.031.115,0,.163,2.781,2.867,17.163,4.079,28.455,3.788.1.058.194.119.307.174,3.035,1.5,5.4-.943,5.65-.869s1.87,2.357,2.734,2.027c.389-.21.279-1.032.279-1.032.939.959,1.383.928,1.574.585s-.308-1.187-.308-1.187c.6.8,1.862.689,1.917.094s-2.641-3.9-3.218-4.158" transform="translate(-16.909 -66.148)" fill="#e5b7ac"/>
              <path id="Trazado_705652" data-name="Trazado 705652" d="M116.239,336.611l.027,2.32s11.8,1.065,12.316,1.1,33.469,1.117,35.282,0c.45-.277,1.554-4.418,2.291-6.581,2.335-6.826,5.129-19.254,4.323-20.208-1.327-1.076-27.345-1.791-34.9-.674-1.045.153-.832-.042-1.045.153-1.41,1.146-5.523,23.106-6.137,23.612-.566.458-12.158.27-12.158.27" transform="translate(-23.257 -62.426)" fill="#434244"/>
              <path id="Trazado_705653" data-name="Trazado 705653" d="M159.8,326.988a1.545,1.545,0,0,0-.228-1.817,1.832,1.832,0,0,1,1.26-.321c1.366.186,2.236,2.078,1.942,4.224s-1.638,3.736-3,3.549-2.236-2.078-1.943-4.225c.008-.059.02-.116.03-.175a2.409,2.409,0,0,0,1.943-1.235" transform="translate(-31.567 -64.991)" fill="#f0f1f1"/>
              <g id="Grupo_975056" data-name="Grupo 975056" transform="translate(67.031 250.728)" opacity="0.5">
                <g id="Grupo_975055" data-name="Grupo 975055">
                  <g id="Grupo_975054" data-name="Grupo 975054" clip-path="url(#clip-path-17)">
                    <path id="Trazado_705654" data-name="Trazado 705654" d="M94.554,314.153l-.335,1.9L83.8,313.44Z" transform="translate(-83.797 -313.44)" fill="#ca7e86"/>
                  </g>
                </g>
              </g>
              <path id="Trazado_705655" data-name="Trazado 705655" d="M94.858,299.091c.288-9.03-4.4-13.144-4.4-13.144-2.509,1.289-8,4.193-8,21.928,0,0-.6,17.249,1.049,19.843s10.037,3,10.037,3,.277-5.829,2.149-9.036L92.462,320.5s3.025-16.939,2.4-21.412" transform="translate(-16.477 -57.211)" fill="#fff"/>
              <path id="Trazado_705656" data-name="Trazado 705656" d="M26.611,428.281l24.883-79.06h6.537l-28.113,79.06Z" transform="translate(-5.324 -69.871)" fill="#59595b"/>
              <path id="Trazado_705657" data-name="Trazado 705657" d="M234.376,428.281l-24.883-79.06h-6.537l28.113,79.06Z" transform="translate(-40.607 -69.871)" fill="#59595b"/>
              <path id="Trazado_705658" data-name="Trazado 705658" d="M29.508,345.6H188.553a2.9,2.9,0,1,1,0,5.795H29.508a2.9,2.9,0,1,1,0-5.795" transform="translate(-5.324 -69.146)" fill="#fff"/>
              <g id="Grupo_975059" data-name="Grupo 975059" transform="translate(170.966 186.735)" style="mix-blend-mode: multiply;isolation: isolate">
                <g id="Grupo_975058" data-name="Grupo 975058">
                  <g id="Grupo_975057" data-name="Grupo 975057" clip-path="url(#clip-path-18)">
                    <path id="Trazado_705659" data-name="Trazado 705659" d="M316.716,239.548V328.99a6.1,6.1,0,0,1-6.107,6.1H219.834a6.1,6.1,0,0,1-6.107-6.1V239.548a6.107,6.107,0,0,1,6.107-6.107h90.775a6.107,6.107,0,0,1,6.107,6.107" transform="translate(-213.728 -233.441)" fill="#e5e5e6"/>
                  </g>
                </g>
              </g>
              <path id="Trazado_705660" data-name="Trazado 705660" d="M326.716,229.548V318.99a6.1,6.1,0,0,1-6.107,6.1H229.834a6.1,6.1,0,0,1-6.107-6.1V229.548a6.107,6.107,0,0,1,6.107-6.107h90.775a6.107,6.107,0,0,1,6.107,6.107" transform="translate(-44.762 -44.705)" fill="#fff"/>
              <path id="Trazado_705661" data-name="Trazado 705661" d="M326.716,229.548v5.43H223.727v-5.43a6.107,6.107,0,0,1,6.107-6.107h90.775a6.107,6.107,0,0,1,6.107,6.107" transform="translate(-44.762 -44.705)" fill="#b0e0dc"/>
              <path id="Trazado_705662" data-name="Trazado 705662" d="M234.019,230.131a2.085,2.085,0,1,1-2.085-2.085,2.085,2.085,0,0,1,2.085,2.085" transform="translate(-45.987 -45.626)" fill="#fff"/>
              <path id="Trazado_705663" data-name="Trazado 705663" d="M243.99,230.131a2.085,2.085,0,1,1-2.085-2.085,2.085,2.085,0,0,1,2.085,2.085" transform="translate(-47.982 -45.626)" fill="#fff"/>
              <path id="Trazado_705664" data-name="Trazado 705664" d="M253.962,230.131a2.085,2.085,0,1,1-2.085-2.085,2.085,2.085,0,0,1,2.085,2.085" transform="translate(-49.977 -45.626)" fill="#fff"/>
              <path id="Trazado_705665" data-name="Trazado 705665" d="M277.5,278.827l11.234-28.458a30.581,30.581,0,1,0,18.932,23.385Z" transform="translate(-49.402 -49.667)" fill="#6d6e70"/>
              <path id="Trazado_705666" data-name="Trazado 705666" d="M321.969,269.493a30.629,30.629,0,0,0-18.932-23.385L291.8,274.566Z" transform="translate(-58.383 -49.24)" fill="#a5a6a9"/>
              <rect id="Rectángulo_349230" data-name="Rectángulo 349230" width="4.576" height="4.576" transform="translate(198.064 268.292)" fill="#6d6e70"/>
              <path id="Trazado_705667" data-name="Trazado 705667" d="M276.36,338.791H257.668a.59.59,0,1,1,0-1.181H276.36a.59.59,0,0,1,0,1.181" transform="translate(-51.435 -67.547)" fill="#cfd1d2"/>
              <rect id="Rectángulo_349231" data-name="Rectángulo 349231" width="4.576" height="4.577" transform="translate(235.405 268.364)" fill="#a5a6a9"/>
              <path id="Trazado_705668" data-name="Trazado 705668" d="M323.041,338.882H304.349a.59.59,0,1,1,0-1.181h18.692a.59.59,0,0,1,0,1.181" transform="translate(-60.775 -67.566)" fill="#cfd1d2"/>
              <g id="Grupo_975062" data-name="Grupo 975062" transform="translate(354.83 77.003)" style="mix-blend-mode: multiply;isolation: isolate">
                <g id="Grupo_975061" data-name="Grupo 975061">
                  <g id="Grupo_975060" data-name="Grupo 975060" clip-path="url(#clip-path-19)">
                    <path id="Trazado_705669" data-name="Trazado 705669" d="M536.762,102.806v95.808a6.539,6.539,0,0,1-6.543,6.539h-80.1a6.539,6.539,0,0,1-6.543-6.539V102.806a6.542,6.542,0,0,1,6.543-6.543h80.1a6.542,6.542,0,0,1,6.543,6.543" transform="translate(-443.579 -96.263)" fill="#e5e5e6"/>
                  </g>
                </g>
              </g>
              <path id="Trazado_705670" data-name="Trazado 705670" d="M546.762,92.806v95.808a6.539,6.539,0,0,1-6.543,6.539h-80.1a6.539,6.539,0,0,1-6.543-6.539V92.806a6.542,6.542,0,0,1,6.543-6.543h80.1a6.542,6.542,0,0,1,6.543,6.543" transform="translate(-90.75 -17.259)" fill="#fff"/>
              <path id="Trazado_705671" data-name="Trazado 705671" d="M546.762,92.806v5.816H453.579V92.806a6.542,6.542,0,0,1,6.543-6.543h80.1a6.542,6.542,0,0,1,6.543,6.543" transform="translate(-90.75 -17.259)" fill="#b0e0dc"/>
              <path id="Trazado_705672" data-name="Trazado 705672" d="M464.6,93.429A2.233,2.233,0,1,1,462.37,91.2a2.233,2.233,0,0,1,2.233,2.233" transform="translate(-92.062 -18.246)" fill="#fff"/>
              <path id="Trazado_705673" data-name="Trazado 705673" d="M475.285,93.429a2.233,2.233,0,1,1-2.233-2.233,2.233,2.233,0,0,1,2.233,2.233" transform="translate(-94.199 -18.246)" fill="#fff"/>
              <path id="Trazado_705674" data-name="Trazado 705674" d="M485.966,93.429a2.233,2.233,0,1,1-2.233-2.233,2.233,2.233,0,0,1,2.233,2.233" transform="translate(-96.336 -18.246)" fill="#fff"/>
              <rect id="Rectángulo_349233" data-name="Rectángulo 349233" width="6.311" height="29.167" transform="translate(371.167 136.804)" fill="#4d6088"/>
              <rect id="Rectángulo_349234" data-name="Rectángulo 349234" width="6.311" height="40.082" transform="translate(382.866 125.888)" fill="#df922f"/>
              <rect id="Rectángulo_349235" data-name="Rectángulo 349235" width="6.311" height="51.453" transform="translate(394.566 114.517)" fill="#4d6088"/>
              <rect id="Rectángulo_349236" data-name="Rectángulo 349236" width="6.311" height="42.522" transform="translate(406.266 123.448)" fill="#df922f"/>
              <rect id="Rectángulo_349237" data-name="Rectángulo 349237" width="6.311" height="62.675" transform="translate(417.965 103.296)" fill="#4d6088"/>
              <rect id="Rectángulo_349238" data-name="Rectángulo 349238" width="6.311" height="53.401" transform="translate(429.664 112.57)" fill="#df922f"/>
              <rect id="Rectángulo_349239" data-name="Rectángulo 349239" width="6.311" height="77.062" transform="translate(441.364 88.908)" fill="#4d6088"/>
              <line id="Línea_667" data-name="Línea 667" x1="15.869" y2="16.439" transform="translate(50.425 106.113)" fill="#6d6e70"/>
              <path id="Trazado_705679" data-name="Trazado 705679" d="M390.588,249.751s16.27-7.338,28.546-5.891,13.18,5.093,13.18,5.093,1.045,2.447-3.444,2.684a13.847,13.847,0,0,1-4.744,6.585c-2.883,2.249-21.03,12.4-34.855-1.339-1.356-1.347-2.65-4.488,1.316-7.132" transform="translate(-77.616 -48.753)" fill="#d6cabd"/>
              <path id="Trazado_705680" data-name="Trazado 705680" d="M382.352,264.852s4.011,10.97,20.319,13.392c16.326,2.419,28.635-10.212,32.951-21.324,6.583-16.934-5.855-17.017-10.6-15.642-5.971,1.727-15.081,5.313-20.519,3.5s-26.568.322-22.152,20.075" transform="translate(-76.379 -48.167)" fill="#f1d3ae"/>
              <path id="Trazado_705681" data-name="Trazado 705681" d="M453.7,245.52s1.321-5.168-4.483-5.352a4.121,4.121,0,0,0-4.678-3.966s-1.272-4.285-5.787-2.11c0,0-4.216-2.809-6.255,1.18s-.445,6.777-4.755,8.968l15.314,11.426s3.322-6.013,6.055-7.246,3.566-1.086,4.589-2.9" transform="translate(-85.581 -46.644)" fill="#e3ddce"/>
              <path id="Trazado_705682" data-name="Trazado 705682" d="M392.946,260.12s-3.133,14.02,9.766,15.931,33.834-5.994,32.35-22.205c-1.294-14.117-4.627-13.451-8.382-12.368-4.716,1.367-11.92,4.2-16.22,2.767s-21.008.255-17.514,15.875" transform="translate(-78.523 -48.212)" fill="#e9ded1"/>
              <path id="Trazado_705683" data-name="Trazado 705683" d="M448.1,244.674s.978-3.832-3.327-3.963a3.054,3.054,0,0,0-3.467-2.941s-.938-3.177-4.293-1.564c0,0-3.122-2.083-4.628.875s-.333,5.024-3.532,6.649l11.354,8.47s2.461-4.46,4.488-5.374,2.645-.806,3.405-2.153" transform="translate(-85.803 -47.116)" fill="#f9f3ea"/>
              <path id="Trazado_705684" data-name="Trazado 705684" d="M445,247.582s.983-3.83-3.322-3.968a3.052,3.052,0,0,0-3.466-2.937s-.938-3.18-4.293-1.566c0,0-3.122-2.085-4.633.875s-3.821,2.566-5.132,6.766c-1.272,4.08,12.96,8.351,12.96,8.351s2.461-4.46,4.488-5.372,2.645-.808,3.4-2.149" transform="translate(-84.847 -47.697)" fill="#e9ded1"/>
              <path id="Trazado_705685" data-name="Trazado 705685" d="M402.671,279.623c-16.308-2.422-20.319-13.392-20.319-13.392-2.339-10.465,2.494-15.983,8.36-18.594,2.294,1.591,8.532,6.115,5.621,10.932-6.638,10.993-2.666,20.341,6.055,16.53,12.07-5.272,15.136-1.477,20.491-3.249s1.777-14.784,9.788-18.158c2.361-.994,6.61-2.005,3.838,2.061-.244.806-.534,1.647-.883,2.547-4.316,11.113-16.625,23.743-32.951,21.324" transform="translate(-76.379 -49.546)" fill="#d6cabd"/>
              <path id="Trazado_705686" data-name="Trazado 705686" d="M389.213,226.773s-23.585,20.436-6.632,38.272c0,0,2.549,2.6,6.632-3.447s5.16-6.287,9.51-7.5,9.893-4.88,9.076-8.515c-1.161-5.185-8.8-19.291-14.786-20.019,0,0-2.684.144-3.8,1.208" transform="translate(-75.318 -45.13)" fill="#f9f3ea"/>
              <path id="Trazado_705687" data-name="Trazado 705687" d="M407.413,258.675s13.176-9.657,25.479-12.876c11.876-3.111,14.264,1.541,14.264,1.541s1.783,2.077-2.444,3.447c0,0,.839,5.291-1.833,9.068-2.044,2.889-16.591,16.73-34.244,7.063a5.472,5.472,0,0,1-1.222-8.243" transform="translate(-81.237 -48.964)" fill="#d6cabd"/>
              <path id="Trazado_705688" data-name="Trazado 705688" d="M387.939,261.415c-3.916,5.363-6.132,2.936-6.132,2.936-10.837-12.254-2.433-24.538,3.132-30.5,5.322-2.108,3.249,3.547,9.054,10.771a8.369,8.369,0,0,1-.789,11.393,24.734,24.734,0,0,0-5.266,5.4" transform="translate(-75.339 -46.699)" fill="#e9ded1"/>
              <path id="Trazado_705689" data-name="Trazado 705689" d="M405.923,259.825c.944-1.189,3.216-2.808,6.31-4.827.006-.006,26.413-15.048,28.979-7.522.578,1.692-2.1,4.756-5.027,6.391s2.894,3.549-.428,7.482c-2.655,3.15-11.1,11.057-26.5,6.313a8.858,8.858,0,0,1-1.266-.6c-1.5-.82-4.522-4.133-2.072-7.235" transform="translate(-81.03 -49.092)" fill="#f9f3ea"/>
              <path id="Trazado_705690" data-name="Trazado 705690" d="M405.662,260.619a21.934,21.934,0,0,1,4.5-3.441c0-.006,18.841-10.74,20.68-5.363.411,1.2-1.5,3.385-3.589,4.555s2.061,2.53-.306,5.34c-1.894,2.245-7.921,7.885-18.908,4.5a7.142,7.142,0,0,1-.906-.428c-1.066-.586-3.222-2.953-1.472-5.166" transform="translate(-81.031 -50.08)" fill="#e9ded1"/>
              <path id="Trazado_705691" data-name="Trazado 705691" d="M405.889,255.456c-.538-5.094,2.738-6.4,2.228-14.051-.328-4.966-1.889-6.51-.873-6.965a34.644,34.644,0,0,1,6.433,12.92,3.764,3.764,0,0,1-.394,2.549c-.5.711-1.066,1.431-1.656,2.128a17.611,17.611,0,0,1-5.738,3.419" transform="translate(-81.196 -46.906)" fill="#d6cabd"/>
              <path id="Trazado_705692" data-name="Trazado 705692" d="M393.353,220.786a12.527,12.527,0,0,0-12.259,2.283c-3.733,3.4,1.244,8.415,1.244,8.415s.667.366,3.233-.3l-.617,1.4s11.409,2.725,15.925-2.108c0,0-1.077-6.938-7.526-9.7" transform="translate(-75.97 -44.031)" fill="#f9f3ea"/>
              <path id="Trazado_705693" data-name="Trazado 705693" d="M390,231.226c2.156-1.83,1.833,2.63.25,3.813s.016,7-5.211,7.866c-1.477.244-5.421-.278-4.666-3.3,0,0-.9-2.41.7-3.86a8.192,8.192,0,0,1,5.039-3.119s1.761.417,3.888-1.4" transform="translate(-76.052 -46.176)" fill="#d6cabd"/>
              <path id="Trazado_705694" data-name="Trazado 705694" d="M382.966,222.283c-.711.308-2.433,1.3-2.533-.114s1.549-7.132,4.777-8.16a2.918,2.918,0,0,1,3.144,1s1.7-.791,3.249,1.225a4.856,4.856,0,0,0,3.055,1.73c2.605.778,1.783,2.555,1.277,3.21-.761,1-2.994-.15-6.043-.15a15.118,15.118,0,0,0-6.927,1.255" transform="translate(-76.115 -42.79)" fill="#d84a45"/>
              <path id="Trazado_705695" data-name="Trazado 705695" d="M389.892,221.6a15.117,15.117,0,0,0-6.927,1.255c-.711.309-2.433,1.3-2.533-.114a10.331,10.331,0,0,1,.889-3.63,5.762,5.762,0,0,1,2.761-2.208,3.216,3.216,0,0,1,3.461,1.1s1.877-.869,3.576,1.35c1.028,1.349,2.061,1.513,3.36,1.9a3.769,3.769,0,0,1,1.311.65c-.883.714-3.027-.3-5.9-.3" transform="translate(-76.114 -43.367)" fill="#ca2a21"/>
              <path id="Trazado_705696" data-name="Trazado 705696" d="M386.586,226.253a1.818,1.818,0,1,0,1.805-1.605,1.712,1.712,0,0,0-1.805,1.605" transform="translate(-77.346 -44.947)" fill="#c6b3b0"/>
              <path id="Trazado_705697" data-name="Trazado 705697" d="M387.711,227.455a.909.909,0,1,0,.906-.8.858.858,0,0,0-.906.8" transform="translate(-77.571 -45.348)" fill="#938584"/>
              <path id="Trazado_705698" data-name="Trazado 705698" d="M389.725,231.211c2.156-1.83.489,1.913-1.094,3.1s.894,6.347-4.327,7.219c-1.483.245-5.543-.242-4.788-3.264,0,0-1.655-1.8-.061-3.246a8.208,8.208,0,0,1,5.038-3.122s3.105,1.133,5.232-.683" transform="translate(-75.781 -46.161)" fill="#d84a45"/>
              <path id="Trazado_705699" data-name="Trazado 705699" d="M384.939,230.311c-.611-.736-2.311-1.964-3.694-1.619s-1.783,4.432-1.555,5.613c0,0,2.549-2.145,4.211-2.513s1.327-1.125,1.038-1.481" transform="translate(-75.955 -45.744)" fill="#e8b334"/>
              <path id="Trazado_705700" data-name="Trazado 705700" d="M384.953,230.6c.289.355.617,1.113-1.038,1.481s-4.211,2.513-4.211,2.513c0-.022-.006-.047-.006-.07.222-1.022,1.266-1.994,2.083-3a5.926,5.926,0,0,1,2.617-1.461,4.4,4.4,0,0,1,.555.536" transform="translate(-75.968 -46.03)" fill="#d29d2c"/>
              <path id="Trazado_705701" data-name="Trazado 705701" d="M388.637,234.309c-1.589,1.181.894,6.347-4.327,7.219-1.484.244-5.544-.242-4.788-3.264a3.2,3.2,0,0,1-.734-1.525,6.074,6.074,0,0,1,1.317-.43c2.133-.158,1.555.474,3.383,1.6,1.972,1.217,2.549-1.609,2.438-3.186a3.85,3.85,0,0,1,1.505-2.53,4.309,4.309,0,0,0,2.3-.98c2.155-1.83.489,1.913-1.094,3.1" transform="translate(-75.786 -46.161)" fill="#ca2a21"/>
              <path id="Trazado_705702" data-name="Trazado 705702" d="M457.338,308.336s-4.744,7.515-9.532,6.585-5.438-1.957-3.405-3.244,7.371-4.955,6.355-5.285c-1.016-.353-3.266.153-3.027-.817.238-1,7-2.286,7-2.286l4.711,2.295Z" transform="translate(-88.696 -60.681)" fill="#e9a783"/>
              <path id="Trazado_705703" data-name="Trazado 705703" d="M462.731,240.772s-.906-8.474,7.259-8.618c8.654-.158,6.71,17.894,6.71,17.894s-.422,15.617-1.972,20.45c-2.071,6.449-13.531,23.115-13.531,23.115s-5.1-1.194-6.588-4.827c0,0,9.038-15.742,9.843-21.724.872-6.519-1.933-24.868-1.721-26.29" transform="translate(-90.956 -46.448)" fill="#c6814a"/>
              <path id="Trazado_705704" data-name="Trazado 705704" d="M461.2,293.527s11.46-16.667,13.531-23.116c1.549-4.832,1.971-20.449,1.971-20.449s3.094-17.406-6.676-18.205c-3.96-.325-4.628,1.361-5.571,2.647,6.294.375,6.915,4.577,6.332,13.939-.65,10.157.683,13.04.106,21.727s-9.753,17.126-11.149,19.175c-.933,1.349-3.138-.3-4.56-1.583-.366.658-.572,1.039-.572,1.039,1.489,3.632,6.588,4.827,6.588,4.827" transform="translate(-90.956 -46.36)" fill="#d29d68"/>
              <path id="Trazado_705705" data-name="Trazado 705705" d="M471.637,294.185a38.07,38.07,0,0,0-.838-5.358c-.022-.091-.045-.163-.067-.244-1.133-5.715-2.805-7.61-2.805-7.61-2.277-6.23-3.955-10.026-2.938-17.947.506-4.036,4.149-16.094,3.677-25.015S458.55,229.2,443.03,235.48,429.8,251.236,429.8,251.236c1.921,9.545,5.655,11.1,2.589,35.041-.311,1.236-.311,1.236-1.7,10.96-2.383,16.622,38.527,8.543,40.943-3.053" transform="translate(-85.97 -46.219)" fill="#b6723a"/>
              <path id="Trazado_705706" data-name="Trazado 705706" d="M474.943,433.7c22.167,5.771,22.288,15.122.268,20.89s-57.834,5.77-80.007,0-22.279-15.119-.254-20.89,57.829-5.77,79.992,0" transform="translate(-75.73 -85.907)" fill="#9f0c0b"/>
              <path id="Trazado_705707" data-name="Trazado 705707" d="M461.47,431.593c-.294.066-15.275-.445-11.92,5.16a8.309,8.309,0,0,0,7.4,4.341c2.227.058,6.338-1.258,7.348-.589,1.017.647,6.083,4.16,8.994.633a5.6,5.6,0,0,0,.594-4.113c-.389-1.313-10.76-5.749-12.415-5.432" transform="translate(-89.846 -86.348)" fill="#e4c747"/>
              <path id="Trazado_705708" data-name="Trazado 705708" d="M449.55,437.171a8.308,8.308,0,0,0,7.4,4.341c2.227.058,6.338-1.258,7.348-.589,1.017.647,6.083,4.16,8.993.633a4.181,4.181,0,0,0,.678-2.016c-2.011,2.991-6.988,2.18-8.382,1.174a7.833,7.833,0,0,0-5.8-1.272c-1.961.4-6.21-.086-8.343-2.149a3.556,3.556,0,0,1-.972-3.63,2.25,2.25,0,0,0-.917,3.508" transform="translate(-89.846 -86.765)" fill="#d29d34"/>
              <path id="Trazado_705709" data-name="Trazado 705709" d="M474.046,296.685s9.565,12.595-1,36.058c-2.544,5.649-6.082,15.579-4.777,21.7,1.589,7.36,3.894,5.282,5.566,29.631,1.483,21.516,1.217,16.854,1.7,25.569.15,2.491-11.165,3.4-12.536-.456-6.022-16.85-12.232-50.492-10.543-69.964,1.7-19.472,1.666-34.089,1.666-34.089s15.842-2.133,19.925-8.449" transform="translate(-90.469 -59.359)" fill="#c0a995"/>
              <path id="Trazado_705710" data-name="Trazado 705710" d="M425.814,443.949c-.294,0-15.77-3.449-13.231,3.016a9.011,9.011,0,0,0,6.954,5.935c2.305.5,6.777-.058,7.721.825s5.616,5.513,9.21,2.417a5.748,5.748,0,0,0,1.311-4.147c-.178-1.43-10.182-8.057-11.965-8.046" transform="translate(-82.492 -88.639)" fill="#e4c747"/>
              <path id="Trazado_705711" data-name="Trazado 705711" d="M412.584,447.087a9.013,9.013,0,0,0,6.955,5.935c2.3.5,6.776-.058,7.721.825s5.615,5.513,9.21,2.417a4.422,4.422,0,0,0,1.062-1.953c-2.605,2.685-7.638.88-8.9-.42a8.382,8.382,0,0,0-5.8-2.449c-2.117.039-6.432-1.3-8.294-3.863a3.759,3.759,0,0,1-.394-3.941c-1.494.522-2.289,1.566-1.549,3.449" transform="translate(-82.492 -88.761)" fill="#d29d34"/>
              <path id="Trazado_705712" data-name="Trazado 705712" d="M460.413,303.431s9.421,11.085-8.954,38.728c0,0-8.926,19.657-8.6,25.946.361,7.538,2.683,8.149.428,32.864-1.872,20.464-1.445,19.638-2.194,23.194-.534,2.519-11.426.474-11.737-3.333-1.627-20.91-7.015-53.628-5.116-73.075,2.166-22.354,6.221-42.548,6.221-42.548s19.453,2.669,29.951-1.775" transform="translate(-84.8 -60.709)" fill="#e1d2bc"/>
              <path id="Trazado_705713" data-name="Trazado 705713" d="M471.263,287.21s-5.766-9.637-3.044-24.879,2.483-12.915-1.456-12.828c-5.532.122-15.053,2.141-20.546,7.651-5.355,5.377,6.027,34.439-7.954,37.716,0,0,25,4.866,33-7.66" transform="translate(-87.686 -49.884)" fill="#e1d2bc"/>
              <path id="Trazado_705714" data-name="Trazado 705714" d="M444.631,258.722s4.421-14.383-8.354-17.192c0,0,1.266-1.313,1.85-1.8a6.53,6.53,0,0,1,3.783-1.774s9.315,3,9.032,16.8Z" transform="translate(-87.288 -47.609)" fill="#e1d2bc"/>
              <path id="Trazado_705715" data-name="Trazado 705715" d="M471.385,249.59s1.6-8.538-6.888-18.428a9.373,9.373,0,0,1,4.588-.219s8.226,8.132,5.855,17.661Z" transform="translate(-92.934 -46.173)" fill="#e1d2bc"/>
              <path id="Trazado_705716" data-name="Trazado 705716" d="M447.63,222.185s2.2,6.63-.99,11c-1.738,2.383,15.354,6.074,13.676-.886-1.36-5.732.957-10.929,5.172-15.306Z" transform="translate(-89.337 -43.414)" fill="#e9a783"/>
              <path id="Trazado_705717" data-name="Trazado 705717" d="M448.614,228.913a29.116,29.116,0,0,0,6.638-2.4l.289.153,1.6.394.606.222s-.9,7.138-10,6.321a14.881,14.881,0,0,0,.872-4.691" transform="translate(-89.582 -45.32)" fill="#e19d7d"/>
              <path id="Trazado_705718" data-name="Trazado 705718" d="M445.415,189.109s-2.766,4.514-6.521,12.146c-3.277,6.718-3.844,14.5.433,18.024,2.017,1.657,16.237,4.986,22.647-11.539,4.1-10.521-3.055-24.37-16.558-18.631" transform="translate(-87.288 -37.567)" fill="#e9a783"/>
              <path id="Trazado_705719" data-name="Trazado 705719" d="M442.4,189.815c-1.717,1.5-2.749,2.657,1.661,4.572,6.255,2.727.217,13.679,2.317,15.306,1.183.917,1.889,1.594,5-.647,1.245-.886,3.205-1.73,3.5,1.805.278,3.33-1.983,2.766-3.01,7.566-.406,1.9,5.232,2.577,7.327,1.193,6.271-4.146,14.642-16.355,6.187-28.365-6.427-9.107-20.036-4.011-22.985-1.43" transform="translate(-88.219 -37.223)" fill="#382a2c"/>
              <path id="Trazado_705720" data-name="Trazado 705720" d="M388.587,274.034c-.55.047-.628-1.913-4.088-4.532-2.672-2.045,1.749-.772,2.4-.317s5.721,3.238,5.721,3.238a10.212,10.212,0,0,1-4.032,1.611" transform="translate(-76.759 -53.695)" fill="#e9a783"/>
              <path id="Trazado_705721" data-name="Trazado 705721" d="M434.367,249.475c-.639-1.769-4.1-6.571-9.393-4.752-3.422,1.186-11.148,25.63-13.454,26.732-1.127.562-18.447-5.346-18.447-5.346s2.128,3.127-1.988,7.3c0,0,20.88,12.276,25.257,8.479,7.51-6.5,21.008-24.1,18.025-32.417" transform="translate(-78.247 -48.882)" fill="#d29d68"/>
              <path id="Trazado_705722" data-name="Trazado 705722" d="M389.306,277.431a9.581,9.581,0,0,1-4.7-.7c-3.039-1.061-2.705-1.122-4.122-2.589-1.445-1.45-1.861-4.147-1.449-5.024.538-1.164,1.755-.892,4.921,1.83,3.227,2.819,6.8.955,7.626,1.366.822.386-1.211,5.052-2.277,5.113" transform="translate(-75.806 -53.714)" fill="#e9a783"/>
              <path id="Trazado_705723" data-name="Trazado 705723" d="M460.672,214.067s-17.03-7.2-18.33-19.125c0,0-3.716-13.115,6.927-13,7.171.075,16.175.333,17.136,4.855s7.011,3.408,6.366,9.443,2.639,11.445-1.349,13.506-4.66,7.2-10.749,4.324" transform="translate(-88.376 -36.401)" fill="#e1d2bc"/>
              <path id="Trazado_705724" data-name="Trazado 705724" d="M353,420.692l-34.06,27.338L237.116,417.7l33.358-25.515Z" transform="translate(-47.441 -78.467)" fill="#e6e6e6"/>
              <path id="Trazado_705725" data-name="Trazado 705725" d="M367.953,427.916l.462,2.549L346.707,449.1l-.465-2.549Z" transform="translate(-69.275 -85.616)" fill="#985928"/>
              <path id="Trazado_705726" data-name="Trazado 705726" d="M326.192,444.1l.465,2.549L246.49,418.224l-.465-2.549Z" transform="translate(-49.224 -83.166)" fill="#743f1e"/>
              <path id="Trazado_705727" data-name="Trazado 705727" d="M347.9,420.807,326.191,439.44l-80.167-28.425,21.711-18.633Z" transform="translate(-49.223 -78.506)" fill="#ae6d34"/>
              <path id="Trazado_705728" data-name="Trazado 705728" d="M260.164,404.273s-.13-2.459,1.449-3.5l1.581-1.037,2.428-3.8,1.836-.339s-1.884-1.022.8-.8l2.684.218s-.234-2.683,1.583-2.757,2.506.631,2.493,1.289,3.286-1.389,3.669-.024,1.865,1.1,2.66,1.384a14.957,14.957,0,0,1,3.29,1.606c.492.467,2.7-.65,3.33.507s2.5-.866,4.714,1.233,3.776.964,4.53,2.062,4.089,2.251,4.486,2.387,4.88-.77,6.353-.273,5.009-.165,5.542,1.309.1,1.061.607,3.283,2.565.886,5.17,1.785l7.291,2.518c.5.173,4.911-.319,6.395.385s2.27,2.609,3.1,2.895,1.469,1.058,2.2,1.319S343,414.779,343,414.779s5.4.568,5.466,2.337a5.059,5.059,0,0,0,1.869,3.186l-1.057,1.206-1.777,1.525a5.889,5.889,0,0,1-2.567,2.2c-1.929.873-1.368,4.014-1.368,4.014s-6.356,1.164-5.919,2.969-4.178,2.163-4.178,2.163l-1.611.9s1.185,1.957-.534,1.636-2.74.7-3.437.022,4.083-1.581-3.306-4.128-13.105-3.125-16.185-5.266-7.3-4.794-11.635-7.242-5.7-2.739-11.637-5.159-10.289-3.979-11.991-5.1-2.952-3.786-6.792-3.978a27.6,27.6,0,0,1-5.1-.548Z" transform="translate(-52.052 -78.481)" fill="#d29c49"/>
              <path id="Trazado_705729" data-name="Trazado 705729" d="M263.455,406.682s-.118-2.2,1.3-3.127l1.413-.927,2.172-3.395,1.642-.3s-1.685-.914.716-.718l2.4.2s-.209-2.4,1.415-2.466,3.457.34,3.444.927,1.725-1.017,2.067.2.162,2.7.873,2.949,4.009-.692,4.448-.274,2.416-.582,2.977.453,2.238-.774,4.217,1.1,3.377.862,4.051,1.844,3.656,2.013,4.012,2.136,4.364-.69,5.683-.245,4.478-.147,4.956,1.171.09.949.543,2.936,2.294.792,4.624,1.6L322.928,413c.445.154,4.392-.286,5.719.345s2.029,2.332,2.769,2.588,1.46,2.525,2.118,2.757a51.023,51.023,0,0,0,5.946.029s2.891-2.128,2.947-.546,2.148,2.3,2.148,2.3l.435,2.35s-2.679,3.256-3.077,3.6-1.1,2.051-2.827,2.831-3.784,4.011-3.784,4.011-5.016-4.035-4.628-2.421-1.679,2.769-1.679,2.769l-1.441.807s1.059,1.749-.479,1.462-2.449.631-3.074.021,3.652-1.414-2.956-3.692-11.722-2.795-14.475-4.711-6.525-4.288-10.4-6.476-5.1-2.449-10.409-4.614-9.2-3.558-10.725-4.557-2.639-3.385-6.072-3.559a24.582,24.582,0,0,1-4.559-.489Z" transform="translate(-52.71 -79.217)" fill="#deae5c"/>
              <path id="Trazado_705730" data-name="Trazado 705730" d="M268.784,410.83s2.653-2.437,1.173-2.829c-3.885-1.028,1.278-.838,1.278-.838s-2.105-1.95-1.771-2.679c.55-1.2,5.222-.666,5.222-.666s-1.525-.826.649-.65l2.173.178s-.19-2.17,1.281-2.231,3.126.307,3.115.839,1.56-.92,1.869.184.147,2.44.79,2.668,3.628-.626,4.024-.248,2.186-.527,2.694.41,2.024-.7,3.814,1,3.057.781,3.665,1.669,3.31,1.821,3.631,1.932,3.948-.624,5.14-.222,4.054-.133,4.486,1.06.08.859.491,2.656,2.076.717,4.182,1.445l5.9,2.037c.4.139,3.976-.259,5.174.311s1.838,2.111,2.507,2.342,1.322,2.284,1.917,2.494a46.2,46.2,0,0,0,5.379.026s2.615-1.925,2.665-.493,1.945,2.085,1.945,2.085l.393,2.125a19.875,19.875,0,0,1-1.513,2.077c-.359.308-2.237,2.6-3.8,3.3a18.082,18.082,0,0,0-3.776,2.9s-4.216-2.485-3.863-1.025-1.52,2.505-1.52,2.505l-1.3.73s.958,1.583-.432,1.322-2.216.571-2.782.019,3.305-1.28-2.675-3.34-10.6-2.529-13.095-4.262-5.9-3.879-9.416-5.859-4.612-2.217-9.415-4.175-8.326-3.22-9.7-4.124-2.389-3.062-5.495-3.219a22.293,22.293,0,0,1-4.124-.442Z" transform="translate(-53.722 -80.252)" fill="#edc480"/>
              <path id="Trazado_705731" data-name="Trazado 705731" d="M290.48,405.983a20.718,20.718,0,0,1,.612,2.6c.017.318.081,1.13.081,1.13a10.269,10.269,0,0,1,2.817-1.373c.661-.164-1.42,1.174-2.008,1.841,0,0,5.047,1.879,3.8,1.8-1.621-.1-4.363-1.146-4.792-.912a10.079,10.079,0,0,0-1.913,3.681c-.278.913,0-2.541.519-3.784a21.924,21.924,0,0,0-3.2-.166,11.688,11.688,0,0,1,3.88-.8s-.074-1.229-.147-1.631c-.137-.759-.668-3.02-.668-3.02Z" transform="translate(-57.288 -81.099)" fill="#e29e31"/>
              <path id="Trazado_705732" data-name="Trazado 705732" d="M289.614,411.131s-2.193-.122-3.2-.166a19.271,19.271,0,0,1,3.684-.361.6.6,0,0,0,.2-.443c.082,0-.069-.009,0,0,0,0-.075-1.229-.148-1.631-.09-.494-.345-1.625-.513-2.353l.662.417a20.7,20.7,0,0,1,.614,2.6c.013.32.08,1.132.08,1.132a10.738,10.738,0,0,1,2.617-1.32A15.729,15.729,0,0,0,292,410.347s.071.026.193.072c-.156.135.1-.109,0,0,0,0,2.593,1.19,3.773,1.717-1.573-.3-4.783-1.273-5.136-1.079a13.881,13.881,0,0,0-1.469,2.705,12.613,12.613,0,0,0-.356,1.27,13,13,0,0,1,.611-3.9" transform="translate(-57.305 -81.266)" fill="#e9b434"/>
              <path id="Trazado_705733" data-name="Trazado 705733" d="M290.922,401.464l.831,5.072a1.156,1.156,0,0,1-1.307.261l-1.205-5.436Z" transform="translate(-57.87 -80.302)" fill="#e9b434"/>
              <path id="Trazado_705734" data-name="Trazado 705734" d="M290.922,401.464l.5,3.046c-.569.174-.966.3-1.6-.538l-.578-2.613Z" transform="translate(-57.87 -80.302)" fill="#e29e31"/>
              <path id="Trazado_705735" data-name="Trazado 705735" d="M281.633,407.629a18.6,18.6,0,0,1,.553,2.352c.015.29.076,1.022.076,1.022a9.279,9.279,0,0,1,2.548-1.242c.6-.149-1.285,1.063-1.818,1.665,0,0,4.569,1.7,3.442,1.629-1.468-.1-3.949-1.038-4.339-.826a9.177,9.177,0,0,0-1.731,3.332c-.25.826,0-2.3.471-3.425a20.112,20.112,0,0,0-2.9-.15,10.589,10.589,0,0,1,3.514-.728s-.068-1.113-.134-1.477c-.124-.686-.6-2.733-.6-2.733Z" transform="translate(-55.597 -81.441)" fill="#e29e31"/>
              <path id="Trazado_705736" data-name="Trazado 705736" d="M280.85,412.286s-1.984-.109-2.9-.15a17.283,17.283,0,0,1,3.334-.325.54.54,0,0,0,.179-.4c.077,0-.06-.008,0,0,0,0-.067-1.113-.133-1.477-.082-.448-.314-1.471-.464-2.132l.6.378a18.819,18.819,0,0,1,.554,2.352c.014.29.074,1.025.074,1.025a9.718,9.718,0,0,1,2.371-1.194,14.761,14.761,0,0,0-1.461,1.214l.176.066c-.142.122.086-.1,0,0,0,0,2.345,1.076,3.416,1.554-1.423-.272-4.329-1.151-4.648-.977a12.448,12.448,0,0,0-1.331,2.449,11.326,11.326,0,0,0-.322,1.15,11.671,11.671,0,0,1,.553-3.532" transform="translate(-55.612 -81.591)" fill="#e9b434"/>
              <path id="Trazado_705737" data-name="Trazado 705737" d="M282.033,403.537l.754,4.59a1.045,1.045,0,0,1-1.182.238l-1.093-4.922Z" transform="translate(-56.124 -80.719)" fill="#e9b434"/>
              <path id="Trazado_705738" data-name="Trazado 705738" d="M282.033,403.537l.453,2.758c-.514.157-.872.266-1.449-.487l-.525-2.365Z" transform="translate(-56.124 -80.719)" fill="#e29e31"/>
              <path id="Trazado_705739" data-name="Trazado 705739" d="M269.436,385.678s6.306-6.061,12.164-7.036,6.847.777,6.847.777.864,1.114-1.157,1.867a7.562,7.562,0,0,1-1.137,4.057c-.969,1.564-7.692,9.338-16.2,4.2a2.5,2.5,0,0,1-.518-3.86" transform="translate(-53.773 -75.698)" fill="#e8bf8f"/>
              <path id="Trazado_705740" data-name="Trazado 705740" d="M289.087,390.471s2.8.766,3.416,3.074-.965,5.694-.965,5.694a6.974,6.974,0,0,1-.557,1.63,2.171,2.171,0,0,1-2.1.541c-1.019-.148-1.181-.286-1.439-.576-1.061-1.2-3.446-4.32-3.556-5.318s.986-3.575,5.2-5.045" transform="translate(-56.797 -78.124)" fill="#ce9567"/>
              <path id="Trazado_705741" data-name="Trazado 705741" d="M289.112,388.594s2.8.766,3.414,3.075a7.369,7.369,0,0,1-.963,5.692,5.542,5.542,0,0,1-2.659,2.172,3.534,3.534,0,0,1-2.691-.09c-1.061-1.2-2.194-4.806-2.3-5.8s.986-3.574,5.2-5.045" transform="translate(-56.802 -77.748)" fill="#bf885c"/>
              <path id="Trazado_705742" data-name="Trazado 705742" d="M282.136,392.325s2.617,1.265,2.8,3.646-1.987,5.421-1.987,5.421a7.021,7.021,0,0,1-.845,1.5,2.172,2.172,0,0,1-2.165.149,2.628,2.628,0,0,1-1.309-.828s-2.6-4.876-2.526-5.878,1.619-3.334,6.035-4.012" transform="translate(-55.241 -78.495)" fill="#ce9567"/>
              <path id="Trazado_705743" data-name="Trazado 705743" d="M282.068,391.732s2.617,1.265,2.8,3.647-1.988,5.421-1.988,5.421a6.9,6.9,0,0,1-.845,1.5,2.169,2.169,0,0,1-2.164.147,2.6,2.6,0,0,1-1.31-.828s-2.6-4.875-2.526-5.877,1.621-3.334,6.035-4.012" transform="translate(-55.227 -78.376)" fill="#bf885c"/>
              <path id="Trazado_705744" data-name="Trazado 705744" d="M268.3,394.043s3.568,5.092,11.426,4.052,11.525-9.274,11.756-15.606c.351-9.649-5.366-7.949-7.323-6.576-2.468,1.727-6.081,4.852-8.861,4.677s-12.132,3.89-7,13.452" transform="translate(-53.378 -74.998)" fill="#f1d3ae"/>
              <path id="Trazado_705745" data-name="Trazado 705745" d="M297.778,375.354s-.208-2.849-2.9-2.129c0,0-.758-2.193-2.769-1.389a1.79,1.79,0,0,0-2.987-.276s-2.375-.858-2.681,1.484.863,3.556-.77,5.289l8.822,3.742s.577-3.564,1.636-4.581,1.465-1.062,1.648-2.14" transform="translate(-57.156 -74.197)" fill="#f1d3ae"/>
              <path id="Trazado_705746" data-name="Trazado 705746" d="M272.286,390.521s.773,7.666,6.985,6.843,14.575-7.831,11.341-15.978c-2.818-7.095-4.241-6.284-5.79-5.2-1.949,1.367-4.807,3.837-7,3.7s-9.594,3.074-5.531,10.633" transform="translate(-54.238 -75.123)" fill="#f4dac1"/>
              <path id="Trazado_705747" data-name="Trazado 705747" d="M294.962,375.818s-.154-2.113-2.152-1.578a1.558,1.558,0,0,0-2.05-1.028,1.327,1.327,0,0,0-2.215-.206s-1.758-.635-1.987,1.1.639,2.637-.57,3.921l6.539,2.774s.427-2.643,1.214-3.4,1.083-.786,1.221-1.585" transform="translate(-57.219 -74.523)" fill="#f4dac1"/>
              <path id="Trazado_705748" data-name="Trazado 705748" d="M294.013,377.692s-.154-2.112-2.149-1.578a1.562,1.562,0,0,0-2.051-1.029,1.327,1.327,0,0,0-2.214-.206s-1.761-.635-1.988,1.1-1.347,1.857-1.288,4.2c.058,2.281,7.258,2.49,7.258,2.49s.426-2.643,1.214-3.4,1.084-.787,1.219-1.585" transform="translate(-56.886 -74.898)" fill="#f5e6da"/>
              <path id="Trazado_705749" data-name="Trazado 705749" d="M279.73,399.268c-7.858,1.038-11.426-4.052-11.426-4.052-2.721-5.066-1.374-8.588.907-10.755,1.3.5,4.874,1.955,4.3,4.847-1.313,6.6,1.979,10.855,5.38,7.67,4.707-4.408,6.711-2.883,8.885-4.545s-1.51-7.869,1.631-10.73c.926-.844,2.715-1.96,2.082.523.015.451.017.925,0,1.437-.231,6.331-3.889,14.565-11.756,15.606" transform="translate(-53.378 -76.17)" fill="#e4ae80"/>
              <path id="Trazado_705750" data-name="Trazado 705750" d="M265.664,374.586s-7.6,13.836,2.986,20.652c0,0,1.578.982,2.5-2.7s1.377-3.964,3.18-5.2,3.768-3.9,2.824-5.662c-1.351-2.509-7.078-8.709-9.935-8.245a3.3,3.3,0,0,0-1.553,1.156" transform="translate(-52.625 -74.709)" fill="#e8bf8f"/>
              <path id="Trazado_705751" data-name="Trazado 705751" d="M278.876,387.913s4.5-6.7,9.657-10.207c4.909-3.338,6.786-1.2,6.786-1.2s1.145.821-.578,2.119a8.3,8.3,0,0,1,.587,4.93c-.484,1.776-4.974,10.948-14.591,8.438a3.161,3.161,0,0,1-1.86-4.076" transform="translate(-55.755 -75.194)" fill="#e8bf8f"/>
              <path id="Trazado_705752" data-name="Trazado 705752" d="M278.876,387.92s4.522-6.823,9.657-10.207c4.957-3.267,6.786-1.2,6.786-1.2s1.145.821-.578,2.119a8.3,8.3,0,0,1,.587,4.93c-.484,1.776-4.974,10.948-14.591,8.438a3.161,3.161,0,0,1-1.86-4.076" transform="translate(-55.755 -75.202)" fill="#e4ae80"/>
              <path id="Trazado_705753" data-name="Trazado 705753" d="M270.311,392.736c-.95,3.313-2.349,2.371-2.349,2.371-6.9-4.8-4.752-12.725-3.137-16.576,2.108-1.833,3.384,1.677,5.619,4.7,1.918,2.6,1.965,5.018,1.432,5.983a12.892,12.892,0,0,0-1.565,3.52" transform="translate(-52.658 -75.634)" fill="#f1cca5"/>
              <path id="Trazado_705754" data-name="Trazado 705754" d="M278.326,388.7a15.227,15.227,0,0,1,2.133-3.372s9.741-11.456,12.107-7.935c.53.789-.215,2.743-1.3,4s1.885,1.424.98,3.916c-.721,2-3.347,7.252-11.157,6.967a4.161,4.161,0,0,1-.677-.133c-.815-.213-2.723-1.5-2.087-3.439" transform="translate(-55.661 -75.372)" fill="#e8bf8f"/>
              <path id="Trazado_705755" data-name="Trazado 705755" d="M278.145,389.479a10.731,10.731,0,0,1,1.521-2.406s6.952-8.174,8.64-5.661c.376.562-.154,1.955-.928,2.85s1.345,1.016.7,2.794c-.515,1.423-2.389,5.174-7.959,4.97a3,3,0,0,1-.483-.094,2.062,2.062,0,0,1-1.489-2.453" transform="translate(-55.632 -76.215)" fill="#f1d3ae"/>
              <path id="Trazado_705756" data-name="Trazado 705756" d="M277.116,387.566c-1.046-2.549.25-3.683-1.189-7.552-.934-2.515-1.892-3.092-1.5-3.468a19.758,19.758,0,0,1,4.984,5.756,2.255,2.255,0,0,1,.218,1.37c-.118.437-.264.886-.425,1.329a8.243,8.243,0,0,1-2.093,2.565" transform="translate(-54.889 -75.338)" fill="#f1cca5"/>
              <path id="Trazado_705757" data-name="Trazado 705757" d="M265.979,371.11A5.493,5.493,0,0,0,260.716,374c-1.176,2.273,1.9,4.163,1.9,4.163s.361.1,1.437-.606l-.063.81s5.66-.194,6.972-3.318c0,0-1.587-3.425-4.98-3.943" transform="translate(-52.109 -74.243)" fill="#e8bf8f"/>
              <path id="Trazado_705758" data-name="Trazado 705758" d="M266.138,376.978c.7-1.245,1.253,1.1.711,1.929s1.111,3.6-1.148,4.784c-.64.335-2.533.618-2.661-1.045a2.251,2.251,0,0,1-.286-2.089,3.952,3.952,0,0,1,1.817-2.314s.874-.03,1.566-1.265" transform="translate(-52.537 -75.352)" fill="#e4ae80"/>
              <path id="Trazado_705759" data-name="Trazado 705759" d="M261.524,373.522c-.275.258-.911,1.012-1.178.3s-.412-3.9.906-4.879a1.334,1.334,0,0,1,1.6.078s.657-.65,1.681.177a2.275,2.275,0,0,0,1.673.462,1.05,1.05,0,0,1,1.093,1.475c-.194.623-1.4.343-2.8.772a6.561,6.561,0,0,0-2.979,1.617" transform="translate(-52.053 -73.767)" fill="#d84a45"/>
              <path id="Trazado_705760" data-name="Trazado 705760" d="M264.5,372.238a6.573,6.573,0,0,0-2.979,1.617c-.274.258-.91,1.013-1.177.3a6.085,6.085,0,0,1-.166-2,2.836,2.836,0,0,1,.921-1.525,1.465,1.465,0,0,1,1.759.086s.723-.714,1.853.194a2.488,2.488,0,0,0,1.838.507,1.741,1.741,0,0,1,.7.148c-.292.493-1.434.27-2.753.673" transform="translate(-52.053 -74.1)" fill="#ca2a21"/>
              <path id="Trazado_705761" data-name="Trazado 705761" d="M263.581,375.2a.866.866,0,1,0,.574-1.08.864.864,0,0,0-.574,1.08" transform="translate(-52.729 -74.845)" fill="#804437"/>
              <path id="Trazado_705762" data-name="Trazado 705762" d="M264.259,375.7a.433.433,0,1,0,.288-.54.433.433,0,0,0-.288.54" transform="translate(-52.868 -75.056)" fill="#643027"/>
              <path id="Trazado_705763" data-name="Trazado 705763" d="M265.963,376.973c.7-1.245.526.918-.017,1.749s1.409,3.145-.848,4.325c-.64.334-2.578.652-2.708-1.01,0,0-1.044-.694-.54-1.665a3.959,3.959,0,0,1,1.818-2.314,2.506,2.506,0,0,0,2.294-1.086" transform="translate(-52.362 -75.347)" fill="#d84a45"/>
              <path id="Trazado_705764" data-name="Trazado 705764" d="M263.528,377.51a2.012,2.012,0,0,0-1.949-.318c-.58.37-.118,2.531.171,3.108a6.761,6.761,0,0,1,1.534-1.883c.7-.423.434-.767.244-.908" transform="translate(-52.28 -75.436)" fill="#e8b334"/>
              <path id="Trazado_705765" data-name="Trazado 705765" d="M263.635,377.577c.19.141.46.485-.244.908a6.762,6.762,0,0,0-1.534,1.883c0-.01-.009-.023-.014-.035a4.964,4.964,0,0,1,.483-1.837,2.762,2.762,0,0,1,.97-1.118,2.1,2.1,0,0,1,.339.2" transform="translate(-52.387 -75.504)" fill="#d29d2c"/>
              <path id="Trazado_705766" data-name="Trazado 705766" d="M265.972,378.722c-.541.831,1.409,3.145-.848,4.325-.64.334-2.579.652-2.709-1.01a1.8,1.8,0,0,1-.578-.683,2.721,2.721,0,0,1,.535-.406c.954-.38.79.026,1.8.35,1.1.35.917-1.185.618-1.984a2.145,2.145,0,0,1,.292-1.515,1.972,1.972,0,0,0,.9-.826c.7-1.244.526.918-.017,1.749" transform="translate(-52.387 -75.348)" fill="#ca2a21"/>
              <path id="Trazado_705767" data-name="Trazado 705767" d="M342.331,422.336a20.723,20.723,0,0,1,.612,2.6c.017.318.081,1.13.081,1.13a10.27,10.27,0,0,1,2.817-1.374c.661-.164-1.421,1.174-2.009,1.841,0,0,5.048,1.879,3.8,1.8-1.621-.1-4.364-1.146-4.793-.912a10.092,10.092,0,0,0-1.911,3.681c-.278.913,0-2.541.519-3.784a21.978,21.978,0,0,0-3.2-.165,11.712,11.712,0,0,1,3.882-.8s-.074-1.229-.147-1.631c-.138-.758-.668-3.02-.668-3.02Z" transform="translate(-67.662 -84.371)" fill="#e29e31"/>
              <path id="Trazado_705768" data-name="Trazado 705768" d="M341.465,427.483s-2.193-.122-3.2-.165a19.341,19.341,0,0,1,3.685-.361.6.6,0,0,0,.2-.443c.082,0-.069-.009,0,0,0,0-.075-1.229-.148-1.631-.091-.494-.345-1.625-.513-2.353l.662.417a20.467,20.467,0,0,1,.613,2.6c.014.319.082,1.131.082,1.131a10.738,10.738,0,0,1,2.617-1.32,16.034,16.034,0,0,0-1.613,1.343l.194.072c-.156.135.1-.11,0,0,0,0,2.593,1.19,3.773,1.717-1.573-.3-4.783-1.273-5.136-1.079a14.158,14.158,0,0,0-1.472,2.705c-.178.379-.194.79-.354,1.27a12.958,12.958,0,0,1,.611-3.9" transform="translate(-67.679 -84.538)" fill="#e9b434"/>
              <path id="Trazado_705769" data-name="Trazado 705769" d="M342.773,417.816l.833,5.072a1.155,1.155,0,0,1-1.306.262l-1.206-5.436Z" transform="translate(-68.245 -83.574)" fill="#e9b434"/>
              <path id="Trazado_705770" data-name="Trazado 705770" d="M342.773,417.816l.5,3.047c-.57.174-.966.3-1.6-.538l-.578-2.613Z" transform="translate(-68.245 -83.574)" fill="#e29e31"/>
              <path id="Trazado_705771" data-name="Trazado 705771" d="M333.483,423.982a18.547,18.547,0,0,1,.554,2.352c.014.29.074,1.022.074,1.022a9.3,9.3,0,0,1,2.549-1.242c.6-.15-1.285,1.063-1.818,1.665,0,0,4.569,1.7,3.44,1.628-1.466-.1-3.949-1.037-4.337-.826a9.179,9.179,0,0,0-1.732,3.334c-.25.826,0-2.3.472-3.426a20.042,20.042,0,0,0-2.9-.149,10.582,10.582,0,0,1,3.516-.728s-.068-1.113-.134-1.477c-.124-.686-.6-2.733-.6-2.733Z" transform="translate(-65.971 -84.712)" fill="#e29e31"/>
              <path id="Trazado_705772" data-name="Trazado 705772" d="M332.7,428.639s-1.984-.109-2.9-.149a17.241,17.241,0,0,1,3.336-.326.542.542,0,0,0,.18-.4c.074,0-.062-.008,0,0,0,0-.068-1.113-.134-1.477-.082-.448-.314-1.472-.466-2.132l.6.378a18.6,18.6,0,0,1,.552,2.352c.015.289.075,1.024.075,1.024a9.7,9.7,0,0,1,2.369-1.193,14.913,14.913,0,0,0-1.46,1.214l.176.066c-.142.122.086-.1,0,0,0,0,2.344,1.077,3.416,1.554-1.423-.273-4.329-1.151-4.648-.978a12.428,12.428,0,0,0-1.333,2.45,11.311,11.311,0,0,0-.32,1.148,11.644,11.644,0,0,1,.553-3.531" transform="translate(-65.986 -84.863)" fill="#e9b434"/>
              <path id="Trazado_705773" data-name="Trazado 705773" d="M333.885,419.89l.754,4.59a1.047,1.047,0,0,1-1.183.238l-1.091-4.922Z" transform="translate(-66.498 -83.991)" fill="#e9b434"/>
              <path id="Trazado_705774" data-name="Trazado 705774" d="M333.885,419.89l.453,2.758c-.514.157-.873.266-1.449-.487l-.525-2.365Z" transform="translate(-66.498 -83.991)" fill="#e29e31"/>
              <path id="Trazado_705775" data-name="Trazado 705775" d="M321.288,402.031s6.306-6.061,12.163-7.036,6.848.777,6.848.777.864,1.114-1.159,1.868A7.556,7.556,0,0,1,338,401.695c-.969,1.565-7.69,9.338-16.2,4.2a2.494,2.494,0,0,1-.518-3.86" transform="translate(-64.147 -78.97)" fill="#e8bf8f"/>
              <path id="Trazado_705776" data-name="Trazado 705776" d="M340.939,406.824s2.8.766,3.416,3.074-.965,5.694-.965,5.694a6.976,6.976,0,0,1-.557,1.63,2.174,2.174,0,0,1-2.1.542c-1.018-.149-1.179-.286-1.438-.577-1.06-1.2-3.445-4.32-3.556-5.318s.986-3.575,5.2-5.045" transform="translate(-67.171 -81.395)" fill="#ce9567"/>
              <path id="Trazado_705777" data-name="Trazado 705777" d="M340.961,404.948s2.8.766,3.416,3.074a7.373,7.373,0,0,1-.964,5.692,5.539,5.539,0,0,1-2.658,2.172,3.528,3.528,0,0,1-2.691-.09c-1.061-1.2-2.2-4.805-2.3-5.8s.986-3.574,5.2-5.045" transform="translate(-67.176 -81.02)" fill="#bf885c"/>
              <path id="Trazado_705778" data-name="Trazado 705778" d="M333.988,408.679s2.616,1.265,2.8,3.646-1.988,5.421-1.988,5.421a6.975,6.975,0,0,1-.846,1.5,2.166,2.166,0,0,1-2.163.148,2.622,2.622,0,0,1-1.31-.828s-2.6-4.876-2.526-5.877,1.619-3.334,6.036-4.012" transform="translate(-65.615 -81.767)" fill="#ce9567"/>
              <path id="Trazado_705779" data-name="Trazado 705779" d="M333.92,408.085s2.617,1.265,2.8,3.647-1.988,5.421-1.988,5.421a6.951,6.951,0,0,1-.845,1.5,2.171,2.171,0,0,1-2.165.147,2.6,2.6,0,0,1-1.309-.828s-2.6-4.875-2.526-5.878,1.621-3.333,6.035-4.011" transform="translate(-65.602 -81.648)" fill="#bf885c"/>
              <path id="Trazado_705780" data-name="Trazado 705780" d="M320.154,410.4s3.568,5.091,11.426,4.052,11.524-9.274,11.756-15.606c.35-9.65-5.366-7.949-7.325-6.576-2.466,1.726-6.081,4.852-8.859,4.677s-12.134,3.89-7,13.452" transform="translate(-63.752 -78.269)" fill="#f1d3ae"/>
              <path id="Trazado_705781" data-name="Trazado 705781" d="M349.629,391.707s-.207-2.849-2.9-2.129c0,0-.758-2.194-2.768-1.389a1.791,1.791,0,0,0-2.989-.276s-2.373-.858-2.681,1.484.865,3.556-.768,5.288l8.822,3.743s.575-3.564,1.636-4.581,1.465-1.062,1.648-2.14" transform="translate(-67.53 -77.469)" fill="#f1d3ae"/>
              <path id="Trazado_705782" data-name="Trazado 705782" d="M324.136,406.875s.773,7.666,6.987,6.843,14.574-7.83,11.341-15.977c-2.818-7.095-4.241-6.284-5.791-5.2-1.949,1.367-4.806,3.836-7,3.7s-9.592,3.074-5.531,10.633" transform="translate(-64.612 -78.395)" fill="#f4dac1"/>
              <path id="Trazado_705783" data-name="Trazado 705783" d="M346.814,392.171s-.155-2.113-2.151-1.578a1.56,1.56,0,0,0-2.05-1.028,1.328,1.328,0,0,0-2.215-.206s-1.761-.635-1.988,1.1.64,2.637-.57,3.921l6.539,2.774s.426-2.643,1.214-3.4,1.084-.786,1.221-1.585" transform="translate(-67.593 -77.795)" fill="#f4dac1"/>
              <path id="Trazado_705784" data-name="Trazado 705784" d="M345.864,394.045s-.154-2.112-2.149-1.578a1.562,1.562,0,0,0-2.051-1.03,1.326,1.326,0,0,0-2.214-.2s-1.761-.636-1.988,1.1-1.349,1.857-1.288,4.2c.058,2.281,7.256,2.49,7.256,2.49s.428-2.643,1.213-3.4,1.085-.787,1.221-1.585" transform="translate(-67.26 -78.17)" fill="#f5e6da"/>
              <path id="Trazado_705785" data-name="Trazado 705785" d="M331.582,415.621c-7.858,1.038-11.426-4.052-11.426-4.052-2.721-5.066-1.373-8.588.905-10.755,1.3.5,4.876,1.955,4.3,4.848-1.312,6.595,1.978,10.854,5.38,7.669,4.7-4.407,6.709-2.882,8.885-4.544s-1.51-7.869,1.629-10.729c.927-.845,2.717-1.961,2.084.522.015.451.017.925,0,1.437-.233,6.331-3.889,14.565-11.756,15.606" transform="translate(-63.752 -79.442)" fill="#e4ae80"/>
              <path id="Trazado_705786" data-name="Trazado 705786" d="M310.361,399.477s1.238,15.735,13.826,15.628c0,0,1.86-.045.606-3.631s-1.025-4.07-.192-6.091,1.008-5.33-.747-6.283c-2.505-1.357-10.694-3.4-12.828-1.444a3.3,3.3,0,0,0-.665,1.82" transform="translate(-62.094 -79.4)" fill="#e8bf8f"/>
              <path id="Trazado_705787" data-name="Trazado 705787" d="M330.728,404.266s4.5-6.7,9.657-10.207c4.909-3.338,6.786-1.206,6.786-1.206s1.143.822-.58,2.12a8.289,8.289,0,0,1,.587,4.931c-.482,1.775-4.973,10.947-14.591,8.438a3.162,3.162,0,0,1-1.858-4.076" transform="translate(-66.129 -78.466)" fill="#e8bf8f"/>
              <path id="Trazado_705788" data-name="Trazado 705788" d="M330.728,404.273s4.522-6.823,9.657-10.207c4.957-3.267,6.786-1.206,6.786-1.206s1.143.822-.58,2.12a8.289,8.289,0,0,1,.587,4.931c-.482,1.775-4.973,10.947-14.591,8.438a3.162,3.162,0,0,1-1.858-4.076" transform="translate(-66.129 -78.473)" fill="#e4ae80"/>
              <path id="Trazado_705789" data-name="Trazado 705789" d="M323.9,412.439c1.022,3.292-.665,3.272-.665,3.272-8.4-.225-10.953-8.034-11.716-12.139.757-2.687,3.75-.454,7.279.85,3.027,1.12,4.4,3.117,4.478,4.216a12.839,12.839,0,0,0,.624,3.8" transform="translate(-62.328 -80.492)" fill="#f1cca5"/>
              <path id="Trazado_705790" data-name="Trazado 705790" d="M330.177,405.052a15.261,15.261,0,0,1,2.132-3.372s9.744-11.456,12.108-7.934c.53.788-.214,2.742-1.3,4s1.882,1.425.98,3.916c-.722,1.995-3.348,7.252-11.159,6.967a4.187,4.187,0,0,1-.674-.133c-.816-.213-2.725-1.5-2.088-3.439" transform="translate(-66.035 -78.644)" fill="#e8bf8f"/>
              <path id="Trazado_705791" data-name="Trazado 705791" d="M330,405.833a10.73,10.73,0,0,1,1.521-2.406s6.952-8.174,8.638-5.662c.378.562-.153,1.956-.926,2.851s1.345,1.016.7,2.794c-.515,1.423-2.389,5.174-7.961,4.97a2.979,2.979,0,0,1-.483-.094A2.059,2.059,0,0,1,330,405.833" transform="translate(-66.006 -79.487)" fill="#f1d3ae"/>
              <path id="Trazado_705792" data-name="Trazado 705792" d="M326.362,404.806c-2.276-1.557-1.813-3.216-5.137-5.662-2.162-1.589-3.279-1.547-3.153-2.077a19.736,19.736,0,0,1,7.325,2.078,2.263,2.263,0,0,1,.934,1.024c.142.43.264.886.374,1.345a8.225,8.225,0,0,1-.343,3.292" transform="translate(-63.636 -79.443)" fill="#f1cca5"/>
              <path id="Trazado_705793" data-name="Trazado 705793" d="M308.457,396.288a5.493,5.493,0,0,0-2.813,5.308c.264,2.546,3.869,2.441,3.869,2.441s.356-.119.87-1.3l.392.71s4.624-3.267,4.007-6.6c0,0-3.205-1.994-6.325-.566" transform="translate(-61.146 -79.184)" fill="#e8bf8f"/>
              <path id="Trazado_705794" data-name="Trazado 705794" d="M311.889,401.438c-.1-1.423,1.649.23,1.653,1.222s2.905,2.4,1.665,4.629c-.352.631-1.778,1.905-2.8.586,0,0-1.273-.5-1.384-1.589a3.954,3.954,0,0,1,.25-2.932,2.107,2.107,0,0,0,.615-1.916" transform="translate(-62.193 -80.207)" fill="#e4ae80"/>
              <path id="Trazado_705795" data-name="Trazado 705795" d="M305.837,400.941c-.09.367-.206,1.345-.822.894s-2.483-3.031-1.918-4.574a1.331,1.331,0,0,1,1.38-.813s.194-.9,1.5-.777a2.265,2.265,0,0,0,1.651-.531,1.052,1.052,0,0,1,1.724.635c.178.628-.979,1.053-1.917,2.178a6.575,6.575,0,0,0-1.6,2.987" transform="translate(-60.621 -79.008)" fill="#d84a45"/>
              <path id="Trazado_705796" data-name="Trazado 705796" d="M307.591,398.2a6.575,6.575,0,0,0-1.6,2.987c-.09.367-.206,1.345-.821.894a6.044,6.044,0,0,1-1.234-1.579,2.834,2.834,0,0,1-.069-1.78,1.466,1.466,0,0,1,1.519-.893s.212-.992,1.655-.854a2.49,2.49,0,0,0,1.816-.585,1.725,1.725,0,0,1,.671-.262c.025.572-1.052,1.013-1.935,2.072" transform="translate(-60.773 -79.256)" fill="#ca2a21"/>
              <path id="Trazado_705797" data-name="Trazado 705797" d="M308.327,401.75a.865.865,0,1,0-.113-1.218.863.863,0,0,0,.113,1.218" transform="translate(-61.626 -80.074)" fill="#804437"/>
              <path id="Trazado_705798" data-name="Trazado 705798" d="M309.126,401.872a.433.433,0,1,0-.055-.61.432.432,0,0,0,.055.61" transform="translate(-61.817 -80.251)" fill="#643027"/>
              <path id="Trazado_705799" data-name="Trazado 705799" d="M311.712,401.448c-.1-1.423.943.478.946,1.471s2.9,1.857,1.664,4.082c-.352.63-1.8,1.96-2.818.64,0,0-1.253-.006-1.365-1.1a3.964,3.964,0,0,1,.252-2.933,2.5,2.5,0,0,0,1.322-2.165" transform="translate(-62.016 -80.218)" fill="#d84a45"/>
              <path id="Trazado_705800" data-name="Trazado 705800" d="M309.538,403.656c-.494-.03-1.522.173-1.8.8s1.291,2.184,1.849,2.505a6.75,6.75,0,0,1,.249-2.415c.358-.739-.059-.879-.294-.893" transform="translate(-61.563 -80.761)" fill="#e8b334"/>
              <path id="Trazado_705801" data-name="Trazado 705801" d="M309.84,403.656c.234.014.651.154.294.893a6.75,6.75,0,0,0-.249,2.415l-.033-.019a4.958,4.958,0,0,1-.6-1.8,2.758,2.758,0,0,1,.2-1.468,2.067,2.067,0,0,1,.392-.018" transform="translate(-61.865 -80.761)" fill="#d29d2c"/>
              <path id="Trazado_705802" data-name="Trazado 705802" d="M312.829,402.919c0,.991,2.9,1.857,1.664,4.081-.353.631-1.8,1.961-2.818.641a1.785,1.785,0,0,1-.858-.254,2.8,2.8,0,0,1,.225-.633c.588-.842.674-.412,1.7-.7,1.109-.309.118-1.493-.571-2a2.146,2.146,0,0,1-.586-1.428,1.973,1.973,0,0,0,.3-1.185c-.1-1.424.943.478.946,1.471" transform="translate(-62.187 -80.218)" fill="#ca2a21"/>
              <path id="Trazado_705803" data-name="Trazado 705803" d="M298.269,418.237l1.743,9.582-9.486,8.141-1.743-9.581Z" transform="translate(-57.778 -83.679)" fill="#8f7c6b"/>
              <path id="Trazado_705804" data-name="Trazado 705804" d="M279.592,425.155l1.743,9.581-36.742-13.028-1.743-9.582Z" transform="translate(-48.588 -82.456)" fill="#a59280"/>
              <path id="Trazado_705805" data-name="Trazado 705805" d="M289.079,414.978l-9.486,8.142L242.85,410.09l9.485-8.141Z" transform="translate(-48.588 -80.42)" fill="#bda38c"/>
              <path id="Trazado_705806" data-name="Trazado 705806" d="M287.745,415.338l-7.859,6.819L245.453,410.1l7.944-6.817Z" transform="translate(-49.109 -80.686)" fill="#e4c747"/>
              <path id="Trazado_705807" data-name="Trazado 705807" d="M349.042,436.683l1.743,9.582-9.485,8.14-1.743-9.582Z" transform="translate(-67.937 -87.37)" fill="#8f7c6b"/>
              <path id="Trazado_705808" data-name="Trazado 705808" d="M330.367,443.6l1.743,9.582-36.744-13.028-1.743-9.581Z" transform="translate(-58.747 -86.147)" fill="#a59280"/>
              <path id="Trazado_705809" data-name="Trazado 705809" d="M339.851,433.424l-9.485,8.141-36.744-13.028,9.485-8.141Z" transform="translate(-58.747 -84.111)" fill="#bda38c"/>
              <path id="Trazado_705810" data-name="Trazado 705810" d="M338.518,433.785l-7.858,6.819-34.433-12.061,7.942-6.816Z" transform="translate(-59.268 -84.377)" fill="#e4c747"/>
            </g>
          </g>
        </g>
      </g>
    </g>
  </g>
</svg>
