<svg id="Grupo_1003206" data-name="Grupo 1003206" xmlns="http://www.w3.org/2000/svg" xmlns:xlink="http://www.w3.org/1999/xlink" width="96.648" height="96.431" viewBox="0 0 96.648 96.431">
  <defs>
    <clipPath id="clip-path">
      <rect id="Rectángulo_353137" data-name="Rectángulo 353137" width="96.648" height="96.431" fill="none"/>
    </clipPath>
  </defs>
  <g id="Grupo_1003205" data-name="Grupo 1003205" clip-path="url(#clip-path)">
    <path id="Trazado_715090" data-name="Trazado 715090" d="M74.942,25.867c0,4.532.1,9.067-.034,13.595a31.074,31.074,0,0,0,1.248,9.323c2.713,9.8,5.3,19.632,7.94,29.453.036.135.068.272.1.409a1,1,0,0,1-.8,1.392c-1.284.369-2.579.7-3.869,1.044-1.375.369-2.748.748-4.127,1.1-.378.1-.488.286-.483.666.021,1.826.021,3.653.011,5.48-.006.995-.4,1.356-1.395,1.355q-11.654-.006-23.308,0a14.607,14.607,0,0,0-3.459.218c-4.349,1.083-8.666,2.288-13,3.446Q28.241,94.826,22.713,96.3c-1.167.311-1.537.108-1.85-1.038-.471-1.725-.939-3.451-1.389-5.182a.49.49,0,0,0-.576-.44c-2.642.03-5.285.037-7.927.047a5.589,5.589,0,0,1-.738-.044.919.919,0,0,1-.869-.845,4.469,4.469,0,0,1-.038-.629q.016-15.624.036-31.248a29.977,29.977,0,0,0-.025-3.841,33.706,33.706,0,0,0-.982-4.353Q4.48,34.244.572,19.772C.412,19.179.25,18.587.1,17.992c-.26-1.039-.049-1.4,1-1.685,2.156-.579,4.315-1.147,6.473-1.719.442-.118.879-.258,1.326-.348.393-.079.493-.293.487-.669-.029-1.826-.034-3.653-.049-5.479-.008-.963.324-1.329,1.28-1.328q12.314.017,24.627.055a14.918,14.918,0,0,0,3.934-.7L61.435.16c.17-.046.34-.093.513-.124.734-.128,1.106.068,1.314.788.4,1.38.758,2.772,1.135,4.159.092.338.192.674.283,1.013.209.778.208.776,1.035.775,2.537,0,5.074-.014,7.611-.007,1.25,0,1.509.259,1.586,1.5.025.4.029.808.029,1.211q0,8.194,0,16.389M11.45,8.874c-.011.165-.029.3-.03.439q-.012,3.846-.019,7.693-.005,18.442,0,36.885,0,16.23.019,32.46c0,1.2.009,1.2,1.217,1.2H72.086c.7,0,.709,0,.711-.722.006-2.283,0-4.566,0-6.849q0-18.492,0-36.984,0-16.518-.006-33.035V8.874Zm-2.1,7.337L2.212,18.127,9.237,44.218l.107-.029Zm65.594,64,7.117-1.886L75.013,52.223l-.075.019Zm-53.454,9.46c.38,1.45.721,2.788,1.1,4.116.037.129.277.249.441.282a1.241,1.241,0,0,0,.513-.089q7.125-1.9,14.247-3.809c.481-.129.951-.3,1.425-.454l-.029-.046ZM62.733,6.79c-.041-.236-.058-.409-.1-.575q-.422-1.6-.854-3.2c-.212-.788-.214-.785-.985-.58q-6.649,1.77-13.3,3.541c-.783.209-1.555.456-2.332.685.009.043.018.086.027.129Z" transform="translate(0 0)" fill="#fff"/>
    <path id="Trazado_715091" data-name="Trazado 715091" d="M199.057,27.747v-1.7c0-1.146.175-1.351,1.32-1.548.068-.012.133-.038.263-.076,0-1.182,0-2.372,0-3.561,0-.4,0-.808.01-1.212a2.087,2.087,0,0,1,1.244-1.931,4.229,4.229,0,0,1,3.773-.016,2.032,2.032,0,0,1,1.256,1.967c-.005,1.458.008,2.916-.024,4.373-.008.365.132.449.44.491.959.13,1.217.441,1.217,1.423q0,19.63.005,39.261c0,4.056.146,8.113.095,12.168a105.214,105.214,0,0,1-1.135,13.848c-.324,2.221-.706,4.434-1.077,6.648-.156.932-.479,1.182-1.425,1.183q-1.242,0-2.484,0c-.838,0-1.214-.274-1.365-1.077-.266-1.413-.546-2.826-.74-4.25-.367-2.694-.752-5.389-1-8.1a128.3,128.3,0,0,1-.521-17.311c.075-1.684.14-3.37.142-5.056q.019-16.179.007-32.357v-.982a12.731,12.731,0,0,0-1.466.011,1.492,1.492,0,0,0-1.308,1.324,18.492,18.492,0,0,0-.1,2q0,10.487,0,20.974a2.47,2.47,0,0,1-.2,1.008,1,1,0,0,1-1.827-.28,3.143,3.143,0,0,1-.069-.625c0-7.518.023-15.036-.008-22.554a3.8,3.8,0,0,1,2.975-3.835,15.578,15.578,0,0,1,1.99-.208m7.358,36.332V26.626c-1.677,0-3.327,0-4.978,0-.275,0-.352.107-.342.386.031.877.035,1.755.036,2.633q0,16.409,0,32.818V64.03a2.046,2.046,0,0,0,.277.048c1.653,0,3.306,0,5.006,0m-5.34,2.157a142.074,142.074,0,0,0,1.947,30.72c.436,0,.772-.022,1.1.006.361.031.485-.107.53-.462.474-3.759,1.061-7.507,1.427-11.275a130.082,130.082,0,0,0,.53-15.576c-.026-1.137-.093-2.274-.142-3.413Zm3.78-41.737c0-1.277.012-2.468,0-3.659-.019-1.551.214-1.443-1.489-1.475-.5-.01-.659.189-.656.636.008,1.386,0,2.772.029,4.158a.442.442,0,0,0,.285.323c.593.031,1.188.015,1.834.015" transform="translate(-112.019 -9.964)" fill="#fff"/>
    <path id="Trazado_715092" data-name="Trazado 715092" d="M27,20.987H88.349V22.07q0,16.517.006,33.035,0,18.492,0,36.985c0,2.283,0,4.566,0,6.849,0,.724-.014.722-.711.722H28.186c-1.208,0-1.216,0-1.217-1.2Q26.957,82.233,26.95,66q0-18.442,0-36.885c0-2.564.011-5.128.019-7.692,0-.137.018-.274.03-.439M57.635,36.85v-.007q10.782,0,21.564,0c1.058,0,1.392-.338,1.39-1.387q-.006-4.637-.019-9.275c0-1.089-.322-1.405-1.412-1.454-.106,0-.211,0-.317,0q-21.247,0-42.494,0c-1.291,0-1.639.349-1.64,1.62q0,4.505,0,9.011c0,1.149.358,1.5,1.521,1.5H57.635m.094,15.081v-.008H81.4c.722,0,1.444.013,2.165-.019A1.031,1.031,0,0,0,84.6,50.92a1.057,1.057,0,0,0-.955-1.076,12.086,12.086,0,0,0-1.475-.068q-12.628-.006-25.255,0-11.73,0-23.46,0a14.638,14.638,0,0,0-1.842.1.925.925,0,0,0-.822,1,1.01,1.01,0,0,0,.894,1.008,7.633,7.633,0,0,0,.948.048q12.548,0,25.1,0m0,7.983v0q8.983,0,17.966,0c2.607,0,5.214,0,7.82-.013a1.04,1.04,0,0,0,1.083-.935,1.117,1.117,0,0,0-.957-1.143,3.938,3.938,0,0,0-.632-.034q-25.232,0-50.465,0a4.287,4.287,0,0,0-.941.1.955.955,0,0,0-.808,1.017,1.036,1.036,0,0,0,.939.978,7.738,7.738,0,0,0,.9.031h25.1M57.686,67.9H83.048a4.572,4.572,0,0,0,.528-.009,1.033,1.033,0,0,0,.083-2.06,3.526,3.526,0,0,0-.631-.039q-25.231,0-50.462,0a4.7,4.7,0,0,0-.993.11.918.918,0,0,0-.77.94.933.933,0,0,0,.689.954,2.749,2.749,0,0,0,.83.1q12.681.007,25.363,0m-.014,8.011q12.629,0,25.259,0a3.42,3.42,0,0,0,.884-.1.9.9,0,0,0,.707-.933.943.943,0,0,0-.684-.959,2.653,2.653,0,0,0-.83-.11q-25.259-.007-50.518,0a4.7,4.7,0,0,0-.889.093.918.918,0,0,0-.794.92.942.942,0,0,0,.674.969,2.709,2.709,0,0,0,.879.119q12.656.009,25.312,0m0-34.1q-6.446,0-12.891,0a7,7,0,0,0-1,.057.943.943,0,0,0-.828,1,.952.952,0,0,0,.806,1.011,4.319,4.319,0,0,0,.735.058q13.076.005,26.151,0a5.66,5.66,0,0,0,.946-.069,1.021,1.021,0,0,0-.027-2.01,4.608,4.608,0,0,0-.737-.047q-6.578,0-13.155,0M76.008,92.28c-.567-.22-1.155-.505-1.774-.679-2.561-.718-3.993,1.254-4.124,3.281a.926.926,0,0,0,.792.967.969.969,0,0,0,1.144-.687c.085-.266.126-.548.221-.81a1.06,1.06,0,0,1,1.437-.765,2.853,2.853,0,0,1,.793.271,15.927,15.927,0,0,1,1.439.964c.81.607,1.538.383,1.809-.583a3.986,3.986,0,0,1,.113-.458,19.549,19.549,0,0,1,1.066-2.43.878.878,0,0,1,1.448-.25,9.306,9.306,0,0,1,1.5,1.526c.36.446.588.995.915,1.47a.875.875,0,0,0,1.171.282.915.915,0,0,0,.527-1.177,8.015,8.015,0,0,0-3.1-3.949,2.958,2.958,0,0,0-4.078.806,22.283,22.283,0,0,0-1.3,2.219M40.416,83.926H41.9c2.326,0,4.651.008,6.977-.005.789,0,1.288-.425,1.3-1.028.012-.638-.463-1.071-1.233-1.072q-8.431-.009-16.861,0c-.785,0-1.282.427-1.283,1.038s.538,1.053,1.324,1.067c.105,0,.211,0,.317,0h7.981" transform="translate(-15.554 -12.113)" fill="#d5a5a5"/>
    <path id="Trazado_715093" data-name="Trazado 715093" d="M12.363,38.339V66.316l-.107.029L5.23,40.255l7.133-1.916" transform="translate(-3.018 -22.127)" fill="#d5a5a5"/>
    <path id="Trazado_715094" data-name="Trazado 715094" d="M177.22,151.5V123.522l.075-.019c2.337,8.664,4.674,17.329,7.043,26.107L177.22,151.5" transform="translate(-102.282 -71.279)" fill="#d5a5a5"/>
    <path id="Trazado_715095" data-name="Trazado 715095" d="M50.808,212.075H68.5l.029.047c-.475.152-.944.324-1.425.454q-7.121,1.911-14.247,3.809a1.234,1.234,0,0,1-.513.089c-.164-.033-.4-.152-.441-.281-.375-1.329-.715-2.667-1.1-4.117" transform="translate(-29.324 -122.398)" fill="#d5a5a5"/>
    <path id="Trazado_715096" data-name="Trazado 715096" d="M124.372,9.954H106.826c-.009-.043-.019-.086-.027-.129.777-.229,1.55-.476,2.332-.685q6.648-1.778,13.3-3.541c.771-.206.773-.208.985.58q.431,1.6.854,3.2c.044.166.061.339.1.575" transform="translate(-61.639 -3.164)" fill="#d5a5a5"/>
    <path id="Trazado_715097" data-name="Trazado 715097" d="M215.972,76.855c-1.7,0-3.353,0-5.006,0a2.056,2.056,0,0,1-.276-.048V75.237q0-16.409,0-32.818c0-.878,0-1.756-.036-2.633-.01-.279.066-.387.342-.386,1.65,0,3.3,0,4.978,0Z" transform="translate(-121.577 -22.74)" fill="#d5a5a5"/>
    <path id="Trazado_715098" data-name="Trazado 715098" d="M210.409,133.077h5.4c.048,1.139.115,2.276.142,3.413a129.994,129.994,0,0,1-.53,15.576c-.366,3.769-.953,7.517-1.427,11.276-.044.354-.169.493-.529.462-.331-.028-.667-.006-1.1-.006a142.107,142.107,0,0,1-1.947-30.72" transform="translate(-121.354 -76.805)" fill="#d5a5a5"/>
    <path id="Trazado_715099" data-name="Trazado 715099" d="M216.614,27.366c-.646,0-1.242.016-1.834-.015a.442.442,0,0,1-.285-.323c-.025-1.386-.021-2.772-.029-4.158,0-.448.151-.646.656-.636,1.7.032,1.47-.077,1.489,1.475.015,1.19,0,2.381,0,3.659" transform="translate(-123.778 -12.831)" fill="#d6b2b2"/>
    <path id="Trazado_715100" data-name="Trazado 715100" d="M68.223,41.943H46.817c-1.164,0-1.521-.35-1.521-1.5q0-4.505,0-9.011c0-1.271.349-1.62,1.64-1.62l42.494,0c.105,0,.211,0,.317,0,1.091.049,1.408.366,1.412,1.455q.018,4.637.019,9.274c0,1.05-.333,1.387-1.39,1.387q-10.782,0-21.564,0Zm-20.779-2.17H89.066c0-2.545,0-5.036,0-7.527,0-.409-.3-.313-.524-.313q-19.5,0-38.991,0c-.564,0-1.127.016-1.691,0-.279-.007-.424.051-.422.37.008,2.473,0,4.947,0,7.466" transform="translate(-26.142 -17.206)" fill="#fff"/>
    <path id="Trazado_715101" data-name="Trazado 715101" d="M62.97,91.221q-12.549,0-25.1,0a7.633,7.633,0,0,1-.948-.047,1.011,1.011,0,0,1-.894-1.008.926.926,0,0,1,.822-1,14.721,14.721,0,0,1,1.843-.1q11.729-.009,23.459,0,12.628,0,25.256,0a12.086,12.086,0,0,1,1.475.068,1.057,1.057,0,0,1,.955,1.076,1.031,1.031,0,0,1-1.035.984c-.721.032-1.443.018-2.165.018H62.97Z" transform="translate(-20.795 -51.403)" fill="#fff"/>
    <path id="Trazado_715102" data-name="Trazado 715102" d="M62.973,110.138q-12.551,0-25.1,0a7.828,7.828,0,0,1-.9-.031,1.038,1.038,0,0,1-.94-.978.955.955,0,0,1,.809-1.017,4.287,4.287,0,0,1,.941-.1q25.232-.007,50.465,0a3.937,3.937,0,0,1,.632.034,1.117,1.117,0,0,1,.957,1.143,1.041,1.041,0,0,1-1.083.935c-2.606.013-5.213.012-7.82.013q-8.983,0-17.965,0Z" transform="translate(-20.798 -62.337)" fill="#fff"/>
    <path id="Trazado_715103" data-name="Trazado 715103" d="M62.946,129.063q-12.681,0-25.363,0a2.75,2.75,0,0,1-.83-.1.933.933,0,0,1-.689-.954.918.918,0,0,1,.77-.94,4.7,4.7,0,0,1,.993-.11q25.23-.008,50.461,0a3.526,3.526,0,0,1,.631.039,1.033,1.033,0,0,1-.083,2.06,4.569,4.569,0,0,1-.528.009H62.946" transform="translate(-20.814 -73.271)" fill="#fff"/>
    <path id="Trazado_715104" data-name="Trazado 715104" d="M62.935,148.009q-12.656,0-25.312,0a2.7,2.7,0,0,1-.88-.12.942.942,0,0,1-.674-.968.919.919,0,0,1,.794-.92,4.694,4.694,0,0,1,.889-.093q25.26-.006,50.519,0a2.656,2.656,0,0,1,.83.11.943.943,0,0,1,.684.959.9.9,0,0,1-.707.933,3.445,3.445,0,0,1-.885.1q-12.629.007-25.259,0" transform="translate(-20.816 -84.206)" fill="#fff"/>
    <path id="Trazado_715105" data-name="Trazado 715105" d="M79.521,70.241q6.577,0,13.155,0a4.608,4.608,0,0,1,.737.047,1.021,1.021,0,0,1,.027,2.01,5.66,5.66,0,0,1-.946.069q-13.076.005-26.151,0a4.316,4.316,0,0,1-.735-.058,1.026,1.026,0,0,1,.022-2.009,7.125,7.125,0,0,1,1-.057q6.446-.005,12.891,0" transform="translate(-37.399 -40.539)" fill="#fff"/>
    <path id="Trazado_715106" data-name="Trazado 715106" d="M134.914,184.8a22.288,22.288,0,0,1,1.3-2.219,2.958,2.958,0,0,1,4.078-.806,8.012,8.012,0,0,1,3.1,3.949.915.915,0,0,1-.527,1.177.874.874,0,0,1-1.17-.282c-.328-.475-.556-1.025-.916-1.47a9.286,9.286,0,0,0-1.5-1.526.878.878,0,0,0-1.448.25,19.551,19.551,0,0,0-1.066,2.43,3.9,3.9,0,0,0-.113.458c-.271.966-1,1.19-1.809.583a15.914,15.914,0,0,0-1.439-.964,2.857,2.857,0,0,0-.793-.271,1.06,1.06,0,0,0-1.437.765c-.094.263-.136.543-.221.81a.969.969,0,0,1-1.144.687.926.926,0,0,1-.792-.967c.131-2.027,1.563-4,4.124-3.281.619.174,1.207.459,1.774.679" transform="translate(-74.46 -104.63)" fill="#fff"/>
    <path id="Trazado_715107" data-name="Trazado 715107" d="M45.663,166.95H37.682c-.106,0-.212,0-.317,0-.786-.014-1.325-.449-1.324-1.067s.5-1.036,1.283-1.037q8.43-.011,16.861,0c.77,0,1.245.434,1.233,1.072-.011.6-.51,1.024-1.3,1.029-2.325.013-4.651.005-6.977.005h-1.48" transform="translate(-20.801 -95.137)" fill="#fff"/>
    <path id="Trazado_715108" data-name="Trazado 715108" d="M50.37,42.655c0-2.519,0-4.993,0-7.466,0-.318.143-.377.422-.37.563.015,1.127,0,1.691,0q19.5,0,38.991,0c.228,0,.525-.1.524.313,0,2.491,0,4.982,0,7.527Z" transform="translate(-29.069 -20.087)" fill="#d5a5a5"/>
  </g>
</svg>
