<svg id="Grupo_974094" data-name="Grupo 974094" xmlns="http://www.w3.org/2000/svg" xmlns:xlink="http://www.w3.org/1999/xlink" width="131.643" height="134.945" viewBox="0 0 131.643 134.945">
  <defs>
    <clipPath id="clip-path">
      <rect id="Rectángulo_340157" data-name="Rectángulo 340157" width="131.643" height="134.945" fill="none"/>
    </clipPath>
  </defs>
  <g id="Grupo_974093" data-name="Grupo 974093" clip-path="url(#clip-path)">
    <path id="Trazado_700038" data-name="Trazado 700038" d="M133.192,60.586A60.586,60.586,0,1,1,72.605,0a60.586,60.586,0,0,1,60.586,60.586" transform="translate(-1.549)" fill="#ffdeb8"/>
    <path id="Trazado_700039" data-name="Trazado 700039" d="M28.972,154.9l.215-.05a.925.925,0,0,1-.225.006Z" transform="translate(-3.732 -19.951)" fill="#fff"/>
    <path id="Trazado_700040" data-name="Trazado 700040" d="M21.136,47.6l2.34,10.217,8.256-1.891L30.626,51.1l-2.662,3.58-3.275-2.65a1.092,1.092,0,0,1,1.374-1.7l1.506,1.218L29.985,48.3l-.593-2.589Z" transform="translate(-2.723 -5.889)" fill="#ffc403"/>
    <path id="Trazado_700041" data-name="Trazado 700041" d="M26.264,69.989,28.6,80.205l8.256-1.89-1.105-4.828-2.662,3.579-3.275-2.65a1.092,1.092,0,1,1,1.374-1.7L32.7,73.936l2.417-3.249L34.52,68.1Z" transform="translate(-3.384 -8.774)" fill="#ffc403"/>
    <path id="Trazado_700042" data-name="Trazado 700042" d="M37.042,117.048l2.34,10.217,8.256-1.891-1.105-4.829-2.662,3.579L40.6,121.476a1.092,1.092,0,0,1,1.374-1.7l1.505,1.218,2.417-3.249-.593-2.588Z" transform="translate(-4.773 -14.837)" fill="#ffc403"/>
    <path id="Trazado_700043" data-name="Trazado 700043" d="M115.677,134.968l.71-.163-.081-.353a.934.934,0,0,1-.629.516" transform="translate(-14.904 -17.323)" fill="#fff"/>
    <path id="Trazado_700044" data-name="Trazado 700044" d="M70.8,21.481a.932.932,0,0,1-1.115-.7l-.836-3.654-7.928,1.816.837,3.654a.929.929,0,1,1-1.812.415l-.836-3.654L51.191,21.17l.837,3.654a.929.929,0,1,1-1.812.415l-.837-3.654L41.455,23.4l.837,3.654a.929.929,0,1,1-1.812.415l-.836-3.654-7.925,1.815.837,3.653a.93.93,0,1,1-1.812.416l-.836-3.654L21.983,27.86l.836,3.654a.929.929,0,1,1-1.811.415l-.837-3.653-7.927,1.815.837,3.653a.93.93,0,1,1-1.812.416l-.837-3.654L4.6,31.843,28.1,134.46l71.917-16.472L76.512,15.371,70.665,16.71l.836,3.654a.932.932,0,0,1-.7,1.118M48.7,100.8l-3.7,5.006,1.653,7.218a.931.931,0,0,1-.7,1.118l-9.894,2.267a.932.932,0,0,1-1.114-.7l-2.721-11.881a.932.932,0,0,1,.7-1.118l9.894-2.266a.931.931,0,0,1,1.114.7l.436,1.9,2.613-3.534a1.068,1.068,0,0,1,1.5-.22A1.081,1.081,0,0,1,48.7,100.8M43.936,80.027l-3.7,5.006,1.653,7.218a.931.931,0,0,1-.7,1.118L31.3,95.636a.932.932,0,0,1-1.114-.7l-2.721-11.88a.932.932,0,0,1,.7-1.119l9.894-2.266a.931.931,0,0,1,1.114.7l.436,1.905,2.613-3.535a1.068,1.068,0,0,1,1.5-.22,1.081,1.081,0,0,1,.221,1.505M39.45,60.439l-3.7,5.006L37.4,72.663a.932.932,0,0,1-.7,1.118l-9.894,2.266a.932.932,0,0,1-1.114-.7l-2.721-11.88a.931.931,0,0,1,.7-1.118l9.894-2.267a.932.932,0,0,1,1.114.7l.436,1.905,2.613-3.535a1.067,1.067,0,0,1,1.5-.219,1.08,1.08,0,0,1,.222,1.505m-4.4-19.2-3.7,5.006L33,53.46a.932.932,0,0,1-.7,1.118l-9.894,2.266a.931.931,0,0,1-1.114-.7L18.578,44.26a.931.931,0,0,1,.7-1.118l9.894-2.266a.93.93,0,0,1,1.114.7l.436,1.905,2.613-3.535a1.067,1.067,0,0,1,1.5-.22,1.08,1.08,0,0,1,.222,1.505M84,103.515l-30.3,6.941c-.322.073-.676-.274-.791-.777s.051-.97.374-1.045l30.3-6.94c.321-.074.675.274.791.777s-.052.97-.375,1.044m-1.108-5.48-23.048,5.279c-.245.056-.537-.307-.652-.809s-.01-.956.234-1.011l23.048-5.279c.245-.057.537.306.652.808s.01.957-.234,1.012M81.674,93.37l-30.3,6.94c-.321.073-.676-.274-.791-.777s.052-.97.374-1.044l30.3-6.941c.322-.073.676.274.791.777s-.052.97-.374,1.045M79.239,82.738l-30.3,6.94c-.321.073-.676-.274-.791-.777s.052-.97.374-1.045l30.3-6.94c.321-.073.676.274.791.777s-.052.97-.374,1.044m-1.109-5.48L55.082,82.537c-.245.056-.537-.307-.652-.809s-.01-.956.234-1.011l23.048-5.279c.245-.057.537.306.652.808s.01.957-.234,1.012m-1.215-4.665-30.3,6.94c-.321.073-.675-.274-.79-.777s.051-.97.374-1.044l30.3-6.941c.322-.073.676.274.791.777s-.051.97-.374,1.045M74.753,63.15l-30.3,6.94c-.322.074-.676-.274-.791-.777s.052-.97.374-1.044l30.3-6.941c.321-.073.676.274.791.777s-.052.97-.374,1.045m-1.109-5.481L50.6,62.948c-.245.056-.537-.306-.652-.809s-.01-.956.234-1.011l23.048-5.279c.245-.056.537.307.652.809s.01.956-.234,1.011M72.428,53l-30.3,6.94c-.321.074-.675-.274-.791-.777s.052-.97.374-1.044l30.3-6.94c.322-.074.676.274.791.777s-.052.97-.374,1.044m-2.074-9.057-30.3,6.94c-.322.074-.676-.274-.791-.777s.052-.97.374-1.044l30.3-6.94c.321-.074.676.274.791.777s-.052.97-.374,1.044m-1.109-5.48L46.2,43.745c-.245.057-.537-.306-.652-.808s-.01-.957.234-1.012l23.048-5.279c.245-.056.537.307.652.809s.01.956-.234,1.012M68.03,33.8l-30.3,6.94c-.321.074-.675-.274-.791-.777s.052-.97.375-1.044l30.3-6.94c.322-.074.676.274.791.777s-.052.97-.374,1.044" transform="translate(-0.592 -1.98)" fill="#d4fffd"/>
    <path id="Trazado_700045" data-name="Trazado 700045" d="M31.494,92.826l2.34,10.217,8.256-1.891-1.105-4.828L38.322,99.9l-3.275-2.65a1.092,1.092,0,1,1,1.374-1.7l1.505,1.218,2.417-3.249-.593-2.588Z" transform="translate(-4.058 -11.716)" fill="#ffc403"/>
    <path id="Trazado_700046" data-name="Trazado 700046" d="M77.192,11.873a.948.948,0,0,0-1.137-.713l-6.9,1.58.423,1.849,5.974-1.368,23.871,104.22L25.958,134.269,2.087,30.048,8.05,28.683l-.423-1.849L.738,28.411a.949.949,0,0,0-.713,1.137L24.319,135.617a1.048,1.048,0,0,0,1.137.713l75.318-17.251a.986.986,0,0,0,.713-1.137Z" transform="translate(0 -1.435)" fill="#303030"/>
    <rect id="Rectángulo_340151" data-name="Rectángulo 340151" width="8.304" height="1.897" transform="translate(39.317 18.14) rotate(-12.899)" fill="#303030"/>
    <rect id="Rectángulo_340152" data-name="Rectángulo 340152" width="8.304" height="1.897" transform="translate(19.426 22.696) rotate(-12.899)" fill="#303030"/>
    <rect id="Rectángulo_340153" data-name="Rectángulo 340153" width="8.303" height="1.897" transform="translate(49.263 15.862) rotate(-12.9)" fill="#303030"/>
    <rect id="Rectángulo_340154" data-name="Rectángulo 340154" width="8.304" height="1.897" transform="translate(29.371 20.418) rotate(-12.899)" fill="#303030"/>
    <rect id="Rectángulo_340155" data-name="Rectángulo 340155" width="8.307" height="1.897" transform="matrix(0.975, -0.223, 0.223, 0.975, 9.477, 24.974)" fill="#303030"/>
    <rect id="Rectángulo_340156" data-name="Rectángulo 340156" width="8.309" height="1.897" transform="translate(59.207 13.584) rotate(-12.898)" fill="#303030"/>
    <path id="Trazado_700047" data-name="Trazado 700047" d="M31.423,55.619,23.167,57.51l-2.34-10.217L29.083,45.4l.593,2.589,1.489-2-.443-1.935a.949.949,0,0,0-1.137-.713L19.478,45.656a.948.948,0,0,0-.713,1.136l2.763,12.066a.95.95,0,0,0,1.138.713l10.106-2.316a.947.947,0,0,0,.713-1.136l-1.679-7.332-1.489,2Z" transform="translate(-2.415 -5.581)" fill="#303030"/>
    <path id="Trazado_700048" data-name="Trazado 700048" d="M71.631,32.911,40.679,40c-.33.075-.5.55-.384,1.061s.478.863.808.788L72.054,34.76c.329-.076.5-.551.383-1.061s-.478-.863-.806-.788" transform="translate(-5.187 -4.239)" fill="#303030"/>
    <path id="Trazado_700049" data-name="Trazado 700049" d="M74.34,44.74,43.388,51.829c-.329.075-.5.551-.383,1.061s.478.863.807.788l30.952-7.089c.329-.076.5-.551.383-1.061s-.478-.863-.807-.788" transform="translate(-5.536 -5.763)" fill="#303030"/>
    <path id="Trazado_700050" data-name="Trazado 700050" d="M74.163,38.35,50.618,43.743c-.25.057-.358.518-.241,1.029s.415.878.665.821L74.586,40.2c.25-.057.358-.517.241-1.029s-.415-.878-.665-.821" transform="translate(-6.485 -4.94)" fill="#303030"/>
    <path id="Trazado_700051" data-name="Trazado 700051" d="M43.3,22.438l.85,3.71A.949.949,0,1,0,46,25.725l-.849-3.711-.424-1.849-.85-3.712a.949.949,0,0,0-1.85.423l.85,3.712Z" transform="translate(-5.412 -2.025)" fill="#303030"/>
    <path id="Trazado_700052" data-name="Trazado 700052" d="M77.554,14.593l.85,3.71a.949.949,0,1,0,1.85-.423l-.849-3.711-.424-1.849-.85-3.712a.949.949,0,0,0-1.85.423l.85,3.712Z" transform="translate(-9.825 -1.014)" fill="#303030"/>
    <path id="Trazado_700053" data-name="Trazado 700053" d="M66.133,17.209l.85,3.71a.949.949,0,1,0,1.85-.423l-.849-3.711-.424-1.849-.85-3.712a.949.949,0,0,0-1.85.423l.85,3.712Z" transform="translate(-8.354 -1.351)" fill="#303030"/>
    <path id="Trazado_700054" data-name="Trazado 700054" d="M54.718,19.823l.85,3.71a.949.949,0,1,0,1.85-.423L56.569,19.4l-.424-1.849-.85-3.712a.949.949,0,0,0-1.85.423l.85,3.712Z" transform="translate(-6.883 -1.688)" fill="#303030"/>
    <path id="Trazado_700055" data-name="Trazado 700055" d="M9.049,30.284l.85,3.71a.949.949,0,1,0,1.85-.423L10.9,29.86l-.424-1.849L9.626,24.3a.949.949,0,0,0-1.85.423l.85,3.712Z" transform="translate(-0.999 -3.036)" fill="#303030"/>
    <path id="Trazado_700056" data-name="Trazado 700056" d="M31.885,25.053l.85,3.71a.949.949,0,1,0,1.85-.423l-.85-3.711-.423-1.849-.85-3.712a.949.949,0,0,0-1.85.423l.85,3.712Z" transform="translate(-3.941 -2.362)" fill="#303030"/>
    <path id="Trazado_700057" data-name="Trazado 700057" d="M20.468,27.668l.85,3.71a.949.949,0,0,0,1.85-.423l-.849-3.711L21.9,25.4l-.85-3.712a.949.949,0,0,0-1.85.423l.85,3.712Z" transform="translate(-2.47 -2.699)" fill="#303030"/>
    <path id="Trazado_700058" data-name="Trazado 700058" d="M34.613,42.192l-2.674,3.594-1.489,2-2.416,3.248-1.506-1.218a1.093,1.093,0,0,0-1.375,1.7l3.275,2.65,2.663-3.58,1.489-2,3.786-5.09a1.093,1.093,0,1,0-1.754-1.3" transform="translate(-3.189 -5.379)" fill="#303030"/>
    <path id="Trazado_700059" data-name="Trazado 700059" d="M36.551,78.007,28.3,79.9l-2.34-10.217,8.256-1.89.592,2.588,1.49-2-.443-1.934a.949.949,0,0,0-1.137-.713L24.606,68.044a.948.948,0,0,0-.713,1.136l2.763,12.066a.95.95,0,0,0,1.138.713L37.9,79.643a.947.947,0,0,0,.713-1.136l-1.679-7.331-1.489,2Z" transform="translate(-3.075 -8.466)" fill="#303030"/>
    <path id="Trazado_700060" data-name="Trazado 700060" d="M76.758,55.3,45.806,62.388c-.329.075-.5.551-.383,1.061s.478.863.807.788l30.952-7.089c.329-.076.5-.551.383-1.061s-.478-.863-.807-.788" transform="translate(-5.848 -7.124)" fill="#303030"/>
    <path id="Trazado_700061" data-name="Trazado 700061" d="M79.468,67.128,48.516,74.217c-.329.075-.5.551-.383,1.061s.478.863.807.788l30.952-7.089c.329-.076.5-.551.383-1.061s-.478-.863-.807-.788" transform="translate(-6.197 -8.648)" fill="#303030"/>
    <path id="Trazado_700062" data-name="Trazado 700062" d="M79.291,60.738,55.746,66.131c-.25.057-.358.517-.241,1.029s.415.878.665.821l23.545-5.392c.25-.057.358-.518.241-1.029s-.415-.878-.665-.821" transform="translate(-7.145 -7.825)" fill="#303030"/>
    <path id="Trazado_700063" data-name="Trazado 700063" d="M39.741,64.58l-2.674,3.594-1.489,2-2.417,3.249-1.505-1.218a1.092,1.092,0,1,0-1.374,1.7l3.275,2.65,2.662-3.579,1.489-2,3.786-5.09a1.093,1.093,0,0,0-1.754-1.3" transform="translate(-3.849 -8.264)" fill="#303030"/>
    <path id="Trazado_700064" data-name="Trazado 700064" d="M41.782,100.844l-8.256,1.891-2.34-10.217,8.256-1.891.592,2.588,1.49-2-.443-1.934a.949.949,0,0,0-1.137-.713L29.837,90.88a.949.949,0,0,0-.713,1.137l2.763,12.066a.95.95,0,0,0,1.138.713l10.106-2.316a.947.947,0,0,0,.713-1.136l-1.679-7.332-1.489,2Z" transform="translate(-3.749 -11.408)" fill="#303030"/>
    <path id="Trazado_700065" data-name="Trazado 700065" d="M81.989,78.136,51.037,85.225c-.329.075-.5.551-.383,1.061s.478.863.807.788l30.952-7.089c.329-.076.5-.551.383-1.061s-.478-.863-.807-.788" transform="translate(-6.522 -10.066)" fill="#303030"/>
    <path id="Trazado_700066" data-name="Trazado 700066" d="M84.7,89.965,53.746,97.054c-.329.075-.5.55-.383,1.061s.478.863.807.788l30.952-7.089c.329-.076.5-.551.383-1.061s-.478-.863-.807-.788" transform="translate(-6.871 -11.59)" fill="#303030"/>
    <path id="Trazado_700067" data-name="Trazado 700067" d="M84.522,83.575,60.977,88.968c-.25.058-.358.518-.241,1.029s.415.878.665.821l23.545-5.392c.25-.057.358-.517.241-1.029s-.415-.878-.665-.821" transform="translate(-7.819 -10.767)" fill="#303030"/>
    <path id="Trazado_700068" data-name="Trazado 700068" d="M44.972,87.417,42.3,91.011l-1.489,2-2.417,3.249-1.505-1.218a1.092,1.092,0,1,0-1.374,1.7l3.275,2.65,2.662-3.579,1.489-2,3.786-5.09a1.093,1.093,0,1,0-1.754-1.3" transform="translate(-4.523 -11.206)" fill="#303030"/>
    <path id="Trazado_700069" data-name="Trazado 700069" d="M47.33,125.066l-8.256,1.891-2.34-10.217,8.256-1.89.592,2.587,1.49-2-.443-1.934a.949.949,0,0,0-1.137-.713L35.385,115.1a.948.948,0,0,0-.713,1.136l2.763,12.066a.95.95,0,0,0,1.138.713L48.679,126.7a.949.949,0,0,0,.713-1.137l-1.679-7.332-1.489,2Z" transform="translate(-4.464 -14.529)" fill="#303030"/>
    <path id="Trazado_700070" data-name="Trazado 700070" d="M87.537,102.359l-30.952,7.089c-.329.075-.5.55-.383,1.061s.478.863.807.788l30.952-7.089c.329-.076.5-.551.383-1.061s-.478-.863-.807-.788" transform="translate(-7.236 -13.187)" fill="#303030"/>
    <path id="Trazado_700071" data-name="Trazado 700071" d="M90.246,114.187l-30.952,7.089c-.329.075-.5.551-.383,1.061s.478.863.807.788l30.952-7.089c.329-.076.5-.551.383-1.061s-.478-.863-.807-.788" transform="translate(-7.586 -14.711)" fill="#303030"/>
    <path id="Trazado_700072" data-name="Trazado 700072" d="M90.07,107.8l-23.545,5.392c-.25.057-.358.517-.241,1.029s.415.878.665.821l23.545-5.392c.25-.058.358-.517.241-1.029s-.415-.878-.665-.821" transform="translate(-8.534 -13.888)" fill="#303030"/>
    <path id="Trazado_700073" data-name="Trazado 700073" d="M50.52,111.639l-2.674,3.594-1.489,2-2.417,3.249-1.505-1.218a1.092,1.092,0,1,0-1.374,1.7l3.275,2.65L47,120.036l1.489-2,3.786-5.09a1.093,1.093,0,1,0-1.754-1.3" transform="translate(-5.238 -14.327)" fill="#303030"/>
    <path id="Trazado_706080" data-name="Trazado 706080" d="M70.8,21.481a.932.932,0,0,1-1.115-.7l-.836-3.654-7.928,1.816.837,3.654a.929.929,0,1,1-1.812.415l-.836-3.654L51.191,21.17l.837,3.654a.929.929,0,1,1-1.812.415l-.837-3.654L41.455,23.4l.837,3.654a.929.929,0,1,1-1.812.415l-.836-3.654-7.925,1.815.837,3.653a.93.93,0,1,1-1.812.416l-.836-3.654L21.983,27.86l.836,3.654a.929.929,0,1,1-1.811.415l-.837-3.653-7.927,1.815.837,3.653a.93.93,0,1,1-1.812.416l-.837-3.654L4.6,31.843,28.1,134.46l71.917-16.472L76.512,15.371,70.665,16.71l.836,3.654a.932.932,0,0,1-.7,1.118M48.7,100.8l-3.7,5.006,1.653,7.218a.931.931,0,0,1-.7,1.118l-9.894,2.267a.932.932,0,0,1-1.114-.7l-2.721-11.881a.932.932,0,0,1,.7-1.118l9.894-2.266a.931.931,0,0,1,1.114.7l.436,1.9,2.613-3.534a1.068,1.068,0,0,1,1.5-.22A1.081,1.081,0,0,1,48.7,100.8M43.936,80.027l-3.7,5.006,1.653,7.218a.931.931,0,0,1-.7,1.118L31.3,95.636a.932.932,0,0,1-1.114-.7l-2.721-11.88a.932.932,0,0,1,.7-1.119l9.894-2.266a.931.931,0,0,1,1.114.7l.436,1.905,2.613-3.535a1.068,1.068,0,0,1,1.5-.22,1.081,1.081,0,0,1,.221,1.505M39.45,60.439l-3.7,5.006L37.4,72.663a.932.932,0,0,1-.7,1.118l-9.894,2.266a.932.932,0,0,1-1.114-.7l-2.721-11.88a.931.931,0,0,1,.7-1.118l9.894-2.267a.932.932,0,0,1,1.114.7l.436,1.905,2.613-3.535a1.067,1.067,0,0,1,1.5-.219,1.08,1.08,0,0,1,.222,1.505m-4.4-19.2-3.7,5.006L33,53.46a.932.932,0,0,1-.7,1.118l-9.894,2.266a.931.931,0,0,1-1.114-.7L18.578,44.26a.931.931,0,0,1,.7-1.118l9.894-2.266a.93.93,0,0,1,1.114.7l.436,1.905,2.613-3.535a1.067,1.067,0,0,1,1.5-.22,1.08,1.08,0,0,1,.222,1.505M84,103.515l-30.3,6.941c-.322.073-.676-.274-.791-.777s.051-.97.374-1.045l30.3-6.94c.321-.074.675.274.791.777s-.052.97-.375,1.044m-1.108-5.48-23.048,5.279c-.245.056-.537-.307-.652-.809s-.01-.956.234-1.011l23.048-5.279c.245-.057.537.306.652.808s.01.957-.234,1.012M81.674,93.37l-30.3,6.94c-.321.073-.676-.274-.791-.777s.052-.97.374-1.044l30.3-6.941c.322-.073.676.274.791.777s-.052.97-.374,1.045M79.239,82.738l-30.3,6.94c-.321.073-.676-.274-.791-.777s.052-.97.374-1.045l30.3-6.94c.321-.073.676.274.791.777s-.052.97-.374,1.044m-1.109-5.48L55.082,82.537c-.245.056-.537-.307-.652-.809s-.01-.956.234-1.011l23.048-5.279c.245-.057.537.306.652.808s.01.957-.234,1.012m-1.215-4.665-30.3,6.94c-.321.073-.675-.274-.79-.777s.051-.97.374-1.044l30.3-6.941c.322-.073.676.274.791.777s-.051.97-.374,1.045M74.753,63.15l-30.3,6.94c-.322.074-.676-.274-.791-.777s.052-.97.374-1.044l30.3-6.941c.321-.073.676.274.791.777s-.052.97-.374,1.045m-1.109-5.481L50.6,62.948c-.245.056-.537-.306-.652-.809s-.01-.956.234-1.011l23.048-5.279c.245-.056.537.307.652.809s.01.956-.234,1.011M72.428,53l-30.3,6.94c-.321.074-.675-.274-.791-.777s.052-.97.374-1.044l30.3-6.94c.322-.074.676.274.791.777s-.052.97-.374,1.044m-2.074-9.057-30.3,6.94c-.322.074-.676-.274-.791-.777s.052-.97.374-1.044l30.3-6.94c.321-.074.676.274.791.777s-.052.97-.374,1.044m-1.109-5.48L46.2,43.745c-.245.057-.537-.306-.652-.808s-.01-.957.234-1.012l23.048-5.279c.245-.056.537.307.652.809s.01.956-.234,1.012M68.03,33.8l-30.3,6.94c-.321.074-.675-.274-.791-.777s.052-.97.375-1.044l30.3-6.94c.322-.074.676.274.791.777s-.052.97-.374,1.044" transform="translate(592.408 1134.02)" fill="#d4fffd"/>
  </g>
</svg>
