<svg xmlns="http://www.w3.org/2000/svg" xmlns:xlink="http://www.w3.org/1999/xlink" width="130" height="142.293" viewBox="0 0 130 142.293">
  <defs>
    <clipPath id="clip-path">
      <rect id="Rectángulo_349251" data-name="Rectángulo 349251" width="93.369" height="142.293" fill="none"/>
    </clipPath>
  </defs>
  <g id="Grupo_975094" data-name="Grupo 975094" transform="translate(5528 9431)">
    <circle id="Elipse_5659" data-name="Elipse 5659" cx="65" cy="65" r="65" transform="translate(-5528 -9419)" fill="#abffff"/>
    <g id="Grupo_975093" data-name="Grupo 975093" transform="translate(36.368 20)">
      <g id="Grupo_975092" data-name="Grupo 975092" transform="translate(-5546 -9451)">
        <g id="Grupo_975091" data-name="Grupo 975091" clip-path="url(#clip-path)">
          <path id="Trazado_705878" data-name="Trazado 705878" d="M86.861,59.94s16.352-9.167,19.326-8.919c0,0,7.51,1.169,8.424,8.176s1.734,15.361-3.221,18.335l-4.707.5S90.578,59.692,86.861,59.94" transform="translate(-38.439 -22.576)" fill="#8d0a0a"/>
          <path id="Trazado_705879" data-name="Trazado 705879" d="M73.723,29.01c.395.466.77.9,1.134,1.342a15.76,15.76,0,0,1,2.856,5.427,1.959,1.959,0,0,1-.641,2.306,1.807,1.807,0,0,1-2.815-.435,7.021,7.021,0,0,1-.641-1.376,10.759,10.759,0,0,0-4.774-5.832,1.136,1.136,0,0,0-.877-.129q-8.387,3.966-16.748,7.99a2.06,2.06,0,0,0-.25.195c.455.289.873.561,1.3.824a73.525,73.525,0,0,1,13.7,10.45c.828.838,1.566,1.765,2.384,2.614a1.5,1.5,0,0,0,.86.41c.594.061,1.209-.051,1.8.028a1.238,1.238,0,0,0,1.394-.816,19.566,19.566,0,0,0,2.047-6.37c.253-1.569,1.348-2.388,2.636-2.01a1.872,1.872,0,0,1,1.421,2.1A21.274,21.274,0,0,1,76,53.747c-.191.344-.205.536.112.813a7.7,7.7,0,0,1,2.8,6.373c-.011.254.023.511.007.764a12.039,12.039,0,0,0,.964,5.417c1.558,3.854.7,7.589-1.487,11.032a8.392,8.392,0,0,1-3.246,2.961,7.406,7.406,0,0,1-6.806-.019c-.147-.066-.292-.137-.438-.2-.018-.008-.043,0-.112,0a1.857,1.857,0,0,0-.159.259,22.924,22.924,0,0,1-7.608,9.28,1.177,1.177,0,0,0-.541,1.09c.032,1.713.03,3.427.023,5.14-.007,1.736.575,2.465,2.279,2.713,5.1.743,10.2,1.409,15.29,2.214,9.049,1.433,15.315,8.292,16.119,16.626.122,1.264.159,2.541.162,3.813.013,5.882,0,11.764,0,17.646,0,1.8-.831,2.621-2.638,2.621q-43.982,0-87.966,0c-2.03,0-2.754-.819-2.754-3.1q0-8.961,0-17.921a19.248,19.248,0,0,1,1.349-7.465c2.833-6.8,7.86-10.974,15.132-12.216,5.029-.86,10.1-1.481,15.148-2.234,1.654-.247,2.179-.876,2.21-2.553q.051-2.743.027-5.487a1.066,1.066,0,0,0-.367-.739,23.824,23.824,0,0,1-7.6-9.219c-.248-.546-.5-.5-.952-.282-3.083,1.462-6.148,1.1-8.335-.934a11.9,11.9,0,0,1-3.323-5.363,11.361,11.361,0,0,1,.9-9.386,2.933,2.933,0,0,0,.287-1.317c.071-1.754-.022-3.523.173-5.261a6.108,6.108,0,0,1,2.58-4.206c.464-.35.439-.59.206-1.069C14.259,47,13.774,40.324,16.76,33.587a29.272,29.272,0,0,1,2.487-3.9c.132-.2.293-.385.487-.637A14.228,14.228,0,0,1,15.3,26.38a15.189,15.189,0,0,1-5.2-10.976,2.126,2.126,0,0,1,2.161-2.436,6.637,6.637,0,0,1,1.454,0c.71.1.946-.178,1.058-.864a15,15,0,0,1,3.933-8.113A11.576,11.576,0,0,1,26.01.1a11.088,11.088,0,0,1,7.972,2.129,1.1,1.1,0,0,0,1.242.17,28.919,28.919,0,0,1,23.038-.011.97.97,0,0,0,1.068-.11A11.4,11.4,0,0,1,64.81.128a11.241,11.241,0,0,1,9.824,3.785,15.888,15.888,0,0,1,3.989,8.1c.183.985.182.982,1.173.949.392-.013.787-.027,1.179-.007a2.185,2.185,0,0,1,2.294,2.581,15.821,15.821,0,0,1-1.191,4.969,15.457,15.457,0,0,1-8.355,8.5M27.845,64.964h.007c0,2.084-.017,4.168.007,6.251a24.319,24.319,0,0,0,.162,3.118A18.93,18.93,0,0,0,48.738,90.545c4.809-.424,8.714-2.8,11.953-6.254a18.207,18.207,0,0,0,4.837-12.865q.032-7.709,0-15.417a2.137,2.137,0,0,0-.481-1.231,42.227,42.227,0,0,0-6.324-6,98.912,98.912,0,0,0-11.463-7.779.8.8,0,0,0-.94,0,98.184,98.184,0,0,0-11.495,7.734,38.386,38.386,0,0,0-6.385,6.143,2.466,2.466,0,0,0-.57,1.345c-.051,2.916-.026,5.833-.026,8.751m1.046,38.968c.978.976,1.774,1.882,2.683,2.657a22.764,22.764,0,0,0,10.755,5.282,2.115,2.115,0,0,1,1.983,2.323c-.181,1.257-1.146,1.889-2.606,1.77a18.066,18.066,0,0,1-6.8-1.994,31.542,31.542,0,0,1-10.276-8.943.927.927,0,0,0-.977-.441c-1.372.193-2.758.288-4.128.494-1.39.21-2.767.5-4.146.773-.466.092-.665.324-.436.841.736,1.667,1.365,3.387,2.169,5.02a31.332,31.332,0,0,0,8.917,10.674,31.5,31.5,0,0,0,16.891,6.87,33.2,33.2,0,0,0,17.319-2.6,35.664,35.664,0,0,0,11.614-8.489,33.277,33.277,0,0,0,6.469-11.143c.107-.29.2-.586.3-.881a1.652,1.652,0,0,0-.266-.108c-2.917-.474-5.832-.96-8.756-1.393a1.094,1.094,0,0,0-.8.442A30.165,30.165,0,0,1,57.687,114.3a13.891,13.891,0,0,1-6.462,1.595,1.992,1.992,0,0,1-.679-3.835,5.574,5.574,0,0,1,.993-.3A24.041,24.041,0,0,0,62.617,105.9c.651-.576,1.265-1.194,1.9-1.793l-.1-.217c-1.112-.166-2.222-.343-3.334-.5a6.287,6.287,0,0,1-5.594-5.567c-.148-1.35-.041-2.728-.054-4.093,0-.191-.032-.381-.057-.665a22.7,22.7,0,0,1-17.409-.047c0,1.431.032,2.7-.006,3.971a6.359,6.359,0,0,1-5.581,6.408c-1.109.19-2.225.343-3.49.536m34.773-90.98A9.686,9.686,0,0,0,59.444,7.8a20.841,20.841,0,0,0-10.573-3.53A26.888,26.888,0,0,0,38.478,5.44c-.337.113-.658.271-1.037.43a18.228,18.228,0,0,1,2.5,6.658c.06.357.232.478.613.471a22,22,0,0,1,2.766.063A1.994,1.994,0,0,1,45.1,15.115a2.12,2.12,0,0,1-1.816,1.98,7.966,7.966,0,0,1-1.107.061q-13.452,0-26.905,0c-.244,0-.488.031-.714.045a.8.8,0,0,0-.036.206,11.073,11.073,0,0,0,10.543,8.51c14.286-.074,28.574-.02,42.86-.025a13.521,13.521,0,0,0,2.142-.118,10.854,10.854,0,0,0,7.6-5.3,22.588,22.588,0,0,0,1.4-3.247c-.532-.037-.824-.075-1.117-.075q-12.413,0-24.825,0a8.093,8.093,0,0,1-1.382-.071,2.027,2.027,0,0,1-1.326-3.207,2.449,2.449,0,0,1,2.266-.929q4.786-.006,9.571,0h1.4m18.718,94.884c-.534,1.4-.953,2.645-1.482,3.845a32.585,32.585,0,0,1-4.589,7.489A37.517,37.517,0,0,1,36.788,132.28a35.893,35.893,0,0,1-15.408-8.434,38.869,38.869,0,0,1-10.129-15.3c-.24-.682-.3-.666-.89-.233a15.9,15.9,0,0,0-4.533,5.359,1.515,1.515,0,0,0-.11,1.431,35.018,35.018,0,0,0,7.575,11.757c7.171,7.23,15.771,11.148,26,11.264q7.318.083,14.637,0a34.538,34.538,0,0,0,15.407-3.476c8.58-4.312,14.908-10.727,18.413-19.772a1.343,1.343,0,0,0-.022-.967,14.752,14.752,0,0,0-3.559-4.655c-.55-.479-1.141-.91-1.787-1.422M58.076,30.192,58,30.049q-2.425,0-4.851,0c-8.758-.008-17.517-.028-26.275-.008a5,5,0,0,0-2.2.438,8.771,8.771,0,0,0-3.507,3.364A14.671,14.671,0,0,0,19,40.712a21.156,21.156,0,0,0,1.843,10.674c.488,1,1.061,1.711,2.305,1.424a1.27,1.27,0,0,1,.483,0,1.868,1.868,0,0,0,1.914-.862A47.074,47.074,0,0,1,35.057,43.5,138.705,138.705,0,0,1,57.389,30.577c.236-.111.458-.256.686-.385M89.25,121.676l-.169-.144A40.009,40.009,0,0,1,71.91,138.024a2.379,2.379,0,0,0,.731.11c5.336,0,10.671-.016,16.007,0,.541,0,.591-.215.591-.659-.007-4.233.006-8.466.012-12.7q0-1.55,0-3.1M21.357,138.144l.052-.123c-.13-.081-.259-.164-.391-.243-1.384-.833-2.8-1.62-4.148-2.505A39.285,39.285,0,0,1,4.85,122.5c-.2-.332-.463-.628-.8-1.084.028.636.062,1.049.062,1.462.006,4.859.016,9.719,0,14.578,0,.551.139.716.7.7,1.339-.045,2.68-.012,4.02-.012H21.357M18.637,12.917h17.2a11.7,11.7,0,0,0-3.939-7.1,7.207,7.207,0,0,0-8.82-.31,10.327,10.327,0,0,0-3.593,4.664c-.326.854-.545,1.748-.849,2.746m56.027.052a11.3,11.3,0,0,0-3.145-6.488,7.365,7.365,0,0,0-7.5-2.028,12.694,12.694,0,0,0-1.345.535c.275.224.433.351.59.481a12.848,12.848,0,0,1,4.241,5.955c.51,1.556.515,1.551,2.153,1.546s3.269,0,5,0m-50.983,44.1a22.049,22.049,0,0,0-2.61.165,2.913,2.913,0,0,0-2.394,2.4c-.121.511-.075,1.058-.148,1.583a.846.846,0,0,0,.636,1.048,1.557,1.557,0,0,1,1.047,1.62,2.9,2.9,0,0,1-1.162,2.27c1.156,1.792,2.874,1.641,4.63,1.546Zm46.081.059c-.046.093-.084.133-.084.174-.013,3.35-.027,6.7-.022,10.052,0,.125.191.355.3.358,1.263.037,2.549.171,3.636-.722.724-.593.744-.686.108-1.371-.928-1-.869-2.769.24-3.22.954-.389.971-.987.876-1.768-.033-.275-.043-.554-.086-.827a3.183,3.183,0,0,0-2.868-2.668c-.688-.045-1.381-.008-2.1-.008M16.792,69.8c-.835,2.528.806,6.395,3.13,7.5a4.233,4.233,0,0,0,3.741-.054.879.879,0,0,0,.556-1.1c-.188-1.278-.3-2.567-.474-3.847-.021-.149-.258-.39-.388-.386A9.516,9.516,0,0,1,16.792,69.8m52.939,2.081c-.215,1.624-.429,3.151-.6,4.683a.7.7,0,0,0,.323.541,4.366,4.366,0,0,0,3.394.475c2.634-.749,4.367-4.5,3.7-7.7a9.992,9.992,0,0,1-6.814,2" transform="translate(0 0)" fill="#161615"/>
          <path id="Trazado_705880" data-name="Trazado 705880" d="M49.946,97.385c0-2.917-.025-5.834.026-8.751a2.465,2.465,0,0,1,.569-1.345,38.412,38.412,0,0,1,6.386-6.143,98.085,98.085,0,0,1,11.494-7.734.8.8,0,0,1,.94,0,98.912,98.912,0,0,1,11.463,7.779,42.23,42.23,0,0,1,6.324,6,2.14,2.14,0,0,1,.481,1.231q.038,7.708,0,15.417a18.21,18.21,0,0,1-4.837,12.865c-3.239,3.45-7.145,5.829-11.953,6.254a18.93,18.93,0,0,1-20.716-16.213,24.318,24.318,0,0,1-.162-3.118c-.023-2.083-.007-4.167-.007-6.251Zm18.629,19.263a7.22,7.22,0,0,0,7.472-7.332,2.059,2.059,0,0,0-1.781-1.985,2.026,2.026,0,0,0-2.175,1.531c-.094.356-.125.727-.2,1.089a2.928,2.928,0,0,1-2.732,2.51,3.055,3.055,0,0,1-3.349-2.2c-.124-.418-.144-.865-.232-1.294a2.031,2.031,0,0,0-2.216-1.66,1.992,1.992,0,0,0-1.846,2.057,7.249,7.249,0,0,0,7.054,7.279m-6.7-24.43h0c0-.508.032-1.019-.007-1.524a2.022,2.022,0,0,0-1.855-1.918,1.883,1.883,0,0,0-2.164,1.516,16.126,16.126,0,0,0,.023,3.913,1.845,1.845,0,0,0,2.146,1.44,1.955,1.955,0,0,0,1.844-1.835c.052-.526.009-1.061.009-1.593M75.719,92.2h-.005c0,.531-.038,1.065.008,1.592a1.956,1.956,0,0,0,1.821,1.855,1.885,1.885,0,0,0,2.183-1.49,16.784,16.784,0,0,0,0-3.912,1.908,1.908,0,0,0-2.138-1.469A2,2,0,0,0,75.728,90.6c-.05.526-.009,1.061-.009,1.592" transform="translate(-22.1 -32.421)" fill="#bf9667"/>
          <path id="Trazado_705881" data-name="Trazado 705881" d="M40.677,177.771c1.264-.193,2.38-.346,3.49-.536a6.359,6.359,0,0,0,5.581-6.408c.038-1.269.006-2.54.006-3.971a22.7,22.7,0,0,0,17.409.047c.026.283.056.474.057.665.013,1.365-.094,2.743.054,4.093a6.287,6.287,0,0,0,5.594,5.567c1.113.154,2.223.331,3.334.5l.1.217c-.631.6-1.245,1.218-1.9,1.793A24.034,24.034,0,0,1,63.325,185.6a5.624,5.624,0,0,0-.993.3,1.992,1.992,0,0,0,.679,3.835,13.9,13.9,0,0,0,6.462-1.595,30.165,30.165,0,0,0,11.106-9.208,1.1,1.1,0,0,1,.8-.443c2.923.434,5.839.919,8.756,1.394a1.653,1.653,0,0,1,.266.108c-.1.294-.191.59-.3.88a33.274,33.274,0,0,1-6.469,11.143A35.664,35.664,0,0,1,72.023,200.5,33.2,33.2,0,0,1,54.7,203.1a31.506,31.506,0,0,1-16.891-6.87A31.331,31.331,0,0,1,28.9,185.554c-.8-1.633-1.433-3.353-2.169-5.021-.228-.516-.03-.749.436-.841,1.379-.271,2.757-.562,4.146-.773,1.37-.207,2.756-.3,4.128-.494a.927.927,0,0,1,.977.441A31.542,31.542,0,0,0,46.69,187.81a18.076,18.076,0,0,0,6.8,1.993c1.459.119,2.424-.514,2.606-1.77a2.116,2.116,0,0,0-1.983-2.324,22.759,22.759,0,0,1-10.755-5.282c-.908-.775-1.7-1.681-2.683-2.657" transform="translate(-11.786 -73.839)" fill="#bf9667"/>
          <path id="Trazado_705882" data-name="Trazado 705882" d="M75.19,16.28h-1.4q-4.786,0-9.571,0a2.449,2.449,0,0,0-2.266.929,2.027,2.027,0,0,0,1.326,3.207,8.093,8.093,0,0,0,1.382.071q12.413,0,24.825,0c.292,0,.585.038,1.117.075a22.589,22.589,0,0,1-1.4,3.247,10.854,10.854,0,0,1-7.6,5.3,13.521,13.521,0,0,1-2.142.118c-14.287,0-28.574-.05-42.86.025a11.073,11.073,0,0,1-10.543-8.51.779.779,0,0,1,.036-.206c.226-.014.469-.045.714-.045q13.453,0,26.905,0a7.966,7.966,0,0,0,1.107-.061,2.12,2.12,0,0,0,1.816-1.98,1.994,1.994,0,0,0-1.776-2.054,22,22,0,0,0-2.766-.063c-.381.008-.554-.113-.613-.471a18.228,18.228,0,0,0-2.5-6.658c.379-.159.7-.317,1.037-.43A26.886,26.886,0,0,1,60.4,7.6a20.841,20.841,0,0,1,10.573,3.53A9.688,9.688,0,0,1,75.19,16.28" transform="translate(-11.526 -3.329)" fill="#03a4a4"/>
          <path id="Trazado_705883" data-name="Trazado 705883" d="M86.817,193.438c.646.511,1.237.942,1.787,1.422a14.752,14.752,0,0,1,3.559,4.655,1.343,1.343,0,0,1,.022.967c-3.5,9.045-9.833,15.46-18.413,19.772a34.524,34.524,0,0,1-15.407,3.476q-7.318.074-14.637,0c-10.228-.115-18.828-4.034-26-11.264a35.024,35.024,0,0,1-7.575-11.757,1.515,1.515,0,0,1,.11-1.431,15.9,15.9,0,0,1,4.533-5.359c.593-.433.65-.449.89.233a38.869,38.869,0,0,0,10.129,15.3,35.886,35.886,0,0,0,15.408,8.434,37.516,37.516,0,0,0,39.523-13.111,32.586,32.586,0,0,0,4.589-7.489c.529-1.2.948-2.448,1.482-3.845" transform="translate(-4.435 -85.603)" fill="#ffc403"/>
          <path id="Trazado_705884" data-name="Trazado 705884" d="M73.12,54.032c-.229.129-.45.274-.687.385A138.7,138.7,0,0,0,50.1,67.336a47.056,47.056,0,0,0-9.511,8.451,1.868,1.868,0,0,1-1.914.862,1.27,1.27,0,0,0-.483,0c-1.244.287-1.818-.422-2.305-1.425a21.159,21.159,0,0,1-1.844-10.674,14.675,14.675,0,0,1,2.17-6.87,8.776,8.776,0,0,1,3.508-3.364,5,5,0,0,1,2.2-.438c8.758-.02,17.517,0,26.275.008q2.425,0,4.851,0Z" transform="translate(-15.043 -23.84)" fill="#8d0a0a"/>
          <path id="Trazado_705885" data-name="Trazado 705885" d="M146.334,218.152q0,1.55,0,3.1c-.006,4.233-.019,8.466-.012,12.7,0,.444-.05.661-.591.659-5.336-.016-10.672,0-16.007,0a2.371,2.371,0,0,1-.731-.111,40,40,0,0,0,17.172-16.492l.169.144" transform="translate(-57.084 -96.476)" fill="#8d0a0a"/>
          <path id="Trazado_705886" data-name="Trazado 705886" d="M24.569,234.53H12.041c-1.34,0-2.681-.033-4.02.012-.564.019-.7-.146-.7-.7.018-4.859.008-9.718,0-14.578,0-.413-.034-.826-.062-1.462.341.457.6.752.8,1.084a39.293,39.293,0,0,0,12.021,12.769c1.35.885,2.764,1.672,4.148,2.505.131.079.26.162.391.243l-.052.123" transform="translate(-3.211 -96.386)" fill="#8d0a0a"/>
          <path id="Trazado_705887" data-name="Trazado 705887" d="M33.432,16.209c.3-1,.523-1.892.849-2.746A10.324,10.324,0,0,1,37.874,8.8a7.207,7.207,0,0,1,8.82.31,11.7,11.7,0,0,1,3.939,7.1Z" transform="translate(-14.795 -3.292)" fill="#b20d0d"/>
          <path id="Trazado_705888" data-name="Trazado 705888" d="M124.419,16.265c-1.733,0-3.368,0-5,0s-1.643.01-2.153-1.546a12.848,12.848,0,0,0-4.241-5.955c-.157-.13-.316-.258-.59-.481a12.647,12.647,0,0,1,1.345-.535,7.365,7.365,0,0,1,7.5,2.028,11.3,11.3,0,0,1,3.145,6.488" transform="translate(-49.755 -3.296)" fill="#ffc403"/>
          <path id="Trazado_705889" data-name="Trazado 705889" d="M38.379,102.365v10.628c-1.756.095-3.475.246-4.63-1.545a2.9,2.9,0,0,0,1.162-2.271,1.557,1.557,0,0,0-1.047-1.62.846.846,0,0,1-.636-1.048c.073-.525.027-1.072.148-1.582a2.914,2.914,0,0,1,2.394-2.4,22.041,22.041,0,0,1,2.609-.165" transform="translate(-14.697 -45.3)" fill="#bf9667"/>
          <path id="Trazado_705890" data-name="Trazado 705890" d="M125.058,102.46c.716,0,1.409-.037,2.1.008a3.182,3.182,0,0,1,2.868,2.668c.044.273.054.552.087.827.095.781.078,1.38-.876,1.768-1.108.452-1.167,2.222-.24,3.22.636.685.616.778-.107,1.371-1.088.892-2.373.759-3.637.721-.107,0-.3-.233-.3-.358-.006-3.35.008-6.7.022-10.051,0-.041.038-.081.084-.174" transform="translate(-55.295 -45.335)" fill="#bf9667"/>
          <path id="Trazado_705893" data-name="Trazado 705893" d="M77.769,143.669a7.248,7.248,0,0,1-7.054-7.278,1.991,1.991,0,0,1,1.846-2.057,2.031,2.031,0,0,1,2.216,1.66c.089.429.108.877.232,1.294a3.055,3.055,0,0,0,3.349,2.2,2.926,2.926,0,0,0,2.731-2.51c.07-.362.1-.734.2-1.089a2.025,2.025,0,0,1,2.175-1.531,2.058,2.058,0,0,1,1.781,1.984,7.22,7.22,0,0,1-7.472,7.332" transform="translate(-31.293 -59.442)" fill="#161615"/>
          <path id="Trazado_705894" data-name="Trazado 705894" d="M68.081,104.522c0,.531.042,1.066-.009,1.593a1.954,1.954,0,0,1-1.845,1.835,1.845,1.845,0,0,1-2.146-1.439,16.154,16.154,0,0,1-.023-3.913,1.884,1.884,0,0,1,2.165-1.516A2.021,2.021,0,0,1,68.077,103c.038.506.007,1.016.007,1.525h0" transform="translate(-28.3 -44.726)" fill="#161615"/>
          <path id="Trazado_705895" data-name="Trazado 705895" d="M96.167,104.5c0-.531-.041-1.066.009-1.592a2,2,0,0,1,1.858-1.831,1.908,1.908,0,0,1,2.138,1.469,16.783,16.783,0,0,1,0,3.912,1.885,1.885,0,0,1-2.183,1.49,1.956,1.956,0,0,1-1.821-1.855c-.046-.527-.008-1.061-.008-1.592h.005" transform="translate(-42.549 -44.726)" fill="#161615"/>
        </g>
      </g>
    </g>
  </g>
</svg>
