<svg id="Grupo_975108" data-name="Grupo 975108" xmlns="http://www.w3.org/2000/svg" xmlns:xlink="http://www.w3.org/1999/xlink" width="131.878" height="140.861" viewBox="0 0 131.878 140.861">
  <defs>
    <clipPath id="clip-path">
      <rect id="Rectángulo_349267" data-name="Rectángulo 349267" width="131.878" height="140.861" fill="none"/>
    </clipPath>
  </defs>
  <g id="Grupo_975107" data-name="Grupo 975107" clip-path="url(#clip-path)">
    <path id="Trazado_705938" data-name="Trazado 705938" d="M131.866,70.444q0,18.359.012,36.717a2.806,2.806,0,0,1-1.681,2.864c-3.817,1.821-7.612,3.689-11.415,5.538q-13.571,6.6-27.143,13.19-9.876,4.785-19.773,9.526c-1.565.754-3.141,1.487-4.688,2.279a2.571,2.571,0,0,1-2.479-.03q-6.5-3.173-13.025-6.309-11.862-5.72-23.727-11.434c-8.745-4.236-17.471-8.512-26.217-12.744A2.817,2.817,0,0,1,0,107.206Q.021,70.42,0,33.635A2.809,2.809,0,0,1,1.726,30.8Q26.67,18.732,51.591,6.613c4.278-2.076,8.573-4.119,12.83-6.24A3.085,3.085,0,0,1,67.4.4C72.729,2.985,78.079,5.521,83.41,8.1q22.137,10.7,44.263,21.428c.967.468,1.911.984,2.866,1.475a2.391,2.391,0,0,1,1.325,2.242c0,.184,0,.368,0,.551V70.444M4.112,36.16v1.808q0,34.1-.007,68.2a.738.738,0,0,0,.51.772q4.09,1.938,8.165,3.909,7.439,3.6,14.87,7.215c4.544,2.209,9.08,4.434,13.628,6.633q11.021,5.327,22.055,10.628c.153.074.32.121.568.212,0-.62,0-1.144,0-1.669q.007-34.065.022-68.13a.928.928,0,0,0-.6-1C61.7,63.988,60.1,63.2,58.512,62.391a2.049,2.049,0,0,1-1.15-2.276,1.981,1.981,0,0,1,2.9-1.35c1.7.79,3.37,1.644,5.04,2.5a1.292,1.292,0,0,0,1.287-.012q4.3-2.142,8.615-4.241c1.767-.861,3.522-1.756,5.327-2.532a2.041,2.041,0,0,1,2.856,2.014,2.088,2.088,0,0,1-1.431,1.769c-4.023,1.974-8.006,4.039-12.088,5.879a2.849,2.849,0,0,0-1.936,3.114q.1,33.721.056,67.443c0,.246,0,.492,0,.847.279-.1.47-.153.644-.237q13.241-6.415,26.48-12.833,16.053-7.762,32.121-15.492a.822.822,0,0,0,.545-.9c-.034-.848-.015-1.7-.015-2.548q0-32.688,0-65.376V36.207c-.392.164-.707.278-1.008.423q-8.645,4.181-17.294,8.353a1.009,1.009,0,0,0-.683,1.073c.02,7.854,0,15.707.028,23.56a2.751,2.751,0,0,1-1.742,2.816c-2.12.971-4.2,2.028-6.3,3.034C97.975,76.8,95.167,78.081,92.4,79.45a2.091,2.091,0,0,1-3.19-1.818c-.024-.412-.031-.826-.031-1.238q0-11.436.009-22.871a.783.783,0,0,0-.493-.847c-6.07-2.941-12.118-5.926-18.188-8.865-6.6-3.2-13.229-6.346-19.834-9.538Q39.433,28.84,28.222,23.349a1.916,1.916,0,0,0-1.9-.008c-5.028,2.467-10.075,4.9-15.116,7.342-1.471.713-2.946,1.42-4.512,2.175,1.087.5,2.071.932,3.036,1.4Q20.643,39.575,31.553,44.9c5.531,2.688,11.075,5.348,16.61,8.028,1.152.558,2.316,1.1,3.422,1.739a1.922,1.922,0,0,1,.743,2.631,2,2,0,0,1-2.546.861c-.256-.1-.507-.21-.754-.328-2.95-1.41-5.9-2.811-8.846-4.236q-15.9-7.695-31.788-15.4c-1.373-.665-2.756-1.31-4.282-2.034M48.8,12.527c.97.455,1.875.871,2.773,1.3Q62.289,19,73,24.174q17.283,8.372,34.562,16.751a1.058,1.058,0,0,0,.809.006q7.017-3.363,14.013-6.768c.839-.407,1.674-.824,2.6-1.279-.25-.145-.4-.244-.557-.321q-10.023-4.875-20.047-9.745-7.5-3.64-15-7.272Q77.931,10.006,66.476,4.47a1.285,1.285,0,0,0-1.228.078c-2.6,1.246-5.2,2.476-7.793,3.733-2.855,1.386-5.7,2.794-8.658,4.245m54.432,30.935c-.283-.153-.454-.254-.633-.34Q87.5,35.818,72.41,28.516,58.615,21.837,44.831,15.137a1.309,1.309,0,0,0-1.28.017c-3.5,1.7-7,3.367-10.507,5.051-.314.151-.613.33-1,.538,1,.456,1.9.846,2.784,1.275q10.24,4.97,20.475,9.952Q72.952,40.526,90.6,49.079a1.087,1.087,0,0,0,1.084,0c1.938-.98,3.89-1.931,5.844-2.88,1.863-.9,3.733-1.8,5.7-2.741m1.315,3.954c-3.25,1.546-6.377,3.108-9.571,4.516a2.372,2.372,0,0,0-1.647,2.642c.112,6.353.051,12.708.055,19.063,0,.235.02.471.035.783,3.678-1.776,7.257-3.5,10.82-5.248a.915.915,0,0,0,.37-.7q.025-10.289,0-20.578a4.163,4.163,0,0,0-.064-.478" transform="translate(0 0)" fill="#161615"/>
    <path id="Trazado_705939" data-name="Trazado 705939" d="M7.457,54.968c1.525.724,2.908,1.37,4.282,2.035q15.895,7.7,31.788,15.4c2.942,1.424,5.9,2.826,8.846,4.235.247.118.5.23.754.328a2,2,0,0,0,2.546-.861,1.922,1.922,0,0,0-.743-2.632c-1.106-.639-2.27-1.181-3.422-1.739-5.535-2.68-11.08-5.34-16.611-8.028Q23.978,58.4,13.073,53.069c-.965-.47-1.949-.9-3.036-1.4,1.567-.755,3.041-1.463,4.512-2.175,5.042-2.442,10.088-4.874,15.117-7.342a1.916,1.916,0,0,1,1.9.008q11.207,5.5,22.451,10.923c6.605,3.193,13.232,6.341,19.834,9.538,6.071,2.94,12.119,5.925,18.188,8.866a.78.78,0,0,1,.493.846q-.012,11.436-.009,22.872c0,.413.007.826.031,1.238a2.091,2.091,0,0,0,3.19,1.817c2.766-1.368,5.574-2.652,8.359-3.984,2.1-1.006,4.184-2.063,6.3-3.033a2.751,2.751,0,0,0,1.741-2.816c-.029-7.854-.008-15.707-.028-23.56a1.009,1.009,0,0,1,.683-1.073q8.659-4.152,17.294-8.353c.3-.145.616-.26,1.007-.424v1.952q0,32.688,0,65.376c0,.849-.019,1.7.014,2.548a.821.821,0,0,1-.545.9q-16.067,7.731-32.121,15.493-13.246,6.4-26.48,12.833c-.174.084-.364.135-.643.237V153.5q-.008-33.72-.056-67.442a2.849,2.849,0,0,1,1.936-3.115c4.083-1.84,8.066-3.9,12.088-5.879A2.087,2.087,0,0,0,86.733,75.3a2.04,2.04,0,0,0-2.856-2.013c-1.8.776-3.559,1.67-5.326,2.532q-4.316,2.1-8.616,4.241a1.293,1.293,0,0,1-1.287.012c-1.67-.852-3.341-1.706-5.041-2.5a1.981,1.981,0,0,0-2.9,1.349,2.049,2.049,0,0,0,1.15,2.276c1.589.809,3.19,1.6,4.809,2.344a.929.929,0,0,1,.6,1.005q-.021,34.065-.022,68.13v1.669c-.248-.091-.414-.138-.568-.212q-11.029-5.311-22.055-10.629c-4.548-2.2-9.084-4.424-13.628-6.633q-7.432-3.613-14.87-7.216-4.075-1.972-8.165-3.909a.737.737,0,0,1-.509-.771q.016-34.1.007-68.2V54.968m6.919,48.009a2.135,2.135,0,0,0-2.164,1.627,2.105,2.105,0,0,0,1.317,2.251q6.153,3.016,12.316,6.008c1.87.907,3.747,1.8,5.637,2.664A1.846,1.846,0,0,0,33.72,115a1.808,1.808,0,0,0,.238-2.225,3.271,3.271,0,0,0-1.21-1.065Q24,107.449,15.221,103.257a5.473,5.473,0,0,0-.845-.279M25.6,119.346a2.163,2.163,0,0,0-1.364-1.981q-4.653-2.253-9.329-4.458a1.906,1.906,0,0,0-2.4.747,1.986,1.986,0,0,0,.949,2.977c1.229.654,2.482,1.264,3.737,1.867,1.872.9,3.742,1.807,5.638,2.651a1.99,1.99,0,0,0,2.773-1.8" transform="translate(-3.344 -18.809)" fill="#e2be95"/>
    <path id="Trazado_705940" data-name="Trazado 705940" d="M88.542,16.066c2.958-1.452,5.8-2.86,8.658-4.245,2.591-1.257,5.2-2.488,7.793-3.733a1.284,1.284,0,0,1,1.228-.078q11.448,5.552,22.909,11.075,7.5,3.627,15,7.272,10.025,4.869,20.047,9.745c.158.077.306.176.557.321-.924.455-1.758.872-2.6,1.279q-7,3.394-14.012,6.768a1.058,1.058,0,0,1-.809-.006Q130.022,36.1,112.748,27.713q-10.71-5.188-21.434-10.344c-.9-.433-1.8-.848-2.773-1.3" transform="translate(-39.744 -3.539)" fill="#e2be95"/>
    <path id="Trazado_705941" data-name="Trazado 705941" d="M129.331,55.66c-1.969.946-3.839,1.836-5.7,2.742-1.953.949-3.906,1.9-5.844,2.879a1.084,1.084,0,0,1-1.083,0Q99.06,52.714,81.408,44.167,71.166,39.2,60.933,34.216c-.883-.428-1.785-.818-2.784-1.275.384-.208.683-.387,1-.537,3.5-1.684,7.01-3.356,10.507-5.052a1.309,1.309,0,0,1,1.28-.016q13.782,6.706,27.579,13.379Q113.6,48.022,128.7,55.32c.179.086.35.187.633.339" transform="translate(-26.102 -12.199)" fill="#abffff"/>
    <path id="Trazado_705942" data-name="Trazado 705942" d="M180.555,86.033a4.164,4.164,0,0,1,.064.478q.009,10.289,0,20.578a.915.915,0,0,1-.37.7c-3.563,1.752-7.142,3.472-10.82,5.248-.015-.312-.035-.548-.035-.783,0-6.354.057-12.71-.055-19.063a2.372,2.372,0,0,1,1.647-2.642c3.194-1.409,6.321-2.971,9.571-4.516" transform="translate(-76.011 -38.618)" fill="#abffff"/>
    <path id="Trazado_705943" data-name="Trazado 705943" d="M18.219,152.722a5.477,5.477,0,0,1,.845.279q8.77,4.208,17.525,8.451a3.266,3.266,0,0,1,1.21,1.065,1.808,1.808,0,0,1-.237,2.225,1.846,1.846,0,0,1-2.238.53c-1.89-.863-3.767-1.756-5.637-2.664q-6.165-2.99-12.315-6.008a2.1,2.1,0,0,1-1.318-2.251,2.135,2.135,0,0,1,2.164-1.627" transform="translate(-7.187 -68.553)" fill="#161615"/>
    <path id="Trazado_705944" data-name="Trazado 705944" d="M29.43,177.035a1.992,1.992,0,0,1-2.775,1.8c-1.9-.845-3.766-1.752-5.638-2.651-1.255-.6-2.508-1.214-3.737-1.867a1.986,1.986,0,0,1-.949-2.977,1.906,1.906,0,0,1,2.4-.747q4.679,2.2,9.329,4.458a2.167,2.167,0,0,1,1.366,1.98" transform="translate(-7.171 -76.5)" fill="#161615"/>
  </g>
</svg>
