<svg xmlns="http://www.w3.org/2000/svg" xmlns:xlink="http://www.w3.org/1999/xlink" width="166.977" height="150" viewBox="0 0 166.977 150">
  <defs>
    <clipPath id="clip-path">
      <rect id="Rectángulo_353119" data-name="Rectángulo 353119" width="124.949" height="124.666" fill="none"/>
    </clipPath>
  </defs>
  <g id="Grupo_1003096" data-name="Grupo 1003096" transform="translate(-285 -826)">
    <circle id="Elipse_5683" data-name="Elipse 5683" cx="75" cy="75" r="75" transform="translate(285 826)" fill="#abffff"/>
    <g id="Grupo_1003189" data-name="Grupo 1003189" transform="translate(327.028 838.667)">
      <g id="Grupo_1003188" data-name="Grupo 1003188" clip-path="url(#clip-path)">
        <path id="Trazado_715043" data-name="Trazado 715043" d="M96.173,9.961c1.013-4.443,3.4-7.772,7.938-9.213a11.006,11.006,0,0,1,9.12.914,11.721,11.721,0,0,1,5.52,7.62c.885,3.363-.071,6.356-2.008,9.159a2.532,2.532,0,0,0,.215.185,17.46,17.46,0,0,1,7.968,14.856c.03,1.683,0,3.367,0,5.051a3.685,3.685,0,0,1-2.948,3.989c-.095.029-.186.067-.312.113.327,1.1.668,2.169.966,3.253a61.091,61.091,0,0,1,2.274,18.332,66.336,66.336,0,0,1-2.829,16.673,63.177,63.177,0,0,1-3.394,8.708,1.672,1.672,0,0,0-.021,1.037,11.523,11.523,0,0,1-1.846,9.832c.126.1.273.226.43.339a17.545,17.545,0,0,1,7.672,14.348c.052,1.8.012,3.611.007,5.416a3.846,3.846,0,0,1-4.083,4.089q-13.3.007-26.6,0a3.758,3.758,0,0,1-4.008-3.7c-.062-.864-.01-1.738-.01-2.718-18.452,8.522-36.905,8.607-55.394-.019,0,.782,0,1.461,0,2.142-.017,2.822-1.512,4.3-4.355,4.3q-13.087,0-26.173-.017a5.933,5.933,0,0,1-2.072-.392,3.093,3.093,0,0,1-2.082-2.962c-.036-3.055-.3-6.125.283-9.163a17.1,17.1,0,0,1,7.413-11.279c.333-.229.45-.371.2-.752a11,11,0,0,1-1.525-9.791,1.33,1.33,0,0,0-.122-.8c-1.107-2.783-2.339-5.522-3.319-8.348A56.5,56.5,0,0,1,.462,69.5C-1.3,55.189,2.01,42.03,9.591,29.858A63.356,63.356,0,0,1,22.379,15.169a68.791,68.791,0,0,1,7.473-5.45A61.582,61.582,0,0,1,53.483.78,55.267,55.267,0,0,1,71.275.665,63.305,63.305,0,0,1,95.793,9.822c.085.054.175.1.264.147.014.007.037,0,.115-.007M26.713,100.435c.156.133.27.246.4.339a17.842,17.842,0,0,1,6.3,7.725,2.834,2.834,0,0,0,1.3,1.437,53.129,53.129,0,0,0,9.5,4.35,53.891,53.891,0,0,0,11.543,2.684,59.453,59.453,0,0,0,17.968-.7A53.183,53.183,0,0,0,90.676,109.7a2.237,2.237,0,0,0,.822-.984,17.665,17.665,0,0,1,3.654-5.558c.513-.51.96-1.084,1.542-1.748a5.269,5.269,0,0,1-.646-.5q-17.7-17.634-35.4-35.264a5.626,5.626,0,0,1-1.8-4.26Q58.9,34.761,58.9,8.137c0-.47-.14-.614-.595-.553-2.334.309-4.7.463-7,.932A52.429,52.429,0,0,0,25.692,21.661,58.31,58.31,0,0,0,11.2,42.678,54.051,54.051,0,0,0,10,79.341c.5,1.492,1.1,2.948,1.689,4.5a11.8,11.8,0,0,1,8.162-1.377,10.763,10.763,0,0,1,6.825,4.551c2.931,4.119,3.229,8.615.041,13.418m90.85-41.676c-.156-1.416-.272-2.746-.453-4.067a52.626,52.626,0,0,0-2.99-11.686.551.551,0,0,0-.624-.413c-3.783.017-7.565.015-11.348.018-2.746,0-5.492.021-8.237,0a3.476,3.476,0,0,1-3.651-3.334c-.107-2.043-.079-4.1-.05-6.143a17.137,17.137,0,0,1,4.507-11.574c.647-.719,1.369-1.371,2.093-2.09-.2-.166-.343-.3-.5-.42A53.494,53.494,0,0,0,67.256,7.688c-1.106-.089-1.1-.071-1.1,1.04q.019,24.647.013,49.293c0,.648.178.757.768.757q24.985-.008,49.969.015c.178,0,.355-.018.653-.034m-.128,7.338H71.312L96.374,91.069a11.33,11.33,0,0,1,6.649-7.8,11.136,11.136,0,0,1,10.272.48c1.864-3.337,4.3-13.7,4.14-17.653m.133-30.784c.332-4.466-.613-8.42-4.751-10.771a9.884,9.884,0,0,0-11.262.493c-3.464,2.49-4.428,6.127-3.967,10.278Zm-110.14,82h20.1c.26-4.284-.606-8.131-4.459-10.533a9.9,9.9,0,0,0-11.008-.073c-3.942,2.422-4.944,6.236-4.636,10.606m110.14.02c.351-4.7-.758-8.7-5.226-10.985a9.761,9.761,0,0,0-10.958.9c-3.328,2.514-4.216,6.076-3.826,10.089ZM13.275,93.754a4.27,4.27,0,0,0,4.227,4.1,4.185,4.185,0,0,0,.1-8.369,4.3,4.3,0,0,0-4.332,4.27m94.238-77.975a3.987,3.987,0,0,0,4.216-4.2,4.187,4.187,0,0,0-4.112-4.116,4.118,4.118,0,0,0-4.241,4.027,4.05,4.05,0,0,0,4.137,4.284m-4.072,77.906a4.088,4.088,0,0,0,4.093,4.155,4.016,4.016,0,0,0,4.193-4.17,4.14,4.14,0,0,0-4.291-4.178,4.089,4.089,0,0,0-3.994,4.193" transform="translate(0 0)" fill="#161615"/>
      </g>
    </g>
  </g>
</svg>
