<svg id="Grupo_975096" data-name="Grupo 975096" xmlns="http://www.w3.org/2000/svg" xmlns:xlink="http://www.w3.org/1999/xlink" width="159.537" height="173.127" viewBox="0 0 159.537 173.127">
  <defs>
    <clipPath id="clip-path">
      <rect id="Rectángulo_349252" data-name="Rectángulo 349252" width="159.537" height="173.127" fill="none"/>
    </clipPath>
  </defs>
  <g id="Grupo_975095" data-name="Grupo 975095" clip-path="url(#clip-path)">
    <path id="Trazado_705896" data-name="Trazado 705896" d="M156.079,107.79s35.572,8.441,47.63-29.844l-.6-3.919Z" transform="translate(-50.213 -23.815)" fill="#07ff8b"/>
    <path id="Trazado_705897" data-name="Trazado 705897" d="M150.525,54.5c-14.5,8.349-28.3,17.306-41.213,28.018.465.045.695.085.924.088a55.508,55.508,0,0,0,12.32-1.156,42.08,42.08,0,0,0,9.369-3.265,2.468,2.468,0,0,1,3.638,2.466,2.625,2.625,0,0,1-1.749,2.19,46.33,46.33,0,0,1-10.087,3.532,58.6,58.6,0,0,1-19.141,1.013,1.561,1.561,0,0,0-1.527.6A25.036,25.036,0,0,0,97.3,98.548c-.069.294-.119.593-.2,1,1.256.108,2.425.182,3.589.313a61.878,61.878,0,0,1,25.235,8.217c3.87,2.325,7.422,5.19,11.057,7.891,2.3,1.712,4.509,3.56,6.735,5.375a1,1,0,0,0,1.346.11,12.847,12.847,0,0,1,4.652-2.118,8.431,8.431,0,0,1,9.5,6.4,8.968,8.968,0,0,1-3.566,9.813c-9.05,6.216-18.129,12.388-27.169,18.62A21.779,21.779,0,0,1,117.8,157.7c-5.327.492-10.646,1.06-15.967,1.6q-8.824.892-17.646,1.791-2.647.269-5.293.534a20.654,20.654,0,0,1-8.781-1.228c-6.444-2.181-12.929-4.239-19.4-6.337a5.286,5.286,0,0,0-5.63,1.208c-1.169,1.1-2.4,2.132-3.556,3.247a1.117,1.117,0,0,0-.231.994,7.351,7.351,0,0,1-3.474,9.427c-1.913,1.011-3.734,2.2-5.625,3.254a6.867,6.867,0,0,1-9.377-2.443c-1.776-2.77-3.421-5.625-5.064-8.477-3.6-6.24-7.148-12.506-10.73-18.755-1.888-3.294-3.714-6.628-5.729-9.843A7.279,7.279,0,0,1,4.056,122c1.8-.993,3.532-2.1,5.327-3.1a6.914,6.914,0,0,1,8.451.751.768.768,0,0,0,1.031.088c5.972-3.384,11.887-6.88,17.955-10.082a29.556,29.556,0,0,1,21.253-2.99,31.786,31.786,0,0,1,3.45,1.1,1.809,1.809,0,0,0,1.671-.159,58.138,58.138,0,0,1,18.27-6.752c3.028-.6,6.124-.864,9.19-1.278.242-.033.486-.054.787-.086a20.4,20.4,0,0,0-2.718-7.2,51.12,51.12,0,0,0-3.513-4.633,1.333,1.333,0,0,0-1.024-.288,55.491,55.491,0,0,1-26.15-3.12c-9.835-3.8-16.824-10.635-21.65-19.853a49.149,49.149,0,0,1-4.318-12.647c-.574-2.679,1.264-4.376,3.364-4.92a6.085,6.085,0,0,1,1.671-.186A77.13,77.13,0,0,1,61.72,51.212,42.937,42.937,0,0,1,78.84,62.475,34.778,34.778,0,0,1,87.69,81.2a5.937,5.937,0,0,0,1.762,3.862,27.687,27.687,0,0,1,2.134,2.443c.029-.633.066-1.063.065-1.492,0-6.113-.018-12.227,0-18.34A1.91,1.91,0,0,0,91,66.134a37.25,37.25,0,0,1-9.917-15.192,38.585,38.585,0,0,1-2.012-14.553,61.289,61.289,0,0,1,6.14-23.861q2.532-5.189,5.434-10.2C92.459-.8,95.7-.755,97.639,2.323A76.328,76.328,0,0,1,108.46,29.69a41.665,41.665,0,0,1-2.286,23.865,36.119,36.119,0,0,1-8.989,12.729,1.529,1.529,0,0,0-.478.979c-.028,6.706-.022,13.41-.02,20.116,0,.13.02.259.035.443,1.248-1.422,2.542-2.713,3.593-4.179a5.865,5.865,0,0,0,.539-2.43c1.45-9.539,6.184-17.129,13.638-23.136a47.79,47.79,0,0,1,17.388-8.5,79.934,79.934,0,0,1,19.145-2.932,5.623,5.623,0,0,1,4.291,1.388,3.861,3.861,0,0,1,1.158,3.851,46.028,46.028,0,0,1-11.442,22.6c-1.388,1.471-2.412,1.746-3.68.988a2.255,2.255,0,0,1-.745-3.411c.745-1.019,1.639-1.93,2.437-2.913a42.9,42.9,0,0,0,7.315-13.7,7.825,7.825,0,0,0,.166-.955M26.589,139.326c2.349-.555,2.923-.322,4.173,1.821,2.227,3.815,4.43,7.643,6.649,11.462.345.595.722,1.171,1.115,1.806,1.042-.936,2-1.768,2.921-2.63a10.326,10.326,0,0,1,10.927-2.424c6.607,2.136,13.224,4.239,19.83,6.372a14.478,14.478,0,0,0,5.881.9q8.615-.837,17.224-1.713,7.979-.8,15.957-1.626c2.773-.284,5.548-.54,8.313-.88a16.814,16.814,0,0,0,7.477-3.317c8.471-5.863,16.985-11.664,25.456-17.528a5.335,5.335,0,0,0,1.706-1.9,3.828,3.828,0,0,0-1.07-4.448,3.37,3.37,0,0,0-4.079-.262c-5.7,3-11.443,5.925-17.089,9.026a45.852,45.852,0,0,1-20.556,5.32c-4.472.189-8.943.448-13.411.728-3.9.244-7.8.579-11.709.827a3.17,3.17,0,0,1-1.608-.345,2.361,2.361,0,0,1-1.185-2.733,2.566,2.566,0,0,1,2.435-1.881q6.106-.45,12.217-.847c4.186-.279,8.372-.57,12.561-.785.846-.043.994-.422.962-1.09-.146-3.035-2.369-6.6-6.119-7.078-4.6-.581-9.217-1.115-13.821-1.694-2.6-.327-5.207-.593-7.77-1.087a27.675,27.675,0,0,1-9.335-3.993,60.035,60.035,0,0,0-16.4-7.372A24.8,24.8,0,0,0,39.5,113.94c-5.792,3.128-11.512,6.391-17.26,9.6-.407.227-.794.49-1.2.746,1.066,1.83,2.1,3.57,3.1,5.331.9,1.59.7,2.61-.686,3.78a1.126,1.126,0,0,1-.268.166l3.414,5.763M139.259,124.34c-.307-.255-.475-.4-.649-.537l-8.237-6.464a58.144,58.144,0,0,0-36.18-12.6,83.458,83.458,0,0,0-9.808.822,51.789,51.789,0,0,0-14.471,4.355,8.246,8.246,0,0,0-.827.508c.357.221.563.361.779.481,3.074,1.7,6.162,3.379,9.22,5.109a17.152,17.152,0,0,0,6.109,2.307q3,.411,6.013.787c5.073.627,10.155,1.193,15.221,1.876a12.42,12.42,0,0,1,10.388,11.9c.032.747.275.812.911.726a27.352,27.352,0,0,0,8.194-2.488c3.653-1.748,7.23-3.651,10.839-5.489.8-.4,1.588-.817,2.5-1.287M38.227,54.616l-.166.17a2.945,2.945,0,0,0,.1.473c.7,1.808,1.317,3.653,2.123,5.411A35.313,35.313,0,0,0,57.638,78.607c6.66,3.136,13.747,4.077,21.025,3.986a1.971,1.971,0,0,0,.474-.17,287.887,287.887,0,0,0-40.91-27.806m53.133,4.7.161-.1V11.185a16.936,16.936,0,0,0-1.38,2.537c-3.277,7.254-5.651,14.743-6,22.772a33.167,33.167,0,0,0,5.23,20.069c.617.948,1.326,1.835,1.992,2.75m5.63-48.176-.2.063V59.278A1.024,1.024,0,0,0,97,59.149c.145-.172.284-.349.421-.526,5.973-7.688,7.466-16.492,6.412-25.911a57.74,57.74,0,0,0-4.1-15.257c-.863-2.128-1.83-4.212-2.75-6.317m46.738,41.4a2.818,2.818,0,0,0-.5-.1q-.585.071-1.168.163a60,60,0,0,0-18.081,5.459c-7.838,3.958-13.711,9.747-16.72,18.16-.171.48-.288.979-.431,1.469a319.206,319.206,0,0,1,36.9-25.153M81.6,77.828l.185-.16c-.184-.583-.35-1.173-.559-1.747A31.231,31.231,0,0,0,67.285,59.558,52.573,52.573,0,0,0,49.941,53.28c-1.575-.3-3.161-.546-4.74-.816-.024.069-.047.138-.071.207A293.589,293.589,0,0,1,81.6,77.828" transform="translate(0 0)" fill="#161615"/>
    <path id="Trazado_705898" data-name="Trazado 705898" d="M36.564,191.964,33.151,186.2a1.118,1.118,0,0,0,.269-.165c1.388-1.171,1.587-2.191.686-3.78-1-1.761-2.031-3.5-3.1-5.331.41-.255.8-.519,1.2-.746,5.748-3.208,11.467-6.471,17.259-9.6a24.8,24.8,0,0,1,18.743-1.988,60.028,60.028,0,0,1,16.4,7.373,27.7,27.7,0,0,0,9.335,3.993c2.565.493,5.175.759,7.771,1.087,4.6.579,9.216,1.112,13.821,1.694,3.751.473,5.972,4.043,6.119,7.077.033.669-.116,1.047-.962,1.09-4.19.215-8.375.507-12.561.785q-6.111.407-12.218.847a2.566,2.566,0,0,0-2.434,1.881,2.362,2.362,0,0,0,1.186,2.733,3.175,3.175,0,0,0,1.608.345c3.9-.248,7.8-.583,11.708-.828,4.469-.28,8.939-.539,13.412-.728a45.849,45.849,0,0,0,20.555-5.32c5.646-3.1,11.386-6.028,17.089-9.025a3.37,3.37,0,0,1,4.079.262,3.828,3.828,0,0,1,1.069,4.449,5.332,5.332,0,0,1-1.705,1.9c-8.47,5.863-16.985,11.664-25.456,17.527a16.817,16.817,0,0,1-7.477,3.317c-2.765.34-5.541.6-8.313.88q-7.978.818-15.958,1.625-8.61.868-17.223,1.713a14.473,14.473,0,0,1-5.88-.9c-6.607-2.133-13.224-4.237-19.831-6.372a10.328,10.328,0,0,0-10.928,2.424c-.925.863-1.88,1.694-2.921,2.63-.393-.635-.769-1.211-1.114-1.8-2.219-3.819-4.422-7.648-6.649-11.462-1.251-2.143-1.825-2.375-4.174-1.821" transform="translate(-9.976 -52.639)" fill="#ffe8ce"/>
    <path id="Trazado_705899" data-name="Trazado 705899" d="M172.028,174.015c-.911.469-1.7.882-2.5,1.287-3.609,1.838-7.187,3.741-10.839,5.489a27.371,27.371,0,0,1-8.194,2.488c-.637.085-.879.02-.911-.727a12.421,12.421,0,0,0-10.389-11.9c-5.065-.683-10.147-1.249-15.22-1.876q-3.01-.371-6.013-.787a17.147,17.147,0,0,1-6.109-2.307c-3.058-1.73-6.146-3.407-9.221-5.109-.216-.12-.422-.26-.778-.481a8.242,8.242,0,0,1,.825-.509,51.8,51.8,0,0,1,14.471-4.354,83.454,83.454,0,0,1,9.809-.822,58.14,58.14,0,0,1,36.179,12.6q4.12,3.231,8.238,6.464c.174.137.342.282.649.537" transform="translate(-32.769 -49.675)" fill="#a03d3d"/>
    <path id="Trazado_705900" data-name="Trazado 705900" d="M56.278,80.521a287.733,287.733,0,0,1,40.91,27.806,1.957,1.957,0,0,1-.473.17c-7.278.092-14.366-.85-21.026-3.986A35.323,35.323,0,0,1,58.334,86.576c-.806-1.759-1.425-3.6-2.124-5.411a2.872,2.872,0,0,1-.1-.473l.166-.17" transform="translate(-18.053 -25.905)" fill="#07ff8b"/>
    <path id="Trazado_705901" data-name="Trazado 705901" d="M131.247,64.619c-.666-.916-1.376-1.8-1.991-2.75A33.17,33.17,0,0,1,124.025,41.8c.353-8.03,2.727-15.518,6-22.773a17.027,17.027,0,0,1,1.379-2.537V64.517l-.161.1" transform="translate(-39.888 -5.305)" fill="#07ff8b"/>
    <path id="Trazado_705902" data-name="Trazado 705902" d="M142.9,16.42c.92,2.1,1.887,4.189,2.749,6.317a57.663,57.663,0,0,1,4.1,15.257c1.054,9.418-.437,18.223-6.41,25.911-.138.177-.277.355-.421.526a1.044,1.044,0,0,1-.214.129V16.483l.2-.063" transform="translate(-45.908 -5.283)" fill="#07ff8b"/>
    <path id="Trazado_705903" data-name="Trazado 705903" d="M194.4,77.41a319.083,319.083,0,0,0-36.9,25.153c.142-.49.258-.99.43-1.469,3.009-8.413,8.883-14.2,16.721-18.16a59.986,59.986,0,0,1,18.08-5.459q.583-.091,1.168-.163a2.918,2.918,0,0,1,.5.1" transform="translate(-50.669 -24.872)" fill="#07ff8b"/>
    <path id="Trazado_705904" data-name="Trazado 705904" d="M103.008,102.712A293.589,293.589,0,0,0,66.535,77.555c.024-.069.047-.138.071-.207,1.579.27,3.165.516,4.74.816A52.573,52.573,0,0,1,88.69,84.442a31.231,31.231,0,0,1,13.944,16.364c.209.574.374,1.164.559,1.747l-.185.16" transform="translate(-21.405 -24.884)" fill="#07ff8b"/>
  </g>
</svg>
