<svg id="Grupo_975106" data-name="Grupo 975106" xmlns="http://www.w3.org/2000/svg" xmlns:xlink="http://www.w3.org/1999/xlink" width="153.36" height="154.193" viewBox="0 0 153.36 154.193">
  <defs>
    <clipPath id="clip-path">
      <rect id="Rectángulo_349266" data-name="Rectángulo 349266" width="153.36" height="154.193" fill="none"/>
    </clipPath>
  </defs>
  <g id="Grupo_975105" data-name="Grupo 975105" clip-path="url(#clip-path)">
    <path id="Trazado_705916" data-name="Trazado 705916" d="M34.18,203.679H7.754c-2.383,0-3.361-.971-3.361-3.336q0-17.99.01-35.98a1.472,1.472,0,0,0-.556-1.243,11.477,11.477,0,0,1-2.664-13.6c2.831-5.347,5.558-10.749,8.3-16.144a3.117,3.117,0,0,1,3.055-1.833q21.762.01,43.524,0a2.969,2.969,0,0,1,2.893,1.7c2.864,5.622,5.874,11.176,8.576,16.874,1.91,4.029,1.042,7.927-1.551,11.466A4.789,4.789,0,0,1,64.89,162.8a2.042,2.042,0,0,0-.806,2.007q.023,17.757.011,35.514c0,2.386-.966,3.361-3.335,3.361H34.18m24.9-37.612c-5.516.911-9.807-.9-12.913-5.589a14.859,14.859,0,0,1-11.935,5.848c-4.866.1-8.766-2.075-11.894-5.814-3.126,4.732-7.5,6.373-12.912,5.579v32.573H59.081ZM24.416,148.911H44.036a2.142,2.142,0,0,0-.048-.349c-1.263-3.8-2.538-7.595-3.785-11.4a.771.771,0,0,0-.863-.651q-5.088.033-10.177,0a.762.762,0,0,0-.871.638c-.758,2.389-1.563,4.762-2.351,7.141-.5,1.515-1,3.03-1.525,4.617m37.08,0c-.082-.2-.13-.339-.2-.47-1.943-3.8-3.9-7.588-5.818-11.394a.847.847,0,0,0-.9-.534c-1.787.019-3.574.008-5.36.008H45.077l4.113,12.391Zm-54.553.044c4.1,0,8.04.007,11.975-.024.19,0,.474-.321.55-.547,1.006-2.987,1.979-5.985,2.966-8.978.306-.927.628-1.848.948-2.786a1.324,1.324,0,0,0-.287-.087c-3.134-.006-6.269-.018-9.4.012a.969.969,0,0,0-.644.5c-1.655,3.19-3.284,6.393-4.919,9.594-.372.729-.746,1.457-1.186,2.316m17.544,5.023c.48,3.84,5.388,7.458,9.919,7.459,5.1,0,9.113-4.226,9.553-7.459Zm24.627,0a7.923,7.923,0,0,0,4.57,6.825,6.816,6.816,0,0,0,7.65-1.3,6.242,6.242,0,0,0,2.143-5.528Zm-44.091-.022A6.427,6.427,0,0,0,8.012,160.1a6.8,6.8,0,0,0,7.608.327c2.543-1.37,3.369-3.79,3.845-6.471Z" transform="translate(0 -49.486)" fill="#161615"/>
    <path id="Trazado_705917" data-name="Trazado 705917" d="M180.583,205.692h-21.53c-2.264,0-3.279-1.012-3.279-3.27q0-14.8.009-29.609a1.411,1.411,0,0,0-.565-1.231c-3.3-2.813-4.823-6.358-3.744-10.647a25.135,25.135,0,0,1,2.241-5.011c1.8-3.553,3.682-7.064,5.488-10.614a3.074,3.074,0,0,1,3-1.8q18.5.007,37,0a2.951,2.951,0,0,1,2.869,1.736c2.312,4.568,4.677,9.109,7,13.674a9.713,9.713,0,0,1-2.346,12.059,3.387,3.387,0,0,0-1.21,2.906c.035,9.507.019,19.014.019,28.521,0,2.274-1,3.283-3.257,3.284q-10.843,0-21.685,0m10.179-36.521a13.226,13.226,0,0,1-20.223.007,12.163,12.163,0,0,1-4.28,3.629,10.867,10.867,0,0,1-5.456,1.042v26.81h39.682V173.9A11.189,11.189,0,0,1,195,172.848a12.58,12.58,0,0,1-4.239-3.677m-2.341-10.813a1.334,1.334,0,0,0,0-.348c-1-3.046-1.994-6.093-3.03-9.127a.893.893,0,0,0-.7-.38c-2.694-.027-5.39-.007-8.084-.027a.671.671,0,0,0-.773.546c-.929,2.878-1.89,5.747-2.835,8.62-.069.211-.1.433-.167.715Zm1.952-9.872c1.041,3.12,2.027,6.078,3.014,9.036.057.172.065.41.185.5a1.558,1.558,0,0,0,.8.374c2.794.03,5.588.023,8.381.022a4.009,4.009,0,0,0,.515-.077c-.212-.45-.376-.823-.561-1.186-1.211-2.368-2.52-4.693-3.6-7.118a2.293,2.293,0,0,0-2.622-1.584c-1.979.131-3.974.034-6.111.034m-32.38,9.942c.379,0,.558,0,.737,0,2.694-.017,5.387-.059,8.08-.032a.915.915,0,0,0,1.06-.731c.772-2.384,1.579-4.758,2.369-7.138.216-.649.419-1.3.655-2.04-2.586,0-5.044-.014-7.5.024-.215,0-.505.3-.625.529-1.255,2.406-2.484,4.826-3.716,7.246-.336.66-.657,1.327-1.059,2.143M172.9,163.42a8.213,8.213,0,0,0,9.063,5.426c3.013-.429,6.2-3.157,6.294-5.426Zm32.28.006H193.744c.606,4.186,3.61,5.723,6.3,5.476a5.389,5.389,0,0,0,5.142-5.476m-49.089.011a5.66,5.66,0,0,0,5.572,5.5,5.761,5.761,0,0,0,5.872-5.5Z" transform="translate(-56.854 -53.987)" fill="#161615"/>
    <path id="Trazado_705918" data-name="Trazado 705918" d="M99.2,32.319v1.016q0,11.542,0,23.085c0,2.273-1.007,3.37-3.277,3.241-9.029-.515-16.6-4-22.355-11.133A29.526,29.526,0,0,1,74.777,9.7,28.757,28.757,0,0,1,93.3.211,29.491,29.491,0,0,1,122.652,15.2a29.058,29.058,0,0,1,3.91,13.975c.029,2.1-1.041,3.142-3.158,3.143q-11.582.006-23.165,0Zm22.31-4.975A24.92,24.92,0,1,0,94.228,54.606v-.919q0-11.5,0-23c0-2.372.973-3.338,3.366-3.338q11.5,0,23.008,0h.912" transform="translate(-25.158 0)" fill="#161615"/>
    <path id="Trazado_705919" data-name="Trazado 705919" d="M142.835,59.781q6.488,0,12.975,0c2.182,0,3.307,1.069,3.182,3.264-.632,11.057-5.657,19.5-15.22,25.146A30.5,30.5,0,0,1,130.414,92.1c-.283.022-.57.016-.855.01a2.725,2.725,0,0,1-2.884-2.876c-.022-2.175-.006-4.35-.006-6.526q0-9.827,0-19.654c0-2.271,1-3.275,3.268-3.277q6.449,0,12.9,0M131.7,64.787V87.022a24.752,24.752,0,0,0,22.176-22.234Z" transform="translate(-47.65 -22.489)" fill="#161615"/>
    <rect id="Rectángulo_349256" data-name="Rectángulo 349256" width="4.879" height="4.879" transform="translate(113.887 57.252)" fill="#161615"/>
    <rect id="Rectángulo_349257" data-name="Rectángulo 349257" width="4.879" height="4.879" transform="translate(19.374 39.814)" fill="#161615"/>
    <rect id="Rectángulo_349258" data-name="Rectángulo 349258" width="4.889" height="4.879" transform="translate(123.846 57.229)" fill="#161615"/>
    <rect id="Rectángulo_349259" data-name="Rectángulo 349259" width="4.879" height="4.878" transform="translate(133.781 77.129)" fill="#161615"/>
    <rect id="Rectángulo_349260" data-name="Rectángulo 349260" width="4.907" height="4.851" transform="translate(19.37 69.692)" fill="#161615"/>
    <rect id="Rectángulo_349261" data-name="Rectángulo 349261" width="4.879" height="4.881" transform="translate(133.807 67.193)" fill="#161615"/>
    <rect id="Rectángulo_349262" data-name="Rectángulo 349262" width="4.883" height="4.896" transform="translate(19.358 49.761)" fill="#161615"/>
    <rect id="Rectángulo_349263" data-name="Rectángulo 349263" width="4.851" height="4.906" transform="translate(19.384 59.694)" fill="#161615"/>
    <rect id="Rectángulo_349264" data-name="Rectángulo 349264" width="4.893" height="4.878" transform="translate(133.794 57.232)" fill="#161615"/>
    <rect id="Rectángulo_349265" data-name="Rectángulo 349265" width="4.874" height="4.888" transform="translate(29.326 39.83)" fill="#161615"/>
    <path id="Trazado_705920" data-name="Trazado 705920" d="M64.768,183.517v32.6H15.115V183.542c5.413.793,9.785-.847,12.911-5.579,3.128,3.738,7.028,5.917,11.894,5.814a14.86,14.86,0,0,0,11.935-5.848c3.106,4.689,7.4,6.5,12.913,5.589m-36.1,19.707c1.639,1.633,3.255,3.274,4.906,4.88,1.384,1.344,2.59,1.322,3.99-.009.168-.16.331-.329.5-.493q5.9-5.91,11.816-11.813A19.138,19.138,0,0,1,51.4,194.54l-3.71-3.7L35.3,203.41l-3.128-3.69-3.505,3.5" transform="translate(-5.686 -66.935)" fill="#ffc403"/>
    <path id="Trazado_705921" data-name="Trazado 705921" d="M39.141,151.907c.524-1.588,1.024-3.1,1.525-4.617.788-2.379,1.593-4.753,2.351-7.141a.763.763,0,0,1,.871-.638q5.088.028,10.177,0a.771.771,0,0,1,.863.651c1.247,3.8,2.521,7.6,3.785,11.4a2.142,2.142,0,0,1,.048.349Z" transform="translate(-14.725 -52.482)" fill="#fff"/>
    <path id="Trazado_705922" data-name="Trazado 705922" d="M88.681,151.913H76.374l-4.113-12.391h4.148c1.787,0,3.574.011,5.36-.008a.847.847,0,0,1,.9.534c1.923,3.806,3.876,7.6,5.818,11.394.067.131.114.271.2.47" transform="translate(-27.184 -52.484)" fill="#b20d0d"/>
    <path id="Trazado_705923" data-name="Trazado 705923" d="M11.131,151.964c.44-.859.814-1.587,1.186-2.316,1.636-3.2,3.264-6.4,4.919-9.594a.972.972,0,0,1,.644-.5c3.134-.03,6.268-.017,9.4-.012a1.324,1.324,0,0,1,.287.087c-.319.938-.642,1.86-.948,2.787-.987,2.993-1.961,5.991-2.966,8.978-.077.226-.361.546-.55.547-3.936.032-7.872.024-11.976.024" transform="translate(-4.187 -52.491)" fill="#b20d0d"/>
    <path id="Trazado_705924" data-name="Trazado 705924" d="M39.255,167.512H58.727c-.44,3.233-4.455,7.46-9.553,7.459-4.531,0-9.439-3.619-9.919-7.459" transform="translate(-14.767 -63.017)" fill="#fff"/>
    <path id="Trazado_705925" data-name="Trazado 705925" d="M78.733,167.514H93.1a6.242,6.242,0,0,1-2.143,5.528,6.817,6.817,0,0,1-7.65,1.3,7.924,7.924,0,0,1-4.57-6.825" transform="translate(-29.619 -63.018)" fill="#b20d0d"/>
    <path id="Trazado_705926" data-name="Trazado 705926" d="M8.034,167.479H22.476c-.475,2.68-1.3,5.1-3.845,6.471a6.8,6.8,0,0,1-7.608-.327,6.427,6.427,0,0,1-2.989-6.144" transform="translate(-3.011 -63.004)" fill="#b20d0d"/>
    <path id="Trazado_705927" data-name="Trazado 705927" d="M196.6,184.648a12.574,12.574,0,0,0,4.239,3.677,11.182,11.182,0,0,0,5.484,1.056v26.756H166.637V189.327a10.881,10.881,0,0,0,5.456-1.042,12.169,12.169,0,0,0,4.28-3.629,13.225,13.225,0,0,0,20.223-.007m-17.928,13.5,4.428,4.425-4.375,4.34,3.418,3.357,4.407-4.448,4.191,4.308,3.542-3.322-4.389-4.378,4.293-4.111-3.463-3.675-4.445,4.566-4.208-4.362-3.4,3.3" transform="translate(-62.688 -69.463)" fill="#abffff"/>
    <path id="Trazado_705928" data-name="Trazado 705928" d="M201.508,161.355H185.915c.066-.282.1-.5.168-.715.945-2.873,1.905-5.742,2.835-8.62a.671.671,0,0,1,.772-.546c2.695.019,5.39,0,8.085.027a.89.89,0,0,1,.7.38c1.036,3.034,2.031,6.081,3.03,9.127a1.334,1.334,0,0,1,0,.348" transform="translate(-69.94 -56.983)" fill="#fff"/>
    <path id="Trazado_705929" data-name="Trazado 705929" d="M214.042,151.461c2.137,0,4.131.1,6.111-.034a2.293,2.293,0,0,1,2.622,1.584c1.085,2.425,2.394,4.75,3.6,7.119.185.362.349.735.561,1.186a4.1,4.1,0,0,1-.514.077c-2.794,0-5.588.007-8.381-.023a1.559,1.559,0,0,1-.8-.373c-.119-.089-.128-.327-.185-.5-.987-2.958-1.973-5.916-3.014-9.036" transform="translate(-80.521 -56.961)" fill="#06d1d1"/>
    <path id="Trazado_705930" data-name="Trazado 705930" d="M162.134,161.429c.4-.815.722-1.483,1.059-2.143,1.231-2.419,2.46-4.839,3.715-7.246.12-.23.41-.526.626-.529,2.457-.038,4.915-.024,7.5-.024-.236.738-.439,1.392-.655,2.041-.79,2.379-1.6,4.753-2.369,7.137a.915.915,0,0,1-1.06.731c-2.693-.027-5.387.016-8.08.032-.179,0-.358,0-.738,0" transform="translate(-60.994 -56.988)" fill="#06d1d1"/>
    <path id="Trazado_705931" data-name="Trazado 705931" d="M186.032,175.427h15.357c-.1,2.269-3.281,5-6.294,5.426a8.213,8.213,0,0,1-9.063-5.426" transform="translate(-69.984 -65.994)" fill="#fff"/>
    <path id="Trazado_705932" data-name="Trazado 705932" d="M230.881,175.436a5.389,5.389,0,0,1-5.142,5.476c-2.686.247-5.69-1.289-6.3-5.476Z" transform="translate(-82.553 -65.998)" fill="#06d1d1"/>
    <path id="Trazado_705933" data-name="Trazado 705933" d="M159.087,175.454h11.444a5.761,5.761,0,0,1-5.872,5.5,5.66,5.66,0,0,1-5.572-5.5" transform="translate(-59.847 -66.004)" fill="#06d1d1"/>
    <path id="Trazado_705934" data-name="Trazado 705934" d="M124.483,30.322h-.912q-11.5,0-23.008,0c-2.394,0-3.365.966-3.366,3.338q0,11.5,0,23v.919a24.9,24.9,0,1,1,27.286-27.263" transform="translate(-28.127 -2.978)" fill="#ffc403"/>
    <path id="Trazado_705935" data-name="Trazado 705935" d="M134.74,67.807h22.176A24.752,24.752,0,0,1,134.74,90.041Z" transform="translate(-50.688 -25.508)" fill="#abffff"/>
    <path id="Trazado_705936" data-name="Trazado 705936" d="M36.834,211.008l3.505-3.5,3.128,3.69,12.4-12.574,3.71,3.7a19.137,19.137,0,0,0-1.531,1.248q-5.921,5.892-11.816,11.813c-.165.165-.327.333-.5.493-1.4,1.332-2.607,1.354-3.99.009-1.651-1.606-3.268-3.247-4.906-4.88" transform="translate(-13.857 -74.719)" fill="#161615"/>
    <path id="Trazado_705937" data-name="Trazado 705937" d="M185.923,204.179l3.4-3.3,4.208,4.362,4.445-4.566,3.463,3.675-4.293,4.111,4.388,4.378-3.542,3.322-4.191-4.308-4.407,4.448-3.418-3.357,4.375-4.34-4.428-4.425" transform="translate(-69.943 -75.492)" fill="#161615"/>
  </g>
</svg>
