<svg xmlns="http://www.w3.org/2000/svg" xmlns:xlink="http://www.w3.org/1999/xlink" width="161" height="152.646" viewBox="0 0 161 152.646">
  <defs>
    <clipPath id="clip-path">
      <rect id="Rectángulo_353121" data-name="Rectángulo 353121" width="133.333" height="121.075" fill="none"/>
    </clipPath>
  </defs>
  <g id="Grupo_1003230" data-name="Grupo 1003230" transform="translate(-1230 -10821)">
    <circle id="Elipse_5674" data-name="Elipse 5674" cx="75" cy="75" r="75" transform="translate(1230 10821)" fill="#ffdbdb"/>
    <g id="Grupo_1003193" data-name="Grupo 1003193" transform="translate(1210 10879.333)">
      <g id="Grupo_1003192" data-name="Grupo 1003192" transform="translate(47.667 -26.762)" clip-path="url(#clip-path)">
        <path id="Trazado_715052" data-name="Trazado 715052" d="M124.29,107.911q-.808-.826-1.616-1.652c-.559-.575-1.147-1.127-1.668-1.736a2.543,2.543,0,0,1,3.719-3.467q3.759,3.744,7.487,7.518c1.48,1.5,1.444,2.771-.054,4.275q-3.561,3.574-7.123,7.146a2.743,2.743,0,0,1-2.465,1.046,2.533,2.533,0,0,1-2.1-1.726,2.413,2.413,0,0,1,.655-2.621c.92-.98,1.892-1.913,2.84-2.867.114-.115.216-.242.465-.524h-9.34c0,1.581.009,3.183,0,4.784a2.775,2.775,0,0,1-1.157,2.485,2.358,2.358,0,0,1-2.578.2,2.734,2.734,0,0,1-1.46-2.513c-.039-1.452-.01-2.908-.01-4.361v-.677h-7.777c-.013.261-.033.489-.033.718,0,1.411.011,2.821-.006,4.231a2.731,2.731,0,0,1-1.928,2.782,2.623,2.623,0,0,1-3.272-2.7c-.028-1.453-.006-2.908-.006-4.362v-.662H89.048c0,.833,0,1.626,0,2.42,0,.911.032,1.825-.014,2.734a2.692,2.692,0,0,1-2.7,2.7,2.738,2.738,0,0,1-2.488-2.779c-.031-1.432-.008-2.864-.008-4.3v-.763H76.026c0,1.352,0,2.669,0,3.986,0,.369.013.738-.007,1.106a2.6,2.6,0,1,1-5.2-.05c-.028-1.453-.007-2.908-.007-4.362v-.684H63c0,1.65.009,3.252,0,4.852a2.776,2.776,0,0,1-1.155,2.486,2.358,2.358,0,0,1-2.578.2,2.733,2.733,0,0,1-1.463-2.511c-.039-1.453-.01-2.908-.01-4.362v-.678H50.017c-.013.257-.033.486-.033.714,0,1.411.01,2.821-.006,4.231a2.732,2.732,0,0,1-1.925,2.784,2.627,2.627,0,0,1-3.275-2.706c-.027-1.453-.005-2.908-.006-4.362v-.66H36.96v2.421c0,.868.019,1.736-.005,2.6a2.609,2.609,0,1,1-5.2-.038c-.018-1.432,0-2.864,0-4.3v-.681H23.938c0,1.652.009,3.253,0,4.855a2.775,2.775,0,0,1-1.158,2.485,2.357,2.357,0,0,1-2.577.2,2.735,2.735,0,0,1-1.461-2.513c-.038-1.453-.01-2.908-.01-4.361v-.681c-2.44,0-4.822,0-7.2,0-.282,0-.564.026-.846.02a2.709,2.709,0,0,1-2.886-2.906c-.014-2.6,0-5.208,0-7.812v-.76c-1.409,0-2.769,0-4.128,0a9.976,9.976,0,0,1-1.491-.057,2.532,2.532,0,0,1,.087-5.023c.99-.1,1.994-.039,2.992-.044.82,0,1.64,0,2.5,0V88.738c-1.362,0-2.72,0-4.078,0a10.215,10.215,0,0,1-1.426-.044A2.572,2.572,0,0,1,0,86.075a2.623,2.623,0,0,1,2.5-2.456c.845-.04,1.692-.008,2.539-.008h2.7V75.717c-1.35,0-2.705,0-4.061,0a10.378,10.378,0,0,1-1.426-.041A2.573,2.573,0,0,1,0,73.068,2.628,2.628,0,0,1,2.489,70.6c.671-.037,1.345-.008,2.018-.008H7.741V62.705c-1.4,0-2.788.01-4.174-.005a7.63,7.63,0,0,1-1.678-.12,2.545,2.545,0,0,1,.652-5c1.54-.038,3.081-.006,4.622-.005h.572V49.684c-1.388,0-2.772.01-4.155,0A7.8,7.8,0,0,1,1.9,49.564a2.545,2.545,0,0,1,.627-5c1.54-.04,3.081-.007,4.622-.006h.6V36.659c-1.375,0-2.735,0-4.1,0a10.439,10.439,0,0,1-1.3-.024A2.577,2.577,0,0,1,.012,34.045a2.539,2.539,0,0,1,2.619-2.513c1.69-.027,3.38-.006,5.114-.006V23.637c-1.348,0-2.7,0-4.059,0a10.382,10.382,0,0,1-1.427-.041A2.574,2.574,0,0,1,0,20.989a2.629,2.629,0,0,1,2.485-2.471c.671-.038,1.345-.008,2.018-.008H7.741V8.816c-.729.747-1.367,1.412-2.018,2.064-.506.507-1,1.029-1.548,1.488a2.481,2.481,0,0,1-3.325-.082A2.406,2.406,0,0,1,.5,9a4.143,4.143,0,0,1,.459-.548Q4.638,4.718,8.325.993A2.664,2.664,0,0,1,12.449.961c2.467,2.472,4.911,4.968,7.36,7.46a2.583,2.583,0,0,1,.909,2.382,2.522,2.522,0,0,1-4.254,1.433c-1.04-.951-2.009-1.979-3.011-2.971-.105-.1-.22-.2-.4-.365v99.15H124.2l.093-.139" transform="translate(0 0)" fill="#161615"/>
        <path id="Trazado_715053" data-name="Trazado 715053" d="M89.832.041h31.834c.239,0,.478,0,.716.014a2.687,2.687,0,0,1,2.737,2.727c.013.195.006.391.006.585q0,20.146,0,40.291c0,2.147-1.042,3.213-3.185,3.214q-9.862.009-19.725-.013a1.807,1.807,0,0,0-1.422.589c-2.857,2.911-5.739,5.8-8.613,8.692-1.483,1.494-2.835,1.527-4.34.039q-4.419-4.371-8.792-8.788a1.622,1.622,0,0,0-1.258-.523q-9.537.016-19.074.006a11.387,11.387,0,0,1-1.494-.054A2.611,2.611,0,0,1,54.81,44.21c-.011-.173,0-.347,0-.521q0-20.178,0-40.355a5.419,5.419,0,0,1,.069-.97,2.573,2.573,0,0,1,2.8-2.338c1.8,0,3.6.014,5.4.015q13.378,0,26.756,0M60.04,41.748h.368c6.141-.016,12.281-.019,18.422-.061A3.848,3.848,0,0,1,81.789,42.9c2.536,2.587,5.125,5.124,7.666,7.706.417.424.641.391,1.039-.013,2.561-2.595,5.15-5.161,7.722-7.743a3.331,3.331,0,0,1,2.449-1.159q8.592.049,17.186.072c.665,0,1.331,0,2.027,0V5.252H60.04Z" transform="translate(-26.181 -0.012)" fill="#161615"/>
        <path id="Trazado_715054" data-name="Trazado 715054" d="M66.152,122.9c-.725.978-1.422,1.943-2.145,2.889q-6.3,8.243-12.614,16.482c-3.325,4.364-6.619,8.753-9.933,13.125a13.569,13.569,0,0,1-1.094,1.289,2.565,2.565,0,0,1-3.429.243,2.414,2.414,0,0,1-.518-3.364c.934-1.356,1.968-2.644,2.967-3.954q11.7-15.342,23.4-30.679a7.068,7.068,0,0,1,.936-1.078,2.424,2.424,0,0,1,2.728-.415q5.534,2.425,11.062,4.867c1.308.577,2.6,1.182,3.922,1.729a.8.8,0,0,0,.674-.222,8.968,8.968,0,0,1,6.759-2.974,9.226,9.226,0,0,1,8.887,7.9c.083.685.042,1.385.114,2.072a.8.8,0,0,0,.362.567q3.882,1.743,7.795,3.416a.877.877,0,0,0,.744-.238c1.5-1.566,2.968-3.164,4.454-4.746q1.848-1.966,3.717-3.914a2.675,2.675,0,0,1,3.742-.275,2.544,2.544,0,0,1,.08,3.721c-2.5,2.685-5.056,5.311-7.587,7.962-.734.769-1.449,1.557-2.191,2.317a2.6,2.6,0,0,1-3.189.643c-3.187-1.415-6.394-2.785-9.587-4.187a.671.671,0,0,0-.9.158,8.732,8.732,0,0,1-9.13,2.385c-3.438-.958-5.39-3.395-6.252-6.759a12.421,12.421,0,0,1-.26-2.446.7.7,0,0,0-.473-.731q-5.95-2.61-11.887-5.251c-.372-.165-.74-.339-1.161-.532m22.574,10.958a3.8,3.8,0,0,0,3.934-3.878,4.013,4.013,0,0,0-3.86-3.966,3.88,3.88,0,0,0-3.934,3.9,3.81,3.81,0,0,0,3.86,3.944" transform="translate(-17.177 -55.986)" fill="#161615"/>
        <path id="Trazado_715055" data-name="Trazado 715055" d="M227.534,75.021h-1.018c-2.668,0-5.337.037-8-.035a4.43,4.43,0,0,1-2.129-.607,2.306,2.306,0,0,1-.884-2.76,2.555,2.555,0,0,1,2.4-1.783c.563-.03,1.128,0,1.692,0l13.015.005c.282,0,.565,0,.846.011a2.646,2.646,0,0,1,2.742,2.778q.05,7.645,0,15.29A2.6,2.6,0,1,1,231,87.786c-.018-2.624-.005-5.248-.005-7.873V78.9c-.259.244-.425.388-.576.547-3.1,3.272-6.2,6.554-9.323,9.806a4.557,4.557,0,0,1-1.564,1.106,2.412,2.412,0,0,1-2.8-.981,2.5,2.5,0,0,1,.157-3.081c1.136-1.28,2.347-2.494,3.526-3.736Q223.8,79,227.186,75.439c.072-.076.135-.161.348-.419" transform="translate(-102.882 -33.356)" fill="#161615"/>
        <path id="Trazado_715056" data-name="Trazado 715056" d="M204.146,115.908a2.576,2.576,0,0,1,2.542,2.592,2.638,2.638,0,0,1-2.615,2.54,2.566,2.566,0,0,1,.073-5.132" transform="translate(-96.282 -55.372)" fill="#161615"/>
        <path id="Trazado_715057" data-name="Trazado 715057" d="M82.952,38.742c0,1.466.013,2.932,0,4.4a2.7,2.7,0,0,1-2.059,2.737,2.615,2.615,0,0,1-3.143-2.8c-.013-3.016,0-6.031,0-9.047,0-3.623-.014-7.247.015-10.87a4.906,4.906,0,0,1,.321-1.7A2.4,2.4,0,0,1,80.4,19.976a2.589,2.589,0,0,1,2.288,1.659,5.256,5.256,0,0,1,.251,1.461c.036,1.126.011,2.254.011,3.5a4.876,4.876,0,0,0,.43-.354c1.613-1.729,3.2-3.485,4.839-5.186a2.566,2.566,0,0,1,4.09.384,2.487,2.487,0,0,1-.126,2.868,18.482,18.482,0,0,1-1.313,1.441q-3.12,3.275-6.245,6.545a2.33,2.33,0,0,0-.185.277c.981,1.065,1.973,2.119,2.939,3.2q2.606,2.906,5.184,5.84a2.472,2.472,0,0,1,.616,2.581,2.5,2.5,0,0,1-4.163,1c-1.393-1.394-2.7-2.877-4.03-4.332-.642-.7-1.256-1.432-1.882-2.149l-.155.033" transform="translate(-37.138 -9.542)" fill="#161615"/>
        <path id="Trazado_715058" data-name="Trazado 715058" d="M121.849,35.568c0,2.5.006,4.9-.006,7.308a4.583,4.583,0,0,1-.14,1.154,2.549,2.549,0,0,1-2.686,1.9,2.641,2.641,0,0,1-2.372-2.586c-.013-.172-.006-.347-.006-.52q0-9.79.007-19.582a5.017,5.017,0,0,1,.173-1.411,2.26,2.26,0,0,1,2.138-1.81,39.9,39.9,0,0,1,7.132.228c5.566.963,7.991,7.834,4.486,12.27a7.512,7.512,0,0,1-6.238,3.048c-.8-.005-1.6,0-2.489,0m.03-10.388V30.5a28.99,28.99,0,0,0,3.059-.161,2.487,2.487,0,0,0,2.1-2.586A2.514,2.514,0,0,0,124.9,25.2c-.986-.082-1.984-.017-3.025-.017" transform="translate(-55.721 -9.543)" fill="#161615"/>
        <path id="Trazado_715059" data-name="Trazado 715059" d="M156.528,49.588c0-1.388-.014-2.777.009-4.165a4.387,4.387,0,0,1,.191-1.211,2.532,2.532,0,0,1,2.69-1.8,2.733,2.733,0,0,1,2.3,2.688q.07,4.458,0,8.916a2.595,2.595,0,1,1-5.186-.067c-.029-1.453-.006-2.907-.007-4.36" transform="translate(-74.773 -20.252)" fill="#161615"/>
        <path id="Trazado_715060" data-name="Trazado 715060" d="M156.536,22.59a2.6,2.6,0,0,1,2.6-2.616,2.681,2.681,0,0,1,2.581,2.593,2.589,2.589,0,0,1-5.176.023" transform="translate(-74.781 -9.542)" fill="#161615"/>
      </g>
    </g>
  </g>
</svg>
