<svg id="Grupo_975088" data-name="Grupo 975088" xmlns="http://www.w3.org/2000/svg" xmlns:xlink="http://www.w3.org/1999/xlink" width="156.354" height="156.33" viewBox="0 0 156.354 156.33">
  <defs>
    <clipPath id="clip-path">
      <rect id="Rectángulo_349249" data-name="Rectángulo 349249" width="156.354" height="156.33" fill="none"/>
    </clipPath>
  </defs>
  <g id="Grupo_975087" data-name="Grupo 975087" clip-path="url(#clip-path)">
    <path id="Trazado_705855" data-name="Trazado 705855" d="M104.489,62.84c1.22-1.257,2.421-2.535,3.665-3.768,2.391-2.37,5.517-2.27,7.895.123Q126.164,69.374,136.33,79.5c.5.5,1.009,1.008,1.474,1.547a4.876,4.876,0,0,1-.124,6.836c-2.869,2.959-5.8,5.856-8.744,8.743a5.2,5.2,0,0,1-4.476,1.462c-.386-.046-.853.393-1.231.677a1.215,1.215,0,0,0,.3.71c2.266,2.267,4.563,4.5,6.829,6.769q11.572,11.579,23.13,23.171a9.691,9.691,0,0,1,2.536,3.934,7.721,7.721,0,0,1-5.829,9.708,7.516,7.516,0,0,1-7.257-2.152q-5.974-6.008-11.978-11.987c-.187-.188-.391-.361-.627-.578-.265,1.3-.442,2.5-.76,3.666a15.7,15.7,0,0,1-15.131,11.314c-1.45,0-2.9.021-4.351-.008-.493-.01-.665.126-.664.636,0,2.238-.141,4.482-.032,6.714a5.3,5.3,0,0,1-5.6,5.661q-7.673.01-15.344,0-10.115,0-20.23,0a5.358,5.358,0,0,1-5.538-4.3,12.608,12.608,0,0,1-.143-2.28c-.021-1.857-.009-3.714-.015-5.571,0-.249-.023-.5-.04-.853H61.476c-6.387,0-12.774.028-19.161-.014a15.643,15.643,0,0,1-9.552-2.889,15.872,15.872,0,0,1-6.706-13.292q.022-25.454.038-50.909c0-.744-.369-.684-.845-.683-6.437.006-12.876.028-19.313-.013A7.427,7.427,0,0,1,3.124,75,5.168,5.168,0,0,1,.007,70.23C-.006,70.052,0,69.873,0,69.7Q0,42.828,0,15.962A15.689,15.689,0,0,1,11.736.6,18.746,18.746,0,0,1,16.487.029Q52.213-.024,87.94.018A15.716,15.716,0,0,1,98.6,3.664a15.912,15.912,0,0,1,5.522,10.706,27.157,27.157,0,0,1,.118,2.895q.018,22.287.02,44.574c0,.3,0,.59,0,.886l.227.115m-26.078,46.6.216-.323c-.462-.393-.954-.756-1.382-1.183-1.872-1.869-3.78-3.708-5.571-5.652a4.825,4.825,0,0,1-.464-6,11.7,11.7,0,0,1,1.57-1.858c2.38-2.406,4.814-4.758,7.166-7.191a5.757,5.757,0,0,1,5.076-1.89,1.2,1.2,0,0,0,.872-.277q6.1-6.046,12.144-12.144a1.773,1.773,0,0,0,.319-.934c.156-.992.271-1.989.407-2.984a9.642,9.642,0,0,0,.183-1.269c.006-17.4-.047-34.805.024-52.207A10.032,10.032,0,0,0,91.4,5.67a20.388,20.388,0,0,0-4.452-.448Q57.6,5.179,28.244,5.2H27.2c.7,1.087,1.369,2.035,1.937,3.041,1.771,3.134,2.105,6.537,2.093,10.088-.067,19.717-.036,39.435-.04,59.152q0,24.615,0,49.23a11.179,11.179,0,0,0,1.627,6.4c4.166,6.292,12.28,6.747,17.014.937a9.926,9.926,0,0,0,2.24-6.347c.04-4.172,0-8.345.041-12.517a7.532,7.532,0,0,1,.37-2.391c.766-2.179,2.669-3.368,5.268-3.37q9.275-.009,18.55.012h2.114M26.075,42.175h-.007q0-12.78,0-25.56c0-.61-.021-1.221-.069-1.829A10.776,10.776,0,0,0,13.238,5.422a11.1,11.1,0,0,0-8.1,10.544c.12,11.215.04,22.432.047,33.648q.006,9.957.022,19.914c0,.451-.055.836.633.834q9.691-.041,19.383-.021c.642,0,.873-.156.871-.85q-.035-13.657-.015-27.315m85.914,67.87a1.522,1.522,0,0,0-.845,1.7,4.765,4.765,0,0,1-1.334,3.993q-4.389,4.462-8.854,8.847a4.861,4.861,0,0,1-4.415,1.371,6.151,6.151,0,0,1-3.272-1.976c-2.82-2.829-5.668-5.631-8.445-8.5a2.752,2.752,0,0,0-2.208-.881c-8.194.029-16.386.024-24.579.031-.194,0-.387.025-.633.042v.57c0,3.739.027,7.479-.006,11.219a16.98,16.98,0,0,1-3.956,11.266,1.063,1.063,0,0,0-.11.288c3.14,0,6.218.01,9.295-.021.216,0,.482-.279.633-.492a22.665,22.665,0,0,1,1.345-2.016,7.9,7.9,0,0,1,6.256-2.631c10.152.018,20.305,0,30.458.009a7.773,7.773,0,0,1,7.366,4.645.76.76,0,0,0,.8.515c1.806-.017,3.616-.075,5.418.017a10.106,10.106,0,0,0,9.976-8.29,43.7,43.7,0,0,0,.227-6.083,1.508,1.508,0,0,0-.406-.976q-6.019-6.07-12.079-12.1c-.194-.194-.412-.364-.626-.551m-44.195,41.1h.892q10.42,0,20.839,0c4.656,0,9.313-.024,13.969-.014.552,0,.777-.135.749-.726-.045-.965-.006-1.933-.007-2.9,0-2.239,0-4.477-.024-6.716a2.231,2.231,0,0,0-1.083-2.14,5.474,5.474,0,0,0-2.318-.564c-9.262-.034-18.524-.018-27.786-.011-.89,0-1.783-.012-2.669.056a2.522,2.522,0,0,0-2.562,2.8q-.006,4.312,0,8.624v1.593m33.88-74.308L89.913,88.662l18,17.831L119.58,94.814,101.675,76.839M75.818,98.922l21.655,21.7,8.54-8.412L84.084,90.562l-8.266,8.36m57.988-14.475q-6.318-6.4-12.648-12.812c-2.863-2.893-5.743-5.77-8.6-8.668-.371-.376-.581-.482-1.024-.025-2.5,2.574-5.042,5.1-7.569,7.651-.153.154-.288.328-.421.481L125.45,92.9l8.356-8.458m-18.213,21.859c.173.192.3.347.441.488,2.258,2.237,4.531,4.458,6.775,6.709q11.582,11.615,23.149,23.244a7.117,7.117,0,0,0,1.037.894,2.716,2.716,0,0,0,3.472-.438,2.66,2.66,0,0,0,.05-3.548c-.265-.308-.551-.6-.838-.887q-14.251-14.233-28.5-28.465c-.468-.467-.935-.935-1.394-1.411-.265-.275-.47-.277-.756.013-1.123,1.14-2.272,2.255-3.433,3.4" transform="translate(0 0)" fill="#161615"/>
    <path id="Trazado_705856" data-name="Trazado 705856" d="M95.619,112.729H93.506q-9.275-.007-18.55-.012c-2.6,0-4.5,1.19-5.268,3.37a7.532,7.532,0,0,0-.37,2.391c-.04,4.172,0,8.345-.041,12.517a9.924,9.924,0,0,1-2.24,6.347c-4.733,5.81-12.847,5.355-17.014-.937A11.179,11.179,0,0,1,48.4,130q-.011-24.616,0-49.23c0-19.717-.026-39.435.04-59.152.012-3.55-.323-6.953-2.094-10.087-.568-1.006-1.24-1.954-1.937-3.042h1.044q29.353,0,58.705.019a20.388,20.388,0,0,1,4.452.448,10.032,10.032,0,0,1,7.568,9.853c-.071,17.4-.018,34.805-.024,52.208a9.644,9.644,0,0,1-.183,1.269c-.136.995-.251,1.992-.407,2.984a1.772,1.772,0,0,1-.319.934q-6.045,6.1-12.144,12.144a1.2,1.2,0,0,1-.872.276,5.759,5.759,0,0,0-5.076,1.89C94.8,92.952,92.367,95.3,89.988,97.71a11.7,11.7,0,0,0-1.57,1.858,4.825,4.825,0,0,0,.464,6c1.792,1.945,3.7,3.783,5.571,5.653.428.427.92.79,1.382,1.183l-.217.323M82.493,65.808v0q-11.177,0-22.354,0a9.431,9.431,0,0,0-1.6.1,2.588,2.588,0,0,0-1.951,3.7,2.813,2.813,0,0,0,2.8,1.47q22.926,0,45.852,0c.153,0,.305,0,.458,0a2.787,2.787,0,0,0,2.669-2.63,2.554,2.554,0,0,0-2.6-2.607c-.33-.023-.661-.026-.992-.026q-11.138,0-22.278,0m-.219-26.046v0q11.217,0,22.434-.006a8.527,8.527,0,0,0,1.591-.127,2.546,2.546,0,0,0-.331-5.042c-.431-.031-.864-.027-1.3-.027q-22.433-.006-44.866-.009a9.706,9.706,0,0,0-1.295.058A2.542,2.542,0,0,0,56.3,37.048a2.479,2.479,0,0,0,2.028,2.576,7.829,7.829,0,0,0,1.514.132q11.217.012,22.433.006m-.055,15.65V55.4q11.3,0,22.59-.006a6.837,6.837,0,0,0,1.586-.152,2.5,2.5,0,0,0,1.962-2.489,2.56,2.56,0,0,0-2.133-2.441,7.929,7.929,0,0,0-1.441-.116q-22.513-.008-45.027,0a6.3,6.3,0,0,0-1.438.139,2.539,2.539,0,0,0-1.99,2.171,2.24,2.24,0,0,0,1.183,2.451,4.638,4.638,0,0,0,2.117.437c7.53.029,15.06.018,22.589.018m.173-31.283v0q10.953,0,21.906,0a16.541,16.541,0,0,0,1.752-.063,2.657,2.657,0,0,0,2.3-2.22,2.523,2.523,0,0,0-1.633-2.653A5.215,5.215,0,0,0,105,18.923Q82.52,18.9,60.042,18.916a9.4,9.4,0,0,0-1.443.105A2.631,2.631,0,0,0,56.336,21.6a2.691,2.691,0,0,0,2.4,2.464,15.465,15.465,0,0,0,1.6.065q11.03.006,22.058,0M74.62,86.657v0q5.076,0,10.152,0c1.806,0,3.613.011,5.419-.015a2.492,2.492,0,0,0,2.285-1.4,2.408,2.408,0,0,0-.21-2.6,2.988,2.988,0,0,0-2.747-1.183q-14.961,0-29.923.007a5.148,5.148,0,0,0-1.428.2,2.516,2.516,0,0,0-1.849,2.123,2.21,2.21,0,0,0,1.088,2.351,4.038,4.038,0,0,0,1.945.5c5.089.04,10.177.022,15.267.022m-6.558,15.631v0q4,0,8,0a10.518,10.518,0,0,0,1.444-.074,2.617,2.617,0,0,0,2.154-2.173,2.493,2.493,0,0,0-1.631-2.714,4.925,4.925,0,0,0-1.567-.243q-8.309-.026-16.619-.007a7.54,7.54,0,0,0-1.364.12,2.638,2.638,0,0,0-2.148,2.519,2.694,2.694,0,0,0,2.277,2.495,10.307,10.307,0,0,0,1.368.074q4.041.009,8.081,0" transform="translate(-17.208 -3.29)" fill="#fff"/>
    <path id="Trazado_705857" data-name="Trazado 705857" d="M29.323,45.462q0,13.657.016,27.315c0,.694-.229.851-.872.85q-9.691-.017-19.382.021c-.688,0-.633-.382-.633-.833Q8.445,62.857,8.431,52.9c-.007-11.216.073-22.433-.047-33.648a11.1,11.1,0,0,1,8.1-10.544,10.777,10.777,0,0,1,12.758,9.365c.048.608.069,1.219.069,1.829q.006,12.78,0,25.56Z" transform="translate(-3.248 -3.286)" fill="#fff"/>
    <path id="Trazado_705858" data-name="Trazado 705858" d="M145.728,179.662c.214.187.432.356.627.551q6.047,6.042,12.079,12.1a1.509,1.509,0,0,1,.405.976,43.781,43.781,0,0,1-.227,6.082,10.106,10.106,0,0,1-9.977,8.29c-1.8-.092-3.612-.033-5.418-.017a.759.759,0,0,1-.8-.514,7.775,7.775,0,0,0-7.366-4.645c-10.152-.006-20.3.009-30.458-.009a7.9,7.9,0,0,0-6.256,2.63A22.841,22.841,0,0,0,97,207.123c-.151.214-.417.49-.633.492-3.077.032-6.154.022-9.295.022a1.081,1.081,0,0,1,.11-.289,16.98,16.98,0,0,0,3.956-11.266c.032-3.739.006-7.479.006-11.219v-.57c.246-.017.44-.042.633-.043,8.193-.007,16.386,0,24.579-.031a2.756,2.756,0,0,1,2.209.881c2.777,2.87,5.625,5.672,8.445,8.5a6.15,6.15,0,0,0,3.272,1.976,4.862,4.862,0,0,0,4.414-1.371q4.475-4.374,8.854-8.847a4.764,4.764,0,0,0,1.334-3.993,1.522,1.522,0,0,1,.845-1.7" transform="translate(-33.738 -69.617)" fill="#fff"/>
    <path id="Trazado_705859" data-name="Trazado 705859" d="M110.683,238.49V236.9q0-4.312,0-8.624a2.522,2.522,0,0,1,2.561-2.8c.886-.068,1.779-.056,2.669-.056,9.262-.007,18.524-.023,27.785.01a5.488,5.488,0,0,1,2.318.564,2.232,2.232,0,0,1,1.084,2.141c.02,2.238.019,4.477.024,6.716,0,.967-.037,1.935.008,2.9.027.592-.2.728-.749.726-4.657-.01-9.313.011-13.97.014q-10.42.006-20.839,0h-.892" transform="translate(-42.889 -87.343)" fill="#ffc403"/>
    <path id="Trazado_705860" data-name="Trazado 705860" d="M158.556,125.45l17.9,17.975L164.8,155.1l-18-17.831,11.761-11.823" transform="translate(-56.882 -48.611)" fill="#a03d3d"/>
    <path id="Trazado_705861" data-name="Trazado 705861" d="M123.783,156.215l8.266-8.36,21.93,21.647-8.54,8.412-21.655-21.7" transform="translate(-47.965 -57.292)" fill="#a03d3d"/>
    <path id="Trazado_705862" data-name="Trazado 705862" d="M199.31,124.074l-8.356,8.458L169.046,110.7c.134-.154.268-.328.422-.482,2.526-2.547,5.07-5.077,7.568-7.651.443-.456.653-.351,1.024.025,2.859,2.9,5.739,5.775,8.6,8.668q6.334,6.4,12.648,12.812" transform="translate(-65.504 -39.627)" fill="#a03d3d"/>
    <path id="Trazado_705863" data-name="Trazado 705863" d="M188.721,171.268c1.161-1.145,2.309-2.26,3.433-3.4.286-.291.491-.288.756-.013.459.476.926.944,1.394,1.411q14.252,14.233,28.5,28.465c.287.288.573.579.838.887a2.66,2.66,0,0,1-.05,3.548,2.716,2.716,0,0,1-3.472.438,7.115,7.115,0,0,1-1.037-.894q-11.577-11.619-23.149-23.243c-2.244-2.251-4.517-4.473-6.775-6.709-.142-.14-.268-.3-.441-.488" transform="translate(-73.128 -64.962)" fill="#a03d3d"/>
    <path id="Trazado_705864" data-name="Trazado 705864" d="M90.025,102.066q11.138,0,22.277,0c.331,0,.662,0,.992.026a2.552,2.552,0,0,1,2.6,2.606,2.786,2.786,0,0,1-2.669,2.63c-.152.01-.305,0-.457,0q-22.927,0-45.852,0a2.815,2.815,0,0,1-2.8-1.469,2.588,2.588,0,0,1,1.951-3.7,9.444,9.444,0,0,1,1.6-.1q11.179-.009,22.355,0Z" transform="translate(-24.74 -39.548)" fill="#161615"/>
    <path id="Trazado_705865" data-name="Trazado 705865" d="M89.8,56.246q-11.216,0-22.433-.006a7.835,7.835,0,0,1-1.515-.132,2.48,2.48,0,0,1-2.028-2.576,2.541,2.541,0,0,1,2.212-2.441,9.6,9.6,0,0,1,1.294-.058q22.433,0,44.866.009c.432,0,.866,0,1.3.027a2.546,2.546,0,0,1,.331,5.042,8.534,8.534,0,0,1-1.592.127q-11.216.011-22.433,0Z" transform="translate(-24.729 -19.775)" fill="#161615"/>
    <path id="Trazado_705866" data-name="Trazado 705866" d="M89.735,81.79c-7.53,0-15.06.011-22.589-.018a4.641,4.641,0,0,1-2.117-.437,2.239,2.239,0,0,1-1.183-2.451,2.539,2.539,0,0,1,1.99-2.171,6.269,6.269,0,0,1,1.438-.139q22.512-.01,45.026,0a7.92,7.92,0,0,1,1.441.116,2.559,2.559,0,0,1,2.133,2.441,2.5,2.5,0,0,1-1.962,2.489,6.834,6.834,0,0,1-1.586.152q-11.294.014-22.589.006Z" transform="translate(-24.724 -29.67)" fill="#161615"/>
    <path id="Trazado_705867" data-name="Trazado 705867" d="M89.937,30.72q-11.029,0-22.058,0a15.464,15.464,0,0,1-1.6-.065,2.691,2.691,0,0,1-2.4-2.463,2.631,2.631,0,0,1,2.263-2.577,9.4,9.4,0,0,1,1.443-.105q22.478-.007,44.956.007a5.217,5.217,0,0,1,1.717.262,2.523,2.523,0,0,1,1.633,2.653,2.657,2.657,0,0,1-2.3,2.22,16.544,16.544,0,0,1-1.752.063q-10.953.006-21.906,0Z" transform="translate(-24.753 -9.883)" fill="#161615"/>
    <path id="Trazado_705868" data-name="Trazado 705868" d="M82.134,132.817c-5.089,0-10.178.018-15.266-.022a4.035,4.035,0,0,1-1.945-.5,2.208,2.208,0,0,1-1.088-2.351,2.515,2.515,0,0,1,1.849-2.123,5.148,5.148,0,0,1,1.428-.195q14.961-.017,29.922-.007a2.989,2.989,0,0,1,2.748,1.182,2.409,2.409,0,0,1,.209,2.6,2.493,2.493,0,0,1-2.285,1.4c-1.806.026-3.613.013-5.419.014q-5.076,0-10.152,0Z" transform="translate(-24.721 -49.45)" fill="#161615"/>
    <path id="Trazado_705869" data-name="Trazado 705869" d="M75.607,158.326q-4.041,0-8.081,0a10.3,10.3,0,0,1-1.368-.074,2.694,2.694,0,0,1-2.277-2.495,2.638,2.638,0,0,1,2.148-2.519,7.54,7.54,0,0,1,1.364-.12q8.31-.011,16.619.007a4.925,4.925,0,0,1,1.567.243,2.492,2.492,0,0,1,1.631,2.714,2.617,2.617,0,0,1-2.154,2.173,10.518,10.518,0,0,1-1.444.074q-4,.01-8,0Z" transform="translate(-24.753 -59.328)" fill="#161615"/>
  </g>
</svg>
