<svg id="Grupo_975075" data-name="Grupo 975075" xmlns="http://www.w3.org/2000/svg" xmlns:xlink="http://www.w3.org/1999/xlink" width="140.683" height="140.626" viewBox="0 0 140.683 140.626">
  <defs>
    <clipPath id="clip-path">
      <rect id="Rectángulo_349246" data-name="Rectángulo 349246" width="140.683" height="140.626" fill="none"/>
    </clipPath>
  </defs>
  <g id="Grupo_975074" data-name="Grupo 975074" clip-path="url(#clip-path)">
    <path id="Trazado_705811" data-name="Trazado 705811" d="M184.938,30.9s24.2,11.167,26.43,52.487c0,0-1.861,27.547-10.051,35.736,0,0-3.35-12.284-10.8-11.912,0,0-7.073-1.489-9.306,5.211,0,0-6.328-.372-6.328-2.978,0,0,.372-13.029,8.561-17.5s-1.765-19.049-6.7-19.357S146.6,43.926,184.938,30.9" transform="translate(-73.669 -13.875)" fill="#03a4a4"/>
    <path id="Trazado_705812" data-name="Trazado 705812" d="M105.694,95.672c3.293-3.843,7.459-5.592,12.5-4.382,5.021,1.2,8.021,4.586,9.426,9.576.7-1.479,1.464-2.934,2.1-4.441a64.856,64.856,0,0,0,4.842-17.16,66.216,66.216,0,0,0-1.65-26.119,7.645,7.645,0,0,1-.261-1.342,2.614,2.614,0,0,1,2.034-2.787,2.545,2.545,0,0,1,3.015,1.549,41.357,41.357,0,0,1,1.127,4.092,65.324,65.324,0,0,1,1.78,18.308,73.4,73.4,0,0,1-5.656,24.944,66.858,66.858,0,0,1-9.262,15.644c-.212.268-.439.526-.718.86a6.959,6.959,0,0,0,.678.421A25.277,25.277,0,0,1,139.6,130.978a22.985,22.985,0,0,1,1.037,6.549,2.916,2.916,0,0,1-2.9,3.091c-.2.013-.412.007-.618.007q-66.84,0-133.68-.016a4.852,4.852,0,0,1-1.918-.391,2.435,2.435,0,0,1-1.5-2.409,25.231,25.231,0,0,1,15.314-23.038,3.728,3.728,0,0,0,.375-.223c-.166-.237-.3-.458-.466-.661A69.361,69.361,0,0,1,7.307,101.4a68.385,68.385,0,0,1-5.77-16.877A73.522,73.522,0,0,1,0,70.849a71.3,71.3,0,0,1,2.823-20.1A70.393,70.393,0,0,1,33.233,10.61a59.783,59.783,0,0,1,8.755-4.682A73.633,73.633,0,0,1,60.941.659,70.5,70.5,0,0,1,74.632.121a72.342,72.342,0,0,1,18.3,3.633,65.269,65.269,0,0,1,14.058,6.58A67.667,67.667,0,0,1,123.95,24.883c.854,1.044,1.693,2.1,2.476,3.2a2.4,2.4,0,0,1,0,2.947,2.482,2.482,0,0,1-2.879,1.063,4.951,4.951,0,0,1-1.828-1.35c-1.405-1.565-2.653-3.275-4.1-4.8-1.717-1.8-3.572-3.476-5.384-5.189a1.121,1.121,0,0,0-.675-.257A17.969,17.969,0,0,0,97.4,25.955a17.146,17.146,0,0,0-5.011,13.471A16.96,16.96,0,0,0,99.97,52.983c2.487,1.744,5.09,3.325,7.64,4.982a15.5,15.5,0,0,1,7.048,10.378,15.305,15.305,0,0,1-5.039,15,21.242,21.242,0,0,0-3.66,3.781,10.365,10.365,0,0,0-1.682,6.784,1.783,1.783,0,0,0,1.417,1.767m-49.078-1.93c1.152.551,2.308,1.04,3.394,1.652a.731.731,0,0,0,1.125-.2,12.158,12.158,0,0,1,18.55.1,1.625,1.625,0,0,1,.22.424l4.163-1.972c-.147-.19-.3-.4-.474-.609a13.141,13.141,0,0,1-2.325-4.012A17.78,17.78,0,0,1,80.61,82,12.127,12.127,0,0,1,94.2,70.6c5.229.655,8.635,3.643,10.384,8.575.118.332.215.672.332,1.042.182-.105.286-.153.378-.219a10.53,10.53,0,0,0-.459-17.282q-3.346-2.154-6.688-4.312C90.2,53.269,86.538,45.912,86.982,36.53a19.807,19.807,0,0,1,2.067-7.843,23.667,23.667,0,0,1,15.475-12.88c.2-.057.4-.148.66-.246C91.092,6.357,72.056,2.819,53.792,7.576A64.252,64.252,0,0,0,23.314,25.684c.328.037.433.06.538.06,1.6-.008,3.2-.065,4.8-.023,9.365.245,15.923,7.651,14.741,16.715a13.456,13.456,0,0,1-4.747,8.857c-1.434,1.207-2.933,2.352-4.253,3.676a22.431,22.431,0,0,0-5.269,9.27,24.373,24.373,0,0,1-7.278,11.11A27.423,27.423,0,0,1,7.192,82.123c-.389.052-.639.123-.539.631A64.793,64.793,0,0,0,12.866,100.4a3.247,3.247,0,0,0,.285.385c1.451-4.865,4.3-8.36,9.337-9.534,5.058-1.18,9.184.675,12.545,4.383l3.955-1.872c-.575-.805-1.2-1.593-1.73-2.441A14.071,14.071,0,0,1,35.494,83c.223-5.458,2.656-9.463,7.779-11.636A12.128,12.128,0,0,1,58.4,76.623a15.285,15.285,0,0,1,1.7,8.885,12.29,12.29,0,0,1-3.312,7.93,1.535,1.535,0,0,0-.172.3M5.7,76.849c.826-.112,1.469-.144,2.085-.29,8.2-1.939,13.859-6.758,16.519-14.834a28.38,28.38,0,0,1,8.553-12.766c.845-.734,1.789-1.361,2.592-2.136a8.493,8.493,0,0,0,2.48-8.352,9.075,9.075,0,0,0-9.276-7.3q-4.668.012-9.336-.014a1.116,1.116,0,0,0-1.085.539c-1.419,2.237-2.914,4.427-4.282,6.694a60.111,60.111,0,0,0-6.765,17A61.933,61.933,0,0,0,5.537,68.43c-.073,2.756.1,5.519.165,8.419m39.183,58.243A19.733,19.733,0,0,0,24.528,118.1c-10.91.331-18.066,9.388-18.809,16.995Zm45.052.007A19.739,19.739,0,0,0,69.283,118.11c-11.17.519-17.916,9.953-18.505,16.989Zm5.843-.017h39.2a19.8,19.8,0,0,0-39.2,0M47.82,126.6a24.769,24.769,0,0,1,13.829-12.4,12.558,12.558,0,0,1-3.245-5.755,18.95,18.95,0,0,1-.2-6.957,1.106,1.106,0,0,0-.651-1.343,20.492,20.492,0,0,0-9.04-2.464,19.9,19.9,0,0,0-10.65,2.583.886.886,0,0,0-.479,1c.1,1.3.229,2.6.225,3.9a12.436,12.436,0,0,1-3.326,8.692,2.128,2.128,0,0,0-.211.358A25.113,25.113,0,0,1,47.82,126.6m58.871-12.393a12.778,12.778,0,0,1-3.12-5.317,18.862,18.862,0,0,1-.329-7.419c.061-.559.067-.942-.539-1.269a19.956,19.956,0,0,0-9.712-2.531,19.353,19.353,0,0,0-9.552,2.322c-1.185.66-1.125.383-.918,1.77.064.429.075.866.1,1.3a14.2,14.2,0,0,1-1.935,9.022c-.472.72-1.023,1.387-1.584,2.143a25.351,25.351,0,0,1,8.018,4.8,27.385,27.385,0,0,1,5.766,7.525,24.735,24.735,0,0,1,13.8-12.347M18.423,104.48c0,.426-.017.953,0,1.478a6.894,6.894,0,0,0,6.535,6.458,6.774,6.774,0,0,0,7.044-5.541,19.778,19.778,0,0,0,.115-4.036,6.753,6.753,0,0,0-4.96-6.223A6.955,6.955,0,0,0,19.552,99.4a7.662,7.662,0,0,0-1.129,5.083m58.836.026c-.066-.842-.071-1.694-.208-2.524a6.846,6.846,0,0,0-13.432-.151,21.577,21.577,0,0,0-.139,4.1,6.765,6.765,0,0,0,4.551,6.114,7,7,0,0,0,7.371-1.818,7.53,7.53,0,0,0,1.857-5.723m31.131-.166.12.011c0,.527-.014,1.053,0,1.579a6.893,6.893,0,0,0,6.578,6.488,6.772,6.772,0,0,0,7.011-5.584,19.628,19.628,0,0,0,.111-3.968,6.857,6.857,0,0,0-13.468-1.438,20.87,20.87,0,0,0-.355,2.912M99.7,83.816a6.764,6.764,0,0,0-3.214-6.774,6.9,6.9,0,0,0-10.237,3.788,15.329,15.329,0,0,0-.185,5.182c.165,2.806,2.757,5.3,5.424,5.827a6.906,6.906,0,0,0,7.332-3.286,8.287,8.287,0,0,0,.879-4.737m-45.049.04A6.781,6.781,0,0,0,51.3,76.949c-3.848-2.414-9.4-.1-10.187,4.375a20.862,20.862,0,0,0-.088,4.576,6.15,6.15,0,0,0,2.831,4.785,6.932,6.932,0,0,0,9.8-1.926,8.117,8.117,0,0,0,.993-4.9" transform="translate(0 0)" fill="#161615"/>
    <path id="Trazado_705813" data-name="Trazado 705813" d="M235.084,73.294a2.813,2.813,0,0,1-2.733-2.717,2.743,2.743,0,1,1,5.486.008,2.853,2.853,0,0,1-2.753,2.708" transform="translate(-104.341 -30.45)" fill="#161615"/>
    <path id="Trazado_705814" data-name="Trazado 705814" d="M62.02,98.195a1.551,1.551,0,0,1,.172-.3,12.288,12.288,0,0,0,3.312-7.93,15.288,15.288,0,0,0-1.7-8.885,12.128,12.128,0,0,0-15.126-5.262c-5.124,2.172-7.556,6.178-7.779,11.635a14.073,14.073,0,0,0,1.764,8.323c.531.847,1.155,1.635,1.73,2.441l-3.955,1.872c-3.362-3.708-7.487-5.564-12.545-4.384-5.035,1.175-7.886,4.67-9.337,9.535a3.377,3.377,0,0,1-.285-.385,64.781,64.781,0,0,1-6.213-17.645c-.1-.508.149-.58.539-.631A27.423,27.423,0,0,0,27.256,79.8a24.371,24.371,0,0,0,7.278-11.11A22.432,22.432,0,0,1,39.8,59.421c1.319-1.323,2.819-2.469,4.253-3.676A13.458,13.458,0,0,0,48.8,46.888c1.182-9.063-5.376-16.47-14.741-16.714-1.6-.042-3.2.015-4.8.023-.105,0-.21-.023-.538-.06A64.247,64.247,0,0,1,59.2,12.03c18.264-4.758,37.3-1.219,51.392,7.984-.261.1-.456.19-.66.247A23.666,23.666,0,0,0,94.454,33.14a19.815,19.815,0,0,0-2.068,7.843c-.444,9.382,3.219,16.739,11.162,21.876q3.34,2.16,6.688,4.312a10.53,10.53,0,0,1,.459,17.282c-.091.066-.2.114-.378.219-.117-.37-.214-.71-.332-1.042-1.749-4.931-5.155-7.92-10.384-8.575a12.127,12.127,0,0,0-13.587,11.4,17.776,17.776,0,0,0,.658,7.12A13.132,13.132,0,0,0,89,97.585c.169.2.327.419.474.609l-4.163,1.971a1.624,1.624,0,0,0-.22-.423,12.158,12.158,0,0,0-18.551-.1.73.73,0,0,1-1.124.2c-1.086-.613-2.242-1.1-3.394-1.652M84.781,52.113c0-1.154.011-2.092,0-3.03A12.348,12.348,0,0,0,74.427,37.027,12.08,12.08,0,0,0,62.3,42.54c-1.315,2.222-2.59,4.47-3.8,6.751A12.9,12.9,0,0,0,57.36,59.442c2.32,7.551,9.781,11.546,17.089,9.122a14.322,14.322,0,0,0,9.41-9.1,18.515,18.515,0,0,0,.922-7.353" transform="translate(-5.405 -4.453)" fill="#abffff"/>
    <path id="Trazado_705815" data-name="Trazado 705815" d="M10.2,102.248c-.066-2.9-.238-5.662-.165-8.419a61.933,61.933,0,0,1,1.649-13.041,60.111,60.111,0,0,1,6.765-17c1.367-2.268,2.863-4.458,4.282-6.694a1.116,1.116,0,0,1,1.085-.539q4.668.029,9.336.014a9.075,9.075,0,0,1,9.275,7.3,8.493,8.493,0,0,1-2.479,8.352c-.8.775-1.747,1.4-2.592,2.136A28.38,28.38,0,0,0,28.8,87.124c-2.659,8.076-8.319,12.895-16.519,14.834-.616.146-1.259.178-2.085.29" transform="translate(-4.499 -25.399)" fill="#03a4a4"/>
    <path id="Trazado_705816" data-name="Trazado 705816" d="M49.547,231.344H10.381c.743-7.606,7.9-16.664,18.809-16.995a19.733,19.733,0,0,1,20.356,16.995" transform="translate(-4.662 -96.253)" fill="#ffc403"/>
    <path id="Trazado_705817" data-name="Trazado 705817" d="M131.327,231.351H92.168c.588-7.037,7.336-16.47,18.5-16.989a19.738,19.738,0,0,1,20.654,16.989" transform="translate(-41.39 -96.252)" fill="#06d1d1"/>
    <path id="Trazado_705818" data-name="Trazado 705818" d="M173.851,231.331a19.8,19.8,0,0,1,39.2,0Z" transform="translate(-78.071 -96.249)" fill="#b20d0d"/>
    <path id="Trazado_705819" data-name="Trazado 705819" d="M75.59,206.211a25.115,25.115,0,0,0-13.751-12.384,2.122,2.122,0,0,1,.211-.358,12.434,12.434,0,0,0,3.325-8.692c0-1.3-.123-2.6-.225-3.9a.886.886,0,0,1,.479-1,19.905,19.905,0,0,1,10.65-2.583,20.477,20.477,0,0,1,9.04,2.464,1.1,1.1,0,0,1,.651,1.343,18.959,18.959,0,0,0,.2,6.956,12.559,12.559,0,0,0,3.245,5.755,24.762,24.762,0,0,0-13.828,12.4" transform="translate(-27.77 -79.612)" fill="#b20d0d"/>
    <path id="Trazado_705820" data-name="Trazado 705820" d="M171.168,193.815a24.736,24.736,0,0,0-13.8,12.346,27.385,27.385,0,0,0-5.766-7.525,25.339,25.339,0,0,0-8.018-4.8c.561-.755,1.112-1.424,1.584-2.143a14.194,14.194,0,0,0,1.935-9.022c-.028-.434-.039-.871-.1-1.3-.207-1.387-.267-1.11.918-1.77a19.353,19.353,0,0,1,9.552-2.321,19.953,19.953,0,0,1,9.712,2.53c.605.328.6.711.539,1.269a18.864,18.864,0,0,0,.329,7.42,12.782,12.782,0,0,0,3.12,5.317" transform="translate(-64.477 -79.61)" fill="#ffc403"/>
    <path id="Trazado_705821" data-name="Trazado 705821" d="M33.411,183.026a7.662,7.662,0,0,1,1.13-5.083,6.955,6.955,0,0,1,7.608-2.781,6.754,6.754,0,0,1,4.96,6.223,19.777,19.777,0,0,1-.116,4.036,6.774,6.774,0,0,1-7.044,5.541,6.894,6.894,0,0,1-6.535-6.457c-.02-.526,0-1.053,0-1.479" transform="translate(-14.988 -78.546)" fill="#bf9667"/>
    <path id="Trazado_705822" data-name="Trazado 705822" d="M128.977,183.073a7.529,7.529,0,0,1-1.857,5.723,7,7,0,0,1-7.371,1.818A6.763,6.763,0,0,1,115.2,184.5a21.579,21.579,0,0,1,.139-4.1,6.845,6.845,0,0,1,13.431.151c.137.83.142,1.683.209,2.524" transform="translate(-51.718 -78.567)" fill="#ffe8ce"/>
    <path id="Trazado_705823" data-name="Trazado 705823" d="M196.74,182.9a20.944,20.944,0,0,1,.354-2.912,6.857,6.857,0,0,1,13.468,1.438,19.589,19.589,0,0,1-.111,3.968,6.771,6.771,0,0,1-7.01,5.584,6.894,6.894,0,0,1-6.579-6.488c-.017-.526,0-1.052,0-1.578l-.12-.011" transform="translate(-88.349 -78.556)" fill="#ffe8ce"/>
    <path id="Trazado_705824" data-name="Trazado 705824" d="M169.754,145.75a8.287,8.287,0,0,1-.879,4.737,6.906,6.906,0,0,1-7.332,3.286c-2.667-.532-5.259-3.021-5.424-5.827a15.332,15.332,0,0,1,.185-5.183,6.9,6.9,0,0,1,10.237-3.788,6.764,6.764,0,0,1,3.214,6.773" transform="translate(-70.05 -61.934)" fill="#bf9667"/>
    <path id="Trazado_705825" data-name="Trazado 705825" d="M88.03,145.786a8.117,8.117,0,0,1-.993,4.9,6.932,6.932,0,0,1-9.8,1.926,6.15,6.15,0,0,1-2.831-4.785,20.861,20.861,0,0,1,.088-4.576c.79-4.471,6.338-6.789,10.187-4.375a6.781,6.781,0,0,1,3.354,6.908" transform="translate(-33.375 -61.929)" fill="#ffe8ce"/>
    <path id="Trazado_705826" data-name="Trazado 705826" d="M121.261,74.1a18.507,18.507,0,0,1-.922,7.353,14.321,14.321,0,0,1-9.409,9.1c-7.309,2.424-14.77-1.571-17.09-9.122A12.9,12.9,0,0,1,94.979,71.28c1.21-2.281,2.485-4.529,3.8-6.751a12.079,12.079,0,0,1,12.128-5.514A12.347,12.347,0,0,1,121.26,71.07c.013.938,0,1.877,0,3.031m-5.367-.2-.18,0a20.722,20.722,0,0,0-.047-4.171,6.438,6.438,0,0,0-5.539-5.286,6.156,6.156,0,0,0-6.649,2.85,62.178,62.178,0,0,0-4.1,7.439c-2.22,4.866,1.478,10.753,6.808,11.058a9.223,9.223,0,0,0,9.431-7.445,39.78,39.78,0,0,0,.275-4.442" transform="translate(-41.885 -26.441)" fill="#161615"/>
    <path id="Trazado_705827" data-name="Trazado 705827" d="M120.339,78.329a39.776,39.776,0,0,1-.275,4.442,9.223,9.223,0,0,1-9.431,7.445c-5.33-.305-9.028-6.193-6.808-11.058a62.177,62.177,0,0,1,4.1-7.439,6.156,6.156,0,0,1,6.649-2.85,6.438,6.438,0,0,1,5.539,5.286,20.722,20.722,0,0,1,.047,4.171Z" transform="translate(-46.33 -30.871)" fill="#03a4a4"/>
  </g>
</svg>
