<svg id="Grupo_975090" data-name="Grupo 975090" xmlns="http://www.w3.org/2000/svg" xmlns:xlink="http://www.w3.org/1999/xlink" width="147.092" height="147.293" viewBox="0 0 147.092 147.293">
  <defs>
    <clipPath id="clip-path">
      <rect id="Rectángulo_349250" data-name="Rectángulo 349250" width="147.092" height="147.293" fill="none"/>
    </clipPath>
  </defs>
  <g id="Grupo_975089" data-name="Grupo 975089" clip-path="url(#clip-path)">
    <path id="Trazado_705870" data-name="Trazado 705870" d="M73.564,147.293c-3-.244-5.967-.394-8.907-.751a5.409,5.409,0,0,1-4.755-5.37c-.055-2.106-.032-4.214,0-6.32.008-.566-.127-.835-.717-1.008-2.52-.738-5.019-1.547-7.527-2.322a45.571,45.571,0,0,1-7.924-3.658c-.949-.507-1.879-1.052-2.79-1.623a.654.654,0,0,0-.973.139c-1.529,1.551-3.056,3.107-4.641,4.6a5.373,5.373,0,0,1-5.791,1.181,5.962,5.962,0,0,1-1.661-.971,69.205,69.205,0,0,1-12-12.111,5.347,5.347,0,0,1,.376-7.365c1.452-1.525,2.946-3.013,4.463-4.474a.759.759,0,0,0,.139-1.1c-1.461-2.767-3-5.5-4.31-8.339a54.992,54.992,0,0,1-3.271-9.925.748.748,0,0,0-.89-.669c-1.819.026-3.642-.043-5.457.051C3.5,87.44.791,85.493.425,81.345A72.972,72.972,0,0,1,.16,69.014a41.19,41.19,0,0,1,.553-4.771,5.367,5.367,0,0,1,5.221-4.319c2.129-.056,4.261-.043,6.391-.007.6.01.82-.2.989-.754.872-2.854,1.694-5.73,2.719-8.529a52.041,52.041,0,0,1,4.717-9.41c.343-.555.385-.9-.138-1.4-1.358-1.28-2.651-2.63-3.961-3.961-2.5-2.542-2.762-5.2-.6-8.037A64.715,64.715,0,0,1,28.232,15.711a6.161,6.161,0,0,1,2.477-1.029A4.949,4.949,0,0,1,35.254,16.1c1.595,1.518,3.138,3.091,4.7,4.645a.687.687,0,0,0,.993.165,60.213,60.213,0,0,1,18.309-7.623.7.7,0,0,0,.641-.832c-.014-2.107-.045-4.215.007-6.32A5.649,5.649,0,0,1,64.87.6,64.447,64.447,0,0,1,80.624.379a17.132,17.132,0,0,1,2.408.344,5.465,5.465,0,0,1,4.153,5.226q.064,3.088-.015,6.177a1.051,1.051,0,0,0,.913,1.248c2.436.685,4.867,1.4,7.269,2.189a50.188,50.188,0,0,1,8.8,4.167c.646.364,1.3.716,1.924,1.114a.79.79,0,0,0,1.169-.159c1.344-1.4,2.723-2.761,4.107-4.12,2.576-2.529,5.413-2.661,8.2-.367A77.491,77.491,0,0,1,130.9,27.644c2.226,2.787,2.1,5.627-.389,8.158-1.359,1.382-2.711,2.774-4.111,4.116a.761.761,0,0,0-.155,1.1c1.358,2.552,2.772,5.079,4.007,7.69a51.521,51.521,0,0,1,3.46,10.236,1.078,1.078,0,0,0,1.3,1c1.817-.069,3.638-.05,5.457-.044,3.574.013,5.768,2.009,6.157,5.569a71.522,71.522,0,0,1,.02,15.981c-.3,2.64-1.415,4.656-4.063,5.529a6.2,6.2,0,0,1-1.835.254c-1.939.025-3.879.035-5.816-.028-.746-.025-1.011.241-1.216.933-.841,2.839-1.675,5.684-2.667,8.472a55.156,55.156,0,0,1-4.776,9.461.8.8,0,0,0,.13,1.168c1.4,1.376,2.775,2.778,4.154,4.174a5.622,5.622,0,0,1,.4,8.106,74.912,74.912,0,0,1-11.7,11.611,5.51,5.51,0,0,1-7.716-.338c-1.484-1.427-2.923-2.9-4.376-4.359-.286-.287-.515-.5-.974-.214a63.951,63.951,0,0,1-18.3,7.676c-.569.145-.7.412-.7.95.023,2.035.035,4.071,0,6.106a5.551,5.551,0,0,1-4.946,5.6c-2.894.346-5.809.509-8.693.75m-.3-4.407c2.635-.131,4.977-.245,7.319-.367.262-.014.522-.066.783-.1,1.272-.183,1.558-.472,1.563-1.764.009-2.514-.032-5.028-.025-7.542.005-1.883.539-2.511,2.351-2.954,1.763-.431,3.537-.833,5.275-1.351a54.289,54.289,0,0,0,14.6-6.889c1.724-1.146,2.458-1.032,3.915.405q2.377,2.345,4.688,4.756c1.508,1.571,1.741,1.607,3.386.27l.056-.044A65,65,0,0,0,127.6,116.953c.957-1.185.931-1.681-.144-2.755-1.728-1.725-3.471-3.436-5.171-5.188-1.408-1.449-1.465-2.144-.346-3.849a54.815,54.815,0,0,0,6.53-13.676c.65-2.071,1.143-4.193,1.664-6.3a2.43,2.43,0,0,1,2.62-2.238c.477-.027.957-.013,1.435-.012,2.107,0,4.213.016,6.32.01,1.457,0,1.707-.265,1.857-1.746a83.623,83.623,0,0,0,.262-12.7c-.049-.955-.154-1.908-.273-2.857-.14-1.123-.464-1.4-1.568-1.435-.263-.008-.527,0-.79,0-2.322,0-4.644.028-6.965,0-1.909-.027-2.442-.562-2.931-2.382-.773-2.881-1.515-5.781-2.49-8.6a50.708,50.708,0,0,0-5.68-11.238c-1.125-1.712-1.032-2.536.4-3.981,1.667-1.685,3.352-3.352,5.031-5.026,1.2-1.2,1.229-1.551.136-2.9a69.916,69.916,0,0,0-10.163-10.211c-1.756-1.428-2-1.394-3.6.241q-2.583,2.647-5.237,5.223a1.907,1.907,0,0,1-2.554.316c-.484-.259-.951-.553-1.412-.851A54.572,54.572,0,0,0,90.23,18.261c-1.717-.5-3.474-.872-5.211-1.31a2.357,2.357,0,0,1-2.119-2.63c-.007-.215,0-.431,0-.647.01-2.418.031-4.837.026-7.255,0-1.185-.319-1.576-1.494-1.669C79.356,4.585,77.275,4.38,75.2,4.4c-3.178.025-6.357.2-9.532.362-1.154.061-1.48.494-1.515,1.66-.011.383,0,.766,0,1.149.009,2.2.037,4.406.022,6.609-.012,1.762-.527,2.378-2.257,2.8-.743.18-1.494.326-2.237.507A57,57,0,0,0,41.773,25.3c-1.555,1.022-2.268.938-3.6-.372-1.775-1.746-3.528-3.514-5.3-5.265-1.091-1.078-1.55-1.09-2.748-.1A74.919,74.919,0,0,0,19.5,30.228c-.9,1.115-.885,1.652.115,2.649,1.661,1.657,3.332,3.3,4.986,4.968A7.22,7.22,0,0,1,25.661,39.1c.672,1.093.078,2.026-.5,2.915A57.2,57.2,0,0,0,17,61.781c-.4,1.894-1.1,2.431-3.026,2.436q-3.411.009-6.822-.015c-2.106-.012-2.376.232-2.523,2.332,0,.024,0,.048,0,.072a85.271,85.271,0,0,0-.005,14.059c.156,2,.447,2.293,2.446,2.288,2.442-.006,4.883-.031,7.324-.014a2.208,2.208,0,0,1,2.5,1.962c.269,1.041.461,2.1.728,3.142a56.609,56.609,0,0,0,7.427,16.93c1.328,2.038,1.275,2.543-.43,4.289-1.639,1.678-3.307,3.329-4.972,4.982-1.029,1.021-1.094,1.544-.189,2.642A73.412,73.412,0,0,0,30.2,127.628c1.221.976,1.621.93,2.737-.194q2.732-2.752,5.491-5.479a2.108,2.108,0,0,1,2.919-.379c.356.195.7.408,1.044.63a55.639,55.639,0,0,0,19.251,7.9c2.035.424,2.541,1.074,2.543,3.16,0,2.466-.022,4.932-.018,7.4,0,1.24.287,1.626,1.51,1.726,2.621.214,5.25.345,7.589.493" transform="translate(0 0)"/>
    <path id="Trazado_705871" data-name="Trazado 705871" d="M76.451,146.118c-2.34-.148-4.968-.279-7.589-.493-1.223-.1-1.509-.486-1.51-1.726,0-2.466.021-4.933.018-7.4,0-2.086-.508-2.737-2.542-3.16a55.629,55.629,0,0,1-19.251-7.9c-.34-.222-.687-.435-1.044-.63a2.108,2.108,0,0,0-2.918.379c-1.845,1.811-3.67,3.644-5.491,5.479-1.116,1.123-1.516,1.17-2.737.194A73.437,73.437,0,0,1,22.64,120.117c-.905-1.1-.84-1.622.188-2.642,1.665-1.653,3.333-3.3,4.972-4.982,1.7-1.746,1.758-2.251.43-4.289A56.58,56.58,0,0,1,20.8,91.274c-.267-1.041-.46-2.1-.728-3.142a2.209,2.209,0,0,0-2.5-1.963c-2.442-.017-4.883.009-7.325.014-2,.005-2.29-.293-2.446-2.288a85.271,85.271,0,0,1,.005-14.059c0-.024,0-.048,0-.072.148-2.1.417-2.344,2.524-2.332q3.411.018,6.822.015c1.926-.005,2.629-.542,3.026-2.436A57.2,57.2,0,0,1,28.34,45.244c.582-.889,1.176-1.822.5-2.914a7.22,7.22,0,0,0-1.063-1.253c-1.653-1.664-3.324-3.311-4.986-4.968-1-1-1.017-1.534-.115-2.65A74.92,74.92,0,0,1,33.311,22.8c1.2-.989,1.657-.978,2.748.1,1.771,1.751,3.524,3.519,5.3,5.265,1.332,1.31,2.044,1.393,3.6.372a57,57,0,0,1,17.911-7.823c.743-.182,1.494-.326,2.238-.507,1.729-.42,2.245-1.037,2.256-2.8.014-2.2-.013-4.406-.022-6.609,0-.383-.014-.766,0-1.149.035-1.166.36-1.6,1.514-1.66,3.176-.165,6.353-.337,9.532-.362,2.076-.016,4.155.189,6.229.354,1.174.094,1.49.483,1.493,1.669.006,2.418-.016,4.837-.025,7.255,0,.216,0,.431,0,.647a2.357,2.357,0,0,0,2.12,2.63c1.736.438,3.493.807,5.21,1.31a54.565,54.565,0,0,1,14.294,6.537c.462.3.928.592,1.412.852a1.906,1.906,0,0,0,2.553-.316q2.653-2.577,5.238-5.223c1.6-1.635,1.843-1.669,3.6-.241a69.858,69.858,0,0,1,10.163,10.211c1.093,1.346,1.067,1.7-.137,2.9-1.678,1.673-3.363,3.34-5.03,5.025-1.431,1.446-1.524,2.27-.4,3.981a50.706,50.706,0,0,1,5.679,11.238c.975,2.816,1.717,5.715,2.491,8.6.488,1.82,1.021,2.355,2.93,2.382,2.321.033,4.644.006,6.965,0,.263,0,.528-.006.791,0,1.1.033,1.427.312,1.568,1.434.118.95.224,1.9.273,2.858a83.693,83.693,0,0,1-.262,12.7c-.149,1.482-.4,1.742-1.857,1.746-2.106.006-4.213-.007-6.319-.01-.479,0-.959-.015-1.437.012a2.431,2.431,0,0,0-2.619,2.238c-.521,2.11-1.014,4.232-1.664,6.3a54.78,54.78,0,0,1-6.529,13.675c-1.119,1.706-1.062,2.4.346,3.849,1.7,1.751,3.444,3.462,5.171,5.188,1.075,1.074,1.1,1.569.144,2.755a65,65,0,0,1-10.421,10.352l-.056.044c-1.645,1.337-1.879,1.3-3.387-.271q-2.312-2.408-4.688-4.756c-1.457-1.437-2.19-1.551-3.915-.405a54.3,54.3,0,0,1-14.6,6.889c-1.739.518-3.512.92-5.275,1.351-1.812.443-2.346,1.071-2.351,2.954-.007,2.514.035,5.027.025,7.542,0,1.292-.291,1.581-1.563,1.764-.26.037-.52.089-.783.1-2.341.121-4.683.236-7.318.367m2.766-27.841a1.66,1.66,0,0,1-.293.077,45.778,45.778,0,0,1-10.992-.832c-.53-.12-.613-.329-.608-.82.033-3.328.037-6.656.029-9.984a9.387,9.387,0,0,0-.165-1.5,7.6,7.6,0,0,0-2.378-4.165c-3.375-3.363-6.732-6.743-10.124-10.088a3.818,3.818,0,0,1-1.17-3.028c.059-2.082.056-4.166.024-6.249a.954.954,0,0,1,.664-1.07,6.549,6.549,0,0,0,3.649-7.864,6.72,6.72,0,0,0-7.266-4.888,6.816,6.816,0,0,0-5.88,6.443A6.312,6.312,0,0,0,48.5,80.532a1.056,1.056,0,0,1,.7,1.142c-.06,1.482.05,2.974-.06,4.451A10.4,10.4,0,0,0,52.844,95.1c3.115,2.831,5.983,5.932,8.983,8.89a4.008,4.008,0,0,1,1.264,3.14c-.063,2.728-.027,5.458-.036,8.188,0,.241-.043.482-.071.768a38.789,38.789,0,0,1-11.032-5.809,16.829,16.829,0,0,0-1.766-1.227,2.031,2.031,0,0,0-2.526,3.092,6.142,6.142,0,0,0,.957.863,46.051,46.051,0,0,0,10.9,6.284,45.761,45.761,0,0,0,56.228-18.512,45.054,45.054,0,0,0,6.812-25.9,46.374,46.374,0,0,0-9.938-26.569c-.93-1.185-2.115-1.426-3.118-.671a2.209,2.209,0,0,0-.26,3.2c.144.21.293.416.483.685-.2.024-.314.048-.426.049q-8.007.01-16.014.024c-.562,0-.591-.3-.591-.735,0-3.927-.016-7.853-.024-11.78,0-.2.026-.409.051-.763a31.269,31.269,0,0,1,3.11,1.48c2.317,1.427,4.584,2.938,6.859,4.434a2.429,2.429,0,0,0,1.843.615,2.094,2.094,0,0,0,1.688-1.483,1.839,1.839,0,0,0-.6-2.075,37.287,37.287,0,0,0-2.967-2.259A46.046,46.046,0,0,0,83.345,31.4a42.835,42.835,0,0,0-14.492.258,45.3,45.3,0,0,0-26.16,14.512A46.019,46.019,0,0,0,30.933,73.781a41.769,41.769,0,0,0,.689,11.071A45.981,45.981,0,0,0,40.85,105.3a3.587,3.587,0,0,0,1.083.916,1.937,1.937,0,0,0,2.293-.485,1.89,1.89,0,0,0,.266-2.382c-.53-.878-1.187-1.679-1.773-2.522A40.98,40.98,0,0,1,35.648,70.3a40.142,40.142,0,0,1,12.439-23.69A41.164,41.164,0,0,1,76.251,35.146c.473-.013.687.074.682.615q-.041,4.417-.016,8.835a3.106,3.106,0,0,1-.9,2.338c-2.085,2.079-4.143,4.186-6.282,6.208a3.1,3.1,0,0,1-1.793.714c-1.452.1-2.92-.014-4.376.057a1.476,1.476,0,0,1-1.622-.983A6.607,6.607,0,0,0,54.3,49.552a6.968,6.968,0,0,0-4.971,6.929A6.872,6.872,0,0,0,54.9,62.7a6.655,6.655,0,0,0,7.3-3.95.734.734,0,0,1,.8-.515c1.46.027,2.921-.005,4.38.016a7.35,7.35,0,0,0,5.56-2.235q3.083-3.111,6.175-6.216a6.9,6.9,0,0,0,2.063-5.178c-.03-2.753,0-5.507.01-8.261,0-.276,0-.552,0-1.027,2.238.441,4.336.869,6.441,1.259.658.122.812.468.806,1.094-.04,4-.046,8-.054,12a16.807,16.807,0,0,0,.08,1.936A4.512,4.512,0,0,0,93.2,55.937c6.342.016,12.686-.022,19.029-.011a1.049,1.049,0,0,1,.771.436c.555.975,1.078,1.974,1.536,3,.532,1.186.986,2.407,1.514,3.711-.395.027-.626.055-.857.056q-13.43.008-26.857.022a.752.752,0,0,1-.83-.555,6.6,6.6,0,0,0-7.936-3.765,6.773,6.773,0,0,0-4.808,7.661,6.9,6.9,0,0,0,5.4,5.423,6.658,6.658,0,0,0,7.149-3.656,1.329,1.329,0,0,1,1.469-.826q13.967.019,27.934-.023c.429,0,.643.082.707.564.12.9.371,1.78.483,2.68.161,1.294.247,2.6.371,3.958-.493.023-.87.056-1.248.056-7.158,0-14.315.04-21.471-.025A7.964,7.964,0,0,0,89.4,77.183c-1.858,1.933-3.8,3.785-5.682,5.693a3.228,3.228,0,0,1-2.445.993c-2.2-.014-4.4-.025-6.606.01a.91.91,0,0,1-1.008-.631,6.6,6.6,0,0,0-7.076-3.87,6.7,6.7,0,0,0-.5,13.18,6.726,6.726,0,0,0,7.569-3.832.806.806,0,0,1,.892-.585c2.394.021,4.787.008,7.181.006a6.64,6.64,0,0,0,4.925-2.13c1.872-1.92,3.787-3.8,5.638-5.736a4.237,4.237,0,0,1,3.318-1.361c7.277.04,14.554.018,21.831.019.257,0,.514.021.953.041-.337,2.22-.686,4.358-.975,6.5-.076.564-.293.686-.826.684-5.578-.018-11.154,0-16.732-.014a7.348,7.348,0,0,0-5.49,2.213q-6.347,6.4-12.736,12.756a7.787,7.787,0,0,0-2.432,5.782c.013,2.681.01,5.363.014,8.045,0,1.1,0,2.2,0,3.326" transform="translate(-3.183 -3.232)" fill="#abffff"/>
    <path id="Trazado_705872" data-name="Trazado 705872" d="M96.348,135.4c0-1.131,0-2.228,0-3.326,0-2.682,0-5.363-.013-8.045a7.788,7.788,0,0,1,2.431-5.782q6.39-6.356,12.736-12.756a7.349,7.349,0,0,1,5.49-2.214c5.577.013,11.154,0,16.732.014.532,0,.75-.119.826-.684.289-2.146.637-4.285.975-6.5-.439-.02-.7-.041-.953-.041-7.277,0-14.554.021-21.831-.019a4.234,4.234,0,0,0-3.318,1.361c-1.852,1.938-3.767,3.816-5.638,5.736a6.641,6.641,0,0,1-4.925,2.13c-2.393,0-4.787.015-7.181-.006a.807.807,0,0,0-.892.585,6.726,6.726,0,0,1-7.569,3.833,6.7,6.7,0,0,1,.5-13.18,6.6,6.6,0,0,1,7.077,3.87A.91.91,0,0,0,91.8,101c2.2-.035,4.4-.024,6.606-.01a3.221,3.221,0,0,0,2.444-.993c1.884-1.908,3.825-3.76,5.683-5.692a7.961,7.961,0,0,1,6.151-2.542c7.157.064,14.314.026,21.471.025.377,0,.755-.033,1.248-.056-.124-1.361-.21-2.664-.371-3.958-.112-.9-.362-1.781-.482-2.68-.065-.481-.279-.565-.708-.564q-13.967.03-27.934.023a1.326,1.326,0,0,0-1.468.826,6.659,6.659,0,0,1-7.149,3.656,6.9,6.9,0,0,1-5.4-5.423A6.773,6.773,0,0,1,96.7,75.946a6.6,6.6,0,0,1,7.936,3.765.751.751,0,0,0,.829.554q13.428-.027,26.857-.022c.231,0,.463-.029.857-.055-.527-1.3-.981-2.525-1.513-3.711-.459-1.024-.981-2.023-1.537-3a1.047,1.047,0,0,0-.771-.437c-6.343-.011-12.686.027-19.029.012a4.511,4.511,0,0,1-4.737-4.317,16.8,16.8,0,0,1-.08-1.935c.007-4,.014-8,.053-12,.006-.626-.148-.972-.806-1.094-2.1-.39-4.2-.819-6.44-1.26,0,.476,0,.752,0,1.028-.006,2.753-.04,5.507-.01,8.261a6.9,6.9,0,0,1-2.064,5.178q-3.094,3.1-6.175,6.215a7.35,7.35,0,0,1-5.56,2.235c-1.46-.022-2.921.01-4.38-.017a.735.735,0,0,0-.8.515,6.655,6.655,0,0,1-7.305,3.95A6.873,6.873,0,0,1,66.462,73.6a6.967,6.967,0,0,1,4.971-6.929,6.607,6.607,0,0,1,7.641,3.379,1.476,1.476,0,0,0,1.622.983c1.456-.071,2.924.047,4.376-.057a3.1,3.1,0,0,0,1.793-.713c2.139-2.022,4.2-4.13,6.282-6.208a3.1,3.1,0,0,0,.9-2.338q-.023-4.417.016-8.835c.005-.542-.209-.628-.682-.615A41.161,41.161,0,0,0,65.218,63.726a40.14,40.14,0,0,0-12.439,23.69,40.98,40.98,0,0,0,7.071,30.528c.587.844,1.244,1.644,1.774,2.522a1.891,1.891,0,0,1-.266,2.383,1.938,1.938,0,0,1-2.293.484,3.571,3.571,0,0,1-1.083-.916,45.98,45.98,0,0,1-9.228-20.446A41.745,41.745,0,0,1,48.065,90.9,46.02,46.02,0,0,1,59.824,63.291a45.3,45.3,0,0,1,26.16-14.512,42.838,42.838,0,0,1,14.493-.258,46.067,46.067,0,0,1,19.307,7.621,37.152,37.152,0,0,1,2.966,2.26,1.839,1.839,0,0,1,.6,2.075,2.1,2.1,0,0,1-1.688,1.483,2.433,2.433,0,0,1-1.843-.615c-2.275-1.5-4.542-3.006-6.859-4.434a31.281,31.281,0,0,0-3.111-1.48c-.024.354-.051.558-.051.762.008,3.927.024,7.854.024,11.781,0,.436.031.736.592.735q8.007-.025,16.013-.024c.112,0,.224-.025.426-.049-.19-.269-.34-.474-.483-.685a2.208,2.208,0,0,1,.26-3.2c1-.755,2.188-.514,3.118.672a46.374,46.374,0,0,1,9.938,26.569,46.087,46.087,0,0,1-31.619,45.5,44.215,44.215,0,0,1-31.421-1.09,46.05,46.05,0,0,1-10.9-6.284,6.171,6.171,0,0,1-.957-.863,2.031,2.031,0,0,1,2.526-3.093,16.767,16.767,0,0,1,1.765,1.227A38.809,38.809,0,0,0,80.115,133.2c.028-.286.07-.527.071-.769.01-2.729-.027-5.46.036-8.187a4.006,4.006,0,0,0-1.263-3.141c-3-2.958-5.869-6.059-8.983-8.889a10.405,10.405,0,0,1-3.707-8.971c.11-1.477,0-2.969.059-4.452a1.054,1.054,0,0,0-.7-1.141,6.312,6.312,0,0,1-3.792-6.221,6.816,6.816,0,0,1,5.88-6.443,6.719,6.719,0,0,1,7.266,4.888,6.549,6.549,0,0,1-3.649,7.864.953.953,0,0,0-.664,1.07c.032,2.083.035,4.167-.024,6.248a3.819,3.819,0,0,0,1.17,3.028c3.392,3.345,6.75,6.725,10.124,10.088a7.6,7.6,0,0,1,2.377,4.165,9.465,9.465,0,0,1,.167,1.5c.007,3.328,0,6.656-.031,9.984,0,.492.079.7.609.821a45.781,45.781,0,0,0,10.992.832,1.727,1.727,0,0,0,.293-.077m36.762-27.751c-.273-.025-.478-.062-.685-.062-5.145-.005-10.292.007-15.437-.019a3.489,3.489,0,0,0-2.643,1.055c-1.163,1.173-2.338,2.334-3.506,3.5-2.945,2.945-5.873,5.908-8.843,8.828a4.309,4.309,0,0,0-1.422,3.365c.068,3.351.022,6.7.027,10.055a5.226,5.226,0,0,0,.071.609,41.31,41.31,0,0,0,32.437-27.333M98.524,79.974A2.3,2.3,0,0,0,96.1,82.468a2.318,2.318,0,0,0,2.4,2.313,2.263,2.263,0,0,0,2.426-2.411,2.331,2.331,0,0,0-2.4-2.4M70.886,91.654a2.512,2.512,0,0,0-2.564-2.447,2.349,2.349,0,0,0-2.249,2.4,2.4,2.4,0,0,0,2.305,2.443,2.448,2.448,0,0,0,2.508-2.4m13.691,9.14a2.22,2.22,0,0,0-2.375,2.288,2.411,2.411,0,1,0,4.819.147,2.407,2.407,0,0,0-2.444-2.435M73.113,75.55a2.267,2.267,0,0,0,2.377-2.317,2.472,2.472,0,0,0-2.55-2.449,2.385,2.385,0,0,0,.173,4.766" transform="translate(-20.315 -20.349)" fill="#03a4a4"/>
    <path id="Trazado_705873" data-name="Trazado 705873" d="M171.81,151.425a41.31,41.31,0,0,1-32.437,27.333,5.255,5.255,0,0,1-.071-.609c-.005-3.352.041-6.7-.026-10.055a4.306,4.306,0,0,1,1.421-3.365c2.97-2.92,5.9-5.883,8.843-8.828,1.168-1.168,2.343-2.329,3.506-3.5a3.492,3.492,0,0,1,2.643-1.056c5.145.027,10.292.014,15.438.019.206,0,.411.036.684.062" transform="translate(-59.015 -64.13)" fill="#abffff"/>
    <path id="Trazado_705874" data-name="Trazado 705874" d="M133.932,103.469a2.33,2.33,0,0,1,2.4,2.395,2.263,2.263,0,0,1-2.426,2.411,2.318,2.318,0,0,1-2.4-2.313,2.294,2.294,0,0,1,2.425-2.493" transform="translate(-55.724 -43.843)" fill="#ffc403"/>
    <path id="Trazado_705875" data-name="Trazado 705875" d="M84.218,121.935a2.448,2.448,0,0,1-2.508,2.4,2.4,2.4,0,0,1-2.305-2.443,2.349,2.349,0,0,1,2.249-2.4,2.512,2.512,0,0,1,2.564,2.447" transform="translate(-33.647 -50.631)" fill="#ffc403"/>
    <path id="Trazado_705876" data-name="Trazado 705876" d="M109.769,139.6a2.408,2.408,0,0,1,2.444,2.435,2.411,2.411,0,1,1-4.819-.147,2.22,2.22,0,0,1,2.375-2.288" transform="translate(-45.506 -59.152)" fill="#ffc403"/>
    <path id="Trazado_705877" data-name="Trazado 705877" d="M89.839,92.286a2.385,2.385,0,0,1-.173-4.766,2.472,2.472,0,0,1,2.55,2.449,2.267,2.267,0,0,1-2.377,2.317" transform="translate(-37.041 -37.085)" fill="#ffc403"/>
  </g>
</svg>
