<svg id="Grupo_1003210" data-name="Grupo 1003210" xmlns="http://www.w3.org/2000/svg" xmlns:xlink="http://www.w3.org/1999/xlink" width="130.395" height="130.395" viewBox="0 0 130.395 130.395">
  <defs>
    <clipPath id="clip-path">
      <rect id="Rectángulo_353139" data-name="Rectángulo 353139" width="107.645" height="103.18" fill="none"/>
    </clipPath>
  </defs>
  <path id="Trazado_715029" data-name="Trazado 715029" d="M65.2,0A65.2,65.2,0,1,1,0,65.2,65.2,65.2,0,0,1,65.2,0" fill="#ffe8ce"/>
  <g id="Grupo_1003212" data-name="Grupo 1003212" transform="translate(17 21)">
    <g id="Grupo_1003211" data-name="Grupo 1003211" clip-path="url(#clip-path)">
      <path id="Trazado_715121" data-name="Trazado 715121" d="M82.436,61.538a5.844,5.844,0,0,0,1.79.206c1.1.086,2.2.179,3.286.358,1.145.19,2.284.42,3.428.619,1.469.254,2.916.593,4.354.988a21.518,21.518,0,0,1,6.319,2.6,13.272,13.272,0,0,1,5.049,5.621,9.338,9.338,0,0,1,.816,3.05c.3,3.619.1,7.247.131,10.87.037,5.058.016,10.116.023,15.174a1.922,1.922,0,0,1-2.19,2.158q-49.676,0-99.353-.01a5.86,5.86,0,0,1-5.4-3.43A7.049,7.049,0,0,1,0,96.283Q.008,56.321.013,16.359c0-.758.022-1.516.027-2.274a5.107,5.107,0,0,1,1.087-2.949,6.128,6.128,0,0,1,5.33-2.625c3.667.017,7.335.006,11,.006,1.247,0,2.494-.017,3.74.014.385.01.478-.114.424-.455a2.147,2.147,0,0,1,.16-1.04,1.687,1.687,0,0,1,1.718-1.2c2.638-.008,5.275-.01,7.913.017a.752.752,0,0,0,.823-.484A8.911,8.911,0,0,1,38.3.287,8.143,8.143,0,0,1,41.514.071a9.53,9.53,0,0,1,3.433,1.012A9.136,9.136,0,0,1,49.083,5.51a.519.519,0,0,0,.583.336c2.583-.018,5.167-.021,7.75-.026a2.228,2.228,0,0,1,1.314.3,1.337,1.337,0,0,1,.729,1.194c-.007,1.211,0,1.205,1.211,1.205q6.993,0,13.984,0a6.061,6.061,0,0,1,5.6,2.976,7,7,0,0,1,.955,3.744c-.018,3.938,0,7.876,0,11.814-.212.1-.215.193,0,.284-.025.551-.038,1.1-.08,1.653-.034.445.194.61.592.689a12.2,12.2,0,0,1,9.483,7.753,19.249,19.249,0,0,1,1.13,5.355,21.543,21.543,0,0,1-.066,3.368,20.934,20.934,0,0,1-.9,4.378,17.918,17.918,0,0,1-4.19,7.387,13.848,13.848,0,0,1-4.839,3.341c-.148.064-.335.062-.452.277ZM56.033,9.4c0-.1-.061-.077-.119-.069a25.25,25.25,0,0,0-2.661,0c-1.6-.124-3.213-.049-4.82-.028a1.9,1.9,0,0,1-2.185-1.6,6.024,6.024,0,0,0-1.619-2.639,5.861,5.861,0,0,0-5.409-1.4,5.376,5.376,0,0,0-4.194,3.931A2,2,0,0,1,32.713,9.3q-3.549,0-7.1,0c-.253,0-.446-.027-.445.341.008,2.456,0,4.912-.012,7.368,0,.329.126.421.453.42q8.235-.01,16.471,0c4.461,0,8.922,0,13.382.014.475,0,.657-.112.638-.629-.045-1.209-.017-2.42-.027-3.629-.01-1.262-.028-2.524-.043-3.786M48.7,93.484c.132,0,.1-.1.113-.173a7.3,7.3,0,0,1,.006-1.238c.043-2.384.02-4.769.014-7.153,0-.351-.1-.563-.549-.562-3.27.013-6.54-.022-9.809,0a2.431,2.431,0,0,1-1.509-.505,1.88,1.88,0,0,1-.171-2.316,2.435,2.435,0,0,1,1.9-.657c2.945-.008,5.89,0,8.835,0,.395,0,.789-.022,1.183-.034l.091-.111c.114-.141-.088-.22-.067-.338a19.921,19.921,0,0,0,.094-3.048c.012-.639-.051-.681-.715-.681-3.267,0-6.534-.026-9.8.008a1.746,1.746,0,0,1-1.849-1.888,1.563,1.563,0,0,1,1.005-1.416,9.564,9.564,0,0,1,2.137-.222c.071.109.142.112.215,0,1.988.062,3.976.067,5.964,0a.455.455,0,0,0,.54,0,6.206,6.206,0,0,0,1.519,0q.1.163.217.006a3.9,3.9,0,0,1,.59.035c.516.107.741-.136.858-.609a4.371,4.371,0,0,1,.377-.982,13.178,13.178,0,0,1,3.194-3.993,17.721,17.721,0,0,1,5.969-3.247c.834-.274,1.66-.573,2.49-.861a1.329,1.329,0,0,0-.615-.105q-9.345.007-18.691.013c-1.39,0-2.781,0-4.171-.028A1.78,1.78,0,0,1,36.695,60.8a2.056,2.056,0,0,1,1.885-.842q12.353-.01,24.705-.008A1.72,1.72,0,0,1,65.216,62.1c-.061.576.025.659.6.482.2-.061.393-.022.584-.067,1.718-.4,3.476-.526,5.215-.78a5.476,5.476,0,0,0,2.023-.321,1.181,1.181,0,0,0,.876-.11l-.877-.152c-.874-.637-1.875-1.076-2.732-1.742a16.755,16.755,0,0,1-4.554-5.748,20.622,20.622,0,0,1-2.233-8.634,18,18,0,0,1,.013-1.95c.032-.484-.107-.616-.608-.615-8.455.018-16.911,0-25.366.027a1.814,1.814,0,0,1-1.519-2.515,2.038,2.038,0,0,1,2.016-.969q11.843,0,23.686,0a6.271,6.271,0,0,1,1.912.2.348.348,0,0,0,.5-.3,4.956,4.956,0,0,1,.347-1,12.209,12.209,0,0,1,6.108-7.047.618.618,0,0,0,.384-.664c-.01-3.83-.016-7.66.007-11.49,0-.457-.156-.51-.546-.509-3.559.01-7.118,0-10.678,0-.927,0-.927,0-.923.926a1.529,1.529,0,0,1-1.507,1.691c-1.163.08-2.33.033-3.5.031q-15.23-.033-30.461.024c-1.414.005-2.417-.592-2.26-2.236.034-.361-.085-.446-.436-.444-2.566.015-5.131.008-7.7.008q-1.789,0-3.577,0c-.22,0-.465-.041-.394.317,0,.042,0,.084,0,.126,0,.108-.014.216-.014.324q0,28.635.008,57.27,0,8.533,0,17.066c-.023.168.062.2.2.165.09.006.18.017.269.017l14.741-.01,23.032-.008c.1.218.2.216.295,0l.54.023m29.559,6.226c4.245,0,8.491-.009,12.736.012.486,0,.6-.134.6-.6q-.023-7.314-.007-14.628c0-.848.01-1.7.066-2.544a1.682,1.682,0,0,1,1.3-1.525,1.778,1.778,0,0,1,1.983,1.107,3.009,3.009,0,0,1,.082,1.019c0,5.527,0,11.055-.02,16.582,0,.5.146.591.606.587,2.619-.023,5.239-.014,7.858-.015.694,0,.693,0,.693-.7q-.005-11.3-.007-22.594a7.5,7.5,0,0,0-.721-3.448A10.229,10.229,0,0,0,98.689,68.6a22.706,22.706,0,0,0-5.431-1.868c-2.1-.492-4.2-.85-6.327-1.192-2.263-.364-4.538-.474-6.812-.625A54.762,54.762,0,0,0,73,65.1c-1.473.094-2.928.289-4.377.5a47.627,47.627,0,0,0-7.457,1.641,15.169,15.169,0,0,0-7.187,4.272,5.692,5.692,0,0,0-1.308,2.272,11.7,11.7,0,0,0-.373,2.907q.023,10.622.009,21.243a8.975,8.975,0,0,1-.022,1.083c-.08.645-.056.694.6.694,2.62,0,5.239-.006,7.859.007.511,0,.715-.144.713-.71q-.032-8.047,0-16.095a2.967,2.967,0,0,1,.188-1.532,1.666,1.666,0,0,1,2.7-.474,2.288,2.288,0,0,1,.535,1.743c0,5.473,0,10.947-.025,16.42,0,.545.165.654.669.652,4.245-.018,8.491-.01,12.737-.01M67.517,44.084a29.894,29.894,0,0,0,.277,3.4,16.286,16.286,0,0,0,3.322,7.449A9.143,9.143,0,0,0,76.96,58.5a8.309,8.309,0,0,0,7.5-2.606c3.04-3.125,4.237-6.994,4.475-11.234a16.061,16.061,0,0,0-.2-3.047,10.845,10.845,0,0,0-.955-3.56,8.858,8.858,0,0,0-5.827-4.816,14.828,14.828,0,0,0-6.783-.181,8.866,8.866,0,0,0-6.583,5.188,13.373,13.373,0,0,0-1.067,5.835M3.486,55.811h0q0,20.106,0,40.211c0,.451-.005.905.038,1.353a2.339,2.339,0,0,0,1.067,1.831,3.381,3.381,0,0,0,1.955.506q20.813-.006,41.626,0c.09,0,.181-.006.271,0,.358.025.468-.135.442-.489a10.4,10.4,0,0,1-.02-1.57c.044-.544-.126-.692-.685-.691q-19.81.027-39.62.014a8.05,8.05,0,0,1-.864-.023,1.35,1.35,0,0,1-.872-.41,2.331,2.331,0,0,1-.636-1.8q.046-30.754.023-61.509,0-8.354.02-16.707a1.644,1.644,0,0,1,1.2-1.648,5.242,5.242,0,0,1,1.168-.15c4.191.01,8.383,0,12.574.02.51,0,.6-.155.562-.607a9.7,9.7,0,0,1-.017-1.57c.035-.473-.15-.572-.586-.567-1.843.02-3.686.007-5.528.006q-4.607,0-9.214,0a2.69,2.69,0,0,0-1.623.363,3.11,3.11,0,0,0-1.288,2.849q.029,20.295.013,40.59M67.611,12.027v-.015c-2.511,0-5.022.013-7.533-.012-.453,0-.556.142-.525.554.033.449.01.9,0,1.354-.011.824-.013.824.82.824q6.287-.007,12.574-.015a1.908,1.908,0,0,1,1.959,1.16,3.116,3.116,0,0,1,.173,1.17c0,4.01,0,8.021-.009,12.031,0,.437.079.57.548.439a6.857,6.857,0,0,1,1.389-.167c.71-.048.746-.071.747-.794q0-3.5,0-6.991c0-2.168-.014-4.335-.009-6.5a2.887,2.887,0,0,0-3.093-3.053c-2.346.078-4.7.019-7.045.019" transform="translate(0 0)" fill="#060607"/>
      <path id="Trazado_715122" data-name="Trazado 715122" d="M188.785,141.1h-.547c.116-.215.3-.214.452-.278l.1.278" transform="translate(-106.349 -79.559)" fill="#e7eaed"/>
      <path id="Trazado_715123" data-name="Trazado 715123" d="M186.467,62.471c-.219-.091-.217-.186,0-.284a.289.289,0,0,1,0,.284" transform="translate(-105.256 -35.134)" fill="#948897"/>
      <path id="Trazado_715124" data-name="Trazado 715124" d="M86.12,85.044a5.475,5.475,0,0,1-2.023.321c-1.739.255-3.5.384-5.216.78-.191.044-.385.006-.584.067-.577.177-.664.094-.6-.482a1.72,1.72,0,0,0-1.931-2.159q-12.353-.005-24.706.008a2.056,2.056,0,0,0-1.885.842,1.78,1.78,0,0,0,1.379,2.588c1.39.033,2.781.029,4.171.028q9.345,0,18.691-.013a1.33,1.33,0,0,1,.616.105c-.83.288-1.656.587-2.49.861a17.727,17.727,0,0,0-5.969,3.247,13.191,13.191,0,0,0-3.194,3.993,4.37,4.37,0,0,0-.377.982c-.117.472-.342.716-.859.609a3.9,3.9,0,0,0-.59-.035c-.007-.081-.052-.132-.131-.112-.036.009-.058.069-.086.106a6.206,6.206,0,0,1-1.519,0,.321.321,0,0,0-.54,0c-1.988.069-3.976.064-5.964,0-.07-.168-.142-.169-.215,0A9.564,9.564,0,0,0,49.959,97a1.563,1.563,0,0,0-1.005,1.416A1.746,1.746,0,0,0,50.8,100.3c3.266-.034,6.533-.006,9.8-.008.663,0,.726.043.715.681a19.867,19.867,0,0,1-.094,3.048c-.02.118.182.2.067.338-.069.005-.1.041-.091.11-.394.012-.789.034-1.183.034-2.945,0-5.889-.005-8.834,0a2.436,2.436,0,0,0-1.9.657,1.88,1.88,0,0,0,.171,2.316,2.432,2.432,0,0,0,1.508.505c3.27-.024,6.539.011,9.809,0,.452,0,.548.211.549.562.006,2.384.028,4.769-.014,7.153a7.347,7.347,0,0,0-.006,1.238c-.1.017-.129.08-.113.173l-.541-.023a.209.209,0,0,0-.295,0l-23.032.008q-7.37,0-14.74.01c-.09,0-.18-.011-.269-.017,0-.136-.082-.179-.205-.165q0-8.533,0-17.066-.005-28.636-.009-57.27c0-.108.009-.216.014-.324q.119-.061,0-.126c-.071-.358.174-.318.394-.318q1.789,0,3.577,0c2.565,0,5.131.007,7.7-.008.352,0,.471.083.437.444-.157,1.644.846,2.241,2.26,2.236q15.23-.056,30.461-.024c1.166,0,2.333.049,3.5-.031a1.528,1.528,0,0,0,1.507-1.691c0-.926,0-.927.923-.926,3.559,0,7.119.01,10.678,0,.39,0,.548.052.546.509-.022,3.83-.016,7.66-.007,11.489a.618.618,0,0,1-.384.665,12.211,12.211,0,0,0-6.108,7.047,4.981,4.981,0,0,0-.347,1,.348.348,0,0,1-.5.3,6.27,6.27,0,0,0-1.912-.2q-11.843.007-23.686,0a2.039,2.039,0,0,0-2.016.969,1.814,1.814,0,0,0,1.519,2.515c8.455-.025,16.911-.009,25.366-.027.5,0,.64.13.608.615a17.883,17.883,0,0,0-.013,1.95,20.616,20.616,0,0,0,2.234,8.634,16.749,16.749,0,0,0,4.554,5.748c.857.666,1.858,1.1,2.732,1.742v.262M63.341,79.333H75.589a2.749,2.749,0,0,0,1.085-.195,1.593,1.593,0,0,0,1.1-1.528,1.671,1.671,0,0,0-1.057-1.534,4.959,4.959,0,0,0-1.691-.2q-11.923,0-23.844-.007a4.024,4.024,0,0,0-.648.034c-.976.159-1.572.715-1.581,1.457-.016,1.29.745,1.969,2.194,1.968q6.1,0,12.193,0m.049-24.392v.008h-11.7a8.559,8.559,0,0,0-.974.011c-1.391.161-1.813.83-1.759,2.019a1.769,1.769,0,0,0,1.58,1.379c.9-.078,1.8-.028,2.706-.028H72.853a4.433,4.433,0,0,1,.487.007,14.677,14.677,0,0,0,3.115-.037,1.536,1.536,0,0,0,1.259-1.975,1.663,1.663,0,0,0-1.863-1.383q-6.231,0-12.462,0M43.756,77.549a1.866,1.866,0,0,0-.053-.427A1.5,1.5,0,0,0,42.567,76a1.8,1.8,0,0,0-1.866.479,5,5,0,0,1-.57.573c-.878.773-1.77,1.53-2.641,2.31q-1.83,1.641-3.634,3.312a.3.3,0,0,1-.495-.017c-.566-.6-1.115-1.219-1.724-1.771-.317-.287-.565-.668-1.108-.716a1.783,1.783,0,0,0-1.806.643,1.582,1.582,0,0,0,.124,2.136c1.212,1.259,2.483,2.461,3.741,3.675a1.381,1.381,0,0,0,1.768.168,4.21,4.21,0,0,0,.736-.545c.957-.853,1.9-1.724,2.856-2.575,1.8-1.6,3.593-3.194,5.308-4.881a1.7,1.7,0,0,0,.5-1.246M33.592,66.216a1.958,1.958,0,0,0,1.457-.684c.952-.854,1.91-1.7,2.857-2.561q2.6-2.36,5.182-4.734a1.822,1.822,0,0,0,.656-1.187,1.566,1.566,0,0,0-.944-1.7,1.634,1.634,0,0,0-1.987.328C39.5,56.711,38.328,57.907,37.064,59c-1.026.884-1.984,1.847-2.974,2.772-.277.258-.527.393-.868.03-.616-.657-1.275-1.276-1.925-1.9a1.557,1.557,0,0,0-1.66-.432,1.617,1.617,0,0,0-.614,2.887q1.683,1.689,3.379,3.365a1.471,1.471,0,0,0,1.189.5m-3.409,34.9a1.735,1.735,0,0,0-1.731,1.272,1.435,1.435,0,0,0,.532,1.563c1.081,1.14,2.223,2.222,3.317,3.35a1.679,1.679,0,0,0,2.6.057c.763-.681,1.517-1.372,2.283-2.049,2.065-1.827,4.134-3.649,6.09-5.594a1.65,1.65,0,0,0,.037-2.337,1.849,1.849,0,0,0-2.442-.052c-2.215,2.042-4.461,4.051-6.7,6.072-.5.451-.562.444-1.055-.041q-.927-.912-1.863-1.815a1.223,1.223,0,0,0-1.068-.425" transform="translate(-12.479 -23.627)" fill="#abffff"/>
      <path id="Trazado_715125" data-name="Trazado 715125" d="M146.129,183.934c-4.245,0-8.492-.008-12.737.01-.5,0-.672-.107-.67-.652.027-5.473.023-10.947.026-16.42a2.285,2.285,0,0,0-.535-1.743,1.666,1.666,0,0,0-2.7.474,2.961,2.961,0,0,0-.187,1.532q-.033,8.047,0,16.094c0,.566-.2.713-.713.71-2.62-.012-5.239,0-7.859-.006-.657,0-.68-.05-.6-.694a8.8,8.8,0,0,0,.021-1.083q0-10.621-.008-21.243a11.678,11.678,0,0,1,.373-2.907,5.691,5.691,0,0,1,1.308-2.272,15.169,15.169,0,0,1,7.186-4.272,47.594,47.594,0,0,1,7.457-1.641c1.448-.211,2.9-.406,4.377-.5a54.828,54.828,0,0,1,7.115-.187c2.274.151,4.549.261,6.812.625,2.123.341,4.231.7,6.327,1.192a22.7,22.7,0,0,1,5.431,1.867,10.231,10.231,0,0,1,4.743,4.368,7.493,7.493,0,0,1,.721,3.448q0,11.3.007,22.594c0,.7,0,.7-.693.7-2.619,0-5.239-.008-7.859.015-.461,0-.608-.09-.606-.587q.034-8.291.019-16.583a3.029,3.029,0,0,0-.082-1.018,1.778,1.778,0,0,0-1.983-1.108,1.683,1.683,0,0,0-1.3,1.526c-.056.846-.065,1.7-.066,2.544q-.008,7.314.007,14.629c0,.466-.11.6-.6.6-4.245-.021-8.492-.013-12.737-.013" transform="translate(-67.865 -84.224)" fill="#06d1d1"/>
      <path id="Trazado_715126" data-name="Trazado 715126" d="M155.2,86.618a13.378,13.378,0,0,1,1.067-5.835,8.867,8.867,0,0,1,6.583-5.189,14.826,14.826,0,0,1,6.783.182,8.857,8.857,0,0,1,5.827,4.816,10.834,10.834,0,0,1,.955,3.56,16.024,16.024,0,0,1,.2,3.047c-.238,4.24-1.435,8.109-4.474,11.234a8.31,8.31,0,0,1-7.5,2.607,9.143,9.143,0,0,1-5.845-3.576,16.293,16.293,0,0,1-3.322-7.449,29.992,29.992,0,0,1-.277-3.4" transform="translate(-87.684 -42.535)" fill="#e7eaed"/>
      <path id="Trazado_715127" data-name="Trazado 715127" d="M8,71.4q0-20.3-.013-40.59a3.11,3.11,0,0,1,1.288-2.848,2.692,2.692,0,0,1,1.623-.363q4.607-.007,9.214,0c1.843,0,3.686.014,5.528-.006.436-.005.621.094.586.567a9.7,9.7,0,0,0,.017,1.57c.04.452-.052.61-.562.607-4.191-.025-8.383-.01-12.574-.02a5.248,5.248,0,0,0-1.168.15,1.643,1.643,0,0,0-1.2,1.649q-.012,8.353-.02,16.707,0,30.755-.024,61.509a2.33,2.33,0,0,0,.636,1.8,1.344,1.344,0,0,0,.872.41,7.939,7.939,0,0,0,.864.023q19.81,0,39.62-.014c.558,0,.728.146.684.691a10.336,10.336,0,0,0,.02,1.57c.025.354-.084.514-.442.489-.09-.007-.181,0-.271,0q-20.813,0-41.625,0a3.387,3.387,0,0,1-1.955-.506,2.339,2.339,0,0,1-1.068-1.831c-.043-.449-.038-.9-.038-1.353q0-20.106,0-40.211Z" transform="translate(-4.511 -15.587)" fill="#b20d0d"/>
      <path id="Trazado_715128" data-name="Trazado 715128" d="M88.7,13.956c.014,1.262.033,2.524.043,3.786.009,1.21-.019,2.421.026,3.629.019.517-.162.631-.638.629-4.461-.016-8.922-.012-13.383-.014q-8.235-.005-16.47,0c-.328,0-.455-.091-.454-.42.011-2.456.02-4.912.012-7.368,0-.368.192-.342.445-.341q3.549.008,7.1,0A2,2,0,0,0,67.7,12.151,5.375,5.375,0,0,1,71.892,8.22a5.862,5.862,0,0,1,5.409,1.4,6.024,6.024,0,0,1,1.619,2.639,1.9,1.9,0,0,0,2.185,1.6c1.607-.021,3.222-.1,4.82.028a25.242,25.242,0,0,1,2.66,0,.08.08,0,0,0,.119.069M75.215,12.591A1.884,1.884,0,0,0,73.2,10.535a2.057,2.057,0,0,0-1.9,2.008,2.192,2.192,0,0,0,1.912,1.978,1.949,1.949,0,0,0,2.009-1.93" transform="translate(-32.672 -4.559)" fill="#f2ad5a"/>
      <path id="Trazado_715129" data-name="Trazado 715129" d="M144.945,27.612c2.348,0,4.7.059,7.045-.019a2.887,2.887,0,0,1,3.094,3.053c-.006,2.167.007,4.335.009,6.5q0,3.5,0,6.991c0,.723-.037.746-.747.794a6.857,6.857,0,0,0-1.389.167c-.469.132-.549,0-.548-.439.012-4.01.006-8.021.009-12.031a3.116,3.116,0,0,0-.173-1.17,1.908,1.908,0,0,0-1.959-1.16q-6.287,0-12.574.015c-.834,0-.832,0-.82-.824.006-.452.03-.905,0-1.354-.03-.412.072-.558.525-.554,2.511.025,5.022.012,7.533.012v.015" transform="translate(-77.334 -15.585)" fill="#b20d0d"/>
      <path id="Trazado_715130" data-name="Trazado 715130" d="M169.277,140.84v-.262l.877.153a1.183,1.183,0,0,1-.876.109" transform="translate(-95.636 -79.423)" fill="#948897"/>
      <path id="Trazado_715131" data-name="Trazado 715131" d="M105.272,167.959a.321.321,0,0,1,.54,0,.454.454,0,0,1-.54,0" transform="translate(-59.476 -94.809)" fill="#948897"/>
      <path id="Trazado_715132" data-name="Trazado 715132" d="M110.037,214.769a.209.209,0,0,1,.295,0c-.095.221-.193.224-.295,0" transform="translate(-62.168 -121.303)" fill="#948897"/>
      <path id="Trazado_715133" data-name="Trazado 715133" d="M91.068,167.989q.11-.251.215,0c-.073.11-.144.107-.215,0" transform="translate(-51.451 -94.839)" fill="#948897"/>
      <path id="Trazado_715134" data-name="Trazado 715134" d="M110,168.017c.028-.037.051-.1.086-.106.079-.02.124.031.131.112q-.113.157-.217-.006" transform="translate(-62.15 -94.863)" fill="#948897"/>
      <path id="Trazado_715135" data-name="Trazado 715135" d="M22.113,214.472c.124-.013.2.03.2.165-.143.037-.228,0-.2-.165" transform="translate(-12.491 -121.169)" fill="#948897"/>
      <path id="Trazado_715136" data-name="Trazado 715136" d="M128.648,21.5a.08.08,0,0,1-.119-.069c.058-.007.121-.026.119.069" transform="translate(-72.615 -12.106)" fill="#948897"/>
      <path id="Trazado_715137" data-name="Trazado 715137" d="M111.952,214.669c-.016-.093.013-.156.113-.173-.012.074.02.177-.113.173" transform="translate(-63.247 -121.184)" fill="#948897"/>
      <path id="Trazado_715138" data-name="Trazado 715138" d="M22.122,42.565c.078.043.077.085,0,.126,0-.042,0-.084,0-.126" transform="translate(-12.497 -24.048)" fill="#948897"/>
      <path id="Trazado_715139" data-name="Trazado 715139" d="M111.991,185.7c-.01-.07.023-.105.091-.111l-.091.111" transform="translate(-63.271 -104.85)" fill="#948897"/>
      <path id="Trazado_715140" data-name="Trazado 715140" d="M98.232,123.559q-6.1,0-12.193,0c-1.449,0-2.21-.678-2.194-1.968.009-.741.605-1.3,1.581-1.456a4.021,4.021,0,0,1,.648-.034q11.922,0,23.844.007a4.961,4.961,0,0,1,1.691.2,1.671,1.671,0,0,1,1.056,1.534,1.593,1.593,0,0,1-1.1,1.528,2.75,2.75,0,0,1-1.085.195l-12.247,0" transform="translate(-47.37 -67.854)" fill="#060607"/>
      <path id="Trazado_715141" data-name="Trazado 715141" d="M98.273,71.982q6.23,0,12.462,0a1.663,1.663,0,0,1,1.863,1.384,1.536,1.536,0,0,1-1.259,1.975,14.649,14.649,0,0,1-3.115.037,4.44,4.44,0,0,0-.488-.007H88.121c-.9,0-1.81-.051-2.705.028a1.77,1.77,0,0,1-1.58-1.38c-.054-1.189.368-1.858,1.759-2.019a8.466,8.466,0,0,1,.975-.011h11.7Z" transform="translate(-47.362 -40.667)" fill="#060607"/>
      <path id="Trazado_715142" data-name="Trazado 715142" d="M51.915,121.862a1.7,1.7,0,0,1-.5,1.246c-1.715,1.686-3.511,3.284-5.308,4.881-.958.851-1.9,1.722-2.856,2.575a4.193,4.193,0,0,1-.737.545,1.38,1.38,0,0,1-1.767-.168c-1.259-1.214-2.529-2.416-3.741-3.675a1.582,1.582,0,0,1-.124-2.136,1.783,1.783,0,0,1,1.807-.644c.542.048.79.43,1.107.716.609.552,1.158,1.172,1.724,1.771a.3.3,0,0,0,.5.017q1.808-1.667,3.633-3.312c.871-.781,1.763-1.537,2.641-2.31a5.027,5.027,0,0,0,.57-.573,1.8,1.8,0,0,1,1.866-.479,1.5,1.5,0,0,1,1.136,1.12,1.842,1.842,0,0,1,.053.427" transform="translate(-20.638 -67.94)" fill="#060607"/>
      <path id="Trazado_715143" data-name="Trazado 715143" d="M41.744,83.523a1.465,1.465,0,0,1-1.189-.5q-1.693-1.679-3.379-3.365a1.616,1.616,0,0,1,.614-2.887,1.558,1.558,0,0,1,1.659.432c.651.625,1.309,1.244,1.925,1.9.34.363.591.228.868-.03.99-.926,1.948-1.888,2.973-2.772,1.264-1.089,2.432-2.285,3.751-3.313a1.635,1.635,0,0,1,1.987-.328,1.566,1.566,0,0,1,.943,1.7,1.823,1.823,0,0,1-.656,1.188q-2.588,2.371-5.183,4.733c-.946.86-1.9,1.708-2.857,2.561a1.949,1.949,0,0,1-1.457.683" transform="translate(-20.631 -40.935)" fill="#060607"/>
      <path id="Trazado_715144" data-name="Trazado 715144" d="M38.347,172.641a1.223,1.223,0,0,1,1.068.425q.938.9,1.863,1.814c.493.485.555.492,1.055.041,2.236-2.02,4.482-4.03,6.7-6.072a1.849,1.849,0,0,1,2.442.052,1.65,1.65,0,0,1-.037,2.337c-1.956,1.944-4.025,3.767-6.09,5.594-.766.677-1.52,1.368-2.283,2.049a1.679,1.679,0,0,1-2.6-.057c-1.094-1.128-2.236-2.21-3.317-3.35a1.435,1.435,0,0,1-.532-1.564,1.735,1.735,0,0,1,1.731-1.272" transform="translate(-20.644 -95.15)" fill="#060607"/>
      <path id="Trazado_715145" data-name="Trazado 715145" d="M92.7,15.794a1.949,1.949,0,0,1-2.009,1.93,2.192,2.192,0,0,1-1.912-1.978,2.057,2.057,0,0,1,1.9-2.008A1.884,1.884,0,0,1,92.7,15.794" transform="translate(-50.157 -7.762)" fill="#060607"/>
    </g>
  </g>
</svg>
