<svg xmlns="http://www.w3.org/2000/svg" xmlns:xlink="http://www.w3.org/1999/xlink" width="130" height="130" viewBox="0 0 130 130">
  <defs>
    <clipPath id="clip-path">
      <rect id="Rectángulo_353116" data-name="Rectángulo 353116" width="130" height="130" fill="none"/>
    </clipPath>
  </defs>
  <g id="Grupo_1003183" data-name="Grupo 1003183" clip-path="url(#clip-path)">
    <path id="Trazado_715016" data-name="Trazado 715016" d="M65.2,0A65.2,65.2,0,1,1,0,65.2,65.2,65.2,0,0,1,65.2,0" fill="#ffe8ce"/>
    <path id="Trazado_715017" data-name="Trazado 715017" d="M101.292,97.346V35.918c0-1.915,1.176-3.477,2.619-3.477h8.357c1.442,0,2.619,1.563,2.619,3.477V97.343l-6.076,11.7a.81.81,0,0,1-1.439,0Z" transform="translate(6.97 2.232)" fill="#b20d0d" fill-rule="evenodd"/>
    <path id="Trazado_715018" data-name="Trazado 715018" d="M101.292,42.581h13.59V35.918c0-1.915-1.176-3.477-2.619-3.477h-8.353c-1.442,0-2.619,1.563-2.619,3.477v6.663Z" transform="translate(6.97 2.232)" fill="#ffc403" fill-rule="evenodd"/>
    <path id="Trazado_715019" data-name="Trazado 715019" d="M114.878,93.175H101.3l6.072,11.693a.81.81,0,0,0,1.439,0Z" transform="translate(6.97 6.411)" fill="#1f2327" fill-rule="evenodd"/>
    <path id="Trazado_715020" data-name="Trazado 715020" d="M96.65,26.7a4.223,4.223,0,0,1,4.215,4.215v84.625a4.223,4.223,0,0,1-4.215,4.215H25.823a4.223,4.223,0,0,1-4.215-4.215V30.911A4.223,4.223,0,0,1,25.823,26.7Z" transform="translate(1.487 1.837)" fill="#a03d3d" fill-rule="evenodd"/>
    <path id="Trazado_715021" data-name="Trazado 715021" d="M28.034,34.743v76.078a1.625,1.625,0,0,0,1.621,1.621H82.8a1.563,1.563,0,0,0,1.147-.472l9.138-9.138a1.566,1.566,0,0,0,.475-1.146V34.743a1.625,1.625,0,0,0-1.621-1.621H29.655a1.625,1.625,0,0,0-1.621,1.621" transform="translate(1.929 2.279)" fill="#abffff" fill-rule="evenodd"/>
    <path id="Trazado_715022" data-name="Trazado 715022" d="M79.9,98.706v9.137a1.625,1.625,0,0,0,.475-.335l9.138-9.138a1.6,1.6,0,0,0,.333-.475H80.707a.812.812,0,0,0-.81.81Z" transform="translate(5.498 6.736)" fill="#cfcfcf" fill-rule="evenodd"/>
    <path id="Trazado_715023" data-name="Trazado 715023" d="M44.336,27.136h8.615a6.834,6.834,0,1,1,13.669,0h8.615a1.625,1.625,0,0,1,1.621,1.621v6.914a1.625,1.625,0,0,1-1.621,1.621h-30.9a1.625,1.625,0,0,1-1.621-1.621V28.757a1.625,1.625,0,0,1,1.621-1.621" transform="translate(2.939 1.397)" fill="#ffdbdb" fill-rule="evenodd"/>
    <path id="Trazado_715024" data-name="Trazado 715024" d="M38.489,88.466h8.63a.812.812,0,0,1,.81.81V97.9a.812.812,0,0,1-.81.81h-8.63a.812.812,0,0,1-.81-.81V89.276a.812.812,0,0,1,.81-.81" transform="translate(2.593 6.087)" fill="#db0029" fill-rule="evenodd"/>
    <path id="Trazado_715025" data-name="Trazado 715025" d="M38.489,73.112h8.63a.812.812,0,0,1,.81.81v8.625a.812.812,0,0,1-.81.81h-8.63a.812.812,0,0,1-.81-.81V73.922a.812.812,0,0,1,.81-.81" transform="translate(2.593 5.031)" fill="#ffce00" fill-rule="evenodd"/>
    <path id="Trazado_715026" data-name="Trazado 715026" d="M38.489,57.758h8.63a.812.812,0,0,1,.81.81V67.2a.812.812,0,0,1-.81.81h-8.63a.812.812,0,0,1-.81-.81V58.568a.812.812,0,0,1,.81-.81" transform="translate(2.593 3.974)" fill="#48a253" fill-rule="evenodd"/>
    <path id="Trazado_715027" data-name="Trazado 715027" d="M38.489,42.4h8.63a.812.812,0,0,1,.81.81v8.627a.812.812,0,0,1-.81.81h-8.63a.812.812,0,0,1-.81-.81V43.214a.812.812,0,0,1,.81-.81" transform="translate(2.593 2.918)" fill="#1963ae" fill-rule="evenodd"/>
    <path id="Trazado_715028" data-name="Trazado 715028" d="M113.68,107.641l-3.955-7.62h7.909Zm-5.075-62.393h10.154V96.577H108.605Zm.9-10.137h8.352c.321,0,.9.667.9,1.755V41.8H108.6V36.867c0-1.088.588-1.756.9-1.756m8.352-3.444H109.5c-2.389,0-4.338,2.333-4.338,5.2V98.293a1.763,1.763,0,0,0,.191.793l6.794,13.085a1.724,1.724,0,0,0,3.058,0L122,99.086a1.763,1.763,0,0,0,.191-.793V36.867c0-2.867-1.94-5.2-4.339-5.2M56.38,102a1.726,1.726,0,0,1,1.729-1.723H70.953a1.723,1.723,0,0,1,0,3.445H58.109A1.725,1.725,0,0,1,56.38,102m0-7.225a1.726,1.726,0,0,1,1.729-1.723H83.794a1.723,1.723,0,0,1,0,3.445H58.11a1.725,1.725,0,0,1-1.729-1.722Zm-8.963,7.015h-6.8v-6.8h6.8Zm1.729-10.249H38.892a1.724,1.724,0,0,0-1.72,1.723v10.248a1.724,1.724,0,0,0,1.72,1.722H49.145a1.724,1.724,0,0,0,1.72-1.722V93.266a1.725,1.725,0,0,0-1.719-1.723m7.234-5.952a1.725,1.725,0,0,1,1.729-1.722H70.953a1.722,1.722,0,0,1,0,3.444H58.109a1.725,1.725,0,0,1-1.729-1.722m0-7.223a1.726,1.726,0,0,1,1.729-1.723H83.794a1.723,1.723,0,0,1,0,3.445H58.11a1.725,1.725,0,0,1-1.729-1.722Zm-8.963,7.017h-6.8V78.578h6.8Zm1.729-10.248H38.892a1.724,1.724,0,0,0-1.72,1.719V87.1a1.724,1.724,0,0,0,1.72,1.722H49.145a1.724,1.724,0,0,0,1.72-1.722V76.856a1.725,1.725,0,0,0-1.719-1.723Zm7.234-5.952a1.725,1.725,0,0,1,1.729-1.722H70.953a1.723,1.723,0,0,1,0,3.445H58.109A1.726,1.726,0,0,1,56.38,69.185Zm0-7.224a1.725,1.725,0,0,1,1.729-1.722H83.794a1.722,1.722,0,1,1,0,3.444H58.11a1.725,1.725,0,0,1-1.729-1.722Zm-8.963,7.014h-6.8V62.167h6.8Zm1.729-10.248H38.892a1.725,1.725,0,0,0-1.72,1.723V70.7a1.724,1.724,0,0,0,1.72,1.722H49.145a1.724,1.724,0,0,0,1.72-1.722V60.445a1.725,1.725,0,0,0-1.719-1.723Zm7.234-5.952a1.725,1.725,0,0,1,1.729-1.722H70.953a1.722,1.722,0,0,1,0,3.444H58.109a1.725,1.725,0,0,1-1.729-1.722m0-7.223a1.726,1.726,0,0,1,1.729-1.723H83.794a1.723,1.723,0,0,1,0,3.445H58.11a1.725,1.725,0,0,1-1.729-1.722Zm-15.768.214h6.8v6.8h-6.8Zm-3.439-1.731V54.283A1.724,1.724,0,0,0,38.892,56H49.145a1.724,1.724,0,0,0,1.721-1.722V44.034a1.724,1.724,0,0,0-1.72-1.722H38.892a1.724,1.724,0,0,0-1.72,1.722M99.25,116.087V31.462a2.494,2.494,0,0,0-2.485-2.494H80.138v3.42h13.97a1.724,1.724,0,0,1,1.72,1.723v69.234a1.716,1.716,0,0,1-.507,1.217L85.239,114.652a1.734,1.734,0,0,1-1.223.5H28.591a1.725,1.725,0,0,1-1.729-1.722V34.115a1.726,1.726,0,0,1,1.729-1.723H42.553v-3.42H25.934a2.5,2.5,0,0,0-2.495,2.494v84.622a2.5,2.5,0,0,0,2.495,2.492H96.765a2.494,2.494,0,0,0,2.485-2.492m-9.3-11.019-4.2,4.209v-4.209ZM78.417,39.123H44.273a1.724,1.724,0,0,1-1.72-1.723V35.837H30.311v75.875H82.3v-8.366a1.724,1.724,0,0,1,1.72-1.723h8.371V35.837H80.138V37.4a1.723,1.723,0,0,1-1.72,1.723ZM46,28.969h8.514a1.724,1.724,0,0,0,1.721-1.727,5.113,5.113,0,0,1,10.225,0,1.717,1.717,0,0,0,1.713,1.722H76.7v6.722H46Zm50.763-3.445H69.731a8.556,8.556,0,0,0-16.762,0H25.934A5.939,5.939,0,0,0,20,31.462v84.626a5.94,5.94,0,0,0,5.934,5.937H96.765a5.945,5.945,0,0,0,5.934-5.937V31.462a5.944,5.944,0,0,0-5.934-5.938" transform="translate(1.376 1.286)" fill="#040405" fill-rule="evenodd"/>
  </g>
</svg>
